<?xml version="1.0" encoding="UTF-8"?><svg id="Layer_2" xmlns="http://www.w3.org/2000/svg" viewBox="0 0 733.87 276.55"><defs><style>.cls-1{letter-spacing:0em;}.cls-2{letter-spacing:-.02em;}.cls-3{letter-spacing:-.02em;}.cls-4{letter-spacing:-.02em;}.cls-5{letter-spacing:-.01em;}.cls-6{letter-spacing:-.02em;}.cls-7{letter-spacing:-.04em;}.cls-8{font-family:Montserrat-SemiBold, Montserrat;font-size:50px;font-weight:600;}.cls-8,.cls-9{fill:#fff;}.cls-10{letter-spacing:-.03em;}.cls-11{letter-spacing:-.02em;}.cls-12{letter-spacing:-.02em;}.cls-13{letter-spacing:0em;}.cls-14{letter-spacing:0em;}.cls-15{letter-spacing:0em;}.cls-16{letter-spacing:0em;}.cls-17{letter-spacing:-.01em;}.cls-18{letter-spacing:-.02em;}.cls-19{fill:#b11fff;stroke-width:0px;}.cls-20{letter-spacing:-.03em;}.cls-21{letter-spacing:-.01em;}.cls-22{letter-spacing:0em;}.cls-23{letter-spacing:0em;}.cls-24{letter-spacing:-.02em;}.cls-25{letter-spacing:-.02em;}.cls-26{letter-spacing:-.01em;}.cls-27{letter-spacing:-.02em;}.cls-28{letter-spacing:-.02em;}.cls-29{letter-spacing:-.02em;}.cls-30{letter-spacing:.03em;}.cls-31{letter-spacing:-.01em;}.cls-32{letter-spacing:-.02em;}.cls-33{letter-spacing:0em;}.cls-34{letter-spacing:0em;}.cls-35{letter-spacing:-.06em;}.cls-36{letter-spacing:-.01em;}.cls-37{letter-spacing:-.02em;}.cls-38{letter-spacing:-.01em;}.cls-39{letter-spacing:0em;}.cls-40{letter-spacing:-.01em;}.cls-41{letter-spacing:-.03em;}.cls-42{letter-spacing:.03em;}.cls-43{letter-spacing:-.03em;}.cls-44{letter-spacing:-.02em;}.cls-9{font-family:Montserrat-ExtraBold, Montserrat;font-size:78px;font-weight:700;}.cls-45{letter-spacing:0em;}</style></defs><g id="Type_treatment"><text class="cls-9" transform="translate(197.95 119.32)"><tspan class="cls-1" x="0" y="0">$</tspan><tspan class="cls-15" x="49.74" y="0">2 </tspan><tspan class="cls-13" x="119.16" y="0">M</tspan><tspan class="cls-45" x="192.99" y="0">I</tspan><tspan class="cls-18" x="218.79" y="0">L</tspan><tspan class="cls-37" x="264.65" y="0">L</tspan><tspan class="cls-5" x="310.5" y="0">I</tspan><tspan class="cls-21" x="336.11" y="0">O</tspan><tspan x="401.22" y="0">N</tspan></text><text class="cls-9" transform="translate(166.1 256.34)"><tspan class="cls-10" x="0" y="0">C</tspan><tspan class="cls-17" x="54.9" y="0">O</tspan><tspan class="cls-16" x="120.01" y="0">M</tspan><tspan class="cls-14" x="193.86" y="0">M</tspan><tspan class="cls-22" x="267.58" y="0">U</tspan><tspan class="cls-33" x="328.35" y="0">N</tspan><tspan class="cls-28" x="390.66" y="0">I</tspan><tspan class="cls-42" x="415.46" y="0">T</tspan><tspan class="cls-39" x="467.29" y="0">Y</tspan><tspan class="cls-15" x="521.21" y="0">?</tspan></text><text class="cls-8" transform="translate(135.61 42.5)"><tspan class="cls-32" x="0" y="0">H</tspan><tspan class="cls-7" x="39.71" y="0">O</tspan><tspan x="79.64" y="0">W </tspan><tspan class="cls-7" x="150.64" y="0">W</tspan><tspan class="cls-4" x="205.67" y="0">O</tspan><tspan class="cls-11" x="246.82" y="0">U</tspan><tspan class="cls-6" x="285.24" y="0">L</tspan><tspan x="314.19" y="0">D </tspan><tspan class="cls-35" x="369.29" y="0">Y</tspan><tspan class="cls-3" x="399.5" y="0">O</tspan><tspan x="440.66" y="0">U</tspan></text><text class="cls-8" transform="translate(2 109.57)"><tspan class="cls-40" x="0" y="0">S</tspan><tspan class="cls-41" x="30.82" y="0">P</tspan><tspan class="cls-24" x="65.55" y="0">E</tspan><tspan class="cls-29" x="97.85" y="0">N</tspan><tspan class="cls-34" x="137.3" y="0">D</tspan></text><text class="cls-8" transform="translate(6.7 246.72)"><tspan class="cls-35" x="0" y="0">Y</tspan><tspan class="cls-4" x="30.21" y="0">O</tspan><tspan class="cls-12" x="71.37" y="0">U</tspan><tspan class="cls-34" x="109.78" y="0">R</tspan></text><path class="cls-19" d="M125.8,14.21c-4.8,1.6-9.8,3.33-14.25,5.87-2.37-2.32-5.54-3.8-8.83-4.26-5.13-.71-10.24.84-14.82,3.07-.84.41-1.68.85-2.51,1.32-.72-1.17-1.61-2.23-2.67-3.12-3.27-2.73-7.58-3.96-11.81-3.75-4.94.25-9.53,2.49-13.25,5.79-2.07-4.2-5.56-7.45-10.69-7.42-4.71.03-8.91,3.03-12.03,6.32-3.15,3.33-5.89,7.53-6.47,12.17-.28,2.21.07,4.33,1,6.35.69,1.5,2.91.2,2.22-1.3-1.61-3.49-.38-7.43,1.44-10.57,1.89-3.26,4.58-6.29,7.77-8.33,2.97-1.9,6.69-2.88,9.97-1.12,2.29,1.23,3.87,3.42,4.89,5.78-2.11,2.27-3.84,4.89-5.05,7.63-1.39,3.14-1.74,8.57,2.83,9.14,2.06.26,4.11-.93,5.21-2.64,1.23-1.91,1.37-4.33,1.27-6.54-.09-2.22-.51-4.61-1.29-6.89,1.99-1.96,4.31-3.61,6.92-4.64,5.92-2.34,14.03-1.27,17.58,4.5-2.42,1.69-4.5,3.8-5.63,6.58-.88,2.16-1.14,4.7-.35,6.93.82,2.3,2.72,3.71,5.11,2.48,3.49-1.81,5.13-6.33,5.11-10.03,0-1.71-.34-3.41-.95-5,3.17-1.88,6.68-3.35,10.3-4.01,3.71-.68,7.58-.25,10.83,1.73.58.35,1.14.77,1.66,1.22-2.48,1.66-4.73,3.64-6.58,6.09-1.29,1.7-2.36,3.88-2.18,6.07.18,2.23,1.74,4,3.93,4.51,3.94.91,7.75-1.61,9.47-5.07,1.77-3.55,1.56-7.71-.69-10.99,2.57-1.42,5.28-2.57,8.03-3.59,1.72-.63,3.46-1.22,5.2-1.8,1.56-.52.89-3.01-.68-2.48ZM57.26,31.97c-.34,1.54-1.35,3.27-3.14,3.28-1.52.01-1.92-1.48-1.84-2.73.1-1.62.84-3.1,1.63-4.48.83-1.45,1.77-2.85,2.83-4.15.72,2.61,1.08,5.53.52,8.07ZM84.43,30.76c-.43,1.41-1.18,2.71-2.25,3.74-.51.5-1.49,1.44-2.09.66-.54-.7-.72-1.84-.74-2.69-.11-3.6,2.21-6.48,4.98-8.51.71,2.19.77,4.6.11,6.8ZM108.6,35.13c-1.29.69-3.16.96-4.45.13-1.56-1.01-1.1-3.07-.42-4.48,1.5-3.08,4.46-5.54,7.31-7.38.94,1.34,1.53,2.88,1.55,4.55.03,2.84-1.44,5.82-3.99,7.18Z"/><path class="cls-19" d="M660.04,131.37l-1.44-.02c-.46-.1-1.27.24-1.65.52-.63.45-1.42.66-1.67.8-.34.18-.61.22-.8.13-.19-.09-.42-.26-.7-.49-.26-.25-.56-.57-.86-1-.31-.42-.68-1.26-1.11-2.53-.44-1.26-.78-2.11-1.01-2.53-.23-.42-.49-.77-.77-1.03-.28-.27-.5-.46-.68-.55-.17-.09-.64-.24-1.43-.45-.78-.21-1.53-.28-2.23-.23-.71.06-1.28.15-1.72.27-.45.12-1.04.38-1.78.77-.74.4-1.59,1.02-2.54,1.85-.95.85-1.82,1.77-2.61,2.76-.78.99-1.6,1.75-2.45,2.26-.87.51-1.38.72-1.55.63-.17-.09-.36-.26-.58-.49-.21-.24-.41-.55-.58-.9-.18-.36-.31-1.06-.41-2.08-.09-1.02-.18-1.72-.25-2.08-.08-.36-.18-.66-.29-.9s-.36-.54-.74-.9c-.37-.36-.81-.64-1.3-.82-.49-.18-1.09-.26-1.78-.22-.7.03-1.56.28-2.62.77-1.05.48-2.05,1.1-2.99,1.85-.95.75-1.95,1.66-3,2.71-1.05,1.06-1.93,1.83-2.63,2.31-.7.49-1.1.71-1.22.68-.11-.03-.3-.21-.57-.54-.26-.34-.52-.79-.77-1.36-.26-.57-.45-1.1-.58-1.58-.13-.49-.4-1.12-.8-1.9-.41-.79-.85-1.38-1.31-1.77-.47-.39-.95-.7-1.47-.91-.5-.2-1.16-.31-1.97-.31s-1.58.16-2.33.49c-.75.34-1.53.86-2.33,1.58-.81.72-1.63,1.63-2.47,2.71-.84,1.09-1.54,1.85-2.1,2.31-.57.45-.89.67-1,.67-.1,0-.31-.15-.64-.45-.32-.3-.79-1.13-1.43-2.48-.04-.09-.08-.18-.12-.26h0c-.06-.49-.21-1.02-.42-1.62,0,0,0,0,0-.02,0-.03-.03-.06-.04-.1-.29-.75-.62-1.31-.96-1.67-.35-.36-.77-.65-1.25-.87-.48-.2-1.19-.34-2.13-.41-.94-.05-1.88.06-2.85.36-.96.31-1.94.8-2.94,1.49-1.01.7-2.15,1.7-3.42,3.03-1.27,1.33-1.96,2-2.07,2-.1,0-.33.15-.69.45-.35.3-.7.45-1.02.45s-.66-.21-.99-.63c-.34-.42-.57-.78-.7-1.04-.12-.27-.34-1.02-.64-2.26-.3-1.24-.57-2.05-.8-2.45-.25-.39-.63-.73-1.15-1.04-.53-.3-1-.51-1.4-.63-.42-.12-1.03-.19-1.87-.19s-1.63.19-2.4.59c-.77.39-1.38.84-1.84,1.35-.46.51-1.06,1.33-1.81,2.45-.74,1.11-1.37,1.93-1.88,2.44-.5.52-.99.93-1.45,1.23-.46.3-.85.48-1.17.54-.33.06-.7.02-1.13-.13-.42-.15-.8-.44-1.13-.86-.34-.42-.66-1-.99-1.72-.32-.72-.56-1.6-.7-2.62-.15-1.02-.36-1.75-.64-2.17-.28-.42-.54-.72-.78-.9-.25-.19-.59-.36-1.06-.55-.47-.18-1.15-.28-2.05-.32-.9-.03-1.65.06-2.25.27s-1.13.49-1.57.81c-.44.34-.91.76-1.4,1.27-.49.51-.97,1.16-1.47,1.94s-1.11,1.58-1.83,2.39c-.72.81-1.4,1.49-2.04,2.04-.65.54-1.14.9-1.48,1.09-.34.18-.61.22-.8.13-.19-.09-.42-.26-.7-.49-.26-.25-.56-.57-.86-1-.31-.42-.68-1.26-1.11-2.53-.44-1.26-.78-2.11-1.01-2.53-.23-.42-.49-.77-.77-1.03-.28-.27-.5-.46-.68-.55-.17-.09-.64-.24-1.43-.45-.78-.21-1.53-.28-2.23-.23-.71.06-1.28.15-1.72.27-.45.12-1.04.38-1.78.77-.74.4-1.59,1.02-2.54,1.85-.95.85-1.82,1.77-2.61,2.76-.78.99-1.6,1.75-2.46,2.26-.87.51-1.38.72-1.55.63-.17-.09-.36-.26-.58-.49-.21-.24-.41-.55-.58-.9-.18-.36-.31-1.06-.41-2.08-.09-1.02-.18-1.72-.25-2.08-.08-.36-.18-.66-.29-.9-.11-.24-.36-.54-.74-.9-.37-.36-.81-.64-1.3-.82-.49-.18-1.09-.26-1.78-.22-.7.03-1.56.28-2.62.77-1.05.48-2.05,1.1-2.99,1.85-.94.75-1.95,1.66-3,2.71-1.05,1.06-1.93,1.83-2.63,2.31-.7.49-1.1.71-1.22.68-.11-.03-.3-.21-.57-.54-.26-.34-.52-.79-.77-1.36-.26-.57-.45-1.1-.58-1.58-.13-.49-.4-1.12-.8-1.9-.41-.79-.85-1.38-1.31-1.77-.47-.39-.95-.7-1.47-.91-.5-.2-1.16-.31-1.97-.31s-1.58.16-2.33.49c-.75.34-1.53.86-2.33,1.58-.81.72-1.63,1.63-2.47,2.71-.84,1.09-1.54,1.85-2.1,2.31-.57.45-.89.67-1,.67-.1,0-.31-.15-.64-.45-.32-.3-.79-1.13-1.43-2.48-.63-1.36-1.02-2.15-1.17-2.36-.08-.11-.19-.24-.34-.37t0,0c-.19-.4-.41-.71-.64-.94-.34-.36-.77-.65-1.25-.87-.48-.2-1.19-.34-2.13-.41-.94-.05-1.89.06-2.85.36-.96.31-1.94.8-2.95,1.49-1,.7-2.14,1.7-3.41,3.03-1.27,1.33-1.96,2-2.07,2-.1,0-.33.15-.69.45-.35.3-.7.45-1.02.45s-.66-.21-.99-.63c-.34-.42-.57-.78-.7-1.04-.13-.27-.34-1.02-.64-2.26-.3-1.24-.57-2.05-.81-2.45-.24-.39-.62-.73-1.15-1.04-.52-.3-.99-.51-1.4-.63-.41-.12-1.03-.19-1.86-.19s-1.63.19-2.4.59c-.77.39-1.38.84-1.84,1.35-.46.51-1.06,1.33-1.81,2.45-.74,1.11-1.37,1.93-1.88,2.44-.5.52-.99.93-1.45,1.23-.46.3-.86.48-1.17.54-.33.06-.71.02-1.13-.13s-.8-.44-1.13-.86c-.34-.42-.66-1-.99-1.72-.33-.72-.56-1.6-.7-2.62-.15-1.02-.36-1.75-.64-2.17-.28-.42-.55-.72-.79-.9-.24-.19-.59-.36-1.05-.55-.47-.18-1.15-.28-2.05-.32-.9-.03-1.65.06-2.25.27-.61.21-1.13.49-1.57.81-.45.34-.91.76-1.4,1.27-.49.51-.98,1.16-1.48,1.94-.49.79-1.11,1.58-1.83,2.39s-1.4,1.49-2.04,2.04c-.64.54-1.14.9-1.47,1.09-.34.18-.61.22-.8.13-.19-.09-.43-.26-.7-.49-.26-.25-.56-.57-.87-1-.3-.42-.67-1.26-1.11-2.53-.43-1.26-.77-2.11-1-2.53-.23-.42-.49-.77-.77-1.03-.28-.27-.51-.46-.68-.55-.17-.09-.64-.24-1.43-.45-.79-.21-1.53-.28-2.23-.23-.71.06-1.28.15-1.72.27-.45.12-1.04.38-1.78.77-.75.4-1.6,1.02-2.55,1.85-.95.85-1.82,1.77-2.6,2.76-.78.99-1.6,1.75-2.46,2.26-.86.51-1.38.72-1.55.63-.17-.09-.36-.26-.58-.49-.21-.24-.42-.55-.59-.9-.17-.36-.31-1.06-.4-2.08-.1-1.02-.18-1.72-.26-2.08-.07-.36-.17-.66-.28-.9-.11-.24-.36-.54-.74-.9-.38-.36-.81-.64-1.31-.82-.49-.18-1.08-.26-1.77-.22-.7.03-1.57.28-2.62.77-1.05.48-2.05,1.1-2.99,1.85-.95.75-1.95,1.66-3,2.71-1.05,1.06-1.93,1.83-2.63,2.31-.7.49-1.1.71-1.22.68-.11-.03-.31-.21-.57-.54-.26-.34-.52-.79-.78-1.36-.25-.57-.44-1.1-.57-1.58-.13-.49-.41-1.12-.8-1.9-.41-.79-.85-1.38-1.32-1.77-.47-.39-.95-.7-1.46-.91-.5-.2-1.17-.31-1.97-.31s-1.59.16-2.33.49c-.75.34-1.53.86-2.34,1.58-.8.72-1.63,1.63-2.46,2.71-.84,1.09-1.54,1.85-2.1,2.31-.57.45-.89.67-1,.67-.1,0-.31-.15-.64-.45-.32-.3-.79-1.13-1.43-2.48-.4-.85-.7-1.47-.9-1.88,0,0,0,0,0-.02,0-.03-.03-.06-.04-.1-.29-.75-.62-1.31-.96-1.67-.35-.36-.77-.65-1.25-.87-.48-.2-1.19-.34-2.13-.41-.94-.05-1.88.06-2.85.36-.96.31-1.94.8-2.94,1.49-1.01.7-2.15,1.7-3.42,3.03-1.27,1.33-1.96,2-2.07,2-.1,0-.33.15-.69.45-.35.3-.7.45-1.02.45s-.66-.21-.99-.63c-.34-.42-.57-.78-.7-1.04-.12-.27-.34-1.02-.64-2.26-.3-1.24-.57-2.05-.8-2.45-.25-.39-.63-.73-1.15-1.04-.53-.3-1-.51-1.4-.63-.42-.12-1.03-.19-1.87-.19s-1.63.19-2.4.59c-.77.39-1.38.84-1.84,1.35-.46.51-1.06,1.33-1.81,2.45-.74,1.11-1.37,1.93-1.88,2.44-.5.52-.99.93-1.45,1.23-.46.3-.85.48-1.17.54-.33.06-.7.02-1.13-.13-.42-.15-.8-.44-1.13-.86-.34-.42-.66-1-.99-1.72-.32-.72-.56-1.6-.7-2.62-.15-1.02-.36-1.75-.64-2.17-.28-.42-.54-.72-.78-.9-.25-.19-.59-.36-1.06-.55-.47-.18-1.15-.28-2.05-.32-.9-.03-1.65.06-2.25.27-.6.21-1.13.49-1.57.81-.44.34-.91.76-1.4,1.27-.49.51-.97,1.16-1.47,1.94s-1.11,1.58-1.83,2.39-1.4,1.49-2.04,2.04c-.65.54-1.14.9-1.48,1.09-.34.18-.61.22-.8.13-.19-.09-.42-.26-.7-.49-.26-.25-.56-.57-.86-1-.31-.42-.68-1.26-1.11-2.53-.44-1.26-.78-2.11-1.01-2.53-.23-.42-.49-.77-.77-1.03-.28-.27-.5-.46-.68-.55-.17-.09-.64-.24-1.43-.45-.78-.21-1.53-.28-2.23-.23-.71.06-1.28.15-1.72.27-.45.12-1.04.38-1.78.77-.74.4-1.59,1.02-2.54,1.85-.95.85-1.82,1.77-2.61,2.76-.78.99-1.6,1.75-2.46,2.26-.87.51-1.38.72-1.55.63-.17-.09-.36-.26-.58-.49-.21-.24-.41-.55-.58-.9-.18-.36-.31-1.06-.41-2.08-.09-1.02-.18-1.72-.25-2.08-.08-.36-.18-.66-.29-.9-.11-.24-.36-.54-.74-.9-.37-.36-.81-.64-1.3-.82-.49-.18-1.09-.26-1.78-.22-.7.03-1.56.28-2.62.77-1.05.48-2.05,1.1-2.99,1.85-.94.75-1.95,1.66-3,2.71-1.05,1.06-1.93,1.83-2.63,2.31-.7.49-1.1.71-1.22.68-.11-.03-.3-.21-.57-.54-.26-.34-.52-.79-.77-1.36-.26-.57-.45-1.1-.58-1.58-.13-.49-.4-1.12-.8-1.9-.41-.79-.85-1.38-1.31-1.77-.47-.39-.95-.7-1.47-.91-.5-.2-1.16-.31-1.97-.31s-1.58.16-2.33.49c-.75.34-1.53.86-2.33,1.58-.81.72-1.63,1.63-2.47,2.71-.84,1.09-1.54,1.85-2.1,2.31-.57.45-.89.67-1,.67-.1,0-.31-.15-.64-.45-.32-.3-.79-1.13-1.43-2.48-.63-1.36-1.02-2.15-1.17-2.36s-.42-.47-.79-.77c-.38-.3-.83-.54-1.38-.72-.54-.18-1.06-.26-1.57-.26s-1.17.13-2,.41c-.82.26-1.29.48-1.4.63-.11.15-.11.31-.04.46.07.15.19.28.34.41.17.11.43.22.8.32.37.09.95.03,1.72-.19.79-.21,1.28-.21,1.48,0,.2.21.56.92,1.07,2.13.5,1.2.94,2.01,1.29,2.44.36.42.7.76,1.02,1,.32.24.67.45,1.06.64.4.18.76.31,1.11.41.34.09.76.13,1.24.13s.95-.09,1.42-.27c.47-.18.96-.48,1.49-.9.52-.42,1.17-1.13,1.92-2.13.76-.99,1.39-1.7,1.89-2.12.49-.42.75-.68.76-.78,0-.09.27-.34.8-.77.52-.41.96-.69,1.31-.81.34-.11.58-.15.71-.09.13.06.31.21.53.45.21.25.43.59.65,1.04s.45,1.09.69,1.9c.25.81.48,1.45.7,1.9.22.45.46.85.72,1.17.26.34.54.62.83.87.29.24.64.45,1.06.63.42.19.81.32,1.18.41.37.1.73.14,1.09.14s.7-.04,1.03-.14c.34-.09.77-.28,1.31-.58.53-.3,1.72-1.32,3.56-3.03,1.85-1.72,3.1-2.82,3.78-3.3.67-.49,1.27-.83,1.8-1.04l.79-.32c.09.19.18.36.26.55.17.36.32,1.1.42,2.22.11,1.11.26,1.86.42,2.26.17.39.34.73.55,1.03.19.31.52.67.98,1.09.45.42.83.72,1.13.87.3.15.63.26.97.36.34.09.76.13,1.24.13s.97-.06,1.47-.18c.49-.12,1.17-.44,2-.95.83-.51,1.7-1.32,2.58-2.39.89-1.09,1.76-2,2.61-2.76.84-.75,1.49-1.26,1.93-1.54.45-.27,1.03-.49,1.76-.68.72-.18,1.17-.22,1.33-.13s.32.21.44.36c.12.15.36.77.71,1.85.35,1.09.65,1.88.9,2.39.25.51.52.98.83,1.4.3.42.8.9,1.49,1.45.7.54,1.32.9,1.89,1.09.57.18,1.08.28,1.52.32.44.03,1.01-.06,1.69-.27s1.41-.62,2.21-1.22c.79-.61,1.19-.95,1.19-1.04,0-.09.07-.15.18-.19.11-.03.53-.45,1.25-1.26.72-.81,1.18-1.42,1.4-1.81s.71-1.04,1.47-1.94c.78-.91,1.35-1.49,1.72-1.77.37-.27.7-.45.99-.54.28-.1.53-.1.75,0,.22.09.4.26.53.54.13.27.24.79.33,1.54.09.76.19,1.33.31,1.72.11.39.32.9.63,1.54.31.64.57,1.1.79,1.4.22.3.43.56.64.77s.49.43.86.68c.37.24,1.09.54,2.15.9,1.06.36,1.92.53,2.59.49.66-.03,1.28-.16,1.85-.41.57-.24,1.3-.78,2.2-1.63.9-.85,1.87-1.99,2.91-3.44,1.04-1.45,1.86-2.38,2.46-2.81s.99-.64,1.15-.68c.16-.03.28,0,.36.05.08.05.19.26.34.63.15.36.21.61.2.72-.02.12.08.59.3,1.4.21.81.44,1.47.67,1.94.24.49.49.92.79,1.32.29.39.66.75,1.1,1.09.44.33,1.09.6,1.95.81.86.21,1.6.32,2.23.32s1.13-.06,1.5-.19c.37-.12.89-.43,1.58-.94s1.32-1.12,1.93-1.81c.6-.7,1.37-1.45,2.31-2.26.7-.61,1.28-1.07,1.74-1.4.16-.11.31-.2.44-.28.51-.3,1.1-.54,1.77-.72.67-.18,1.05-.24,1.13-.18.08.06.23.34.45.86.08.19.15.38.2.58.21.34.52.97.91,1.91.51,1.2.94,2.01,1.3,2.44.35.42.7.76,1.02,1,.32.24.67.45,1.06.64.39.18.76.31,1.1.41.35.09.76.13,1.25.13s.95-.09,1.41-.27c.47-.18.97-.48,1.49-.9.5-.41,1.12-1.07,1.83-2,.04-.04.06-.08.1-.12.75-.99,1.39-1.7,1.88-2.12.5-.42.76-.68.77-.78,0-.09.27-.34.79-.77.53-.41.96-.69,1.32-.81.34-.11.58-.15.71-.09.13.06.31.21.52.45.22.25.44.59.66,1.04.21.45.45,1.09.69,1.9.25.81.48,1.45.7,1.9.21.45.46.85.72,1.17.26.34.54.62.84.87.29.24.64.45,1.06.63.42.19.81.32,1.18.41.37.1.73.14,1.09.14s.7-.04,1.03-.14c.34-.09.77-.28,1.31-.58.53-.3,1.72-1.32,3.56-3.03,1.85-1.72,3.1-2.82,3.78-3.3.67-.49,1.27-.83,1.8-1.04.26-.11.53-.21.79-.32.09.19.17.36.26.55.18.36.33,1.1.43,2.22.11,1.11.25,1.86.42,2.26.17.39.34.73.54,1.03.2.31.53.67.98,1.09.46.42.84.72,1.14.87.3.15.63.26.97.36.34.09.76.13,1.24.13s.97-.06,1.47-.18c.49-.12,1.17-.44,2-.95.84-.51,1.7-1.32,2.59-2.39.89-1.09,1.76-2,2.6-2.76.85-.75,1.49-1.26,1.94-1.54s1.03-.49,1.76-.68c.72-.18,1.17-.22,1.33-.13s.32.21.44.36c.12.15.35.77.71,1.85.35,1.09.64,1.88.9,2.39.25.51.52.98.83,1.4.3.42.8.9,1.49,1.45.69.54,1.32.9,1.89,1.09.57.18,1.07.28,1.52.32.44.03,1-.06,1.68-.27s1.42-.62,2.21-1.22c.79-.61,1.19-.95,1.2-1.04,0-.09.07-.15.18-.19.11-.03.53-.45,1.25-1.26.72-.81,1.17-1.42,1.4-1.81.21-.39.71-1.04,1.47-1.94.78-.91,1.35-1.49,1.72-1.77.37-.27.7-.45.98-.54.29-.1.54-.1.76,0,.22.09.4.26.53.54.13.27.24.79.33,1.54.09.76.19,1.33.3,1.72.11.39.33.9.64,1.54.31.64.57,1.1.79,1.4.22.3.43.56.64.77s.49.43.86.68c.37.24,1.09.54,2.15.9,1.05.36,1.92.53,2.59.49.66-.03,1.28-.16,1.85-.41.57-.24,1.3-.78,2.2-1.63s1.87-1.99,2.91-3.44c1.04-1.45,1.85-2.38,2.46-2.81.6-.42.98-.64,1.15-.68.16-.03.28,0,.36.05.08.05.19.26.34.63.15.36.21.61.19.72-.02.12.09.59.3,1.4.22.81.45,1.47.68,1.94.24.49.49.92.79,1.32.29.39.65.75,1.1,1.09.44.33,1.09.6,1.94.81.87.21,1.61.32,2.24.32s1.13-.06,1.5-.19c.37-.12.89-.43,1.58-.94.68-.51,1.32-1.12,1.93-1.81.59-.7,1.37-1.45,2.31-2.26.76-.65,1.37-1.15,1.85-1.47.12-.08.23-.15.34-.21.51-.3,1.1-.54,1.77-.72.17-.04.32-.08.45-.11.2-.04.34-.07.45-.08.04,0,.08-.01.11-.01.06,0,.09,0,.11.02.08.06.24.34.46.86.04.08.07.16.09.25.08.03.15.06.19.11.05.05.11.14.18.25.17.28.4.76.68,1.4.07.16.13.3.21.48.32.77.62,1.37.88,1.82.15.25.29.47.41.62.36.42.7.76,1.02,1,.21.16.45.3.69.44.12.07.24.14.37.2.12.05.23.09.34.14.15.06.31.12.45.17.11.04.22.08.33.1.11.03.25.05.38.07.24.04.5.06.8.06.02,0,.04,0,.06,0h0c.48,0,.95-.09,1.42-.27.47-.18.96-.48,1.49-.9.49-.41,1.1-1.06,1.81-1.99.04-.04.07-.09.11-.14.76-.99,1.39-1.7,1.89-2.12.49-.42.75-.68.76-.78,0-.09.27-.34.8-.77.52-.41.96-.69,1.31-.81.34-.11.58-.15.71-.09.13.06.31.21.53.45.21.25.43.59.65,1.04s.45,1.09.69,1.9c.25.81.48,1.45.7,1.9.22.45.46.85.72,1.17.26.34.54.62.83.87.29.24.64.45,1.06.63.42.19.81.32,1.18.41.37.1.73.14,1.09.14s.7-.04,1.03-.14c.34-.09.77-.28,1.31-.58.53-.3,1.72-1.32,3.56-3.03,1.85-1.72,3.1-2.82,3.78-3.3.67-.49,1.27-.83,1.8-1.04l.79-.32c.09.19.18.36.26.55.17.36.32,1.1.42,2.22.11,1.11.26,1.86.42,2.26.17.39.34.73.55,1.03.19.31.52.67.98,1.09.45.42.83.72,1.13.87.3.15.63.26.97.36.34.09.76.13,1.24.13s.97-.06,1.47-.18c.49-.12,1.17-.44,2-.95.83-.51,1.7-1.32,2.58-2.39.89-1.09,1.76-2,2.61-2.76.84-.75,1.49-1.26,1.93-1.54.45-.27,1.03-.49,1.76-.68.72-.18,1.17-.22,1.33-.13.17.09.32.21.44.36.12.15.36.77.71,1.85.35,1.09.65,1.88.9,2.39.25.51.52.98.83,1.4.3.42.8.9,1.49,1.45.7.54,1.32.9,1.89,1.09.57.18,1.08.28,1.52.32.44.03,1.01-.06,1.69-.27s1.41-.62,2.21-1.22c.79-.61,1.19-.95,1.19-1.04,0-.09.07-.15.18-.19.11-.03.53-.45,1.25-1.26.72-.81,1.18-1.42,1.4-1.81s.71-1.04,1.47-1.94c.78-.91,1.35-1.49,1.72-1.77.37-.27.7-.45.99-.54.28-.1.53-.1.75,0,.22.09.4.26.53.54.13.27.24.79.33,1.54.09.76.19,1.33.31,1.72.11.39.32.9.63,1.54.31.64.57,1.1.79,1.4.22.3.43.56.64.77s.49.43.86.68c.37.24,1.09.54,2.15.9,1.06.36,1.92.53,2.59.49.66-.03,1.28-.16,1.85-.41.57-.24,1.3-.78,2.2-1.63s1.87-1.99,2.91-3.44c1.04-1.45,1.86-2.38,2.46-2.81.6-.42.99-.64,1.15-.68.16-.03.28,0,.36.05.08.05.19.26.34.63.15.36.21.61.2.72-.02.12.08.59.3,1.4.21.81.44,1.47.67,1.94.24.49.49.92.79,1.32.29.39.66.75,1.1,1.09.44.33,1.09.6,1.95.81.86.21,1.6.32,2.23.32s1.13-.06,1.5-.19c.37-.12.89-.43,1.58-.94s1.32-1.12,1.93-1.81c.6-.7,1.37-1.45,2.3-2.26.64-.56,1.17-.99,1.62-1.3,0,0,.01,0,.02-.01.04-.03.07-.06.11-.08.11-.07.2-.13.3-.19.05-.03.1-.06.14-.09.51-.3,1.1-.54,1.77-.72.25-.07.45-.11.62-.14s.31-.06.4-.06c.06,0,.1,0,.12.02s.04.04.07.09c.09.13.21.38.38.77.08.19.15.38.2.58.21.34.52.97.91,1.91.21.5.41.92.59,1.28.08.17.17.32.24.46.16.29.32.53.46.7.08.1.17.18.25.27.26.29.52.54.77.73.22.17.47.32.73.46.11.06.21.12.33.18.12.05.23.1.35.14.14.06.28.11.42.15.11.04.23.08.34.11.29.07.63.11,1.01.12h0s.02,0,.02,0t.02,0s.02,0,.03,0c.42-.02.84-.11,1.25-.26.47-.18.96-.48,1.49-.9.49-.41,1.1-1.06,1.81-1.99h0s.07-.09.11-.14c.76-.99,1.39-1.7,1.89-2.12.49-.42.75-.68.76-.78,0-.09.27-.34.8-.77.52-.41.96-.69,1.31-.81.34-.11.58-.15.71-.09.13.06.31.21.53.45.21.25.43.59.65,1.04s.45,1.09.69,1.9c.25.81.48,1.45.7,1.9.22.45.46.85.72,1.17.26.34.54.62.83.87.29.24.64.45,1.06.63.42.19.81.32,1.18.41.37.1.73.14,1.09.14s.7-.04,1.03-.14c.34-.09.77-.28,1.31-.58.53-.3,1.72-1.32,3.56-3.03,1.85-1.72,3.1-2.82,3.78-3.3.67-.49,1.27-.83,1.8-1.04l.79-.32c.09.19.18.36.26.55.17.36.32,1.1.42,2.22.11,1.11.26,1.86.42,2.26.17.39.34.73.55,1.03.19.31.52.67.98,1.09.45.42.83.72,1.13.87.3.15.63.26.97.36.34.09.76.13,1.24.13s.97-.06,1.47-.18c.49-.12,1.17-.44,2-.95.83-.51,1.7-1.32,2.58-2.39.89-1.09,1.76-2,2.61-2.76.84-.75,1.49-1.26,1.93-1.54.45-.27,1.03-.49,1.76-.68.72-.18,1.17-.22,1.33-.13s.32.21.44.36c.12.15.36.77.71,1.85.35,1.09.65,1.88.9,2.39.25.51.52.98.83,1.4.3.42.8.9,1.49,1.45.7.54,1.32.9,1.89,1.09.57.18,1.08.28,1.52.32.44.03,1.01-.06,1.69-.27s1.41-.62,2.21-1.22l1.21-1.19c.17-.17.05-.46-.19-.46Z"/><text class="cls-8" transform="translate(0 181.65)"><tspan class="cls-26" x="0" y="0">D</tspan><tspan class="cls-44" x="40.69" y="0">O</tspan><tspan class="cls-6" x="81.92" y="0">L</tspan><tspan class="cls-30" x="110.87" y="0">L</tspan><tspan class="cls-31" x="142.45" y="0">A</tspan><tspan class="cls-38" x="179.25" y="0">R</tspan><tspan x="215.25" y="0">S </tspan><tspan class="cls-43" x="260.5" y="0">T</tspan><tspan class="cls-23" x="288.9" y="0">O </tspan><tspan class="cls-36" x="344.8" y="0">B</tspan><tspan class="cls-24" x="382.14" y="0">E</tspan><tspan class="cls-27" x="414.45" y="0">N</tspan><tspan class="cls-25" x="453.89" y="0">E</tspan><tspan class="cls-20" x="486.2" y="0">F</tspan><tspan class="cls-2" x="516.68" y="0">I</tspan><tspan x="531.7" y="0">T</tspan></text><path class="cls-19" d="M575.72,164.02c2.49.73,6.22.12,9-.27,13.68-2.24,28.94-.09,39.01,10.17,1.44,1.18,5.17,4.67,6.07,2.81.23-3.41-3.61-7.18-6.27-9.36-11.49-9.4-27.32-10.62-41.46-8.07-2.29.39-5.39,1.27-6.95,2.68-1,.87-.52,1.71.46,1.99l.14.05Z"/><path class="cls-19" d="M628.39,175.99c-2.98-3.9-12.56-6.96-17.6-7.48-1.63-.08-5.37,0-4.42,2.21.75,1.68,5.74,3.58,8.4,4.35,2.44.76,4.83,1.75,7.26,2.56,3.17,1.07,8.41,1.94,6.47-1.48l-.11-.16Z"/><path class="cls-19" d="M628.46,177.06c.8-1.27,1.42-3.42,1.94-5.65.63-2.86,1.78-6.45,1.6-9.18-.29-3.66-3.46-1.27-4.61.53-2.28,3.14-3.56,8.74-2.82,12.31.33,2.17,2.07,4.81,3.78,2.16l.11-.18Z"/></g></svg>