<?xml version="1.0" encoding="UTF-8"?><svg id="Layer_2" xmlns="http://www.w3.org/2000/svg" viewBox="0 0 607.23 269.06"><defs><style>.cls-1{letter-spacing:-.02em;}.cls-2,.cls-3,.cls-4{fill:#fff;}.cls-2,.cls-5{font-family:Montserrat-SemiBold, Montserrat;font-size:57.05px;font-weight:600;}.cls-6{letter-spacing:-.02em;}.cls-7{letter-spacing:0em;}.cls-7,.cls-8,.cls-4,.cls-9,.cls-10,.cls-11{font-family:Montserrat-ExtraBold, Montserrat;font-size:89.45px;font-weight:700;}.cls-12{letter-spacing:-.02em;}.cls-13{letter-spacing:0em;}.cls-14,.cls-5{letter-spacing:0em;}.cls-8{letter-spacing:0em;}.cls-15{letter-spacing:-.06em;}.cls-16{letter-spacing:0em;}.cls-17{fill:#b11fff;stroke-width:0px;}.cls-18{letter-spacing:0em;}.cls-9{letter-spacing:-.01em;}.cls-19{letter-spacing:0em;}.cls-20{letter-spacing:.04em;}.cls-21{letter-spacing:-.02em;}.cls-22{letter-spacing:-.04em;}.cls-23{letter-spacing:0em;}.cls-24{letter-spacing:-.03em;}.cls-25{letter-spacing:-.09em;}.cls-26{letter-spacing:-.02em;}.cls-27{letter-spacing:0em;}.cls-28{letter-spacing:-.02em;}.cls-29{letter-spacing:0em;}.cls-30{letter-spacing:-.02em;}.cls-10{letter-spacing:0em;}.cls-11{letter-spacing:0em;}</style></defs><g id="Type_treatment"><text class="cls-3" transform="translate(183.89 76.03)"><tspan class="cls-8" x="0" y="0">I</tspan><tspan class="cls-9" x="29.59" y="0">D</tspan><tspan class="cls-10" x="102.47" y="0">E</tspan><tspan class="cls-7" x="163.1" y="0">A</tspan><tspan class="cls-11" x="233.84" y="0">S</tspan><tspan class="cls-5" x="291.09" y="0">,</tspan></text><text class="cls-2" transform="translate(.51 67.03)"><tspan class="cls-15" x="0" y="0">Y</tspan><tspan class="cls-6" x="34.33" y="0">O</tspan><tspan class="cls-1" x="81.17" y="0">U</tspan><tspan x="124.88" y="0">R</tspan></text><text class="cls-2" transform="translate(307.03 152.87)"><tspan class="cls-21" x="0" y="0">B</tspan><tspan class="cls-28" x="42.37" y="0">O</tspan><tspan class="cls-23" x="89.31" y="0">S</tspan><tspan class="cls-22" x="124.98" y="0">T</tspan><tspan class="cls-26" x="157.26" y="0">O</tspan><tspan class="cls-13" x="204.18" y="0">N</tspan><tspan class="cls-19" x="250.29" y="0">’</tspan><tspan class="cls-16" x="264.31" y="0">S</tspan></text><text class="cls-2" transform="translate(0 152.87)"><tspan class="cls-6" x="0" y="0">O</tspan><tspan class="cls-1" x="46.84" y="0">U</tspan><tspan class="cls-14" x="90.55" y="0">R </tspan><tspan class="cls-24" x="148" y="0">C</tspan><tspan class="cls-12" x="188.01" y="0">I</tspan><tspan class="cls-20" x="205.03" y="0">T</tspan><tspan class="cls-25" x="241.43" y="0">Y</tspan><tspan class="cls-14" x="273.95" y="0">,</tspan></text><text class="cls-4" transform="translate(0 245.89)"><tspan class="cls-27" x="0" y="0">F</tspan><tspan class="cls-30" x="56.55" y="0">UT</tspan><tspan class="cls-18" x="180.68" y="0">U</tspan><tspan class="cls-29" x="250.37" y="0">R</tspan><tspan x="315.79" y="0">E</tspan></text><path class="cls-17" d="M348.51,81.14c-1.08.38-2.02.86-2.82,1.46-.8.59-1.63,1.35-2.49,2.27-.87.92-1.75,2.08-2.65,3.48-.9,1.4-1.99,2.83-3.27,4.29-1.28,1.46-2.5,2.67-3.65,3.64-1.15.97-2.04,1.62-2.65,1.94-.61.32-1.09.4-1.44.24-.35-.16-.76-.46-1.24-.89-.48-.43-.99-1.03-1.54-1.78-.55-.76-1.21-2.27-1.99-4.53-.78-2.27-1.38-3.78-1.79-4.53-.41-.76-.87-1.38-1.38-1.86-.51-.49-.91-.81-1.22-.97-.3-.16-1.16-.43-2.56-.81-1.4-.38-2.73-.51-3.99-.4-1.26.11-2.28.27-3.08.49-.8.22-1.86.67-3.19,1.38-1.33.7-2.85,1.81-4.56,3.32-1.71,1.51-3.26,3.16-4.65,4.94-1.39,1.78-2.86,3.13-4.41,4.05-1.54.92-2.47,1.29-2.77,1.13-.3-.16-.65-.46-1.04-.89-.39-.43-.74-.97-1.06-1.62-.31-.65-.55-1.89-.72-3.72-.17-1.83-.32-3.08-.45-3.72-.13-.65-.3-1.19-.51-1.62s-.65-.97-1.33-1.62c-.68-.65-1.45-1.13-2.33-1.46-.88-.32-1.94-.46-3.18-.4-1.24.05-2.8.51-4.68,1.38-1.88.86-3.67,1.97-5.37,3.32-1.69,1.35-3.48,2.97-5.37,4.86-1.88,1.89-3.45,3.26-4.7,4.13-1.25.86-1.98,1.27-2.19,1.21-.21-.05-.54-.38-1.01-.97-.47-.59-.93-1.4-1.38-2.43-.45-1.03-.8-1.97-1.03-2.83-.24-.86-.72-2-1.44-3.4-.73-1.4-1.51-2.46-2.34-3.16-.84-.7-1.71-1.24-2.61-1.62-.91-.38-2.08-.57-3.53-.57s-2.84.3-4.17.89c-1.34.59-2.73,1.54-4.18,2.83-1.45,1.3-2.92,2.91-4.42,4.86-1.5,1.94-2.75,3.32-3.76,4.13-1.01.81-1.6,1.21-1.78,1.21s-.56-.27-1.14-.81c-.58-.54-1.43-2.02-2.56-4.45-1.13-2.43-1.83-3.83-2.11-4.21-.27-.38-.74-.84-1.41-1.38-.67-.54-1.49-.97-2.46-1.29-.97-.32-1.91-.49-2.81-.49s-2.09.24-3.58.73c-1.48.49-2.31.86-2.5,1.13-.19.27-.21.54-.08.81s.34.51.62.73c.28.22.76.4,1.43.57.67.16,1.7.05,3.09-.32,1.4-.38,2.28-.38,2.64,0,.36.38,1,1.65,1.91,3.8.91,2.16,1.68,3.62,2.32,4.37.64.76,1.24,1.35,1.81,1.78.57.43,1.2.81,1.9,1.13.7.32,1.36.57,1.98.73.62.16,1.36.24,2.22.24s1.71-.16,2.54-.49c.84-.32,1.73-.86,2.67-1.62.94-.76,2.09-2.02,3.44-3.8,1.35-1.78,2.47-3.05,3.37-3.8.9-.76,1.35-1.21,1.37-1.38.01-.16.49-.62,1.43-1.38.94-.76,1.72-1.24,2.34-1.46.62-.22,1.04-.27,1.28-.16.23.11.54.38.93.81.39.43.78,1.05,1.17,1.86.39.81.81,1.94,1.24,3.4.43,1.46.85,2.59,1.24,3.4.39.81.82,1.51,1.29,2.1.47.59.97,1.11,1.49,1.54.53.43,1.16.81,1.9,1.13.74.32,1.45.57,2.11.73.67.16,1.31.24,1.95.24s1.25-.08,1.85-.24c.6-.16,1.38-.51,2.33-1.05.96-.54,3.08-2.35,6.38-5.42,3.3-3.08,5.55-5.05,6.75-5.91,1.21-.86,2.28-1.48,3.23-1.86.47-.19.95-.38,1.42-.57.16.32.31.65.47.97.31.65.57,1.97.77,3.97.2,2,.45,3.35.74,4.05.3.7.62,1.32.97,1.86.35.54.94,1.19,1.75,1.94.82.76,1.5,1.27,2.03,1.54.54.27,1.12.49,1.74.65.62.16,1.36.24,2.22.24s1.73-.11,2.62-.32c.89-.22,2.08-.78,3.58-1.7,1.5-.92,3.04-2.35,4.63-4.29,1.59-1.94,3.14-3.59,4.65-4.94,1.51-1.35,2.67-2.27,3.48-2.75.8-.49,1.85-.89,3.14-1.21,1.29-.32,2.08-.4,2.39-.24.3.16.57.38.79.65.22.27.64,1.38,1.27,3.32.63,1.94,1.16,3.37,1.61,4.29s.94,1.75,1.49,2.51c.55.76,1.44,1.62,2.68,2.59,1.24.97,2.37,1.62,3.38,1.94,1.01.32,1.92.51,2.71.57.79.05,1.8-.11,3.02-.49,1.22-.38,2.53-1.11,3.95-2.19,1.42-1.08,2.13-1.7,2.15-1.86.01-.16.12-.27.32-.32.2-.05.94-.81,2.22-2.27,1.28-1.46,2.11-2.54,2.49-3.24.38-.7,1.27-1.86,2.65-3.48,1.38-1.62,2.41-2.67,3.08-3.16.67-.49,1.26-.81,1.76-.97.51-.16.96-.16,1.35,0,.39.16.71.49.94.97s.43,1.4.59,2.75c.16,1.35.34,2.37.54,3.08.2.7.58,1.62,1.13,2.75.55,1.13,1.02,1.97,1.42,2.51.4.54.78,1,1.14,1.38.36.38.88.78,1.54,1.21.66.43,1.94.97,3.83,1.62,1.89.65,3.44.94,4.63.89,1.19-.05,2.29-.3,3.3-.73,1.01-.43,2.32-1.4,3.94-2.91,1.62-1.51,3.35-3.56,5.21-6.15,1.86-2.59,3.33-4.26,4.41-5.02,1.08-.76,1.76-1.16,2.05-1.21.29-.05.51-.03.65.08.14.11.35.49.62,1.13.27.65.39,1.08.36,1.3-.03.22.15,1.05.54,2.51.39,1.46.79,2.62,1.21,3.48s.89,1.65,1.41,2.35c.52.7,1.17,1.35,1.96,1.94.78.59,1.95,1.08,3.48,1.46,1.54.38,2.87.57,4,.57s2.02-.11,2.69-.32c.66-.22,1.61-.78,2.83-1.7,1.23-.92,2.37-2,3.44-3.24,1.07-1.24,2.45-2.59,4.13-4.05,1.69-1.46,2.99-2.46,3.9-2.99.91-.54,1.97-.97,3.17-1.3,1.2-.32,1.87-.43,2.01-.32.14.11.41.62.81,1.54.4.92.66,1.97.78,3.16.12,1.19.47,2.37,1.05,3.56.58,1.19,1.09,2.02,1.55,2.51.46.49,1.13,1.02,2,1.62.87.59,1.83,1.08,2.87,1.46,1.04.38,2.38.62,4.01.73,1.63.11,2.88.03,3.74-.24.86-.27,1.96-.76,3.29-1.46,1.33-.7,2.56-1.19,3.7-1.46,1.13-.27,1.65-.59,1.56-.97-.09-.38-.46-.76-1.09-1.13-.63-.38-1.38-.62-2.25-.73-.87-.11-2.11.08-3.72.57-1.62.49-2.94,1.03-3.96,1.62-1.02.59-1.77.92-2.24.97-.47.05-.89.03-1.26-.08-.37-.11-.83-.4-1.38-.89-.55-.49-1.04-1.16-1.45-2.02s-.67-1.81-.76-2.83c-.09-1.03-.39-2.21-.91-3.56-.52-1.35-1.09-2.35-1.72-2.99-.63-.65-1.38-1.16-2.24-1.54-.86-.38-2.13-.62-3.81-.73-1.68-.11-3.38.11-5.1.65-1.73.54-3.48,1.43-5.28,2.67-1.79,1.24-3.83,3.05-6.11,5.42-2.28,2.37-3.51,3.56-3.69,3.56s-.59.27-1.23.81c-.64.54-1.26.81-1.84.81s-1.18-.38-1.77-1.13c-.59-.76-1.01-1.38-1.24-1.86-.24-.49-.62-1.83-1.15-4.05-.53-2.21-1.01-3.67-1.44-4.37-.43-.7-1.11-1.32-2.05-1.86-.94-.54-1.78-.92-2.51-1.13-.74-.22-1.85-.32-3.34-.32s-2.92.35-4.3,1.05c-1.38.7-2.47,1.51-3.29,2.43-.82.92-1.9,2.37-3.23,4.37-1.34,2-2.46,3.45-3.37,4.37-.91.92-1.78,1.65-2.6,2.19-.82.54-1.52.86-2.1.97-.58.11-1.25.03-2.01-.24-.76-.27-1.44-.78-2.03-1.54-.59-.76-1.18-1.78-1.76-3.08-.58-1.29-1-2.86-1.26-4.69-.26-1.83-.64-3.13-1.14-3.89-.5-.76-.97-1.29-1.39-1.62-.43-.32-1.06-.65-1.89-.97-.83-.32-2.05-.51-3.66-.57-1.61-.05-2.95.11-4.03.49Z"/><path class="cls-17" d="M398.9,214.89c.62,1.89,3.06,2.1,4.73,2.64,3.98,1.32,7.92,3.44,11.51,5.7,2.24,1.46,4.53,3.16,6.46,5.11,1.37,1.43,2.98,5.01,5.23,2.88,2.51-3.87-3.56-7.68-6.11-9.91-.13-.11-1.04-.76-.71-1,1.23-.44,3.21-.14,4.62-.31,12.15-.35,24.39-4.64,32.83-13.58,2.22-2.03,3.41-4.99,5.91-6.61,14.66-4.21,25.33-9.68,33.69-23.08,1.6-2.95,6.09-9.18,3.74-12.26-1.81-1.74-3.56.27-3.97,2.13-.53,1.78-1.41,3.6-2.38,5.34-5.85,10.8-16.65,19.38-28.74,21.97-.58-.02-.76-.43-.7-1.22.11-1.28.27-2.64.2-3.98-1.11-22.62-35.5-14.4-25.34,4.46,3.17,4.75,9.14,6.31,14.51,6.81,4.51.54-6.52,8.36-7.78,9.1-8.2,5.26-18.46,6.49-27.96,6.27-.55-.04-2.04-.03-1.05-.59,4.04-1.63,8.04-3.48,11.43-6.44,1.55-1.23,4.47-4.62,1.61-5.89-1.28-.34-2.55.82-3.63,1.59-1.07.8-2.22,1.67-3.28,2.4-4.79,3.18-10.19,5.03-16.04,5.79-2.64.8-9.17-2.06-8.83,2.53l.04.15ZM458.05,195.37c-4.94.15-12.32-.68-14.83-5.72-1.68-3.83.69-7.94,4.59-9.14,8.42-2.89,14.09,3.53,12.39,11.83-.27,1.4-.38,2.84-1.99,3.01l-.16.02Z"/></g></svg>