<?xml version="1.0" encoding="UTF-8"?><svg id="Layer_2" xmlns="http://www.w3.org/2000/svg" viewBox="0 0 727.25 291.52"><defs><style>.cls-1{fill:#0e0e30;}.cls-1,.cls-2{stroke-width:0px;}.cls-2{fill:#00cd5f;}</style></defs><g id="Logos"><path class="cls-1" d="M33.47,203.36c3.35,0,5.73,1.04,7.13,3.13,1.4,2.09,2.1,4.87,2.1,8.36,0,1.78-.17,4.04-.51,6.77-.34,2.74-.74,5.64-1.18,8.72-.45,3.08-.86,5.97-1.23,8.67-.38,2.7-.56,4.91-.56,6.62,0,1.16.21,1.98.62,2.46s.92.72,1.54.72c.89,0,1.85-.63,2.87-1.9,1.03-1.27,2.02-3.54,2.98-6.82l4.62,1.33c-.27,1.44-.79,3.04-1.54,4.82-.75,1.78-1.73,3.47-2.92,5.08-1.2,1.61-2.65,2.94-4.36,4-1.71,1.06-3.66,1.59-5.85,1.59-3.56,0-6.05-.96-7.49-2.87-1.44-1.91-2.15-4.62-2.15-8.11,0-2.32.19-4.87.56-7.64.37-2.77.8-5.57,1.28-8.41.48-2.84.89-5.56,1.23-8.16.34-2.6.51-4.92.51-6.98,0-1.09-.17-1.91-.51-2.46-.34-.55-.86-.82-1.54-.82-.82,0-1.74.63-2.77,1.9-1.03,1.27-2.02,3.54-2.98,6.82l-4.62-1.33c.2-1.37.68-2.94,1.44-4.72.75-1.78,1.76-3.49,3.03-5.13,1.27-1.64,2.75-2.99,4.46-4.05,1.71-1.06,3.66-1.59,5.85-1.59ZM37.88,178.74c1.98,0,3.62.72,4.92,2.15,1.3,1.44,1.88,3.25,1.74,5.44,0,2.12-.68,3.9-2.05,5.33-1.37,1.44-3.08,2.16-5.13,2.16s-3.71-.72-4.98-2.16c-1.27-1.44-1.9-3.21-1.9-5.33.14-2.19.92-4,2.36-5.44,1.44-1.44,3.11-2.15,5.03-2.15Z"/><path class="cls-1" d="M92.05,256.92c-3.63,0-6.07-.97-7.34-2.92-1.27-1.95-1.9-4.63-1.9-8.05,0-2.05.14-4.36.41-6.92.27-2.57.6-5.23.97-8,.37-2.77.7-5.44.97-8,.27-2.57.41-4.84.41-6.82,0-.96-.1-1.81-.31-2.57-.2-.75-.56-1.33-1.08-1.74-.51-.41-1.22-.62-2.1-.62-1.5,0-3.01.8-4.51,2.41-1.5,1.61-2.96,3.76-4.36,6.46-1.4,2.7-2.65,5.69-3.74,8.98-1.1,3.28-1.97,6.65-2.62,10.1-.65,3.45-.97,6.72-.97,9.8,0,.96.03,2.12.1,3.49.07,1.37.14,2.46.2,3.28h-11.7c-.14-1.09-.22-1.9-.26-2.41-.03-.51-.05-1.11-.05-1.8,0-1.3.08-2.86.26-4.67.17-1.81.39-3.92.67-6.31.27-2.39.58-5.06.92-8,.34-2.6.63-4.86.87-6.77.24-1.91.44-3.57.62-4.98.17-1.4.29-2.6.36-3.59.07-.99.1-1.83.1-2.51,0-1.16-.15-2-.46-2.51-.31-.51-.77-.77-1.39-.77-.89,0-1.85.63-2.87,1.9-1.03,1.27-1.98,3.54-2.87,6.82l-4.72-1.33c.27-1.37.72-2.94,1.33-4.72.62-1.78,1.47-3.49,2.56-5.13,1.09-1.64,2.43-2.99,4-4.05,1.57-1.06,3.45-1.59,5.64-1.59,1.78,0,3.3.39,4.57,1.18,1.26.79,2.22,1.95,2.87,3.49.65,1.54.94,3.51.87,5.9-.07,1.5-.19,2.84-.36,4-.17,1.16-.36,2.36-.56,3.59h.21c1.85-4.86,3.8-8.6,5.85-11.23,2.05-2.63,4.14-4.45,6.26-5.44,2.12-.99,4.21-1.49,6.26-1.49,2.87,0,5.18.63,6.93,1.9,1.74,1.27,3.03,3.03,3.85,5.28.82,2.26,1.23,4.86,1.23,7.8s-.22,5.97-.67,9.28c-.45,3.32-.91,6.53-1.38,9.65-.48,3.11-.72,5.87-.72,8.26,0,1.1.17,1.91.51,2.46.34.55.82.82,1.44.82.89,0,1.85-.63,2.87-1.9,1.03-1.27,1.98-3.54,2.87-6.82l4.72,1.33c-.27,1.37-.79,2.94-1.54,4.72-.75,1.78-1.74,3.49-2.98,5.13-1.23,1.64-2.7,2.99-4.41,4.05-1.71,1.06-3.66,1.59-5.85,1.59Z"/><path class="cls-1" d="M112.44,289.35l47.95-108.63h30.26l48.11,108.63h-31.97l-37.55-93.58h12.1l-37.55,93.58h-31.35ZM138.66,268.25l7.92-22.66h53.07l7.91,22.66h-68.9Z"/><path class="cls-1" d="M289.03,291.52c-8.59,0-16.52-1.37-23.82-4.11-7.29-2.74-13.6-6.64-18.93-11.72-5.33-5.07-9.49-11.04-12.49-17.92-3-6.88-4.5-14.46-4.5-22.73s1.5-15.85,4.5-22.73c3-6.88,7.16-12.85,12.49-17.93,5.33-5.06,11.64-8.97,18.93-11.72,7.3-2.74,15.23-4.11,23.82-4.11,10.03,0,19.01,1.76,26.93,5.27,7.91,3.52,14.51,8.59,19.79,15.21l-19.56,17.69c-3.52-4.14-7.37-7.29-11.56-9.47-4.19-2.17-8.87-3.26-14.05-3.26-4.45,0-8.53.73-12.26,2.17-3.73,1.45-6.9,3.54-9.54,6.28-2.64,2.74-4.71,6.03-6.21,9.85-1.5,3.83-2.25,8.07-2.25,12.73s.75,8.9,2.25,12.73c1.5,3.83,3.57,7.11,6.21,9.85,2.64,2.74,5.82,4.84,9.54,6.28,3.73,1.45,7.81,2.17,12.26,2.17,5.17,0,9.85-1.09,14.05-3.26,4.19-2.17,8.04-5.33,11.56-9.47l19.56,17.69c-5.28,6.52-11.87,11.56-19.79,15.13-7.91,3.57-16.89,5.35-26.93,5.35Z"/><path class="cls-1" d="M374.54,289.35v-84.26h-33.36v-24.36h97.3v24.36h-33.21v84.26h-30.73Z"/><path class="cls-1" d="M447.79,289.35v-108.63h30.72v108.63h-30.72Z"/><path class="cls-1" d="M551.32,291.52c-8.69,0-16.71-1.4-24.06-4.19-7.35-2.79-13.73-6.75-19.17-11.87-5.43-5.12-9.65-11.1-12.64-17.92-3-6.83-4.5-14.33-4.5-22.5s1.5-15.67,4.5-22.5c3-6.83,7.22-12.8,12.64-17.92,5.43-5.12,11.82-9.08,19.17-11.87,7.35-2.79,15.36-4.19,24.06-4.19s16.84,1.4,24.13,4.19c7.29,2.8,13.63,6.75,19.01,11.87,5.38,5.12,9.6,11.1,12.65,17.92,3.05,6.83,4.58,14.33,4.58,22.5s-1.53,15.7-4.58,22.58c-3.05,6.88-7.27,12.85-12.65,17.92-5.38,5.07-11.72,9-19.01,11.79-7.29,2.79-15.34,4.19-24.13,4.19ZM551.32,266.07c4.14,0,7.99-.72,11.56-2.17,3.57-1.45,6.67-3.54,9.31-6.28,2.64-2.74,4.71-6.03,6.21-9.85,1.5-3.83,2.25-8.07,2.25-12.73s-.75-9.02-2.25-12.8c-1.5-3.77-3.57-7.03-6.21-9.78-2.64-2.74-5.74-4.83-9.31-6.28-3.57-1.45-7.42-2.17-11.56-2.17s-7.99.73-11.56,2.17c-3.57,1.45-6.67,3.54-9.31,6.28-2.64,2.74-4.71,6-6.21,9.78-1.5,3.78-2.25,8.05-2.25,12.8s.75,8.9,2.25,12.73c1.5,3.83,3.57,7.11,6.21,9.85,2.64,2.74,5.74,4.84,9.31,6.28,3.57,1.45,7.42,2.17,11.56,2.17Z"/><path class="cls-1" d="M623.9,289.35v-108.63h25.29l59.9,72.31h-11.95v-72.31h30.1v108.63h-25.29l-59.9-72.32h11.95v72.32h-30.1Z"/><path class="cls-2" d="M0,2.1h61.15v153.57H0V2.1Z"/><path class="cls-2" d="M78.88,2.1h103.39c98.26,0,128.83,36.18,128.83,76.78,0,48.31-33.61,76.79-120.43,76.79h-111.79V2.1ZM189.98,134.2c60.21,0,95.45-13.77,95.45-55.31,0-31.04-24.04-55.31-102.92-55.31h-77.95v110.62h85.42Z"/><path class="cls-2" d="M326.52,2.1h108.76v30.11h-70.48v34.54h54.61v23.34h-54.61v35.48h72.58v30.11h-110.86V2.1Z"/><path class="cls-2" d="M564,118.33h-79.58l-15.17,37.34h-20.54L513.59,2.1h23.34l64.88,153.57h-22.87l-14.94-37.34ZM558.16,103.86l-33.37-83.78h-.47l-34.07,83.78h67.92Z"/><path class="cls-2" d="M604.02,103.16h52.28c0,13.3,1.4,17.04,4.9,17.04,2.8,0,4.2-2.57,4.2-9.8,0-6.07-.93-8.63-4.43-10.04-3.5-1.4-10.5-2.57-17.5-3.97-7.7-1.63-18.44-4.67-26.37-10.74-7.93-6.07-13.3-17.5-13.3-33.84,0-30.57,20.77-51.81,60.68-51.81,45.04,0,59.05,18.44,59.05,53.45h-48.78c0-12.84-1.4-15.87-5.37-15.87-3.27,0-4.43,3.03-4.43,8.4s.93,8.17,3.27,9.8c2.8,2.1,10.27,3.27,20.07,5.37,10.97,2.33,20.31,5.6,27.07,11.2,7.7,6.3,11.9,17.04,11.9,32.67,0,31.51-18.44,52.75-63.01,52.75-47.61,0-60.21-23.81-60.21-54.61Z"/></g></svg>