<?xml version="1.0" encoding="UTF-8"?><svg id="Layer_2" xmlns="http://www.w3.org/2000/svg" viewBox="0 0 242.11 97.05"><defs><style>.cls-1{fill:#fff;stroke-width:0px;}</style></defs><g id="Logos"><path class="cls-1" d="M11.14,67.7c1.12,0,1.91.35,2.37,1.04.47.69.7,1.62.7,2.78,0,.59-.06,1.34-.17,2.25-.11.91-.24,1.88-.39,2.9-.15,1.02-.28,1.99-.41,2.89-.13.9-.19,1.63-.19,2.2,0,.39.07.66.21.82s.31.24.51.24c.3,0,.61-.21.96-.63s.67-1.18.99-2.27l1.54.44c-.09.48-.26,1.01-.51,1.61-.25.59-.58,1.16-.97,1.69-.4.54-.88.98-1.45,1.33-.57.35-1.22.53-1.95.53-1.18,0-2.02-.32-2.49-.96s-.72-1.54-.72-2.7c0-.77.06-1.62.19-2.54.12-.92.27-1.86.43-2.8.16-.94.3-1.85.41-2.72.11-.87.17-1.64.17-2.32,0-.36-.06-.64-.17-.82-.11-.18-.28-.27-.51-.27-.27,0-.58.21-.92.63s-.67,1.18-.99,2.27l-1.54-.44c.07-.45.23-.98.48-1.57.25-.59.59-1.16,1.01-1.71.42-.55.92-1,1.49-1.35.57-.35,1.22-.53,1.95-.53ZM12.61,59.5c.66,0,1.21.24,1.64.72.43.48.63,1.08.58,1.81,0,.71-.23,1.3-.68,1.78-.46.48-1.02.72-1.71.72s-1.24-.24-1.66-.72c-.42-.48-.63-1.07-.63-1.78.05-.73.31-1.33.79-1.81s1.04-.72,1.67-.72Z"/><path class="cls-1" d="M30.64,85.53c-1.21,0-2.02-.32-2.44-.97-.42-.65-.63-1.54-.63-2.68,0-.68.05-1.45.14-2.31.09-.85.2-1.74.32-2.66.12-.92.23-1.81.32-2.66.09-.85.14-1.61.14-2.27,0-.32-.03-.6-.1-.85-.07-.25-.19-.44-.36-.58-.17-.14-.4-.2-.7-.2-.5,0-1,.27-1.5.8-.5.54-.99,1.25-1.45,2.15-.47.9-.88,1.9-1.25,2.99-.36,1.09-.65,2.21-.87,3.36-.22,1.15-.32,2.24-.32,3.26,0,.32.01.71.03,1.16.02.46.05.82.07,1.09h-3.89c-.05-.36-.07-.63-.09-.8-.01-.17-.02-.37-.02-.6,0-.43.03-.95.09-1.55.06-.6.13-1.3.22-2.1.09-.8.19-1.68.31-2.66.11-.87.21-1.62.29-2.25.08-.64.15-1.19.2-1.66.06-.47.1-.87.12-1.2.02-.33.03-.61.03-.84,0-.39-.05-.67-.15-.84-.1-.17-.26-.26-.46-.26-.3,0-.61.21-.96.63s-.66,1.18-.96,2.27l-1.57-.44c.09-.45.24-.98.44-1.57.2-.59.49-1.16.85-1.71.36-.55.81-1,1.33-1.35.52-.35,1.15-.53,1.88-.53.59,0,1.1.13,1.52.39.42.26.74.65.96,1.16.22.51.31,1.17.29,1.96-.02.5-.06.94-.12,1.33-.06.39-.12.79-.19,1.2h.07c.61-1.62,1.26-2.86,1.95-3.74.68-.88,1.38-1.48,2.08-1.81.71-.33,1.4-.5,2.08-.5.96,0,1.72.21,2.31.63.58.42,1.01,1.01,1.28,1.76.27.75.41,1.62.41,2.6s-.07,1.99-.22,3.09c-.15,1.1-.3,2.17-.46,3.21-.16,1.04-.24,1.95-.24,2.75,0,.36.06.64.17.82.11.18.27.27.48.27.3,0,.61-.21.96-.63s.66-1.18.96-2.27l1.57.44c-.09.46-.26.98-.51,1.57-.25.59-.58,1.16-.99,1.71-.41.55-.9,1-1.47,1.35-.57.35-1.22.53-1.95.53Z"/><path class="cls-1" d="M37.43,96.33l15.96-36.16h10.07l16.02,36.16h-10.64l-12.5-31.15h4.03l-12.5,31.15h-10.44ZM46.16,89.3l2.64-7.54h17.67l2.63,7.54h-22.94Z"/><path class="cls-1" d="M96.22,97.05c-2.86,0-5.5-.46-7.93-1.37-2.43-.91-4.53-2.21-6.3-3.9-1.77-1.69-3.16-3.68-4.16-5.97-1-2.29-1.5-4.81-1.5-7.57s.5-5.28,1.5-7.57c1-2.29,2.38-4.28,4.16-5.97,1.77-1.69,3.87-2.99,6.3-3.9,2.43-.91,5.07-1.37,7.93-1.37,3.34,0,6.33.59,8.96,1.76,2.63,1.17,4.83,2.86,6.59,5.06l-6.51,5.89c-1.17-1.38-2.45-2.43-3.85-3.15-1.4-.72-2.95-1.08-4.68-1.08-1.48,0-2.84.24-4.08.72-1.24.48-2.3,1.18-3.18,2.09-.88.91-1.57,2.01-2.07,3.28-.5,1.27-.75,2.69-.75,4.24s.25,2.96.75,4.24c.5,1.27,1.19,2.37,2.07,3.28s1.94,1.61,3.18,2.09c1.24.48,2.6.72,4.08.72,1.72,0,3.28-.36,4.68-1.08,1.39-.72,2.68-1.77,3.85-3.15l6.51,5.89c-1.76,2.17-3.95,3.85-6.59,5.04-2.63,1.19-5.62,1.78-8.96,1.78Z"/><path class="cls-1" d="M124.69,96.33v-28.05h-11.11v-8.11h32.39v8.11h-11.06v28.05h-10.23Z"/><path class="cls-1" d="M149.07,96.33v-36.16h10.23v36.16h-10.23Z"/><path class="cls-1" d="M183.54,97.05c-2.89,0-5.56-.47-8.01-1.4-2.45-.93-4.57-2.25-6.38-3.95-1.81-1.7-3.21-3.69-4.21-5.97-1-2.27-1.5-4.77-1.5-7.49s.5-5.22,1.5-7.49c1-2.27,2.4-4.26,4.21-5.97,1.81-1.7,3.94-3.02,6.38-3.95,2.45-.93,5.11-1.39,8.01-1.39s5.6.46,8.03,1.39c2.43.93,4.54,2.25,6.33,3.95,1.79,1.7,3.19,3.69,4.21,5.97,1.02,2.27,1.52,4.77,1.52,7.49s-.51,5.23-1.52,7.52c-1.02,2.29-2.42,4.28-4.21,5.97-1.79,1.69-3.9,3-6.33,3.93-2.43.93-5.11,1.4-8.03,1.4ZM183.54,88.58c1.38,0,2.66-.24,3.85-.72,1.19-.48,2.22-1.18,3.1-2.09.88-.91,1.57-2.01,2.07-3.28.5-1.27.75-2.69.75-4.24s-.25-3-.75-4.26c-.5-1.26-1.19-2.34-2.07-3.25-.88-.91-1.91-1.61-3.1-2.09-1.19-.48-2.47-.72-3.85-.72s-2.66.24-3.85.72c-1.19.48-2.22,1.18-3.1,2.09-.88.91-1.57,2-2.07,3.25-.5,1.26-.75,2.68-.75,4.26s.25,2.96.75,4.24c.5,1.27,1.19,2.37,2.07,3.28s1.91,1.61,3.1,2.09c1.19.48,2.47.72,3.85.72Z"/><path class="cls-1" d="M207.7,96.33v-36.16h8.42l19.94,24.07h-3.98v-24.07h10.02v36.16h-8.42l-19.94-24.07h3.98v24.07h-10.02Z"/><path class="cls-1" d="M0,.7h20.36v51.12H0V.7Z"/><path class="cls-1" d="M26.26.7h34.42c32.71,0,42.89,12.04,42.89,25.56,0,16.08-11.19,25.56-40.09,25.56H26.26V.7ZM63.24,44.68c20.05,0,31.78-4.58,31.78-18.41,0-10.33-8-18.41-34.26-18.41h-25.95v36.83h28.44Z"/><path class="cls-1" d="M108.7.7h36.21v10.02h-23.46v11.5h18.18v7.77h-18.18v11.81h24.16v10.02h-36.9V.7Z"/><path class="cls-1" d="M187.76,39.39h-26.49l-5.05,12.43h-6.84L170.98.7h7.77l21.6,51.12h-7.61l-4.97-12.43ZM185.82,34.57l-11.11-27.89h-.16l-11.34,27.89h22.61Z"/><path class="cls-1" d="M201.08,34.34h17.4c0,4.43.47,5.67,1.63,5.67.93,0,1.4-.85,1.4-3.26,0-2.02-.31-2.87-1.48-3.34-1.17-.47-3.5-.85-5.83-1.32-2.56-.54-6.14-1.55-8.78-3.57-2.64-2.02-4.43-5.83-4.43-11.27,0-10.18,6.91-17.25,20.2-17.25,15,0,19.66,6.14,19.66,17.79h-16.24c0-4.27-.47-5.28-1.79-5.28-1.09,0-1.48,1.01-1.48,2.8s.31,2.72,1.09,3.26c.93.7,3.42,1.09,6.68,1.79,3.65.78,6.76,1.86,9.01,3.73,2.56,2.1,3.96,5.67,3.96,10.88,0,10.49-6.14,17.56-20.98,17.56-15.85,0-20.05-7.93-20.05-18.18Z"/></g></svg>