<?xml version="1.0" encoding="UTF-8"?><svg id="Layer_2" xmlns="http://www.w3.org/2000/svg" viewBox="0 0 266.26 97.84"><defs><style>.cls-1{fill:#0d202e;}.cls-1,.cls-2{stroke-width:0px;}.cls-2{fill:#fb4d42;}</style></defs><g id="Logos"><path class="cls-1" d="M48.1,20.86c4.34,0,7.86-3.52,7.86-7.86s-3.52-7.86-7.86-7.86-7.86,3.52-7.86,7.86,3.52,7.86,7.86,7.86Z"/><path class="cls-1" d="M14.27,20.86c4.34,0,7.86-3.52,7.86-7.86s-3.52-7.86-7.86-7.86-7.86,3.52-7.86,7.86,3.52,7.86,7.86,7.86Z"/><rect class="cls-2" x=".25" y="76.38" width="62.9" height="14.62"/><path class="cls-1" d="M29.63,39.7c-.79.33-1.28,1.03-1.28,1.7,0,1.19,1.22,1.43,2.46,1.68v-3.64c-.39.06-.82.12-1.18.27Z"/><path class="cls-1" d="M33.25,48.3v4.17c.73-.12,2.65-.46,2.65-2.31,0-1.37-1.43-1.68-2.65-1.85Z"/><path class="cls-1" d="M59.22,22.57h-23.46c-1.98,0-3.62,1.37-4.06,3.21-.44-1.84-2.08-3.21-4.06-3.21H4.18c-2.31,0-4.18,1.87-4.18,4.18v39.58h63.4V26.75c0-2.31-1.87-4.18-4.18-4.18ZM40.48,51.65c-.52,1.85-1.4,2.89-2.77,3.74-1.58.94-2.92,1.09-4.47,1.28v3.65h-2.43v-3.65c-2.77-.27-5.2-.79-8.18-2.79l2.77-3.17c2.82,1.58,4.26,1.73,5.41,1.82v-4.68c-2.25-.43-4.31-.88-5.66-2.06-1.64-1.43-1.68-3.25-1.68-3.83,0-2.31.95-4.07,2.71-5.26,1.61-1.06,3.28-1.22,4.59-1.3v-3.5h0s2.46,0,2.46,0v3.5c2.65.27,4.38.97,6.78,2.46l-2.68,3.1c-2.03-1.03-2.52-1.16-4.1-1.49v4.04c2.52.57,4.71,1.09,6.08,2.52.88.92,1.43,2.28,1.43,3.74,0,.64-.09,1.25-.27,1.89Z"/><rect class="cls-1" x="88.6" width="1" height="97.84"/><path class="cls-1" d="M121,10.59c1.52,0,2.82.27,3.89.81,1.08.54,1.95,1.25,2.64,2.14.68.89,1.18,1.87,1.48,2.93.31,1.07.45,2.12.44,3.16-.02,1.09-.23,2.2-.63,3.33-.4,1.13-.99,2.17-1.75,3.14-.77.97-1.73,1.75-2.89,2.34-1.16.6-2.52.9-4.07.9s-2.85-.27-3.93-.79-1.96-1.23-2.64-2.1c-.67-.87-1.16-1.83-1.46-2.89-.3-1.06-.44-2.13-.42-3.2.02-1.23.24-2.42.67-3.59.43-1.16,1.05-2.21,1.86-3.14.81-.93,1.79-1.67,2.93-2.22s2.44-.82,3.89-.82ZM120.77,11.85c-1.01.02-1.89.27-2.65.74-.76.48-1.4,1.11-1.91,1.91-.51.79-.9,1.66-1.18,2.6-.27.94-.42,1.87-.44,2.79-.02.84.07,1.73.26,2.68.19.95.5,1.84.95,2.68.44.84,1.04,1.52,1.78,2.04.74.52,1.65.78,2.73.78s1.95-.24,2.72-.72c.77-.48,1.4-1.11,1.91-1.91.5-.8.89-1.66,1.15-2.6.26-.94.4-1.86.4-2.77.02-1.08-.09-2.1-.31-3.09-.22-.98-.57-1.86-1.05-2.63-.48-.77-1.08-1.38-1.81-1.83-.73-.45-1.57-.68-2.55-.68Z"/><path class="cls-1" d="M138.64,9.47c.68-.02,1.21.11,1.58.38.37.27.55.65.55,1.13,0,.15-.04.33-.12.53s-.21.36-.38.49c-.18.13-.41.19-.7.19-.34,0-.62-.13-.83-.39-.21-.26-.3-.59-.27-1-.05-.02-.14-.04-.26-.06s-.24-.03-.36-.01c-.38.02-.68.18-.92.49s-.43.71-.58,1.2-.27,1.06-.36,1.7c-.09.64-.17,1.31-.22,2.01h3.51l-.1,1.26-3.51.05c-.02.55-.05,1.14-.09,1.77-.04.63-.09,1.29-.13,1.97-.04.68-.09,1.35-.14,2-.05.65-.11,1.26-.18,1.82-.1,1.09-.22,2.17-.36,3.23-.14,1.06-.32,2.05-.55,2.97-.23.92-.54,1.73-.93,2.43s-.9,1.25-1.51,1.65c-.61.4-1.38.6-2.3.6-.7,0-1.23-.13-1.6-.4-.37-.27-.55-.64-.55-1.11,0-.16.04-.33.13-.53.09-.2.22-.37.4-.51s.41-.21.7-.19c.34.02.61.15.82.39.21.24.3.55.28.92.15.1.35.15.59.15.5,0,.88-.26,1.15-.78.27-.52.48-1.24.63-2.15s.26-1.96.33-3.12c.08-1.17.17-2.4.29-3.7.05-.55.1-1.14.14-1.77s.09-1.28.14-1.95c.05-.67.1-1.31.15-1.93.05-.62.1-1.2.15-1.73l-2.18.03.15-1.36h2.2c.17-1.26.44-2.39.82-3.39.38-1,.92-1.79,1.64-2.37.72-.58,1.64-.88,2.77-.9Z"/><path class="cls-1" d="M138.73,35.87c-.7,0-1.23-.13-1.6-.4-.37-.27-.55-.64-.55-1.11,0-.16.04-.33.13-.51.09-.19.21-.36.38-.51s.41-.22.72-.21c.29.02.54.12.76.3.21.18.32.43.32.76,0,.07-.02.15-.05.26.1.05.2.09.31.12.1.03.23.04.38.04.38,0,.68-.15.92-.45.24-.3.43-.7.58-1.2s.26-1.07.33-1.7c.08-.63.16-1.27.24-1.92.07-.85.14-1.8.22-2.83.08-1.03.15-2.09.22-3.17.07-1.08.14-2.13.22-3.12.08-1,.16-1.91.24-2.73l-2.18.03.15-1.36h2.18c.34-2.24,1.02-3.9,2.04-4.98,1.02-1.08,2.45-1.64,4.29-1.68.56,0,1.13.08,1.69.23s1.07.36,1.52.63c.45.27.82.59,1.09.96.27.38.4.79.38,1.26,0,.24-.06.46-.17.67-.11.21-.27.37-.46.49-.2.12-.43.18-.7.18-.34-.04-.62-.16-.85-.37s-.34-.47-.36-.76c-.02-.27.03-.57.15-.9-.17-.39-.49-.71-.96-.96-.47-.25-1.01-.35-1.63-.32-.8,0-1.46.19-1.96.58-.5.38-.89.98-1.15,1.79s-.45,1.87-.55,3.19h3.3l-.1,1.26-3.3.05c-.09,1.26-.17,2.48-.24,3.65-.08,1.17-.15,2.26-.23,3.28-.08,1.02-.15,1.94-.22,2.77-.07.83-.15,1.52-.23,2.09-.19,1.25-.48,2.38-.87,3.39-.39,1.02-.95,1.81-1.66,2.4-.72.58-1.63.87-2.74.87ZM152.81,29.21c-.84,0-1.44-.22-1.81-.67-.37-.44-.55-1.08-.55-1.9,0-.67.05-1.35.15-2.05.1-.7.21-1.4.33-2.1s.23-1.39.32-2.06c.09-.67.14-1.33.14-1.96,0-.24-.04-.47-.13-.68-.09-.21-.25-.32-.49-.32s-.51.18-.82.53c-.31.35-.58.95-.82,1.81l-.95-.23c.05-.33.16-.7.33-1.11s.4-.83.69-1.23c.29-.4.64-.73,1.04-1,.4-.26.87-.4,1.4-.4.79,0,1.35.25,1.7.76.35.51.53,1.18.53,2.01,0,.48-.04,1.06-.13,1.73-.09.68-.19,1.39-.32,2.14-.13.75-.24,1.48-.33,2.2-.09.72-.14,1.37-.14,1.95,0,.32.06.56.18.72.12.15.28.23.49.23.26,0,.54-.18.84-.53.31-.35.58-.95.82-1.81l.95.23c-.07.36-.19.76-.37,1.19s-.41.85-.68,1.23c-.27.39-.61.7-1.01.95-.4.25-.86.37-1.37.37Z"/><path class="cls-1" d="M163.82,15.84c.75,0,1.42.13,2.02.4.6.27,1.07.62,1.41,1.08.34.45.51.97.51,1.55,0,.43-.11.77-.33,1.02-.22.26-.53.39-.92.41-.46.02-.79-.12-.97-.42-.19-.3-.28-.56-.28-.78,0-.15.02-.32.06-.5.04-.18.12-.35.24-.5-.09-.38-.3-.65-.63-.83-.33-.18-.71-.27-1.14-.27-.67,0-1.23.19-1.68.58-.45.38-.81.88-1.06,1.5-.26.61-.44,1.27-.55,1.96-.11.69-.18,1.34-.19,1.96,0,1.11.12,2,.36,2.68.24.67.58,1.16,1.01,1.46.44.3.91.46,1.42.48.41,0,.84-.09,1.29-.26.45-.17.9-.47,1.34-.91.44-.44.83-1.06,1.15-1.88l1.08.54c-.44,1.03-.95,1.84-1.52,2.45-.57.61-1.18,1.04-1.83,1.29-.65.26-1.31.38-2,.38-1.5,0-2.71-.46-3.61-1.37-.9-.91-1.36-2.33-1.36-4.24,0-.82.12-1.68.37-2.59.25-.91.62-1.75,1.13-2.54s1.14-1.42,1.92-1.91,1.69-.73,2.75-.73Z"/><path class="cls-1" d="M175.96,15.84c.67,0,1.28.1,1.83.3.55.2,1,.52,1.34.96.34.44.51,1.04.51,1.79,0,.7-.23,1.3-.69,1.81s-1.06.92-1.79,1.24c-.73.33-1.53.59-2.38.78-.85.2-1.67.35-2.46.45,0,1.03.11,1.86.33,2.51.22.65.53,1.13.94,1.43.4.31.88.46,1.45.46.43,0,.88-.09,1.34-.28.47-.19.93-.49,1.37-.91.44-.42.84-.99,1.2-1.7l1.05.56c-.48.96-1,1.73-1.56,2.32-.56.59-1.17,1.01-1.82,1.27-.65.26-1.35.38-2.1.38-1.6,0-2.82-.49-3.64-1.47s-1.23-2.34-1.23-4.08c0-.92.13-1.85.38-2.78s.64-1.78,1.15-2.54c.51-.76,1.17-1.37,1.97-1.82.8-.45,1.73-.68,2.79-.68ZM175.62,17c-.72,0-1.3.24-1.75.73-.45.49-.8,1.11-1.04,1.88-.24.77-.39,1.56-.46,2.38.9-.14,1.72-.36,2.46-.65.73-.3,1.32-.67,1.75-1.13.44-.45.64-.96.63-1.52,0-.51-.14-.92-.42-1.23s-.67-.46-1.17-.46Z"/><path class="cls-1" d="M194.93,15.84c.92,0,1.76.22,2.51.65.75.44,1.34,1.08,1.78,1.92s.65,1.87.65,3.06c0,1.37-.25,2.64-.76,3.82-.5,1.18-1.23,2.13-2.16,2.84s-2.07,1.08-3.41,1.08c-1.13,0-2.06-.26-2.8-.77-.74-.51-1.29-1.21-1.65-2.09-.36-.88-.54-1.85-.54-2.91,0-1.38.26-2.65.77-3.8.51-1.15,1.25-2.07,2.2-2.77.96-.69,2.09-1.04,3.41-1.04ZM194.55,17.05c-.68-.02-1.27.23-1.75.73-.49.5-.87,1.18-1.14,2.04s-.42,1.8-.44,2.84c0,.55.04,1.13.12,1.75.08.62.21,1.2.41,1.74.2.54.47.98.81,1.32.34.34.78.52,1.31.54.6,0,1.11-.18,1.52-.55s.76-.85,1.02-1.43c.26-.59.46-1.22.59-1.88.13-.67.2-1.29.22-1.87.02-.56,0-1.14-.08-1.74-.07-.6-.2-1.16-.4-1.69-.2-.53-.47-.96-.82-1.29-.35-.33-.81-.5-1.37-.5Z"/><path class="cls-1" d="M208.68,9.47c.68-.02,1.21.11,1.58.38.37.27.55.65.55,1.13,0,.15-.04.33-.12.53s-.21.36-.38.49c-.18.13-.41.19-.7.19-.34,0-.62-.13-.83-.39-.21-.26-.3-.59-.27-1-.05-.02-.14-.04-.26-.06s-.24-.03-.36-.01c-.38.02-.68.18-.92.49-.24.31-.43.71-.58,1.2s-.27,1.06-.36,1.7c-.09.64-.17,1.31-.22,2.01h3.51l-.1,1.26-3.51.05c-.02.55-.05,1.14-.09,1.77-.04.63-.09,1.29-.13,1.97-.04.68-.09,1.35-.14,2-.05.65-.11,1.26-.18,1.82-.1,1.09-.22,2.17-.36,3.23-.14,1.06-.32,2.05-.55,2.97-.23.92-.54,1.73-.93,2.43s-.9,1.25-1.51,1.65c-.61.4-1.38.6-2.3.6-.7,0-1.23-.13-1.6-.4-.37-.27-.55-.64-.55-1.11,0-.16.04-.33.13-.53.09-.2.22-.37.4-.51s.41-.21.7-.19c.34.02.61.15.82.39.21.24.3.55.28.92.15.1.35.15.59.15.5,0,.88-.26,1.15-.78.27-.52.48-1.24.63-2.15.15-.91.26-1.96.33-3.12.08-1.17.17-2.4.29-3.7.05-.55.1-1.14.14-1.77.04-.63.09-1.28.14-1.95.05-.67.1-1.31.15-1.93.05-.62.1-1.2.15-1.73l-2.18.03.15-1.36h2.2c.17-1.26.44-2.39.82-3.39.38-1,.92-1.79,1.64-2.37.72-.58,1.64-.88,2.77-.9Z"/><path class="cls-1" d="M118.57,39.98c1.6,0,2.95.2,4.03.59,1.08.39,1.9.98,2.45,1.75.55.78.8,1.75.77,2.93-.02.68-.17,1.37-.45,2.07-.28.7-.74,1.35-1.37,1.95-.63.6-1.47,1.09-2.52,1.46-1.05.38-2.37.56-3.96.56-.17.02-.37.03-.6.03s-.46,0-.68-.03l-.18,3.23c-.02.46-.04.88-.08,1.24s-.07.66-.1.88c.24-.02.5-.04.77-.05.27-.02.54-.03.81-.04.26,0,.5-.02.7-.04l-.05,1.43h-6.63l.08-1.13c.55-.03.95-.15,1.22-.36.27-.21.44-.51.53-.92.09-.41.15-.93.18-1.56l.56-10.65c.03-.38.06-.74.09-1.09.03-.35.06-.65.09-.91-.29.02-.61.03-.96.05-.35.02-.65.04-.91.05l.08-1.41c1.01-.02,2.02-.03,3.03-.04,1.02,0,2.05-.01,3.11-.01ZM118.46,41.23c-.48,0-.85.1-1.1.28-.26.19-.44.47-.54.86-.1.38-.17.88-.21,1.5l-.31,6.07c.27.02.52.03.74.05.22.02.47.03.74.03.97,0,1.83-.18,2.59-.54.75-.36,1.35-.88,1.79-1.56.44-.68.69-1.49.74-2.43.03-.82-.06-1.51-.27-2.06-.21-.55-.53-.99-.95-1.31-.42-.32-.91-.54-1.46-.68-.56-.14-1.15-.21-1.78-.21Z"/><path class="cls-1" d="M133.77,44.87c.51,0,1.08.04,1.7.13.62.09,1.23.2,1.83.33-.12.91-.25,1.85-.38,2.83-.14.98-.26,1.94-.37,2.87-.11.93-.2,1.77-.28,2.52-.08.75-.12,1.34-.12,1.77,0,.33.03.62.09.88.06.27.23.4.5.4s.56-.18.87-.53c.31-.35.58-.95.82-1.81l.95.23c-.07.32-.18.7-.35,1.11s-.38.83-.65,1.23c-.27.4-.61.73-1.01,1s-.87.4-1.4.4c-.65,0-1.14-.2-1.46-.59-.32-.39-.49-.96-.49-1.72,0-.41.03-.85.1-1.33.07-.48.15-.96.23-1.46h-.05c-.38,1.09-.77,1.97-1.18,2.64-.41.67-.82,1.18-1.23,1.54-.41.36-.82.6-1.22.73-.4.13-.79.19-1.16.19-.92,0-1.7-.35-2.34-1.06-.64-.71-.96-1.87-.96-3.47,0-1.18.16-2.3.47-3.37.32-1.07.79-2.01,1.43-2.83.64-.82,1.43-1.46,2.38-1.93.95-.47,2.04-.71,3.27-.71ZM132.92,46.05c-.67,0-1.25.19-1.77.58-.51.39-.94.92-1.29,1.6-.35.68-.61,1.47-.78,2.37-.17.9-.26,1.86-.26,2.88,0,.96.11,1.74.32,2.34.21.61.58.91,1.11.91.43,0,.85-.22,1.27-.65s.81-1.02,1.18-1.75c.37-.73.69-1.56.97-2.47s.5-1.85.67-2.8c.16-.96.25-1.87.27-2.74-.21-.09-.46-.15-.76-.19-.3-.04-.61-.06-.94-.06Z"/><path class="cls-1" d="M141.73,57.95c-.02-.21-.03-.36-.04-.47,0-.11-.01-.24-.01-.37,0-.32.01-.7.04-1.14s.07-.97.14-1.6.15-1.4.26-2.31c.1-.96.19-1.71.26-2.27.07-.56.12-.99.17-1.32.04-.32.06-.57.06-.74,0-.33-.03-.61-.09-.86-.06-.25-.23-.37-.5-.37-.24,0-.51.18-.82.53-.31.35-.59.95-.84,1.81l-.95-.23c.07-.33.18-.7.35-1.11.16-.42.38-.83.65-1.23.27-.4.61-.73,1-1,.39-.26.85-.4,1.38-.4.68,0,1.19.23,1.51.69.32.46.47,1.14.44,2.02,0,.34-.03.73-.1,1.15s-.15.89-.23,1.38h.05c.5-1.42,1-2.5,1.52-3.25.52-.75,1.05-1.27,1.57-1.56.53-.29,1.04-.44,1.54-.44.56,0,1.02.15,1.38.44.36.29.54.69.54,1.2,0,.36-.12.68-.37.97-.25.29-.58.44-.99.44-.34,0-.63-.1-.87-.31-.24-.21-.37-.5-.38-.87-.43-.07-.84.09-1.24.49-.4.39-.78.95-1.13,1.67-.35.72-.66,1.52-.93,2.41-.27.89-.49,1.79-.64,2.71-.15.92-.23,1.78-.23,2.59,0,.26,0,.49.01.71,0,.21.02.43.04.65h-2.53Z"/><path class="cls-1" d="M157.4,41.46l-.49,3.69h3.79l-.1,1.23-3.79.05c-.07.68-.15,1.4-.24,2.14-.09.74-.18,1.48-.24,2.2-.07.73-.12,1.41-.17,2.05s-.06,1.2-.06,1.68c0,.29.02.6.06.92.04.32.15.59.32.81.17.22.44.32.82.32.15,0,.36-.03.61-.1s.54-.23.85-.47.61-.64.92-1.17l.87.56c-.53.96-1.12,1.67-1.78,2.15-.66.48-1.42.72-2.29.72-.75,0-1.33-.16-1.74-.47s-.7-.73-.87-1.26c-.17-.52-.25-1.08-.23-1.68,0-.61.03-1.37.08-2.25.05-.89.13-1.86.23-2.91.1-1.05.21-2.12.33-3.21l-2.2.03.13-1.33c1.19,0,2.08-.32,2.66-.96.58-.64,1.02-1.55,1.31-2.73h1.23Z"/><path class="cls-1" d="M164.88,44.87c.77,0,1.33.25,1.69.76.36.51.54,1.18.54,2.01,0,.48-.05,1.06-.14,1.73-.09.68-.21,1.39-.33,2.14-.13.75-.24,1.48-.32,2.2-.09.72-.13,1.37-.13,1.95,0,.32.06.56.17.72.11.15.27.23.47.23.27,0,.56-.18.86-.53.3-.35.57-.95.81-1.81l.95.23c-.07.36-.19.76-.36,1.19-.17.44-.4.85-.68,1.23-.28.39-.62.7-1.01.95-.39.25-.85.37-1.36.37-.84,0-1.44-.22-1.81-.67s-.55-1.08-.55-1.9c0-.67.05-1.35.14-2.05.09-.7.2-1.4.32-2.1.12-.7.23-1.39.33-2.06.1-.67.15-1.33.15-1.96,0-.24-.05-.47-.14-.68-.09-.21-.25-.32-.47-.32-.26,0-.54.18-.85.53-.31.35-.58.95-.82,1.81l-.95-.23c.07-.33.19-.7.36-1.11.17-.42.4-.83.68-1.23.28-.4.62-.73,1.02-1,.4-.26.87-.4,1.42-.4ZM166.16,39.03c.44,0,.81.16,1.1.47.29.32.43.72.41,1.22,0,.48-.15.87-.46,1.18-.31.31-.68.46-1.13.46s-.81-.15-1.1-.46c-.29-.31-.44-.7-.44-1.18.02-.5.18-.9.5-1.22.32-.32.69-.47,1.11-.47Z"/><path class="cls-1" d="M177,44.87c.75,0,1.42.13,2.02.4.6.27,1.07.62,1.41,1.08.34.45.51.97.51,1.55,0,.43-.11.77-.33,1.02-.22.26-.53.39-.92.41-.46.02-.79-.12-.97-.42-.19-.3-.28-.56-.28-.78,0-.15.02-.32.06-.5.04-.18.12-.35.24-.5-.09-.38-.3-.65-.63-.83-.33-.18-.71-.27-1.14-.27-.67,0-1.23.19-1.68.58-.45.38-.81.88-1.06,1.5-.26.61-.44,1.27-.55,1.96-.11.69-.18,1.34-.19,1.96,0,1.11.12,2,.36,2.68.24.67.58,1.16,1.01,1.46.44.3.91.46,1.42.48.41,0,.84-.09,1.29-.26.45-.17.9-.47,1.34-.91.44-.44.83-1.06,1.15-1.88l1.08.54c-.44,1.03-.95,1.84-1.52,2.45-.57.61-1.18,1.04-1.83,1.29-.65.26-1.31.38-2,.38-1.5,0-2.71-.46-3.61-1.37-.9-.91-1.36-2.33-1.36-4.24,0-.82.12-1.68.37-2.59.25-.91.62-1.75,1.13-2.54s1.14-1.42,1.92-1.91,1.69-.73,2.75-.73Z"/><path class="cls-1" d="M185.85,44.87c.77,0,1.33.25,1.69.76.36.51.54,1.18.54,2.01,0,.48-.05,1.06-.14,1.73-.09.68-.21,1.39-.33,2.14-.13.75-.24,1.48-.32,2.2-.09.72-.13,1.37-.13,1.95,0,.32.06.56.17.72.11.15.27.23.47.23.27,0,.56-.18.86-.53.3-.35.57-.95.81-1.81l.95.23c-.07.36-.19.76-.36,1.19-.17.44-.4.85-.68,1.23-.28.39-.62.7-1.01.95-.39.25-.85.37-1.36.37-.84,0-1.44-.22-1.81-.67s-.55-1.08-.55-1.9c0-.67.05-1.35.14-2.05.09-.7.2-1.4.32-2.1.12-.7.23-1.39.33-2.06.1-.67.15-1.33.15-1.96,0-.24-.05-.47-.14-.68-.09-.21-.25-.32-.47-.32-.26,0-.54.18-.85.53-.31.35-.58.95-.82,1.81l-.95-.23c.07-.33.19-.7.36-1.11.17-.42.4-.83.68-1.23.28-.4.62-.73,1.02-1,.4-.26.87-.4,1.42-.4ZM187.13,39.03c.44,0,.81.16,1.1.47.29.32.43.72.41,1.22,0,.48-.15.87-.46,1.18-.31.31-.68.46-1.13.46s-.81-.15-1.1-.46c-.29-.31-.44-.7-.44-1.18.02-.5.18-.9.5-1.22.32-.32.69-.47,1.11-.47Z"/><path class="cls-1" d="M191.12,64.48v-1.08c.46,0,.79-.14,1-.42.2-.28.34-.66.41-1.13.07-.47.13-1,.18-1.6.14-1.64.27-3.16.4-4.57.13-1.41.24-2.65.33-3.74.09-1.08.17-1.99.22-2.73.05-.73.08-1.25.08-1.56,0-.33-.03-.6-.09-.82-.06-.22-.23-.33-.5-.33-.24,0-.51.18-.81.53-.3.35-.58.95-.83,1.81l-.95-.23c.05-.33.16-.7.32-1.11.16-.42.38-.83.65-1.23.27-.4.61-.73,1-1,.39-.26.85-.4,1.38-.4.7,0,1.21.24,1.52.71.32.47.47,1.09.47,1.86,0,.46-.03.9-.08,1.31-.05.41-.11.79-.18,1.15h.05c.46-1.38.94-2.44,1.45-3.16s1.02-1.22,1.55-1.47c.53-.26,1.03-.39,1.51-.39.79,0,1.44.22,1.97.65.53.44.93,1.03,1.19,1.78.26.75.4,1.59.4,2.51,0,1.64-.28,3.09-.83,4.37-.56,1.27-1.38,2.27-2.48,2.98-1.1.72-2.48,1.08-4.14,1.08-.17,0-.35,0-.54-.01-.19-.01-.37-.02-.54-.04-.07,1.13-.12,2.02-.15,2.68-.03.66-.07,1.16-.1,1.51s-.07.63-.1.83c.27-.02.56-.03.85-.04s.56-.02.79-.04v1.36h-5.4ZM196.73,57.08c.67,0,1.25-.15,1.74-.45s.91-.7,1.26-1.2c.34-.5.62-1.06.83-1.68.21-.61.36-1.24.45-1.87.09-.63.13-1.22.13-1.77,0-.73-.05-1.37-.15-1.92s-.27-.97-.5-1.28c-.23-.31-.55-.46-.96-.46s-.82.21-1.23.63c-.41.42-.79,1-1.13,1.73-.34.73-.65,1.57-.92,2.51-.27.94-.48,1.93-.62,2.97-.07.39-.12.8-.17,1.22-.04.42-.08.86-.12,1.32.24.09.47.15.7.19.23.04.46.06.68.06Z"/><path class="cls-1" d="M213.04,44.87c.51,0,1.08.04,1.7.13.62.09,1.23.2,1.83.33-.12.91-.25,1.85-.38,2.83-.14.98-.26,1.94-.37,2.87-.11.93-.2,1.77-.28,2.52-.08.75-.12,1.34-.12,1.77,0,.33.03.62.09.88.06.27.23.4.5.4s.56-.18.87-.53c.31-.35.58-.95.82-1.81l.95.23c-.07.32-.18.7-.35,1.11s-.38.83-.65,1.23c-.27.4-.61.73-1.01,1s-.87.4-1.4.4c-.65,0-1.14-.2-1.46-.59-.32-.39-.49-.96-.49-1.72,0-.41.03-.85.1-1.33.07-.48.15-.96.23-1.46h-.05c-.38,1.09-.77,1.97-1.18,2.64-.41.67-.82,1.18-1.23,1.54-.41.36-.82.6-1.22.73-.4.13-.79.19-1.16.19-.92,0-1.7-.35-2.34-1.06-.64-.71-.96-1.87-.96-3.47,0-1.18.16-2.3.47-3.37s.79-2.01,1.43-2.83c.64-.82,1.43-1.46,2.38-1.93.95-.47,2.04-.71,3.27-.71ZM212.19,46.05c-.67,0-1.25.19-1.77.58-.51.39-.94.92-1.29,1.6-.35.68-.61,1.47-.78,2.37-.17.9-.26,1.86-.26,2.88,0,.96.11,1.74.32,2.34.21.61.58.91,1.11.91.43,0,.85-.22,1.27-.65s.81-1.02,1.18-1.75c.37-.73.69-1.56.97-2.47s.5-1.85.67-2.8c.16-.96.25-1.87.27-2.74-.21-.09-.46-.15-.76-.19-.3-.04-.61-.06-.94-.06Z"/><path class="cls-1" d="M224.33,41.46l-.49,3.69h3.79l-.1,1.23-3.79.05c-.07.68-.15,1.4-.24,2.14-.09.74-.18,1.48-.24,2.2-.07.73-.12,1.41-.17,2.05s-.06,1.2-.06,1.68c0,.29.02.6.06.92.04.32.15.59.32.81.17.22.44.32.82.32.15,0,.36-.03.61-.1s.54-.23.85-.47.61-.64.92-1.17l.87.56c-.53.96-1.12,1.67-1.78,2.15-.66.48-1.42.72-2.29.72-.75,0-1.33-.16-1.74-.47s-.7-.73-.87-1.26c-.17-.52-.25-1.08-.23-1.68,0-.61.03-1.37.08-2.25.05-.89.13-1.86.23-2.91.1-1.05.21-2.12.33-3.21l-2.2.03.13-1.33c1.19,0,2.08-.32,2.66-.96.58-.64,1.02-1.55,1.31-2.73h1.23Z"/><path class="cls-1" d="M235.26,44.87c.92,0,1.76.22,2.51.65s1.34,1.08,1.78,1.92.65,1.87.65,3.06c0,1.37-.25,2.64-.76,3.82-.5,1.18-1.23,2.13-2.16,2.84-.94.72-2.07,1.08-3.41,1.08-1.13,0-2.06-.26-2.8-.77-.74-.51-1.29-1.21-1.65-2.09-.36-.88-.54-1.85-.54-2.91,0-1.38.26-2.65.77-3.8.51-1.15,1.25-2.07,2.2-2.77.96-.69,2.09-1.04,3.41-1.04ZM234.88,46.07c-.68-.02-1.27.23-1.75.73-.49.5-.87,1.18-1.14,2.04s-.42,1.8-.44,2.84c0,.55.04,1.13.12,1.75.08.62.21,1.2.41,1.74.2.54.47.98.81,1.32.34.34.78.52,1.31.54.6,0,1.11-.18,1.52-.55s.76-.85,1.02-1.43c.26-.59.46-1.22.59-1.88.13-.67.2-1.29.22-1.87.02-.56,0-1.14-.08-1.74-.07-.6-.2-1.16-.4-1.69-.2-.53-.47-.96-.82-1.29-.35-.33-.81-.5-1.37-.5Z"/><path class="cls-1" d="M243.93,57.95c-.02-.21-.03-.36-.04-.47,0-.11-.01-.24-.01-.37,0-.32.01-.7.04-1.14s.07-.97.14-1.6.15-1.4.26-2.31c.1-.96.19-1.71.26-2.27.07-.56.12-.99.17-1.32.04-.32.06-.57.06-.74,0-.33-.03-.61-.09-.86-.06-.25-.23-.37-.5-.37-.24,0-.51.18-.82.53-.31.35-.59.95-.84,1.81l-.95-.23c.07-.33.18-.7.35-1.11.16-.42.38-.83.65-1.23.27-.4.61-.73,1-1,.39-.26.85-.4,1.38-.4.68,0,1.19.23,1.51.69.32.46.47,1.14.44,2.02,0,.34-.03.73-.1,1.15s-.15.89-.23,1.38h.05c.5-1.42,1-2.5,1.52-3.25.52-.75,1.05-1.27,1.57-1.56.53-.29,1.04-.44,1.54-.44.56,0,1.02.15,1.38.44.36.29.54.69.54,1.2,0,.36-.12.68-.37.97-.25.29-.58.44-.99.44-.34,0-.63-.1-.87-.31-.24-.21-.37-.5-.38-.87-.43-.07-.84.09-1.24.49-.4.39-.78.95-1.13,1.67-.35.72-.66,1.52-.93,2.41-.27.89-.49,1.79-.64,2.71-.15.92-.23,1.78-.23,2.59,0,.26,0,.49.01.71,0,.21.02.43.04.65h-2.53Z"/><path class="cls-1" d="M256.02,64.89c-.65-.02-1.16-.19-1.55-.51-.38-.33-.58-.74-.58-1.23,0-.44.14-.79.42-1.02.28-.24.56-.36.83-.36.82,0,1.24.45,1.25,1.36.09.03.16.06.23.09.07.03.15.04.23.04.34,0,.7-.13,1.08-.4.38-.27.73-.6,1.08-1,.34-.4.64-.8.91-1.18.27-.38.46-.7.58-.94-.14-.92-.32-1.89-.55-2.91-.23-1.02-.49-2.04-.78-3.07s-.6-2.03-.93-2.98c-.33-.96-.68-1.85-1.04-2.69-.12-.27-.27-.57-.46-.88-.19-.32-.44-.47-.77-.45-.29.04-.53.25-.72.64-.19.39-.27.99-.26,1.79h-1.02c-.02-.44.01-.91.09-1.41.08-.5.22-.96.44-1.41.21-.45.51-.81.88-1.09.38-.28.85-.42,1.43-.42s1.04.15,1.42.44c.38.29.7.65.95,1.09s.45.87.6,1.29c.29.77.6,1.68.92,2.74.32,1.06.62,2.16.87,3.3s.45,2.24.59,3.28h.05c.44-.82.85-1.69,1.23-2.6.38-.91.68-1.83.92-2.75s.37-1.78.38-2.59c0-.36-.03-.71-.09-1.06s-.15-.6-.27-.76c-.07.03-.15.06-.24.08-.09.02-.2.03-.32.03-.34,0-.63-.11-.86-.33-.23-.22-.35-.5-.35-.82,0-.44.15-.78.44-1s.62-.33.97-.33c.56,0,1,.17,1.32.5.32.33.55.76.69,1.27s.22,1.05.22,1.61c0,.99-.15,2.05-.45,3.19-.3,1.14-.69,2.28-1.18,3.43-.49,1.15-1.02,2.28-1.6,3.37-.79,1.43-1.57,2.65-2.36,3.66-.79,1.01-1.57,1.76-2.34,2.27-.78.5-1.55.75-2.32.73Z"/><path class="cls-1" d="M118.57,69c2,0,3.54.36,4.62,1.09,1.08.73,1.56,1.86,1.42,3.39-.03.53-.21,1.05-.52,1.57-.32.52-.77.98-1.37,1.38-.6.4-1.36.7-2.28.88v.05c1.81.09,3.14.56,3.98,1.42s1.22,1.91,1.14,3.14c-.05,1.06-.35,1.97-.91,2.73-.56.76-1.3,1.34-2.23,1.73-.93.39-1.98.59-3.14.59h-7.84l.08-1.13c.56-.02.97-.13,1.23-.35s.43-.53.53-.96c.09-.43.16-.96.19-1.61l.54-10.45c.02-.46.05-.87.09-1.24.04-.37.08-.66.12-.88-.31.02-.63.03-.97.05-.34.02-.65.04-.92.05l.08-1.41c1.02,0,2.04,0,3.05-.03,1.01-.02,2.05-.03,3.12-.03ZM118.8,78.29c-.5,0-.93,0-1.31.01-.38,0-.76.02-1.15.04l-.28,5.25c-.02.46-.04.87-.08,1.22-.03.35-.07.64-.1.86.27.02.58.03.93.03h1.7c1.23-.02,2.21-.35,2.93-.99.73-.64,1.12-1.54,1.19-2.7.05-.94-.1-1.68-.46-2.21-.36-.54-.84-.92-1.43-1.15-.6-.23-1.25-.35-1.95-.35ZM118.54,70.2c-.44,0-.8.07-1.08.21-.27.14-.47.37-.59.71-.12.33-.2.82-.23,1.47l-.23,4.51c.29,0,.58,0,.87-.01.29,0,.56-.02.82-.04.89-.04,1.6-.23,2.14-.59s.93-.82,1.18-1.37c.25-.56.38-1.14.4-1.76.05-.85-.09-1.5-.44-1.95-.34-.44-.77-.75-1.28-.92-.51-.17-1.03-.26-1.56-.26Z"/><path class="cls-1" d="M131.83,87.26c-.7,0-1.26-.16-1.68-.47s-.73-.74-.92-1.28c-.2-.54-.29-1.13-.29-1.78,0-.85.06-1.73.19-2.63.13-.9.26-1.75.38-2.55.13-.8.19-1.47.19-2,0-.31-.04-.56-.12-.74-.08-.19-.23-.28-.47-.28s-.5.18-.79.53c-.29.35-.56.95-.82,1.81l-.92-.23c.05-.33.16-.7.33-1.11s.4-.83.68-1.23c.28-.4.62-.73,1.02-1,.4-.26.87-.4,1.42-.4.77,0,1.32.23,1.66.68.34.45.51,1.1.51,1.93,0,.5-.04,1.08-.12,1.77s-.17,1.39-.27,2.11c-.1.73-.19,1.43-.27,2.1-.08.67-.12,1.26-.12,1.75,0,.21.03.42.08.65.05.23.15.42.31.56.15.15.37.22.64.22.43,0,.85-.21,1.26-.63.41-.42.8-.99,1.17-1.7.37-.72.7-1.51,1-2.38.3-.87.53-1.76.7-2.68.17-.91.26-1.78.26-2.6,0-.24,0-.49-.01-.77s-.03-.52-.06-.74h2.54c.03.21.05.36.05.47v.37c0,.33-.02.71-.05,1.14-.04.44-.09.97-.15,1.6s-.16,1.4-.28,2.3c-.1.82-.18,1.49-.24,2-.06.51-.11.93-.15,1.24-.04.32-.07.57-.08.77s-.01.38-.01.55c0,.29.04.53.13.71.09.18.23.27.44.27.26,0,.54-.17.84-.51.31-.34.58-.94.82-1.79l.95.23c-.07.32-.18.7-.33,1.11-.15.42-.37.83-.64,1.23-.27.4-.61.73-1,1-.39.27-.85.4-1.38.4-.65,0-1.15-.2-1.51-.59-.36-.39-.54-.96-.54-1.72,0-.44.04-.9.12-1.37.08-.47.16-.96.24-1.47h-.05c-.53,1.37-1.05,2.42-1.55,3.17-.5.75-1.01,1.27-1.51,1.55-.5.28-1.03.42-1.58.42Z"/><path class="cls-1" d="M146.49,87.26c-.8,0-1.47-.22-2-.65-.53-.44-.92-1.03-1.18-1.77-.26-.74-.38-1.56-.38-2.45,0-1.66.27-3.12.81-4.4.54-1.28,1.35-2.28,2.43-3.01,1.08-.73,2.45-1.09,4.08-1.09.21,0,.44.01.69.03.26.02.48.03.67.05.09-.67.16-1.28.22-1.86s.12-1.08.19-1.51c.07-.44.13-.77.18-1.01-.29.02-.6.03-.93.05-.33.02-.64.03-.91.05l.1-1.33c.77,0,1.38-.04,1.83-.12s.81-.17,1.06-.27c.26-.1.45-.21.59-.33h.95c-.15,1.08-.31,2.28-.47,3.61s-.35,2.9-.55,4.71c-.12,1.13-.24,2.23-.36,3.3-.12,1.08-.22,2.07-.31,2.97-.09.91-.13,1.65-.13,2.23,0,.31.04.58.12.81.08.23.23.35.47.35.26,0,.53-.18.83-.53.3-.35.57-.95.81-1.81l.97.23c-.05.32-.16.7-.33,1.11-.17.42-.39.83-.67,1.23-.27.4-.61.73-1,1s-.85.4-1.38.4c-.63,0-1.12-.2-1.47-.59-.35-.39-.53-.96-.53-1.72,0-.44.03-.88.08-1.31.05-.43.12-.9.21-1.41h-.05c-.44,1.37-.94,2.41-1.47,3.14-.54.73-1.08,1.22-1.61,1.49s-1.05.4-1.55.4ZM147.16,85.67c.51,0,1.01-.27,1.49-.82.48-.55.91-1.28,1.29-2.19.38-.91.7-1.91.93-2.98.12-.6.23-1.26.32-1.99.09-.73.18-1.52.27-2.39-.22-.09-.48-.15-.78-.18-.3-.04-.58-.05-.83-.05-.67,0-1.24.15-1.73.46-.49.31-.9.71-1.23,1.22-.33.5-.6,1.06-.79,1.68-.2.62-.34,1.24-.42,1.87-.09.63-.13,1.23-.13,1.79,0,1.06.13,1.92.38,2.59.26.67.67,1,1.23,1Z"/><path class="cls-1" d="M161.04,93.91c-.43,0-.86-.04-1.31-.13-.44-.09-.87-.22-1.27-.4-.4-.18-.73-.42-.97-.72s-.37-.65-.37-1.06c0-.26.05-.5.15-.72s.26-.41.47-.56c.21-.15.46-.23.73-.23.36,0,.67.12.92.35.26.23.38.56.38.99,0,.22-.05.45-.15.69.15.22.39.38.72.49.32.1.62.16.87.16.89,0,1.58-.24,2.09-.71s.89-1.1,1.15-1.88c.26-.79.46-1.65.58-2.59.15-.97.27-1.92.36-2.84.09-.92.21-1.78.36-2.59h-.08c-.34,1.08-.7,1.95-1.08,2.61-.38.67-.76,1.18-1.15,1.55-.39.37-.79.61-1.19.74-.4.13-.8.19-1.19.19-.72,0-1.34-.2-1.86-.6-.52-.4-.92-.97-1.2-1.7s-.42-1.59-.42-2.56c0-1.13.15-2.2.45-3.21s.75-1.92,1.36-2.73c.61-.8,1.38-1.43,2.32-1.88.94-.45,2.06-.68,3.36-.68.55,0,1.13.04,1.77.13s1.2.2,1.69.33c-.05.89-.11,1.85-.18,2.88-.07,1.03-.15,2.09-.24,3.16-.09,1.08-.18,2.12-.27,3.14-.09,1.02-.16,1.97-.23,2.86-.14,1.64-.47,3.02-1,4.14-.53,1.12-1.25,1.96-2.18,2.53-.92.57-2.05.86-3.38.86ZM161.78,85.69c.44,0,.87-.22,1.28-.67.41-.44.78-1.03,1.13-1.77s.65-1.55.92-2.46c.27-.9.5-1.83.67-2.78.17-.95.27-1.84.31-2.68-.17-.1-.4-.18-.68-.22-.28-.04-.56-.06-.83-.06-.82,0-1.51.21-2.07.61-.56.41-1.02.96-1.36,1.64-.34.68-.59,1.44-.73,2.28-.15.84-.22,1.68-.22,2.53,0,.68.05,1.29.15,1.83.1.54.27.96.51,1.27.24.31.55.46.92.46Z"/><path class="cls-1" d="M176.96,73.89c.67,0,1.28.1,1.83.3.55.2,1,.52,1.34.96.34.44.51,1.04.51,1.79,0,.7-.23,1.3-.69,1.81s-1.06.92-1.79,1.24c-.73.33-1.53.59-2.38.78-.85.2-1.67.35-2.46.45,0,1.03.11,1.86.33,2.51.22.65.53,1.13.94,1.43.4.31.88.46,1.45.46.43,0,.88-.09,1.34-.28.47-.19.93-.49,1.37-.91.44-.42.84-.99,1.2-1.7l1.05.56c-.48.96-1,1.73-1.56,2.32-.56.59-1.17,1.01-1.82,1.27-.65.26-1.35.38-2.1.38-1.6,0-2.82-.49-3.64-1.47s-1.23-2.34-1.23-4.08c0-.92.13-1.85.38-2.78.26-.93.64-1.78,1.15-2.54.51-.76,1.17-1.37,1.97-1.82.8-.45,1.73-.68,2.79-.68ZM176.63,75.04c-.72,0-1.3.24-1.75.73-.45.49-.8,1.11-1.04,1.88s-.39,1.56-.46,2.38c.9-.14,1.72-.36,2.46-.65.73-.3,1.32-.67,1.75-1.13.44-.45.64-.96.63-1.52,0-.51-.14-.92-.42-1.23s-.67-.46-1.17-.46Z"/><path class="cls-1" d="M187.67,70.48l-.49,3.69h3.79l-.1,1.23-3.79.05c-.07.68-.15,1.4-.24,2.14-.09.74-.18,1.48-.24,2.2-.07.73-.12,1.41-.17,2.05s-.06,1.2-.06,1.68c0,.29.02.6.06.92.04.32.15.59.32.81.17.22.44.32.82.32.15,0,.36-.03.61-.1s.54-.23.85-.47.61-.64.92-1.17l.87.56c-.53.96-1.12,1.67-1.78,2.15-.66.48-1.42.72-2.29.72-.75,0-1.33-.16-1.74-.47s-.7-.73-.87-1.26c-.17-.52-.25-1.08-.23-1.68,0-.61.03-1.37.08-2.25.05-.89.13-1.86.23-2.91.1-1.05.21-2.12.33-3.21l-2.2.03.13-1.33c1.19,0,2.08-.32,2.66-.96.58-.64,1.02-1.55,1.31-2.73h1.23Z"/><path class="cls-1" d="M195.15,73.89c.77,0,1.33.25,1.69.76.36.51.54,1.18.54,2.01,0,.48-.05,1.06-.14,1.73-.09.68-.21,1.39-.33,2.14-.13.75-.24,1.48-.32,2.2-.09.72-.13,1.37-.13,1.95,0,.32.06.56.17.72.11.15.27.23.47.23.27,0,.56-.18.86-.53.3-.35.57-.95.81-1.81l.95.23c-.07.36-.19.76-.36,1.19-.17.44-.4.85-.68,1.23-.28.39-.62.7-1.01.95-.39.25-.85.37-1.36.37-.84,0-1.44-.22-1.81-.67s-.55-1.08-.55-1.9c0-.67.05-1.35.14-2.05.09-.7.2-1.4.32-2.1.12-.7.23-1.39.33-2.06.1-.67.15-1.33.15-1.96,0-.24-.05-.47-.14-.68-.09-.21-.25-.32-.47-.32-.26,0-.54.18-.85.53-.31.35-.58.95-.82,1.81l-.95-.23c.07-.33.19-.7.36-1.11.17-.42.4-.83.68-1.23.28-.4.62-.73,1.02-1,.4-.26.87-.4,1.42-.4ZM196.43,68.05c.44,0,.81.16,1.1.47.29.32.43.72.41,1.22,0,.48-.15.87-.46,1.18-.31.31-.68.46-1.13.46s-.81-.15-1.1-.46c-.29-.31-.44-.7-.44-1.18.02-.5.18-.9.5-1.22.32-.32.69-.47,1.11-.47Z"/><path class="cls-1" d="M211.61,87.26c-.84,0-1.41-.23-1.72-.68-.31-.45-.46-1.1-.46-1.93,0-.48.04-1.04.12-1.69.08-.65.16-1.33.26-2.04.09-.71.18-1.41.26-2.11.08-.7.12-1.34.12-1.92,0-.22-.03-.44-.09-.65-.06-.21-.16-.39-.31-.54s-.36-.22-.65-.22c-.41,0-.83.21-1.27.63-.44.42-.85.99-1.23,1.7-.38.72-.73,1.51-1.04,2.38-.31.87-.55,1.76-.73,2.68s-.27,1.78-.27,2.6c0,.24,0,.5.01.77,0,.27.02.52.04.74h-2.54c-.02-.21-.03-.36-.03-.47v-.37c0-.32.02-.7.05-1.11s.09-.93.17-1.55.17-1.37.27-2.28c.09-.82.16-1.49.22-2.01.06-.52.11-.95.15-1.28.04-.33.07-.6.09-.81s.03-.39.03-.56c0-.31-.04-.55-.13-.73-.09-.18-.24-.27-.46-.27-.24,0-.51.18-.82.53-.31.35-.59.95-.84,1.81l-.95-.23c.07-.33.18-.7.35-1.11.16-.42.38-.83.65-1.23.27-.4.61-.73,1-1,.39-.26.85-.4,1.38-.4s.91.13,1.2.39c.29.26.5.61.61,1.05.12.45.17.96.15,1.54-.02.43-.06.82-.13,1.18s-.13.7-.18,1.02h.05c.53-1.37,1.06-2.42,1.6-3.18.54-.75,1.08-1.27,1.63-1.56.55-.29,1.08-.44,1.61-.44.7,0,1.26.16,1.68.47.42.32.72.74.91,1.27.19.53.28,1.13.28,1.79,0,.84-.06,1.71-.18,2.61-.12.91-.24,1.76-.36,2.56-.12.8-.18,1.47-.18,2,0,.31.04.56.12.74.08.19.23.28.47.28.26,0,.53-.17.83-.51.3-.34.58-.95.83-1.82l.92.26c-.05.31-.16.68-.33,1.1-.17.43-.4.84-.69,1.23-.29.39-.64.72-1.05.99-.41.27-.89.4-1.43.4Z"/><path class="cls-1" d="M219.98,93.91c-.43,0-.86-.04-1.31-.13-.44-.09-.87-.22-1.27-.4-.4-.18-.73-.42-.97-.72s-.37-.65-.37-1.06c0-.26.05-.5.15-.72s.26-.41.47-.56c.21-.15.46-.23.73-.23.36,0,.67.12.92.35.26.23.38.56.38.99,0,.22-.05.45-.15.69.15.22.39.38.72.49.32.1.62.16.87.16.89,0,1.58-.24,2.09-.71s.89-1.1,1.15-1.88c.26-.79.46-1.65.58-2.59.15-.97.27-1.92.36-2.84.09-.92.21-1.78.36-2.59h-.08c-.34,1.08-.7,1.95-1.08,2.61-.38.67-.76,1.18-1.15,1.55-.39.37-.79.61-1.19.74-.4.13-.8.19-1.19.19-.72,0-1.34-.2-1.86-.6-.52-.4-.92-.97-1.2-1.7s-.42-1.59-.42-2.56c0-1.13.15-2.2.45-3.21.3-1.02.75-1.92,1.36-2.73.61-.8,1.38-1.43,2.32-1.88.94-.45,2.06-.68,3.36-.68.55,0,1.13.04,1.77.13s1.2.2,1.69.33c-.05.89-.11,1.85-.18,2.88-.07,1.03-.15,2.09-.24,3.16-.09,1.08-.18,2.12-.27,3.14-.09,1.02-.16,1.97-.23,2.86-.14,1.64-.47,3.02-1,4.14-.53,1.12-1.25,1.96-2.18,2.53-.92.57-2.05.86-3.38.86ZM220.72,85.69c.44,0,.87-.22,1.28-.67.41-.44.78-1.03,1.13-1.77s.65-1.55.92-2.46c.27-.9.5-1.83.67-2.78.17-.95.27-1.84.31-2.68-.17-.1-.4-.18-.68-.22-.28-.04-.56-.06-.83-.06-.82,0-1.51.21-2.07.61-.56.41-1.02.96-1.36,1.64-.34.68-.59,1.44-.73,2.28-.15.84-.22,1.68-.22,2.53,0,.68.05,1.29.15,1.83.1.54.27.96.51,1.27.24.31.55.46.92.46Z"/></g></svg>