<?xml version="1.0" encoding="UTF-8"?><svg id="Layer_2" xmlns="http://www.w3.org/2000/svg" viewBox="0 0 110.74 111.12"><defs><style>.cls-1{fill:#fff;stroke-width:0px;}</style></defs><g id="Icons"><path class="cls-1" d="M66.61,61.25c.15.11.29.23.44.33,1.09.71,2.09,1.51,3.03,2.41.58.55,1.21,1.05,1.85,1.53,1.89,1.43,3.7,2.95,5.28,4.72,1,1.12,2.15,2.08,3.34,3,.77.59,1.52,1.21,2.27,1.82,1.7,1.41,3.39,2.85,5.1,4.24,1.28,1.05,2.47,2.18,3.62,3.38,1.16,1.22,2.4,2.37,3.6,3.55,1.07,1.05,2.14,2.1,3.2,3.15.55.55,1.1,1.12,1.61,1.71.43.48.87.97,1.21,1.51.95,1.53.82,3.25-.3,4.66-.03.04-.06.08-.1.12-1.95,2-3.75,4.14-5.88,5.95-.55.46-1.11.91-1.69,1.32-1.22.87-2.44,1.74-3.68,2.58-.41.28-.84.53-1.29.71-1.61.65-3.11.41-4.46-.66-.3-.24-.58-.53-.83-.83-.27-.32-.54-.67-.75-1.03-1.7-2.96-3.74-5.69-5.69-8.48-1.47-2.11-3.06-4.13-4.66-6.15-.92-1.16-1.81-2.35-2.72-3.51-.9-1.15-1.78-2.32-2.72-3.44-1.47-1.75-2.86-3.55-4.18-5.42-.97-1.37-2.02-2.7-3.02-4.06-.89-1.21-1.75-2.43-2.62-3.65-.08-.11-.15-.23-.24-.33-.03-.04-.08-.05-.16-.1-.19.11-.4.22-.6.33-4.1,2.41-8.49,4-13.21,4.67-5.56.79-10.97.13-16.23-1.81-.51-.19-1.02-.39-1.49-.67-.44-.25-.87-.56-1.2-.93-.81-.9-1.06-1.97-.65-3.13.42-1.16,1.3-1.8,2.5-2.01.7-.12,1.39,0,2.08.13,1.1.22,2.2.47,3.31.63,6.15.87,12.17.37,18-1.83,7.93-3,13.46-8.51,16.75-16.29,1.27-3.01,2.16-6.14,2.45-9.41.42-4.82-.14-9.52-1.95-14.03-.73-1.82-1.56-3.59-2.46-5.33-1.72-3.3-4.1-6.01-7.2-8.06-2.56-1.69-5.16-3.31-8.05-4.4-3.46-1.3-7.01-2.19-10.72-2.03-4.32.18-8.57.87-12.64,2.43-4.6,1.76-8.44,4.59-11.64,8.32-2.88,3.36-5.01,7.16-6.45,11.34-1.23,3.56-1.44,7.22-1.2,10.94.43,6.71,2.77,12.72,6.52,18.24.85,1.25,1.7,2.51,2.54,3.77.23.35.43.73.6,1.12.11.26.19.55.21.83.04.64-.36,1.1-1,1.1-.36,0-.76-.06-1.09-.2-.59-.26-1.16-.56-1.71-.91-1.2-.76-2.23-1.72-3.19-2.78-3.41-3.77-5.75-8.12-7.12-13C.53,44.45-.01,41.53,0,38.53c.02-5.45,1-10.74,3.02-15.81,1.96-4.92,4.98-9.13,8.9-12.68C17.03,5.41,22.89,2.17,29.63.62c1.58-.36,3.18-.58,4.8-.61,4.78-.09,9.49.36,14.07,1.8,2.49.78,4.87,1.84,7.16,3.1,1.78.99,3.4,2.2,4.9,3.57,2.73,2.48,5.24,5.16,7.51,8.06,2.19,2.79,3.73,5.91,4.84,9.28,2.32,7.05,2.53,14.17.78,21.35-1.21,4.95-3.56,9.37-6.66,13.4-.12.16-.25.33-.37.49-.02.03-.02.06-.06.18ZM94.52,94.63c-.07-.11-.11-.18-.16-.25-1.13-1.32-2.3-2.59-3.67-3.68-.87-.69-1.71-1.41-2.52-2.15-1.74-1.58-3.49-3.14-5.38-4.54-1.34-1-2.57-2.12-3.67-3.38-.93-1.07-1.96-2.03-3.07-2.91-1.23-.97-2.38-2.03-3.45-3.18-1.03-1.1-2.15-2.08-3.4-2.92-1.23-.84-2.33-1.82-3.26-2.99-.91-1.15-2.06-1.97-3.37-2.59-.31-.15-.53-.11-.78.11-.56.49-1.15.96-1.73,1.44-.1.08-.23.14-.39.24.25.24.39.38.54.51,2.44,2.17,4.82,4.42,6.94,6.92,1.07,1.26,2.18,2.48,3.28,3.71,1.16,1.29,2.36,2.55,3.48,3.88,1.96,2.33,3.91,4.68,5.79,7.07,2.55,3.25,5.39,6.28,7.52,9.85.12.2.27.24.47.12.09-.05.18-.11.26-.16,2.33-1.38,4.39-3.1,6.42-4.87.06-.05.11-.13.19-.22Z"/><path class="cls-1" d="M19.84,44.6c.22.03.43.06.65.08,2.57.28,5.14.59,7.68,1.13.65.14,1.29.3,1.93.5,1.59.49,2.78,1.48,3.53,2.97.66,1.31,1.3,2.62,1.95,3.93.21.43.42.85.64,1.28.07.13.15.25.26.43.1-.12.19-.19.24-.29.14-.27.28-.55.41-.82.95-2.03,2.13-3.91,3.37-5.77,1.2-1.79,2.8-2.93,4.9-3.4,1.68-.38,3.35-.78,5.02-1.18.24-.06.48-.15.71-.22.04-.29-.18-.35-.31-.46-.82-.66-1.66-1.3-2.48-1.97-.5-.41-.99-.84-1.44-1.3-1.31-1.34-1.81-2.93-1.45-4.78.12-.62.28-1.23.46-1.83.48-1.63.97-3.26,1.46-4.89.06-.19.11-.39.18-.66-.2.03-.33.03-.44.07-.47.16-.93.33-1.39.5-2.31.83-4.7,1.39-7.09,1.95-.2.05-.4.08-.6.11-1.62.25-3.02-.19-4.24-1.28-1.15-1.03-2.34-2.03-3.52-3.03-.44-.37-.91-.72-1.37-1.07-.13-.1-.28-.18-.48-.31-.04.24-.07.4-.08.56-.36,3.35-.71,6.7-1.08,10.05-.05.49-.17.97-.28,1.45-.04.2-.13.39-.23.56-.25.4-.69.51-1.05.2-.26-.23-.52-.52-.64-.84-.29-.76-.57-1.54-.73-2.33-.2-1-.33-2.02-.41-3.03-.18-2.22-.34-4.45-.47-6.67-.06-.97-.08-1.94-.05-2.91.02-.55.12-1.12.3-1.65.44-1.31,1.59-2.12,2.98-2.19.84-.04,1.64.14,2.38.5,1.14.57,2.28,1.16,3.37,1.81.99.59,1.92,1.29,2.88,1.94.47.31.94.62,1.4.93.3.2.62.24.97.17,2.45-.52,4.87-1.16,7.23-2,1.33-.48,2.68-.9,4.03-1.31.53-.16,1.09-.27,1.65-.32,2.29-.21,4.14,1.17,4.64,3.41.16.71.2,1.42.09,2.13-.17,1.09-.37,2.18-.61,3.26-.45,2.06-.93,4.12-1.41,6.17-.11.46-.01.77.36,1.06,1.56,1.2,3.12,2.42,4.67,3.64.68.54,1.4,1.04,2.02,1.64,1.83,1.78,1.98,4.25.45,6.29-.54.72-1.21,1.29-1.95,1.78-1.15.75-2.4,1.28-3.7,1.71-2.58.84-5.25,1.32-7.93,1.71-.61.09-1.02.34-1.38.83-.96,1.29-1.8,2.65-2.59,4.04-.72,1.26-1.43,2.52-2.19,3.75-.44.71-.91,1.4-1.45,2.04-.81.96-1.86,1.48-3.14,1.44-1.05-.03-1.97-.43-2.7-1.17-.49-.51-.93-1.09-1.29-1.7-1.07-1.82-2.01-3.71-2.75-5.7-.32-.88-.67-1.75-.99-2.63-.16-.44-.44-.64-.89-.72-3.38-.62-6.77-1.24-10.14-1.89-1.1-.21-2.19-.5-3.27-.79-.39-.1-.77-.27-1.13-.46-1.37-.73-1.99-2.11-1.6-3.62.13-.52.34-1.05.62-1.5.4-.65.86-1.27,1.37-1.83,1.34-1.5,2.71-2.97,4.08-4.44.29-.31.6-.61.93-.88.49-.39,1.05-.62,1.68-.68,1.95-.18,3.5,1.5,3.18,3.43-.13.77-.5,1.41-1.01,1.97-.8.86-1.62,1.71-2.42,2.56-.12.13-.24.27-.36.4.02.04.04.08.06.12Z"/><path class="cls-1" d="M88.71,22.27c.03-.24.06-.42.07-.6.23-2.24.49-4.47,1.03-6.66.25-.99.56-1.96.89-2.93.13-.38.33-.76.57-1.08.71-.94,1.92-1.05,2.77-.25.34.32.65.71.86,1.13.5,1.01.94,2.04,1.37,3.07.48,1.13.93,2.27,1.39,3.4.12.31.32.44.66.44,2.53.02,5.02.39,7.52.7.57.07,1.15.13,1.72.21.22.03.44.07.65.12,2.08.53,3.05,2.47,2.24,4.45-.25.63-.64,1.17-1.12,1.63-.48.46-.98.9-1.49,1.32-1.12.94-2.24,1.89-3.38,2.8-.47.38-.7.82-.67,1.41.08,1.53.13,3.06.27,4.59.16,1.73.41,3.45.62,5.17.08.68.14,1.36.02,2.03-.31,1.77-1.73,2.96-3.42,2.87-.7-.04-1.34-.27-1.9-.68-.45-.33-.88-.7-1.29-1.08-1.23-1.16-2.44-2.33-3.65-3.5-.11-.11-.21-.23-.34-.3-.1-.05-.26-.06-.37-.02-.14.05-.26.16-.38.25-1.64,1.3-3.29,2.59-4.93,3.89-.43.34-.84.7-1.28,1.01-.58.41-1.23.65-1.95.67-1.3.02-2.41-.75-2.86-1.99-.24-.65-.27-1.33-.22-2.02.12-1.67.45-3.3.8-4.94.19-.87.36-1.73.6-2.59.15-.52,0-.85-.4-1.19-.76-.65-1.49-1.35-2.21-2.05-.75-.73-1.37-1.56-1.91-2.45-1.03-1.72-.7-3.43.9-4.64.37-.28.76-.52,1.17-.72.93-.45,1.88-.88,2.83-1.3.91-.4,1.86-.52,2.85-.38.64.09,1.28.11,1.97.17ZM84.36,27.87c.18.18.3.32.43.44.61.57,1.23,1.13,1.83,1.7.32.3.64.61.93.94.78.9,1.08,1.95.93,3.13-.04.29-.1.57-.16.85-.19,1.05-.38,2.11-.56,3.17-.02.12,0,.25,0,.45.21-.15.35-.24.49-.33.9-.64,1.8-1.29,2.71-1.91.44-.29.9-.56,1.38-.77,1.37-.61,2.72-.52,4,.26.33.2.65.44.96.68.43.33.84.69,1.27,1.03.09.07.19.11.37.2-.01-.24-.01-.4-.03-.57-.06-.64-.14-1.29-.17-1.93-.07-1.49-.18-2.99-.17-4.48,0-1.97.83-3.58,2.4-4.8.69-.53,1.35-1.09,2.03-1.63.12-.1.24-.21.44-.39-.29-.04-.45-.08-.61-.09-1.34-.13-2.68-.24-4.01-.37-.49-.05-.98-.09-1.46-.2-1.52-.34-2.45-1.25-2.71-2.81-.29-1.75-.84-3.43-1.37-5.12-.05-.16-.12-.3-.23-.56-.09.26-.15.41-.19.57-.26.97-.53,1.94-.79,2.91-.49,1.82-.95,3.66-1.64,5.42-.09.24-.19.48-.3.7-.22.44-.46.52-.92.34-.06-.02-.12-.05-.2-.09-.69.67-1.14,1.57-2,2.04-.83.45-1.71.81-2.64,1.24Z"/><path class="cls-1" d="M43.98,97.48c-.24-.46-.57-.9-.93-1.27-.52-.54-1.08-1.05-1.67-1.5-1.2-.9-2.43-1.75-3.65-2.62-.17-.13-.35-.26-.53-.39.08-.15.13-.25.19-.35,1.14-1.94,2.29-3.87,3.42-5.81.19-.32.35-.66.5-1.01.19-.44.28-.91.24-1.4-.11-1.45-1.25-2.52-2.78-2.51-.62,0-1.25.14-1.86.3-.96.24-1.9.55-2.85.81-2.57.69-5.12,1.43-7.59,2.41-.31.12-.59.11-.87-.06-.69-.43-1.39-.86-2.1-1.27-.95-.56-1.9-1.13-2.88-1.65-.38-.2-.82-.34-1.25-.4-1.27-.17-2.2.76-2.05,2.03.05.42.16.84.3,1.24.53,1.44,1.07,2.87,1.64,4.29.37.92.8,1.8,1.44,2.64-1.16.37-2.28.74-3.4,1.07-.85.25-1.63.61-2.3,1.19-.96.84-1.92,1.69-2.85,2.55-.31.29-.58.63-.81.98-.82,1.3-.49,2.83.82,3.65.44.28.94.48,1.44.63.8.24,1.62.4,2.43.6,1.99.47,3.97.95,5.96,1.41.35.08.58.25.68.6.05.18.13.35.2.53.6,1.5,1.19,3.01,1.82,4.5.22.51.5,1.02.86,1.44,1.4,1.66,3.8,1.3,4.68-.68.17-.39.27-.81.39-1.21.49-1.67.96-3.34,1.45-5,.15-.52.17-.52.72-.48,1.78.16,3.57.19,5.36.09.9-.05,1.8-.15,2.69-.28.68-.09,1.32-.33,1.9-.7,1.5-.96,2.01-2.75,1.2-4.33ZM36.85,97.2c-.16.02-.31.05-.47.05-1.29.02-2.59.02-3.88.05-.44,0-.89.03-1.32.09-1.36.19-2.39.9-3,2.13-.35.71-.57,1.49-.84,2.24-.06.17-.11.34-.19.6-.13-.18-.21-.28-.28-.4-.19-.34-.37-.69-.54-1.04-.55-1.14-1.43-1.9-2.63-2.26-1.01-.31-2.03-.57-3.05-.83-.81-.2-1.63-.35-2.44-.53-.18-.04-.36-.08-.62-.14.14-.15.21-.25.31-.32.8-.58,1.4-1.33,1.89-2.19.4-.71.85-1.39,1.24-2.11.23-.43.39-.9.58-1.35.02-.05.03-.1.07-.13.39-.36.4-.83.33-1.28-.17-1.07-.38-2.14-.58-3.21-.06-.31-.13-.62-.22-1.01.15.08.23.11.29.16.78.66,1.56,1.32,2.33,1.98.18.15.34.33.53.48.74.6,1.59.86,2.53.71.62-.1,1.23-.27,1.83-.46,1.8-.58,3.59-1.18,5.38-1.78.17-.06.35-.09.66-.17-.13.26-.2.4-.28.54-.45.78-.91,1.56-1.34,2.35-.27.49-.52,1-.72,1.52-.4,1.09-.24,2.13.48,3.03.4.5.89.94,1.4,1.33.7.54,1.45,1.01,2.18,1.52.15.1.29.22.43.33l-.02.11Z"/></g></svg>