<?xml version="1.0" encoding="UTF-8"?><svg id="Layer_2" xmlns="http://www.w3.org/2000/svg" viewBox="0 0 114.31 123.08"><defs><style>.cls-1{fill:#0e0e30;stroke-width:0px;}</style></defs><g id="Icons"><path class="cls-1" d="M7.95,56.03c3.83.16,7.64.56,11.45,1.02.12.01.24.04.35.04.16.01.26-.06.27-.23,0-.12.01-.24.01-.36.12-4.91,1.1-9.63,3.01-14.16.23-.54.31-.54-.32-.8-2.24-.9-4.43-1.93-6.56-3.08-2.4-1.29-4.82-2.54-7.25-3.77-.33-.17-.68-.31-1.02-.48-.5-.24-.93-.57-1.25-1.03-.62-.88-.68-2.02-.11-2.88.61-.93,1.51-1.29,2.6-1.15.53.07,1.01.3,1.45.6,2.48,1.74,5.02,3.39,7.59,5.01,2.05,1.29,4.01,2.7,5.92,4.19.4.31.4.32.65-.15,2.28-4.22,5.33-7.81,9.02-10.85.58-.48,1.19-.91,1.79-1.36.36-.27.37-.3.13-.65-1.13-1.6-2.15-3.27-3.17-4.94-.63-1.03-1.35-2-2.09-2.96-1.21-1.58-2.29-3.26-3.24-5.01-.31-.57-.59-1.15-.79-1.77-.17-.53-.25-1.06-.17-1.61.18-1.31,1.23-2.02,2.51-1.69.61.15,1.12.49,1.57.92.48.44.89.94,1.29,1.45,1.14,1.47,2.19,3,3.1,4.62.89,1.59,1.86,3.13,2.94,4.6.86,1.18,1.66,2.41,2.43,3.66.3.48.3.48.8.24,4.43-2.16,9.09-3.47,14-3.85.47-.04.52-.08.44-.46-.44-2.12-.59-4.28-.77-6.44-.21-2.48-.34-4.96-.33-7.45,0-.46-.03-.92-.05-1.38-.03-.67.03-1.33.32-1.95.54-1.14,1.43-1.81,2.69-1.92,1.28-.11,2.29.42,3.01,1.47.39.56.57,1.2.62,1.87.1,1.33.14,2.66,0,3.98-.23,2.15-.38,4.31-.55,6.46-.14,1.68-.44,3.34-.74,5-.01.07-.03.13-.04.2-.08.49-.06.52.45.55,2.03.11,4.03.37,6.02.77,2.53.51,4.98,1.27,7.34,2.31.11.05.22.09.33.14.18.09.33.05.44-.12.07-.11.15-.23.22-.34,1.93-3.03,3.87-6.05,5.8-9.08.55-.86,1.1-1.72,1.74-2.52.38-.47.8-.89,1.31-1.2,1.43-.88,3.2-.69,4.31.49.92.98,1.14,2.14.76,3.41-.2.68-.6,1.25-1.09,1.77-.48.51-1.01.96-1.56,1.4-1.01.81-1.99,1.65-2.96,2.52-1.84,1.64-3.76,3.2-5.73,4.69-.07.05-.14.1-.2.15-.2.18-.21.24.02.38.29.18.59.34.88.52,4.42,2.65,8.24,5.97,11.26,10.16.38.52.73,1.07,1.09,1.6.27.39.27.39.66.1,1.1-.83,2.21-1.66,3.29-2.5,2.56-1.99,5.28-3.73,7.93-5.6.65-.46,1.3-.93,1.96-1.39.51-.36,1.05-.63,1.66-.75,1.4-.28,2.79.34,3.49,1.55.69,1.21.52,2.74-.44,3.8-.4.44-.86.79-1.42.98-2.99,1.02-5.74,2.58-8.67,3.76-2.13.86-4.26,1.74-6.45,2.42-.08.03-.16.05-.24.08-.16.06-.21.16-.13.32.08.15.16.3.24.45,1.96,3.55,3.31,7.31,3.96,11.32.35,2.16.45,4.33.41,6.52-.01.66-.01.66.64.54,4.01-.78,8.06-1.38,12.11-1.88.56-.07,1.12-.12,1.68-.09,1.16.06,2.16.46,2.92,1.37,1.53,1.84.85,4.59-1.37,5.55-.52.23-1.07.33-1.64.34-.63.01-1.26-.06-1.88-.15-4.08-.58-8.14-1.26-12.17-2.13-.49-.11-.51-.1-.57.41-.56,4.65-1.94,9.04-4.13,13.18-.23.44-.23.45.18.73,5.72,3.86,11.3,7.9,16.97,11.83.48.33.97.63,1.46.94.49.32.93.69,1.26,1.18.76,1.14.7,2.6-.15,3.61-.85,1.02-2.28,1.33-3.53.78-.47-.21-.88-.51-1.24-.88-5.11-5.31-10.54-10.31-15.69-15.59-.46-.47-.47-.47-.81.08-1.93,3.04-4.22,5.77-6.92,8.15-.04.03-.08.07-.11.1-.3.28-.31.32-.04.61.36.39.72.77,1.09,1.15,3.14,3.22,6.11,6.59,8.97,10.06.29.36.57.72.79,1.13.41.78.59,1.6.46,2.47-.36,2.52-2.97,3.92-5.29,2.86-.73-.33-1.3-.86-1.79-1.48-.78-.99-1.47-2.04-2.09-3.15-1.89-3.39-3.62-6.87-5.16-10.43q-.28-.64-.88-.25c-1.74,1.14-3.57,2.13-5.5,2.9-.58.23-1.07.59-1.48,1.06-.6.68-1.12,1.41-1.51,2.23-.18.38-.27.76-.27,1.18,0,.87.09,1.73.16,2.6.1,1.12.08,2.25-.05,3.37-.07.56-.18,1.11-.41,1.63-.5,1.09-1.42,1.45-2.53,1-.66-.27-1.19-.73-1.63-1.28-.89-1.14-1.42-2.43-1.64-3.86-.05-.32-.09-.64-.11-.96-.17-2.85-.04-5.69.4-8.51.16-1.03.42-2.03.85-2.99.48-1.08,1.18-1.97,2.13-2.69.46-.35.94-.58,1.45-.83,5.78-2.77,10.62-6.64,13.92-12.21,2.88-4.85,4.25-10.12,3.93-15.78-.22-3.82-1.08-7.51-2.59-11.03-.97-2.26-2.37-4.24-3.91-6.14-6.28-7.76-15.67-10.98-23.24-10.84-6.48.13-12.34,2.08-17.55,5.96-3.55,2.64-6.42,5.89-8.55,9.76-3.38,6.17-4.26,12.72-2.76,19.59,1.22,5.58,3.81,10.46,7.58,14.74,1.1,1.25,2.3,2.42,3.54,3.54.61.55,1.31.91,2.07,1.18,1.08.37,2.13.82,3.17,1.29,3.45,1.58,5.3,4.3,5.75,8.02.14,1.12.13,2.24-.04,3.36-.31,2.02-.63,4.04-1.37,5.96-.1.25-.19.51-.3.76-.15.33-.34.63-.58.9-.88.98-2.01.84-2.61-.33-.21-.4-.34-.82-.38-1.26-.14-1.39-.41-2.76-.54-4.15-.1-1.12-.35-2.22-.66-3.3-.27-.94-.75-1.78-1.54-2.36-1.28-.93-2.55-1.87-3.93-2.66-.1-.06-.21-.11-.32-.17-.16-.09-.29-.06-.4.08-.07.09-.15.18-.23.28-1.25,1.49-2.39,3.06-3.51,4.64-2.18,3.05-4.49,6-7.07,8.72-.89.94-1.81,1.85-2.81,2.67-.42.34-.86.67-1.34.92-.39.21-.8.37-1.25.44-1.69.26-3.13-.93-3.17-2.64-.02-.66.16-1.28.42-1.88.41-.94.94-1.81,1.51-2.66,1.58-2.35,3.33-4.56,5.2-6.69,1.67-1.89,3.45-3.68,5.15-5.53.58-.63,1.13-1.27,1.69-1.92.31-.36.3-.4-.05-.69-2.51-2.08-4.63-4.51-6.44-7.22,0-.01-.02-.03-.03-.04-.27-.39-.3-.4-.61,0-1.84,2.32-3.97,4.34-6.31,6.15-2.35,1.81-4.69,3.62-7.13,5.3-.56.39-1.13.77-1.73,1.09-.67.35-1.36.63-2.12.69-1.42.1-2.59-.38-3.39-1.57-.8-1.19-.81-2.46-.18-3.74.28-.57.7-1.04,1.18-1.47.54-.48,1.13-.88,1.73-1.26,3.18-2.02,6.46-3.86,9.79-5.61,2.01-1.06,4.14-1.82,6.33-2.43.76-.21.62-.23.34-.8-1.69-3.46-2.81-7.08-3.32-10.9-.09-.68-.09-.67-.79-.62-5.2.41-10.4.57-15.62.25-.46-.03-.92-.08-1.37-.18-.47-.11-.91-.27-1.32-.54-1.71-1.13-1.65-3.54.11-4.6.48-.29,1-.44,1.54-.5.44-.05.88-.07,1.32-.08,1.24-.01,2.49,0,3.73,0Z"/><path class="cls-1" d="M52.94,74.95c-.01-1.29.31-2.18.89-2.97.63-.87,1.31-1.7,1.93-2.57,1.86-2.63,3.7-5.26,5.55-7.9.08-.12.26-.24.14-.4-.1-.13-.29-.04-.44-.02-4.03.54-8.07,1.09-12.1,1.63-1.52.2-3.04.36-4.58.4-.34,0-.68.02-1.02-.03-1.89-.26-3-2.04-2.4-3.85.15-.46.38-.87.67-1.26,1.93-2.59,3.85-5.2,6.19-7.46,1.93-1.87,3.8-3.81,5.77-5.64,2.13-1.97,4.4-3.76,6.98-5.13.06-.03.12-.07.18-.1.26-.14.52-.19.76.01.25.21.23.48.13.75-.29.78-.58,1.56-.95,2.31-.92,1.91-1.98,3.73-3.2,5.45-1.7,2.4-3.48,4.75-5.27,7.09-.11.14-.35.29-.25.46.11.21.37.06.56.04,3.2-.48,6.39-.98,9.6-1.44,2.01-.29,4.03-.44,6.05-.52,2.25-.1,3.83,1.74,3.43,3.96-.1.58-.33,1.11-.6,1.62-.86,1.62-1.82,3.19-2.79,4.76-2.1,3.37-4.31,6.66-6.37,10.05-.35.58-.68,1.18-1.02,1.77-.32.56-.67,1.11-1.17,1.53-1.29,1.1-2.75,1.42-4.33.73-1.54-.67-2.27-1.93-2.34-3.29Z"/><path class="cls-1" d="M58.46,123.08c-1.8-.01-3.6-.03-5.4-.1-1.2-.04-2.41,0-3.62,0-.78,0-1.56.06-2.34-.08-.95-.17-1.85-.46-2.62-1.05-.6-.46-1.05-1.03-1.27-1.8-.25-.89-.29-1.81-.38-2.72-.05-.59-.07-1.19-.09-1.78-.05-1.75.07-3.5.21-5.24.05-.63.03-1.26.12-1.88.15-1.06.59-1.95,1.46-2.59.6-.45,1.29-.68,2.04-.67.56,0,1.11.05,1.67.18.9.2,1.82.29,2.73.25.77-.04,1.53.06,2.29.13.66.06,1.32.03,1.99.06.7.04,1.39,0,2.09.02.51.01,1.02.02,1.52.09.63.09,1.27.04,1.88-.06,1.62-.26,3.22-.13,4.82.09.71.09,1.41.23,2.11.36.64.11,1.28.18,1.92.29.78.13,1.46.45,2.1.88.64.43.96,1.09,1.11,1.83.16.82.24,1.65.13,2.48-.14,1.15-.29,2.29-.55,3.42-.14.59-.12,1.18-.12,1.78,0,.99-.08,1.97-.35,2.93-.27.94-.88,1.59-1.85,1.86-.46.13-.9.29-1.37.38-1.42.28-2.86.38-4.29.58-.49.07-.97.14-1.47.19-1.49.13-2.98.2-4.48.19Z"/><path class="cls-1" d="M51.6,110.6c1.26-.05,2.31,0,3.36.05.58.03,1.16,0,1.73-.01.66-.02,1.32-.1,1.99-.09.64,0,1.29.05,1.92.18,1.69.35,3.38.56,5.11.32.67-.1,1.36,0,2.04.03.26.01.31.14.3.36-.03.67-.17,1.32-.27,1.97-.11.74-.12,1.49-.23,2.23-.04.25-.06.51-.1.76-.04.24-.17.35-.43.33-.27-.02-.55,0-.82-.04-.76-.1-1.53-.08-2.29-.12-1.38-.07-2.75.06-4.13.04-1.22-.02-2.45-.09-3.67-.11-1.75-.03-3.5-.21-5.25-.02-.32.03-.65.01-.97.01-.24,0-.33-.12-.31-.36.12-1.66.2-3.32.21-4.99,0-.43.05-.51.51-.49.5.02.98-.03,1.27-.05Z"/></g></svg>