<?xml version="1.0" encoding="UTF-8"?><svg id="Layer_2" xmlns="http://www.w3.org/2000/svg" viewBox="0 0 102.4 114.35"><defs><style>.cls-1{fill:#0e0e30;stroke-width:0px;}</style></defs><g id="Icons"><path class="cls-1" d="M35.82,38.05c.02-.29.04-.52.04-.75.02-3.2.05-6.4.32-9.59.29-3.41.6-6.82.93-10.22.09-.89.28-1.78.46-2.66.13-.64.34-1.25.96-1.63.09-.05.14-.23.14-.35.08-2.17,1.06-3.91,2.54-5.41,1.09-1.1,2.35-1.97,3.69-2.71,2.39-1.31,4.94-2.2,7.57-2.89C58.1.35,63.83-.16,69.64.04c3.77.13,7.5.59,11.15,1.57,1.8.48,3.54,1.12,5.2,1.96.36.18.75.33,1.11.51.17.08.27.21.21.41-.06.2-.22.24-.41.23-.02,0-.03,0-.05,0-1.75-.09-3.5-.19-5.25-.28-4.05-.22-8.09-.42-12.15-.35-4.55.08-9.08.43-13.55,1.32-2.39.47-4.74,1.1-7,2.04-1.21.5-2.39,1.09-3.46,1.84-.63.44-1.21.94-1.69,1.55-.93,1.19-.98,2.24-.09,3.46.37.5.81.96,1.28,1.38.9.82,1.94,1.43,3.02,1.99,2.56,1.31,5.29,2.17,8.07,2.85,4.54,1.11,9.15,1.62,13.81,1.7,4.98.09,9.94-.22,14.84-1.19,2.36-.47,4.67-1.12,6.89-2.06,1.21-.51,2.39-1.08,3.44-1.89.55-.42,1.08-.9,1.52-1.42.75-.89.76-1.84.04-2.76-.89-1.14-1.98-2.05-3.36-2.58-.7-.27-1.39-.57-2.05-.91-.42-.22-.82-.49-1.17-.81-1.07-1-1.34-2.48-.74-3.74.59-1.24,1.95-1.96,3.39-1.76.38.05.77.16,1.13.3.97.38,1.87.9,2.67,1.57.43.36.87.71,1.32,1.04,1.33.98,2.49,2.12,3.35,3.53.7,1.15,1.17,2.38,1.26,3.74.09,1.47-.27,2.84-.99,4.11-.18.31-.25.62-.21.97.47,4.32.64,8.66.82,12.99.33,8.19.24,16.37.18,24.56-.05,6.52-.03,13.04-.09,19.56-.07,7.01-.19,14.03-.29,21.04-.02,1.09-.02,2.18-.06,3.27-.02.61-.06,1.23-.2,1.82-.3,1.38-1.1,2.35-2.5,2.78-.25.08-.5.22-.7.4-5.06,4.38-10.98,6.97-17.47,8.32-8.53,1.78-17.05,1.7-25.5-.54-4.39-1.16-8.39-3.11-11.85-6.08-.73-.63-1.39-1.35-2.08-2.03-.1-.09-.16-.22-.27-.35-.24.16-.43.27-.61.4-3.23,2.22-6.72,3.88-10.55,4.75-4.12.93-8.23,1-12.33-.14-3.63-1.01-6.81-2.83-9.61-5.33-.82-.74-1.6-1.53-2.37-2.32-.29-.3-.54-.66-.74-1.03-.74-1.37-.45-3.02.67-4.01,1.11-.98,2.75-1.08,4.02-.2.32.22.62.48.88.77,3.58,3.96,8.15,5.44,13.36,5.3,3.29-.09,6.37-1.05,9.32-2.45,4.07-1.94,7.54-4.67,10.57-7.99,4.76-5.21,7.8-11.29,9.19-18.19,1.04-5.14,1.01-10.29-.35-15.39-.9-3.36-2.36-6.46-4.61-9.14-4.11-4.9-9.39-6.98-15.72-6.47-3.7.3-7.1,1.54-10.29,3.39-3.68,2.13-6.82,4.91-9.51,8.18-5.06,6.14-8.15,13.17-9.35,21.02-.73,4.75-.53,9.47.67,14.14.18.71.45,1.39.68,2.08.06.19.15.38.2.58.11.47-.12.93-.53,1.1-.42.18-.88.03-1.16-.39-.1-.15-.17-.33-.25-.5C.53,87.05-.31,81.62.1,75.98c.68-9.4,4.04-17.73,9.97-25.02,3.31-4.08,7.27-7.4,11.99-9.76,3.32-1.66,6.82-2.75,10.53-3.05.91-.07,1.84-.06,2.75-.08.13,0,.27-.01.48-.02ZM41.03,18.47c.03.31.04.5.06.68.64,5.3.89,10.62.81,15.95-.02,1.19,0,2.38.02,3.57,0,.54.02.54.53.72,3.71,1.33,6.9,3.44,9.54,6.38.22.25.48.43.8.52.75.22,1.49.49,2.25.67,8.72,2.14,17.55,2.89,26.5,2.01,3.16-.31,6.27-.85,9.31-1.8,1.96-.61,3.79-1.44,5.25-2.93.22-.22.35-.44.36-.75.09-1.96.2-3.91.29-5.87,0-.14-.02-.29-.03-.41-.09-.01-.13-.03-.16-.02-.14.05-.29.1-.43.16-2.27.93-4.58,1.74-6.97,2.33-3.61.89-7.28,1.41-10.99,1.73-7.62.66-15.06-.23-22.32-2.62-1.95-.64-3.84-1.42-5.54-2.57-.75-.5-1.45-1.08-2.12-1.67-.32-.29-.59-.66-.8-1.05-.39-.73.04-1.44.86-1.48.37-.02.76,0,1.11.09,1.34.31,2.69.62,4.01,1,4.56,1.33,9.2,2.18,13.96,2.36,5.1.19,10.18.11,15.21-.89,4.7-.93,9.24-2.32,13.46-4.66.27-.15.54-.3.83-.38.38-.11.48-.35.52-.71.22-2.44.46-4.88.69-7.32.01-.13,0-.25,0-.44-.16.09-.26.14-.35.2-1.42.98-2.95,1.76-4.55,2.41-2.18.89-4.44,1.53-6.74,2.04-4.19.92-8.43,1.4-12.71,1.47-6.48.11-12.89-.53-19.19-2.09-2.97-.73-5.84-1.73-8.56-3.15-1.7-.89-3.29-1.93-4.65-3.29-.06-.06-.13-.1-.29-.22ZM96.16,52.34c-.28.11-.43.18-.58.24-.69.29-1.37.6-2.07.87-2.5.98-5.1,1.58-7.75,2.01-5.1.83-10.23.97-15.38.56-4.62-.37-9.14-1.23-13.44-3.03-.08-.03-.18-.02-.27-.03,0,.07,0,.11,0,.14.03.1.07.19.11.29,1.3,3.1,2.07,6.34,2.42,9.68.09.83.05.71.81.79.08,0,.17.02.25.03,3.02.39,6.03.83,9.08,1.03,6.17.4,12.28.08,18.34-1.2,2.78-.59,5.48-1.4,7.79-3.17.34-.26.49-.51.5-.92.05-2.21.13-4.42.19-6.64,0-.18,0-.36,0-.66ZM94.93,95.31c-.1,0-.14-.03-.17-.01-.1.06-.21.12-.3.19-1.5,1.05-3.11,1.9-4.8,2.59-2.35.96-4.78,1.69-7.26,2.24-3.2.7-6.45,1.02-9.72,1.18-2.69.14-5.38.17-8.06-.13-5.45-.61-10.78-1.8-15.98-3.53-.36-.12-.62-.13-.9.19-1.38,1.62-2.9,3.11-4.53,4.48-.08.07-.14.17-.23.28.17.07.29.14.41.18.77.28,1.53.57,2.31.83,3.82,1.26,7.71,2.26,11.64,3.11,5.13,1.11,10.32,1.65,15.57,1.47,4.34-.15,8.61-.81,12.76-2.13,2.13-.68,4.17-1.57,6.06-2.79,1-.65,1.94-1.38,2.76-2.25.23-.25.36-.51.37-.86.02-1.52.05-3.03.08-4.55,0-.16,0-.32,0-.48ZM52.22,91.84c.29.11.47.19.66.26,2.01.67,4.06,1.16,6.13,1.57,2.53.5,5.09.7,7.65.98,5.05.55,10.09.53,15.13-.16,4.42-.6,8.64-1.88,12.71-3.68.39-.17.56-.39.57-.84.01-1.7.06-3.4.1-5.11,0-.18-.02-.36-.03-.61-.26.09-.45.15-.63.22-2.21.91-4.48,1.62-6.82,2.09-2.66.53-5.36.73-8.07.82-5.88.21-11.66-.5-17.32-2.08-1.89-.53-3.71-1.24-5.4-2.26-.09-.06-.21-.08-.37-.14-1.15,3.1-2.56,6.03-4.28,8.93ZM95.62,69.51c-.14-.03-.17-.05-.2-.04-.11.03-.23.06-.34.11-2.8,1.12-5.71,1.82-8.68,2.24-5.03.72-10.07.73-15.13.25-2.95-.28-5.83-.85-8.63-1.8-.95-.32-1.86-.76-2.78-1.14-.14-.06-.27-.12-.49-.21-.18,3.3-.7,6.48-1.52,9.65.21.05.35.09.49.11,1.36.25,2.72.45,4.07.75,3.9.85,7.84,1.36,11.84,1.52,4.61.18,9.14-.27,13.61-1.45,2.64-.7,5.05-1.83,7.12-3.63.3-.26.45-.52.46-.91.05-1.63.12-3.27.19-4.9,0-.18,0-.37,0-.55Z"/><path class="cls-1" d="M27.02,92.01c-.31,0-.61.01-.92,0-.34-.02-.51.13-.66.43-.37.74-.77,1.48-1.2,2.19-.39.64-.88,1.22-1.49,1.66-.37.27-.77.51-1.2.66-.95.34-1.87.02-2.41-.83-.26-.41-.44-.89-.54-1.36-.27-1.25-.19-2.51.07-3.75.03-.15.07-.3.1-.45.05-.19-.01-.33-.19-.42-.12-.06-.24-.12-.37-.18-1.46-.71-2.86-1.52-4.15-2.5-.4-.31-.79-.66-1.1-1.06-.81-1.05-.85-2.43-.17-3.49.68-1.06,1.95-1.57,3.26-1.28.41.09.82.24,1.19.44,2.48,1.36,5.18,1.97,7.93,2.38.89.13,1.8.16,2.7.2.7.03,1.39-.12,2.05-.36,1.34-.49,2.15-1.79,1.98-3.21-.12-1.04-.58-1.92-1.38-2.6-.92-.77-1.91-1.42-3.03-1.86-.52-.2-1.05-.4-1.58-.6-1.38-.52-2.68-1.17-3.92-1.96-2.08-1.31-3.52-3.15-4.38-5.43-.98-2.56-.78-5.12.29-7.61,1.16-2.68,3.01-4.72,5.74-5.88.94-.4,1.9-.74,2.87-1.06.36-.12.61-.27.68-.65.03-.16.1-.33.18-.47.79-1.33,1.56-2.67,2.4-3.97.3-.46.74-.84,1.17-1.2.29-.25.66-.44,1.02-.57,1.09-.4,2.15,0,2.71,1,.23.41.38.88.48,1.34.27,1.18.22,2.37-.03,3.55-.09.43-.2.86-.32,1.29-.07.26-.01.43.24.53.08.03.15.07.23.11,3.2,1.53,4.91,4.14,5.51,7.56.21,1.19.19,2.38-.22,3.53-.15.43-.36.86-.64,1.21-.76.94-1.97.97-2.82.12-.16-.16-.3-.33-.42-.52-.78-1.28-1.57-2.55-2.06-3.99-.08-.23-.18-.44-.26-.67-.77-2.19-3.19-3.19-5.07-2.99-1.72.19-3.22.87-4.59,1.85-1.56,1.11-2.39,3.49-1.3,5.59.49.96,1.15,1.75,2.06,2.35,1.16.76,2.35,1.44,3.62,1.98,1.82.77,3.44,1.88,4.86,3.24,2.88,2.76,3.92,6.12,3.06,10-.96,4.31-4.18,7.13-8.59,7.61-.47.05-.95.07-1.43.1,0,0,0-.02,0-.02Z"/></g></svg>