<?xml version="1.0" encoding="UTF-8"?>
<svg id="Layer_2" data-name="Layer 2" xmlns="http://www.w3.org/2000/svg" version="1.1" viewBox="0 0 110.7 111.1">
  <defs>
    <style>
      .cls-1 {
        fill: #e90055;
        stroke-width: 0px;
      }
    </style>
  </defs>
  <g id="Icons">
    <path class="cls-1" d="M66.6,61.2c.2.1.3.2.4.3,1.1.7,2.1,1.5,3,2.4.6.5,1.2,1,1.8,1.5,1.9,1.4,3.7,2.9,5.3,4.7,1,1.1,2.2,2.1,3.3,3,.8.6,1.5,1.2,2.3,1.8,1.7,1.4,3.4,2.8,5.1,4.2,1.3,1.1,2.5,2.2,3.6,3.4,1.2,1.2,2.4,2.4,3.6,3.6,1.1,1.1,2.1,2.1,3.2,3.2.6.6,1.1,1.1,1.6,1.7.4.5.9,1,1.2,1.5.9,1.5.8,3.2-.3,4.7,0,0,0,0,0,.1-1.9,2-3.8,4.1-5.9,5.9-.6.5-1.1.9-1.7,1.3-1.2.9-2.4,1.7-3.7,2.6-.4.3-.8.5-1.3.7-1.6.7-3.1.4-4.5-.7-.3-.2-.6-.5-.8-.8-.3-.3-.5-.7-.8-1-1.7-3-3.7-5.7-5.7-8.5-1.5-2.1-3.1-4.1-4.7-6.2-.9-1.2-1.8-2.3-2.7-3.5-.9-1.2-1.8-2.3-2.7-3.4-1.5-1.8-2.9-3.6-4.2-5.4-1-1.4-2-2.7-3-4.1-.9-1.2-1.8-2.4-2.6-3.7,0-.1-.2-.2-.2-.3,0,0,0,0-.2,0-.2.1-.4.2-.6.3-4.1,2.4-8.5,4-13.2,4.7-5.6.8-11,.1-16.2-1.8-.5-.2-1-.4-1.5-.7-.4-.2-.9-.6-1.2-.9-.8-.9-1.1-2-.6-3.1.4-1.2,1.3-1.8,2.5-2,.7-.1,1.4,0,2.1.1,1.1.2,2.2.5,3.3.6,6.2.9,12.2.4,18-1.8,7.9-3,13.5-8.5,16.8-16.3,1.3-3,2.2-6.1,2.4-9.4.4-4.8-.1-9.5-1.9-14-.7-1.8-1.6-3.6-2.5-5.3-1.7-3.3-4.1-6-7.2-8.1-2.6-1.7-5.2-3.3-8-4.4-3.5-1.3-7-2.2-10.7-2-4.3.2-8.6.9-12.6,2.4-4.6,1.8-8.4,4.6-11.6,8.3-2.9,3.4-5,7.2-6.4,11.3-1.2,3.6-1.4,7.2-1.2,10.9.4,6.7,2.8,12.7,6.5,18.2.9,1.2,1.7,2.5,2.5,3.8.2.3.4.7.6,1.1.1.3.2.5.2.8,0,.6-.4,1.1-1,1.1s-.8,0-1.1-.2c-.6-.3-1.2-.6-1.7-.9-1.2-.8-2.2-1.7-3.2-2.8-3.4-3.8-5.8-8.1-7.1-13-.8-2.9-1.3-5.8-1.3-8.8,0-5.5,1-10.7,3-15.8,2-4.9,5-9.1,8.9-12.7C17,5.4,22.9,2.2,29.6.6c1.6-.4,3.2-.6,4.8-.6,4.8,0,9.5.4,14.1,1.8,2.5.8,4.9,1.8,7.2,3.1,1.8,1,3.4,2.2,4.9,3.6,2.7,2.5,5.2,5.2,7.5,8.1,2.2,2.8,3.7,5.9,4.8,9.3,2.3,7,2.5,14.2.8,21.3-1.2,5-3.6,9.4-6.7,13.4-.1.2-.2.3-.4.5,0,0,0,0,0,.2h0ZM94.5,94.6c0-.1-.1-.2-.2-.2-1.1-1.3-2.3-2.6-3.7-3.7-.9-.7-1.7-1.4-2.5-2.2-1.7-1.6-3.5-3.1-5.4-4.5-1.3-1-2.6-2.1-3.7-3.4-.9-1.1-2-2-3.1-2.9-1.2-1-2.4-2-3.4-3.2-1-1.1-2.2-2.1-3.4-2.9-1.2-.8-2.3-1.8-3.3-3-.9-1.2-2.1-2-3.4-2.6-.3-.2-.5-.1-.8.1-.6.5-1.2,1-1.7,1.4,0,0-.2.1-.4.2.2.2.4.4.5.5,2.4,2.2,4.8,4.4,6.9,6.9,1.1,1.3,2.2,2.5,3.3,3.7,1.2,1.3,2.4,2.6,3.5,3.9,2,2.3,3.9,4.7,5.8,7.1,2.6,3.2,5.4,6.3,7.5,9.8.1.2.3.2.5.1,0,0,.2-.1.3-.2,2.3-1.4,4.4-3.1,6.4-4.9,0,0,.1-.1.2-.2h0Z"/>
    <path class="cls-1" d="M19.8,44.6c.2,0,.4,0,.6,0,2.6.3,5.1.6,7.7,1.1.6.1,1.3.3,1.9.5,1.6.5,2.8,1.5,3.5,3,.7,1.3,1.3,2.6,2,3.9.2.4.4.8.6,1.3,0,.1.2.2.3.4,0-.1.2-.2.2-.3.1-.3.3-.5.4-.8,1-2,2.1-3.9,3.4-5.8,1.2-1.8,2.8-2.9,4.9-3.4,1.7-.4,3.3-.8,5-1.2.2,0,.5-.2.7-.2,0-.3-.2-.3-.3-.5-.8-.7-1.7-1.3-2.5-2-.5-.4-1-.8-1.4-1.3-1.3-1.3-1.8-2.9-1.5-4.8.1-.6.3-1.2.5-1.8.5-1.6,1-3.3,1.5-4.9,0-.2.1-.4.2-.7-.2,0-.3,0-.4,0-.5.2-.9.3-1.4.5-2.3.8-4.7,1.4-7.1,2-.2,0-.4,0-.6.1-1.6.2-3-.2-4.2-1.3-1.2-1-2.3-2-3.5-3-.4-.4-.9-.7-1.4-1.1-.1-.1-.3-.2-.5-.3,0,.2,0,.4,0,.6-.4,3.4-.7,6.7-1.1,10,0,.5-.2,1-.3,1.5,0,.2-.1.4-.2.6-.2.4-.7.5-1,.2-.3-.2-.5-.5-.6-.8-.3-.8-.6-1.5-.7-2.3-.2-1-.3-2-.4-3-.2-2.2-.3-4.4-.5-6.7,0-1,0-1.9,0-2.9,0-.5.1-1.1.3-1.6.4-1.3,1.6-2.1,3-2.2.8,0,1.6.1,2.4.5,1.1.6,2.3,1.2,3.4,1.8,1,.6,1.9,1.3,2.9,1.9.5.3.9.6,1.4.9.3.2.6.2,1,.2,2.5-.5,4.9-1.2,7.2-2,1.3-.5,2.7-.9,4-1.3.5-.2,1.1-.3,1.7-.3,2.3-.2,4.1,1.2,4.6,3.4.2.7.2,1.4,0,2.1-.2,1.1-.4,2.2-.6,3.3-.5,2.1-.9,4.1-1.4,6.2-.1.5,0,.8.4,1.1,1.6,1.2,3.1,2.4,4.7,3.6.7.5,1.4,1,2,1.6,1.8,1.8,2,4.2.5,6.3-.5.7-1.2,1.3-2,1.8-1.2.8-2.4,1.3-3.7,1.7-2.6.8-5.2,1.3-7.9,1.7-.6,0-1,.3-1.4.8-1,1.3-1.8,2.7-2.6,4-.7,1.3-1.4,2.5-2.2,3.8-.4.7-.9,1.4-1.5,2-.8,1-1.9,1.5-3.1,1.4-1,0-2-.4-2.7-1.2-.5-.5-.9-1.1-1.3-1.7-1.1-1.8-2-3.7-2.8-5.7-.3-.9-.7-1.8-1-2.6-.2-.4-.4-.6-.9-.7-3.4-.6-6.8-1.2-10.1-1.9-1.1-.2-2.2-.5-3.3-.8-.4,0-.8-.3-1.1-.5-1.4-.7-2-2.1-1.6-3.6.1-.5.3-1,.6-1.5.4-.7.9-1.3,1.4-1.8,1.3-1.5,2.7-3,4.1-4.4.3-.3.6-.6.9-.9.5-.4,1-.6,1.7-.7,2-.2,3.5,1.5,3.2,3.4-.1.8-.5,1.4-1,2-.8.9-1.6,1.7-2.4,2.6-.1.1-.2.3-.4.4h0c0,.1,0,.1,0,.1Z"/>
    <path class="cls-1" d="M88.7,22.3c0-.2,0-.4,0-.6.2-2.2.5-4.5,1-6.7.2-1,.6-2,.9-2.9.1-.4.3-.8.6-1.1.7-.9,1.9-1.1,2.8-.2.3.3.7.7.9,1.1.5,1,.9,2,1.4,3.1.5,1.1.9,2.3,1.4,3.4.1.3.3.4.7.4,2.5,0,5,.4,7.5.7.6,0,1.2.1,1.7.2.2,0,.4,0,.7.1,2.1.5,3.1,2.5,2.2,4.4-.2.6-.6,1.2-1.1,1.6s-1,.9-1.5,1.3c-1.1.9-2.2,1.9-3.4,2.8-.5.4-.7.8-.7,1.4,0,1.5.1,3.1.3,4.6.2,1.7.4,3.5.6,5.2,0,.7.1,1.4,0,2-.3,1.8-1.7,3-3.4,2.9-.7,0-1.3-.3-1.9-.7-.4-.3-.9-.7-1.3-1.1-1.2-1.2-2.4-2.3-3.7-3.5-.1-.1-.2-.2-.3-.3,0,0-.3,0-.4,0-.1,0-.3.2-.4.2-1.6,1.3-3.3,2.6-4.9,3.9-.4.3-.8.7-1.3,1-.6.4-1.2.7-1.9.7-1.3,0-2.4-.8-2.9-2-.2-.7-.3-1.3-.2-2,.1-1.7.4-3.3.8-4.9.2-.9.4-1.7.6-2.6.2-.5,0-.8-.4-1.2-.8-.7-1.5-1.3-2.2-2-.8-.7-1.4-1.6-1.9-2.5-1-1.7-.7-3.4.9-4.6.4-.3.8-.5,1.2-.7.9-.5,1.9-.9,2.8-1.3.9-.4,1.9-.5,2.8-.4.6,0,1.3.1,2,.2h0ZM84.4,27.9c.2.2.3.3.4.4.6.6,1.2,1.1,1.8,1.7.3.3.6.6.9.9.8.9,1.1,1.9.9,3.1,0,.3,0,.6-.2.8-.2,1-.4,2.1-.6,3.2,0,.1,0,.2,0,.5.2-.2.3-.2.5-.3.9-.6,1.8-1.3,2.7-1.9.4-.3.9-.6,1.4-.8,1.4-.6,2.7-.5,4,.3.3.2.7.4,1,.7.4.3.8.7,1.3,1,0,0,.2.1.4.2,0-.2,0-.4,0-.6,0-.6-.1-1.3-.2-1.9,0-1.5-.2-3-.2-4.5,0-2,.8-3.6,2.4-4.8.7-.5,1.3-1.1,2-1.6.1-.1.2-.2.4-.4-.3,0-.4,0-.6,0-1.3-.1-2.7-.2-4-.4-.5,0-1,0-1.5-.2-1.5-.3-2.4-1.2-2.7-2.8-.3-1.8-.8-3.4-1.4-5.1,0-.2-.1-.3-.2-.6,0,.3-.2.4-.2.6-.3,1-.5,1.9-.8,2.9-.5,1.8-.9,3.7-1.6,5.4,0,.2-.2.5-.3.7-.2.4-.5.5-.9.3,0,0-.1,0-.2,0-.7.7-1.1,1.6-2,2-.8.5-1.7.8-2.6,1.2h0Z"/>
    <path class="cls-1" d="M44,97.5c-.2-.5-.6-.9-.9-1.3-.5-.5-1.1-1.1-1.7-1.5-1.2-.9-2.4-1.8-3.7-2.6-.2-.1-.3-.3-.5-.4,0-.2.1-.2.2-.3,1.1-1.9,2.3-3.9,3.4-5.8.2-.3.3-.7.5-1,.2-.4.3-.9.2-1.4-.1-1.4-1.2-2.5-2.8-2.5-.6,0-1.2.1-1.9.3-1,.2-1.9.6-2.8.8-2.6.7-5.1,1.4-7.6,2.4-.3.1-.6.1-.9,0-.7-.4-1.4-.9-2.1-1.3-1-.6-1.9-1.1-2.9-1.7-.4-.2-.8-.3-1.2-.4-1.3-.2-2.2.8-2,2,0,.4.2.8.3,1.2.5,1.4,1.1,2.9,1.6,4.3.4.9.8,1.8,1.4,2.6-1.2.4-2.3.7-3.4,1.1-.9.2-1.6.6-2.3,1.2-1,.8-1.9,1.7-2.8,2.6-.3.3-.6.6-.8,1-.8,1.3-.5,2.8.8,3.7.4.3.9.5,1.4.6.8.2,1.6.4,2.4.6,2,.5,4,.9,6,1.4.4,0,.6.2.7.6,0,.2.1.3.2.5.6,1.5,1.2,3,1.8,4.5.2.5.5,1,.9,1.4,1.4,1.7,3.8,1.3,4.7-.7.2-.4.3-.8.4-1.2.5-1.7,1-3.3,1.5-5,.2-.5.2-.5.7-.5,1.8.2,3.6.2,5.4,0,.9,0,1.8-.2,2.7-.3.7,0,1.3-.3,1.9-.7,1.5-1,2-2.8,1.2-4.3h0ZM36.8,97.2c-.2,0-.3,0-.5,0-1.3,0-2.6,0-3.9,0-.4,0-.9,0-1.3,0-1.4.2-2.4.9-3,2.1-.4.7-.6,1.5-.8,2.2,0,.2-.1.3-.2.6-.1-.2-.2-.3-.3-.4-.2-.3-.4-.7-.5-1-.5-1.1-1.4-1.9-2.6-2.3-1-.3-2-.6-3-.8-.8-.2-1.6-.3-2.4-.5-.2,0-.4,0-.6-.1.1-.2.2-.2.3-.3.8-.6,1.4-1.3,1.9-2.2.4-.7.9-1.4,1.2-2.1.2-.4.4-.9.6-1.3,0,0,0,0,0-.1.4-.4.4-.8.3-1.3-.2-1.1-.4-2.1-.6-3.2,0-.3-.1-.6-.2-1,.1,0,.2.1.3.2.8.7,1.6,1.3,2.3,2,.2.2.3.3.5.5.7.6,1.6.9,2.5.7.6,0,1.2-.3,1.8-.5,1.8-.6,3.6-1.2,5.4-1.8.2,0,.3,0,.7-.2-.1.3-.2.4-.3.5-.5.8-.9,1.6-1.3,2.3-.3.5-.5,1-.7,1.5-.4,1.1-.2,2.1.5,3,.4.5.9.9,1.4,1.3.7.5,1.5,1,2.2,1.5.2,0,.3.2.4.3h0c0,.1,0,0,0,0Z"/>
  </g>
</svg>