<?xml version="1.0" encoding="UTF-8"?><svg id="Layer_2" xmlns="http://www.w3.org/2000/svg" viewBox="0 0 110.03 110.54"><defs><style>.cls-1{fill:#fff;stroke-width:0px;}</style></defs><g id="Icons"><path class="cls-1" d="M109.97,57.49c-.22,3.92-.54,8.42-1.24,12.88-.69,4.4-2.13,8.5-4.43,12.32-1.46,2.43-3.04,4.76-4.9,6.91-1.56,1.81-3.07,3.65-4.63,5.45-1.73,2.01-3.72,3.74-5.91,5.24-2.14,1.46-4.41,2.71-6.67,3.96-.64.35-1.31.67-2.01.87-2.11.59-4.04.2-5.63-1.33-2.06-1.98-1.74-5.12.64-6.69.5-.33,1.08-.61,1.66-.77,2.24-.63,4.16-1.84,5.99-3.22,1.79-1.35,3.39-2.89,4.91-4.53,1.74-1.87,3.48-3.74,5.05-5.76,3.05-3.89,5.22-8.2,6.23-13.07.99-4.74,1.68-9.52,1.84-14.37.11-3.2-.26-6.36-.73-9.51-.39-2.6-1-5.15-1.9-7.62-1-2.75-2.2-5.43-3.64-7.98-.65-1.15-1.37-2.23-2.24-3.22-.83-.95-1.64-1.92-2.44-2.88-1.32-1.59-2.79-3.03-4.28-4.46-1.68-1.62-3.61-2.9-5.62-4.05-5-2.85-10.33-4.75-16.05-5.46-1.82-.22-3.66-.35-5.5-.38-4.62-.08-9.22.26-13.78,1.02-2.55.43-5.02,1.12-7.4,2.12-2.37,1-4.71,2.05-7,3.23-3.37,1.75-6.26,4.1-8.71,6.98-1.02,1.19-1.97,2.44-2.95,3.66-.34.43-.66.87-1.02,1.28-1.94,2.26-3.48,4.79-4.93,7.38-.73,1.32-1.29,2.74-1.82,4.16-1.36,3.67-2.34,7.43-2.71,11.34-.43,4.49-.19,8.95.78,13.36.55,2.48,1.15,4.94,1.74,7.41.1.43.23.86.38,1.27,1.49,3.92,3.12,7.78,5.43,11.3,2.5,3.82,5.57,7.07,9.61,9.34,2.3,1.29,4.56,2.66,6.92,3.83,1.01.5,1.95,1.12,2.95,1.63,1.76.89,3.55,1.74,5.32,2.6.28.13.56.26.85.35,3.12,1.04,6.3,1.87,9.6,2.13.63.05,1.25.12,1.88.18,1.17.11,2.34.22,3.51.33,1.1.11,2.2.25,3.3.34,1.23.11,2.45.08,3.67-.13.8-.13,1.59-.16,2.38.01.44.1.85.26,1.16.6.64.71.42,1.64-.47,1.97-.05.02-.1.04-.15.05-1.44.4-2.88.81-4.33,1.18-.53.14-1.07.2-1.6.3-1.4.27-2.82.48-4.21.82-2.71.67-5.43.9-8.2.37-2.22-.42-4.46-.79-6.69-1.14-2.65-.41-5.15-1.29-7.59-2.36-1.25-.55-2.46-1.17-3.69-1.76-.72-.35-1.43-.72-2.16-1.05-1.74-.78-3.41-1.71-5.02-2.74-.83-.53-1.68-1.04-2.53-1.54-2.37-1.39-4.61-2.97-6.63-4.84-2.14-1.98-3.99-4.2-5.54-6.65-1.62-2.55-3.09-5.18-4.15-8.02-.06-.16-.12-.32-.2-.47-1.63-3.46-2.58-7.13-3.31-10.87-1.41-7.24-1.58-14.5-.57-21.8.35-2.53.79-5.05,1.43-7.52.91-3.53,2.16-6.92,4.05-10.06.77-1.28,1.51-2.59,2.3-3.86.49-.78,1.05-1.51,1.59-2.25.53-.73,1.09-1.44,1.62-2.17,1.86-2.56,3.93-4.92,6.25-7.06.39-.36.78-.72,1.15-1.09,1.31-1.31,2.75-2.44,4.31-3.42,4.2-2.63,8.62-4.81,13.26-6.55,3.69-1.38,7.54-2.07,11.45-2.49C51.38.17,54.71-.02,58.05,0c5.2.04,10.33.65,15.31,2.22,4.9,1.54,9.54,3.65,13.78,6.58,1.78,1.23,3.43,2.62,4.96,4.16,2.08,2.09,3.95,4.37,5.86,6.61.49.57.95,1.16,1.43,1.73.87,1.03,1.64,2.13,2.32,3.3,1.03,1.79,1.99,3.61,2.81,5.5.64,1.48,1.31,2.96,1.92,4.45,1.14,2.75,2,5.58,2.51,8.51.8,4.57,1.24,9.18,1.02,14.42Z"/><path class="cls-1" d="M49.28,82.96c-1.55-.03-2.98-.71-4.1-2.04-.39-.47-.73-.99-1.03-1.52-1.37-2.45-2.97-4.72-4.84-6.81-1.57-1.75-3.04-3.58-4.58-5.35-1.73-1.99-3.47-3.98-5.23-5.94-.71-.78-1.5-1.48-2.25-2.23-.23-.23-.44-.47-.64-.73-.11-.14-.21-.32-.25-.49-.1-.38.09-.66.49-.65.39.01.79.06,1.15.19.72.26,1.44.54,2.12.89,4.91,2.5,9.63,5.31,13.9,8.82,1.59,1.31,3.21,2.58,4.66,4.06.32.33.41.31.75-.04.65-.68,1.29-1.36,1.94-2.04,2.47-2.61,5.16-4.99,7.83-7.4,7.2-6.49,14.77-12.53,22.56-18.3.6-.44,1.24-.85,1.91-1.17,1.43-.69,2.92-.76,4.41-.15,2.89,1.2,4.02,4.59,2.48,7.35-.4.72-.93,1.35-1.57,1.86-.86.69-1.74,1.37-2.63,2.03-5.22,3.88-10.36,7.87-15.32,12.07-4.48,3.8-8.88,7.69-13.03,11.86-1.26,1.27-2.58,2.47-3.9,3.68-.45.41-.95.78-1.46,1.11-.95.61-2.01.91-3.34.91Z"/></g></svg>