<?xml version="1.0" encoding="UTF-8"?><svg id="Layer_2" xmlns="http://www.w3.org/2000/svg" viewBox="0 0 100.27 102.1"><defs><style>.cls-1{fill:#0e0e30;stroke-width:0px;}</style></defs><g id="Scribbles"><path class="cls-1" d="M92.31,66.57c-1.47,3.13-3.75,6.07-5.91,8.9-1.44,2.11-7.21,8.14-4.51,9.75,2.13.22,4.5-2.12,6.06-3.66,6.45-6.93,16.19-18.13,10.7-27.9-5.26-9.59-17.52-9.75-27.14-11.03-3.11-.26-6.67-.42-7.84-1.67-3.25-3.63,12.02-13.19,14.84-15.24,6.15-4.46,14.03-7.23,18.72-13.34,11.72-21.98-41.8-8.45-50.7-6.32-3.27.75-6.57,1.34-9.88,1.91-9.03,1.41-17.62,4.58-26.18,7.82-2.64,1.04-5.38,2.1-7.71,3.71-3,2.01-4.32,5.12.02,5.02,7.39-1.07,14.68-3.98,21.96-5.7,5.04-1.31,9.96-2.56,14.93-3.83,12.42-2.85,25.06-5.15,37.75-6.43,4.9-.59,15.72-1.7,6.24,4.55-10.73,7.2-23.8,12.77-30.24,24.56-3.76,7.52,2.24,10.73,9.04,10.84,6.88.38,13.86.72,20.44,2.6,7.36,1.85,13.49,7.3,9.5,15.27l-.09.2Z"/><path class="cls-1" d="M73.43,102.1c-1.9,0-3.62-.52-5.24-1.6-1.08-.88-1.31-2.63-.62-5.44.58-2.27,1.25-4.61,1.89-6.88.86-3.06,1.76-6.21,2.5-9.34.5-1.58.62-3.34.72-5.04.14-2.22.28-4.32,1.29-6,.54-.61,1.12-.91,1.74-.91.75,0,1.61.45,2.35,1.24,1.08,1.15,1.73,2.77,1.66,4.13.1,2.66-.59,5.18-1.32,7.84-.29,1.05-.58,2.1-.81,3.16-.84,3.18-.68,5.19.51,6.11l.1.07c.41.31.92.46,1.5.46,1.09,0,2.46-.52,4.45-1.69,2.92-1.7,5.58-3.18,8.45-3.92,1-.32,1.94-.47,2.85-.47,2.1,0,3.83.83,4.51,2.17.64,1.27.3,2.93-.97,4.69-1.25,1.28-3.02,1.78-4.89,2.32-1.54.44-3.13.9-4.56,1.82-.87.51-1.81,1.1-2.77,1.71-4.15,2.61-8.86,5.57-13.33,5.57Z"/></g></svg>