<?xml version="1.0" encoding="UTF-8"?><svg id="Layer_2" xmlns="http://www.w3.org/2000/svg" viewBox="0 0 31.15 152.46"><defs><style>.cls-1{fill:#b11fff;stroke-width:0px;}</style></defs><g id="Scribbles"><path class="cls-1" d="M18.49,114.63c-.79-.59-1.56-1.16-2.33-1.73-.45-.33-.8-.2-.95.37-.06.21-.05.44-.1.66-.65,2.49-.71,2.43-2.92,3.89-.94.62-1.77.48-2.71.34-.5-.07-.84-.25-1.02-.71-.3-.77-.71-1.44-1.24-2.09-.51-.63-.74-1.36-.67-2.26.1-1.38-.08-2.8-.21-4.17-.12-1.33-.1-2.65-.08-3.96.04-2.52.2-5.03.28-7.55.03-.81-.11-1.64,0-2.44.2-1.4-.23-2.8.11-4.19.32-1.31.08-2.66.18-3.99.2-2.72.48-5.44.71-8.16.06-.66.08-1.33.11-1.99.14-2.37.42-4.72.77-7.06.17-1.1.18-2.21.25-3.32.28-4.81.84-9.58,1.52-14.35.74-5.28,1.38-10.57,2.1-15.85.28-2.05.68-4.09,1-6.14.19-1.24.41-2.49.5-3.74.16-2.08,1.07-4.01,1.11-6.11,0-.2.09-.45.22-.6.33-.37.71-.69,1.06-1.03.66.5.72,1.17.84,1.82.32,1.76.39,3.55.32,5.32-.1,2.51-.31,5.01-.51,7.52-.28,3.46-.58,6.92-.91,10.38-.37,3.76-.8,7.52-1.18,11.29-.28,2.79-.52,5.58-.77,8.37-.28,3.1-.56,6.19-.82,9.29-.11,1.33-.15,2.66-.24,3.99-.06.89-.21,1.77-.25,2.66-.09,1.77-.14,3.55-.19,5.32-.03,1.11-.05,2.22-.04,3.33,0,.21.11.47.41.37.11-.04.22-.21.24-.33.13-.8.31-1.61.34-2.42.06-1.94.55-3.81.83-5.72.48-3.29,1.07-6.57,1.25-9.9.02-.37,0-.74.07-1.1.33-1.88.79-3.74,1-5.63.31-2.71.97-5.37,1.13-8.11.09-1.54.35-3.07.51-4.61.25-2.34.44-4.69.72-7.03.26-2.13.6-4.25.91-6.37.33-2.34.46-4.7,1.15-6.99.15-.49.15-1.03.13-1.55-.05-1.41.14-2.79.36-4.19.57-3.72,1.01-7.46,1.6-11.18.24-1.53.53-3.06,1.11-4.52.16-.4.2-.86.25-1.3.2-1.76.82-3.43,1.13-5.17.15-.81.75-1.25,1.23-1.78C26.93.06,27.21,0,27.42,0c1.09,0,2.01.47,2.8,1.17.15.13.22.38.26.59.19.94.38,1.88.53,2.83.08.51.16,1.04.12,1.55-.13,1.62-.29,3.24-.48,4.86-.25,2.14-.51,4.27-.82,6.4-.45,3.06-.92,6.12-1.42,9.18-.53,3.21-1.08,6.41-1.65,9.61-.62,3.5-1.25,7-1.92,10.49-.63,3.28-.97,6.59-1.29,9.9-.12,1.18-.42,2.33-.46,3.52-.08,2.66-.24,5.32-.38,7.98-.12,2.29-.26,4.58-.36,6.88-.11,2.44-.35,4.89-.39,7.32-.05,2.81-.26,5.62-.27,8.43,0,1.38-.13,2.84.81,4.07.39.52.33,1.16.16,1.72-.75,2.44-.78,4.98-1.13,7.48-.14.95-.2,1.93-.14,2.89.12,2.01-.44,3.98-.25,6,.04.39-.25.74-.65.8-.76.11-1.28.7-1.99.96ZM12.52,89.99l.13-.06-.13-.07v.13Z"/><path class="cls-1" d="M17.97,125.72c1.21-.12,2.21-.05,3.15,1.03.67.77.9,1.52.81,2.35-.1.93.24,1.47.95,1.94.9.6,1.67,1.35,2.32,2.21.23.31.6.62.63.96.24,2.7,1.56,5.23,1.21,8.01-.19,1.52-.96,2.76-2.1,3.73-1.56,1.32-3.12,2.67-4.81,3.8-3.64,2.42-7.62,3.31-11.97,2.31-1.32-.3-2.68-.45-4.03-.58-.99-.09-1.62-.6-2.06-1.42-.59-1.12-1.17-2.25-1.7-3.39-.2-.43-.4-.95-.36-1.4.17-1.94.08-3.99.72-5.78.94-2.64,2.27-5.18,4.35-7.19.84-.82,1.7-1.61,2.57-2.4,2.94-2.65,6.41-3.98,10.33-4.18Z"/></g></svg>