<?xml version="1.0" encoding="UTF-8"?><svg id="Layer_2" xmlns="http://www.w3.org/2000/svg" viewBox="0 0 134.71 57.52"><defs><style>.cls-1{fill:#b11fff;stroke-width:0px;}</style></defs><g id="Scribbles"><path class="cls-1" d="M5.71,31.95c-3.67.87-6.18,4.37-5.64,8.1.04.26.08.44.12.51.31.44.65.74,1.05.92.39.17.83.24,1.31.2.48-.04.85-.13,1.11-.26.26-.13.61-.52,1.05-1.18.44-.65.96-1.22,1.57-1.7.61-.48,1.85-1.16,3.73-2.03,1.88-.87,3.9-1.7,6.08-2.49,2.18-.78,4.88-1.61,8.11-2.49,3.23-.87,6.63-1.64,10.21-2.29,3.58-.65,7.13-1.18,10.66-1.57,3.53-.39,7.02-.7,10.47-.92,3.44-.22,8.48-.43,15.11-.65,6.63-.22,13.26-.31,19.89-.26,6.63.04,10.71,0,12.23-.13,1.53-.13,2.35-.17,2.49-.13.06.02.13.04.2.07-.02.04-.04.09-.07.13-.04.09-1.33.63-3.86,1.64-2.53,1-5.43,2.33-8.7,3.99-3.27,1.66-5.95,3.14-8.05,4.45-2.09,1.31-3.97,2.59-5.63,3.86-1.66,1.26-4.19,3.58-7.59,6.93-3.4,3.36-5.47,5.34-6.21,5.95-.74.61-1.16,1.29-1.24,2.03-.09.74-.07,1.24.06,1.51.13.26.39.54.78.85.39.31.89.48,1.51.52.61.04,1.11-.02,1.5-.2.39-.17.89-.5,1.51-.98.61-.48,2.07-1.9,4.38-4.25,2.31-2.35,4.38-4.29,6.21-5.82,1.83-1.53,3.86-3.01,6.08-4.45,2.22-1.44,5.04-3.05,8.44-4.84,3.4-1.79,6.52-3.29,9.35-4.51,2.84-1.22,5.54-2.25,8.11-3.07,2.57-.83,5.34-1.53,8.31-2.09,2.97-.57,5.23-.76,6.8-.59,1.57.17,2.75.24,3.53.2.79-.04,1.42-.15,1.9-.33.48-.17.87-.39,1.18-.65.31-.26.55-.59.72-.98.17-.39.24-.85.19-1.37-.04-.52-.15-.94-.33-1.24-.17-.3-.46-.59-.85-.85-.39-.26-.94-.46-1.64-.59-.7-.13-1.88-.17-3.53-.13-1.66.04-2.81.02-3.47-.06-.65-.09-2.66-.48-6.02-1.18-3.36-.7-6.85-1.53-10.47-2.49-3.62-.96-7.04-1.98-10.27-3.07-3.23-1.09-6.83-2.4-10.79-3.93-3.97-1.53-7.61-3.07-10.92-4.64-3.31-1.57-5.34-2.57-6.08-3.01-.74-.44-1.29-.85-1.64-1.24-.35-.39-.72-.68-1.11-.85-.39-.17-.76-.26-1.11-.26s-.7.06-1.05.19c-.35.13-.65.33-.92.59-.26.26-.46.57-.59.92-.13.35-.2.72-.2,1.11s.11.83.33,1.31c.22.48.65.98,1.31,1.51.65.52,1.68,1.18,3.07,1.96,1.4.79,3.25,1.72,5.56,2.81,2.31,1.09,5.3,2.38,8.96,3.86,3.66,1.48,6.59,2.6,8.77,3.34,2.18.74,3.36,1.2,3.53,1.37.09.09.17.17.26.26-2.16.02-4.32.04-6.48.06-4.32.04-8.68.17-13.08.39-4.4.22-9.4.52-14.98.92-5.58.39-10.51.83-14.78,1.31-4.27.48-8.13,1.03-11.58,1.64-3.45.61-6.5,1.24-9.16,1.9-2.66.65-5.28,1.4-7.85,2.22-3.58,1.16-6.7,2.35-9.36,3.59-.27.09-.52.18-.78.27l-1.75.42Z"/></g></svg>