<?xml version="1.0" encoding="UTF-8"?><svg id="Layer_2" xmlns="http://www.w3.org/2000/svg" viewBox="0 0 56.21 54.51"><defs><style>.cls-1{fill:#0e0e30;stroke-width:0px;}</style></defs><g id="Scribbles"><path class="cls-1" d="M18.78,29.12c-.4-.46-1-.39-1.51-.46-2.15-.27-4.31-.46-6.47-.71-1.54-.18-3.07-.4-4.61-.64-.38-.06-.76-.18-1.11-.35-.56-.28-.93-1.13-.83-1.76.06-.38.12-.78.25-1.14.22-.63.64-1.01,1.37-1.05,1.17-.06,2.32.03,3.47.2.46.07.91.23,1.36.25,2.71.14,5.43.22,8.14.38,1.62.1,3.24.33,4.86.46.7.06.95-.29.87-1.02-.4-3.53-1.13-7.02-1.91-10.47-.79-3.46-1.91-6.86-3.69-9.99-.59-1.03-.45-1.4.62-2.01,1.34-.77,1.81-.75,2.92.18.59.5,1.07,1.08,1.48,1.77,1.14,1.95,2.13,3.98,2.95,6.06.75,1.92,1.6,3.86,1.86,5.95.03.21.08.51.39.46.21-.03.46-.13.58-.28.49-.61.76-1.34,1.05-2.06.92-2.3,1.85-4.6,3.04-6.78.44-.81.74-1.71,1.08-2.57.41-1.01.85-2,1.56-2.85.49-.59,1.07-.82,1.85-.69,1.16.2,1.69.75,1.4,1.91-.56,2.25-1.01,4.54-2.03,6.66-.43.9-.83,1.84-1.12,2.8-.61,2.01-1.46,3.9-2.37,5.79-.43.9-.72,1.86-1.07,2.78.28.32.59.24.85.07,2.38-1.46,4.87-2.7,7.42-3.83.91-.4,1.7-1.07,2.61-1.51,1.6-.78,3.23-1.51,4.88-2.19.79-.33,1.65-.42,2.52-.3.99.14,1.51.93,1.1,1.84-.55,1.21-1.34,2.26-2.48,3.01-2.97,1.96-6.05,3.74-9.16,5.47-1.21.67-2.36,1.46-3.53,2.2-.21.13-.3.35-.14.59.08.12.21.25.34.3.21.08.45.1.68.13,3,.4,6,.78,8.99,1.2,1.61.23,3.22.53,4.83.81,1.32.23,2.52.76,3.64,1.48.45.29.6.7.45,1.2-.22.76-.68,1.19-1.26,1.14-2.78-.23-5.56-.49-8.34-.69-1.7-.12-3.41-.16-5.11-.19-1.24-.02-2.47-.12-3.7-.29-1.45-.21-2.93-.26-4.4-.37-.83-.06-1.32.39-1.29,1.25.02.54.05,1.11.22,1.61.55,1.57.59,3.21.7,4.83.1,1.48.34,2.92.64,4.37.3,1.43.44,2.9.63,4.36.06.49-.05,1.02-.62,1.07-.72.07-1.2.63-1.79.88-.89-1.04-1.72-1.96-2.47-2.93-.37-.48-.74-1.04-.89-1.62-.58-2.32-1.74-4.49-1.8-6.95,0-.24-.14-.49-.4-.44-.18.04-.41.25-.46.43-.88,2.71-1.87,5.39-2.55,8.16-.61,2.46-1.35,4.92-1.16,7.53.09,1.23-.03,1.24-1.36,1.63-.28.08-.56.2-.88.31-.27-.36-.45-.73-.75-.96-1.55-1.22-1.67-2.89-1.45-4.63.26-2.07.55-4.15,1.19-6.16.58-1.84,1.06-3.72,1.58-5.58.09-.33-.21-.57-.56-.5-.63.13-1.13.45-1.58.92-1.57,1.63-3.54,2.74-5.29,4.14-.12.1-.28.14-.4.24-1.71,1.33-3.45,2.64-5.11,4.03-1.17.98-2.32,1.94-3.14,3.33-.84,1.43-2.84,1.38-3.97.14-.29-.32-.39-.64-.37-1.04.07-1.86.67-3.52,2-4.84,2.42-2.4,4.76-4.89,7.61-6.8.84-.56,1.42-1.4,2.26-1.99,2.15-1.51,4.22-3.14,6.3-4.74.29-.22.61-.48.6-.93Z"/></g></svg>