<?xml version="1.0" encoding="UTF-8"?><svg id="Layer_2" xmlns="http://www.w3.org/2000/svg" viewBox="0 0 507.74 48.99"><defs><style>.cls-1{fill:#efeff4;stroke-width:0px;}</style></defs><g id="Scribbles"><path class="cls-1" d="M370.07,43.7c.96-1.09,1-1.6.12-1.77-4.99-.94-9.88-2.34-14.93-3.09-4.29-.63-8.52-1.62-12.78-2.45-.57-.11-1.15-.34-1.71-.29-3.4.31-6.63-.76-9.92-1.27-4.29-.68-8.65-.95-12.92-1.6-5.75-.88-11.52-1.41-17.28-2.13-8.93-1.11-17.89-2.03-26.85-2.86-6.34-.58-12.74-.67-19.06-1.37-4.34-.48-8.69-.6-13.03-.75-3.91-.14-7.82-.42-11.74-.54-7.68-.24-15.36-.64-23.04-.76-6.38-.1-12.76.16-19.14.18-3.19.01-6.39-.27-9.58-.21-7.54.14-15.07.39-22.6.6-2.6.07-5.2.17-7.8.19-3.33.02-6.67.13-9.99-.09-6.13-.4-12.12.92-18.18,1.21-4.93.24-9.85.52-14.77.77-4.63.24-9.28.31-13.9.78-3.19.33-6.37.29-9.56.48-5.5.33-10.99.74-16.48,1.04-10.26.55-20.52,1.02-30.78,1.57-1.59.08-3.17.37-4.75.53-.72.08-1.48.27-2.16.12-3.19-.72-6.4-.21-9.56-.06-3.21.16-6.35-.42-9.57-.24-2.02.11-4.16-.89-6.15-1.64-1.7-.64-2.18-1.66-1.88-3.46.19-1.13.58-2.24.99-3.32.32-.85.93-1.37,1.93-1.51,2.72-.4,5.42-.96,8.15-1.38,10.03-1.57,20.06-3.13,30.1-4.66,1.43-.22,2.88-.25,4.31-.43,6.18-.79,12.35-1.62,18.53-2.42,6.76-.88,13.49-1.87,20.29-2.48,9.11-.83,18.18-2.04,27.28-2.99,5.04-.53,10.09-1.02,15.15-1.46,4.76-.41,9.52-.9,14.29-1.28,6.22-.5,12.45-.92,18.68-1.35,5.79-.4,11.57-.83,17.36-1.14,7.69-.41,15.38-.75,23.07-1.04,7.69-.29,15.39-.52,23.08-.68,8.57-.17,17.15-.11,25.72-.37,7.41-.22,14.81.3,22.22.04,3.88-.13,7.83-.22,11.75.37,1.85.28,3.78.09,5.67.12,12.06.18,24.1.93,36.15,1.5,4.78.23,9.55.6,14.33.85,7.39.39,14.75,1.2,22.11,1.99,6.79.73,13.52,2.05,20.39,2.08,2.46.01,4.92.54,7.36.91,10.65,1.59,21.35,2.91,31.93,4.9,7.27,1.37,14.58,2.56,21.79,4.29,5.78,1.39,11.65,2.51,17.46,3.81,3.54.79,7.09,1.59,10.61,2.47,7.48,1.85,14.93,3.82,22.42,5.61,2.96.71,5.99,1.17,9.08,1.15,1.45,0,2.9.2,4.34.31.69.05,1.14.55,1.1,1.11-.04.51-.41,1.26-.82,1.41-1.07.39-2.24.71-3.37.71-3.05,0-6.13.03-9.15-.35-7.94-1-15.85-2.13-23.67-3.95-7.22-1.68-14.54-3-21.76-4.63-6.38-1.43-12.89-2.19-19.21-3.92-3.77-1.03-7.72-1.44-11.61-2-10.37-1.49-20.72-3.22-31.14-4.28-10.41-1.07-20.76-2.61-31.22-3.22-6.95-.41-13.89-1.14-20.84-1.66-3.47-.26-6.96-.35-10.44-.52-4.35-.21-8.7-.45-13.06-.63-3.92-.16-7.83-.3-11.75-.38-2.89-.06-5.79.08-8.68-.02-7.25-.23-14.5-.6-21.76-.81-3.62-.1-7.28-.25-10.87.12-3.21.33-6.38-.05-9.57.05-9.27.3-18.55.27-27.83.44-5.94.1-11.87.29-17.81.49-4.49.15-8.98.41-13.48.57-3.17.11-6.34.14-9.52.2-.73.02-1.47-.04-2.18.08-8.04,1.36-16.21,1.34-24.3,1.83-8.55.51-17.04,1.48-25.57,2.07-7.67.53-15.32,1.35-22.97,2.14-7.22.75-14.43,1.62-21.63,2.47-.68.08-1.47-.04-2.05.62.34,1.18,1.43.79,2.09.76,4.06-.16,8.11-.49,12.16-.71,5.8-.32,11.6-.6,17.39-.88,1.89-.09,3.82.1,5.65-.25,4.03-.78,8.1-.45,12.14-.6,5.21-.2,10.4-.59,15.6-.84.86-.04,1.76-.24,2.59-.09,2.91.53,5.82.14,8.71.02,2.18-.09,4.35-.27,6.52-.11,5.24.37,10.44-.52,15.66-.37,3.19.09,6.38.05,9.57.05,5.65,0,11.3-.08,16.95.03,3.91.07,7.82.55,11.73.57,2.76.01,5.5.1,8.25.24,7.53.38,15.06.54,22.58,1.38,6.34.7,12.73.87,19.09,1.42,5.06.44,10.08,1.34,15.14,1.59,5.54.27,10.99,1.11,16.47,1.8,13.86,1.75,27.67,3.81,41.43,6.18,5.86,1.01,11.62,2.55,17.43,3.86,4.25.96,8.5,1.93,12.74,2.93,6.66,1.56,13.12,3.79,19.58,5.98.55.19,1.08.45,1.62.66.84.32,1.66.7,1.74,1.72.08,1.1-1.22,2.79-2.31,2.84-1.29.06-2.61-.09-3.9-.27-4.03-.57-8.05-1.29-12.15-1.25-3.23.03-6.35.51-9.38,1.68-2.17.83-4.39,1.53-6.59,2.25-.22.07-.64-.03-.76-.2-.29-.42-.03-.74.35-1.02,1.9-1.4,3.99-2.37,6.28-2.95.85-.21,1.68-.48,2.51-.73-.06.06-.12.13-.18.19.25-.53-.3.07.27-.06.57-.2,1.14-.4,1.7-.59-.01,0-.2.21-.2.21l.13-.13Z"/></g></svg>