<?xml version="1.0" encoding="UTF-8"?><svg id="Layer_2" xmlns="http://www.w3.org/2000/svg" viewBox="0 0 328.43 43.53"><defs><style>.cls-1{fill:#e90055;stroke-width:0px;}</style></defs><g id="Scribbles"><path class="cls-1" d="M167.74.51c-.71.34-1.45.81-2.21,1.42-.77.61-1.94,1.82-3.53,3.64-1.59,1.82-3.17,4.24-4.75,7.26-1.58,3.02-2.66,5.54-3.24,7.55-.58,2.01-2.61,4.1-6.09,6.26-3.48,2.16-6.46,3.79-8.94,4.87-2.48,1.09-4.43,1.8-5.85,2.14-1.42.34-2.84.49-4.26.43-1.42-.06-2.55-.39-3.38-.98-.83-.6-1.43-1.43-1.79-2.5-.36-1.07-.54-1.67-.54-1.8,0-.13,2.47-2.02,7.43-5.67,4.95-3.64,8.16-6.24,9.63-7.79,1.47-1.55,2.38-2.66,2.73-3.33.35-.67.58-1.54.7-2.62.11-1.07.05-1.94-.19-2.61-.24-.67-.66-1.33-1.26-2-.6-.67-1.25-1.23-1.96-1.7-.71-.46-1.4-.83-2.05-1.09-.65-.26-1.33-.43-2.05-.49-.71-.06-1.39,0-2.04.21-.65.2-1.27.51-1.86.91-.59.41-1.83,1.68-3.71,3.84-1.88,2.15-3.47,4.44-4.76,6.86-1.29,2.42-2.4,5.2-3.33,8.35-.93,3.15-2.04,5.17-3.34,6.04-1.3.88-2.92,1.82-4.87,2.84-1.95,1.02-4.1,1.93-6.47,2.75-2.36.82-4.34,1.3-5.94,1.44-1.6.14-2.96-.02-4.09-.48-1.13-.46-1.99-1.13-2.59-1.99-.6-.87-.99-1.9-1.17-3.11-.18-1.2.76-2.41,2.82-3.63,2.07-1.22,3.89-2.43,5.49-3.65,1.59-1.21,3.45-2.97,5.56-5.25,2.12-2.29,3.53-4,4.23-5.15.7-1.14,1.05-2.05,1.05-2.72,0-.67-.22-1.37-.63-2.1-.42-.73-1.28-1.53-2.59-2.39-1.31-.86-2.52-1.36-3.65-1.48-1.13-.13-2.52.25-4.17,1.13-1.65.88-2.77,1.59-3.36,2.13-.59.54-1.32,1.41-2.2,2.62-.88,1.21-1.88,2.89-2.99,5.04-1.11,2.15-1.87,3.83-2.28,5.03-.41,1.21-.73,2.48-.95,3.82-.23,1.34-3.06,3.7-8.48,7.08-5.43,3.38-8.97,5.34-10.62,5.89-1.65.55-2.93.79-3.81.73-.89-.06-1.72-.36-2.49-.89-.77-.53-1.55-1.3-2.32-2.3-.78-1-1.4-2.17-1.89-3.5-.48-1.34.31-3.01,2.37-5.03,2.06-2.02,4.32-4.71,6.79-8.07,2.47-3.36,3.79-5.34,3.96-5.95.17-.6.26-1.34.25-2.21,0-.87-.16-1.71-.46-2.51-.3-.8-.75-1.43-1.34-1.9-.59-.47-1.25-.7-1.96-.69-.71,0-1.69.38-2.92,1.12-1.24.74-2.62,2.02-4.15,3.84-1.53,1.82-2.85,3.8-3.96,5.95-1.11,2.15-1.84,3.76-2.19,4.83-.35,1.07-.64,2.41-.86,4.02-.23,1.61-2.26,3.76-6.09,6.46-3.83,2.7-7.17,4.8-10,6.29-2.83,1.49-4.84,2.41-6.02,2.75-1.18.34-2.13.45-2.84.32-.71-.13-1.4-.63-2.05-1.49-.66-.87-1.2-2-1.62-3.4-.42-1.4-.64-2.84-.65-4.31,0-1.47.49-2.58,1.49-3.32,1-.74,2.39-1.99,4.15-3.74,1.77-1.75,3.3-3.4,4.59-4.95,1.29-1.55,2.38-3.13,3.26-4.74.88-1.61,1.37-3.05,1.48-4.33.11-1.27.05-2.18-.19-2.71-.24-.53-.66-1.03-1.25-1.5-.59-.47-1.31-.7-2.14-.69-.83,0-1.83.41-3.01,1.22-1.18.81-2.62,2.29-4.33,4.44-1.7,2.15-3.2,4.47-4.49,6.96-1.29,2.48-2.13,4.53-2.54,6.14-.4,1.61-2.73,3.83-6.98,6.67-4.25,2.84-7.64,4.9-10.18,6.19-2.54,1.29-3.95,2.13-4.25,2.54-.29.4-.47.87-.52,1.41-.06.54.1,1.07.45,1.6.36.53.86.8,1.51.79.65,0,2.25-.72,4.78-2.14,2.54-1.42,5.46-3.25,8.76-5.47,3.3-2.23,5.01-3.34,5.13-3.34.12,0,.33.94.64,2.81.31,1.87.79,3.44,1.45,4.71.66,1.27,1.35,2.3,2.06,3.1.72.8,1.43,1.36,2.14,1.69.71.33,1.37.53,1.96.59.59.06,1.57-.04,2.93-.32,1.36-.28,3.07-.89,5.14-1.84,2.07-.95,4.49-2.27,7.26-3.96,2.77-1.69,5.13-3.28,7.08-4.76,1.95-1.48,2.98-2.23,3.1-2.23.12,0,.27.33.45,1,.18.67.51,1.44.99,2.3.48.87,1.2,1.87,2.15,3,.95,1.13,1.73,1.93,2.32,2.4.59.47,1.28.86,2.05,1.19.77.33,1.69.53,2.76.59,1.07.06,2.22-.05,3.46-.32,1.24-.27,2.72-.82,4.43-1.63,1.71-.81,4.57-2.54,8.58-5.17,4.01-2.63,6.08-3.95,6.19-3.95.12,0,.27.5.45,1.5.18,1,.46,1.87.81,2.61.36.73,1.05,1.6,2.06,2.6,1.01,1,2.08,1.73,3.21,2.19,1.13.46,2.58.69,4.36.68,1.78-.01,3.67-.29,5.68-.84,2.01-.55,4.23-1.36,6.65-2.45,2.42-1.09,4.4-2.13,5.93-3.15,1.53-1.01,2.36-1.52,2.48-1.52.12,0,.24.3.36.9.12.6.36,1.2.72,1.8.36.6.96,1.3,1.79,2.1.83.8,1.7,1.4,2.59,1.79.89.4,2.11.62,3.65.68,1.54.06,3.14-.09,4.79-.43,1.66-.34,3.43-.89,5.32-1.64,1.89-.75,4.02-1.76,6.38-3.05,2.36-1.29,4.22-2.4,5.58-3.35,1.36-.95,2.09-1.42,2.21-1.42.12,0,.21.27.27.8.06.54.3,1.24.72,2.1.42.87.96,1.63,1.61,2.3.66.67,1.58,1.23,2.76,1.69,1.19.46,2.31.69,3.38.68,1.07,0,3.17-.45,6.3-1.34,3.13-.89,7.12-2.42,11.96-4.59,4.84-2.17,7.38-3.26,7.62-3.26.24,0,.57.73.99,2.2.42,1.47.99,2.81,1.71,4.01.72,1.2,1.34,2.1,1.88,2.7.54.6,1.37,1.3,2.5,2.09,1.13.8,2.23,1.33,3.3,1.59,1.07.26,2.28.35,3.64.28,1.36-.07,3.02-.35,4.97-.83,1.95-.48,4.23-1.2,6.83-2.15,2.6-.95,5.64-2.21,9.13-3.77,1.74-.78,3.48-1.56,5.23-2.34.09.43.18.87.27,1.3.18.87.57,1.84,1.17,2.91.6,1.07,1.34,2.03,2.24,2.9.89.87,1.9,1.53,3.03,1.99,1.13.46,2.34.69,3.65.68,1.3,0,2.63-.18,3.99-.53,1.36-.34,2.75-.82,4.17-1.43,1.42-.61,3.01-1.46,4.78-2.54,1.77-1.08,2.71-1.62,2.83-1.62.12,0,.33.4.63,1.2.3.8.81,1.54,1.52,2.2.71.67,1.43,1.1,2.14,1.29.71.2,1.96.22,3.73.08,1.78-.14,4.02-.63,6.74-1.45,2.72-.82,4.73-1.53,6.03-2.14,1.3-.61,2.69-1.39,4.16-2.33,1.47-.95,2.57-.99,3.29-.12.72.87,1.76,1.5,3.12,1.89,1.36.39,3.32.48,5.86.27,2.54-.22,4.79-.53,6.74-.94,1.95-.41,3.43-.82,4.43-1.23,1-.41,1.62-.61,1.86-.61.24,0,.56.36.98,1.1.42.73.98,1.3,1.7,1.7.71.4,1.6.63,2.67.69,1.07.06,2.19-.01,3.38-.22,1.18-.21,3.81-.99,7.89-2.36,4.08-1.36,6.38-2.28,6.91-2.75.53-.47.82-.84.88-1.11.06-.27.03-.7-.1-1.3-.12-.6-.33-1.04-.63-1.3-.3-.27-.63-.43-.98-.5-.36-.07-.92.11-1.69.51s-2.92,1.19-6.47,2.35c-3.55,1.16-6.03,1.81-7.45,1.95-1.42.14-2.28.11-2.58-.09-.3-.2-.45-.37-.45-.5,0-.13.76-.64,2.3-1.52,1.53-.88,3.07-1.89,4.6-3.04,1.53-1.15,2.86-2.36,3.97-3.64,1.12-1.28,1.85-2.29,2.2-3.03.35-.74.64-1.71.87-2.92.23-1.21.16-2.28-.2-3.21-.36-.94-.93-1.57-1.7-1.9-.77-.33-1.84-.36-3.2-.08-1.36.28-2.69.85-3.99,1.73-1.3.88-2.68,2.29-4.15,4.24-1.47,1.95-2.7,4.2-3.69,6.75-.99,2.55-2.49,4.13-4.5,4.75-2.01.61-4.26,1.13-6.74,1.55-2.48.42-4.44.6-5.86.54-1.42-.06-2.34-.25-2.76-.59-.21-.17-.42-.33-.62-.5,1.33-.94,2.65-1.89,3.98-2.84,2.65-1.89,4.42-3.31,5.3-4.25.88-.94,1.47-1.72,1.76-2.32.29-.6.49-1.64.6-3.12.11-1.47.07-2.51-.11-3.11-.18-.6-.57-1.17-1.16-1.7-.6-.53-1.25-.8-1.96-.79-.71,0-1.83.48-3.37,1.43-1.53.95-2.83,2.03-3.89,3.24-1.06,1.21-2.12,2.79-3.17,4.74-1.05,1.95-1.7,3.46-1.93,4.53-.23,1.07-2,2.49-5.3,4.25-3.31,1.76-6.44,3.02-9.39,3.77-2.96.75-4.97,1.07-6.03.94-1.07-.13-1.72-.56-1.96-1.29-.24-.74.49-1.51,2.21-2.32,1.71-.81,3.31-1.69,4.78-2.64,1.47-.95,2.65-1.99,3.53-3.13.88-1.14,1.58-2.39,2.11-3.73.52-1.34.84-2.55.96-3.62.11-1.07.05-1.94-.19-2.61-.24-.67-.75-1.23-1.52-1.7-.77-.46-1.51-.66-2.22-.59s-1.63.38-2.75.92c-1.12.54-2.45,1.52-3.98,2.94-1.53,1.41-2.91,3.1-4.14,5.05-1.23,1.95-2.05,3.69-2.46,5.24-.41,1.54-2.41,3.26-6.01,5.16-3.6,1.9-5.9,2.98-6.91,3.25-1.01.27-2.1.41-3.28.42-1.18,0-2.1-.15-2.76-.49-.65-.33-1.28-.83-1.87-1.49-.6-.67-1.01-1.23-1.25-1.7-.24-.47-.36-1.14-.37-2.01,0-.87,1.06-1.75,3.18-2.63,2.13-.88,4.07-1.83,5.84-2.85,1.77-1.01,3.24-2.09,4.42-3.24,1.18-1.15,1.97-2.15,2.38-3.03.41-.87.61-1.64.61-2.31,0-.67-.25-1.47-.73-2.41-.48-.93-1.28-1.63-2.41-2.09-1.13-.46-2.2-.69-3.2-.68-1.01,0-2.01.18-3.02.52-1,.34-2.1,1.05-3.27,2.13-1.18,1.08-2.29,2.42-3.35,4.04-1.06,1.61-1.99,3.36-2.81,5.24-.82,1.88-4.56,4.18-11.24,6.89-6.67,2.72-11.08,4.32-13.21,4.8-2.13.48-3.87.66-5.24.53-1.36-.13-2.46-.49-3.29-1.09-.83-.6-1.58-1.33-2.23-2.2-.66-.87-1.19-1.77-1.61-2.7-.42-.93-.72-1.84-.9-2.71-.18-.87.85-1.88,3.09-3.03,2.24-1.15,3.98-2.17,5.22-3.04,1.24-.88,3.09-2.63,5.56-5.25,2.47-2.63,3.88-4.31,4.23-5.05s.49-1.54.43-2.41c-.06-.87-.28-1.57-.63-2.11-.36-.53-.95-1.03-1.79-1.5-.83-.46-1.57-.69-2.22-.69-.65,0-1.45.14-2.4.42s-2.19.92-3.72,1.93c-1.53,1.01-3.01,2.16-4.42,3.44-1.41,1.28-2.71,2.63-3.88,4.04-1.18,1.41-2,2.59-2.47,3.53-.47.94-.85,2.08-1.13,3.42-.29,1.34-3.36,3.27-9.2,5.78-5.85,2.51-9.72,4.04-11.61,4.59-1.89.55-3.49.86-4.79.93-1.3.07-2.25-.02-2.84-.28-.59-.26-1.07-.63-1.43-1.1-.36-.47-.6-1.3-.73-2.51-.13-1.2.31-2.11,1.32-2.72,1-.61,2.51-1.76,4.51-3.44,2-1.69,4.15-3.81,6.45-6.36,2.29-2.56,3.82-4.41,4.59-5.55.76-1.14,1.14-2.18,1.14-3.12,0-.94-.34-1.94-.99-3.01-.66-1.07-1.37-1.93-2.15-2.6C171.14.33,170.43,0,169.78,0c-.65,0-1.33.18-2.04.51ZM170.07,5.32c.48.47.69.9.63,1.3-.06.4-1.26,1.95-3.61,4.64-2.35,2.69-4.32,4.68-5.92,5.96-.8.64-1.59,1.28-2.39,1.92.35-.81.7-1.61,1.05-2.42.7-1.61,1.49-3.12,2.37-4.53.88-1.41,1.73-2.59,2.55-3.53.82-.94,1.79-1.85,2.91-2.73,1.12-.88,1.92-1.08,2.39-.62ZM135.97,6.13c.47.06,1.07.29,1.78.69.71.4,1.22.76,1.52,1.1.3.33.36.8.19,1.4-.17.6-1.2,1.81-3.09,3.63-1.88,1.82-4.33,3.81-7.34,5.97-1.5,1.08-3.01,2.16-4.51,3.24.26-.77.52-1.54.79-2.31.52-1.54,1.37-3.32,2.54-5.34,1.17-2.02,2.29-3.63,3.35-4.84,1.06-1.21,2-2.12,2.83-2.73s1.47-.88,1.95-.81ZM103.92,7.32c.53.06,1.1.29,1.69.69.59.4.92.7.98.9.06.2-1,1.51-3.17,3.94-2.18,2.42-4.5,4.48-6.98,6.17-1.24.84-2.48,1.69-3.72,2.53.29-.81.58-1.61.87-2.42.58-1.61,1.43-3.32,2.55-5.14,1.11-1.81,2.05-3.13,2.82-3.93.77-.81,1.65-1.48,2.65-2.02,1-.54,1.77-.78,2.3-.72ZM67.77,7.83c.03.2.06.4.09.6.06.4-.02.84-.26,1.31-.23.47-1.06,1.65-2.47,3.53-1.41,1.88-2.79,3.56-4.14,5.05-.68.74-1.35,1.48-2.03,2.22.17-.5.35-1.01.52-1.51.35-1.01.96-2.28,1.84-3.83.88-1.55,1.67-2.75,2.38-3.63.71-.87,1.56-1.72,2.56-2.53.5-.4,1-.81,1.5-1.21ZM35.62,8.43c-.03.23-.06.47-.08.7-.06.47-.47,1.31-1.23,2.52-.76,1.21-2.06,2.76-3.88,4.64-.91.94-1.82,1.89-2.74,2.83.56-.97,1.11-1.95,1.67-2.92,1.11-1.95,2.11-3.46,2.99-4.54.88-1.08,1.65-1.88,2.29-2.42.32-.27.65-.54.97-.81ZM205.44,8.22c.24,0,.47,0,.71,0,0,.07,0,.13,0,.2,0,.13-1,1.28-3,3.43-2,2.15-3.71,3.74-5.12,4.75-1.42,1.01-2.77,1.82-4.07,2.43-.65.31-1.3.61-1.95.92.23-.44.47-.87.7-1.31.47-.87,1.38-2.02,2.73-3.43,1.35-1.41,2.68-2.66,3.97-3.74,1.3-1.08,2.51-1.89,3.63-2.43,1.12-.54,1.92-.81,2.39-.82ZM242.44,16.04c.59.06,1.19.13,1.78.19-.18.3-.35.6-.53.91-.35.6-1,1.28-1.94,2.02-.94.74-2.45,1.62-4.51,2.64-1.03.51-2.07,1.02-3.1,1.52.53-.87,1.06-1.75,1.58-2.62,1.06-1.75,1.79-2.82,2.2-3.23.41-.4.97-.78,1.68-1.11.71-.34,1.66-.44,2.84-.32ZM317.57,16.09c.18.03.36.07.53.1-.21.44-.41.87-.61,1.31-.41.87-.82,1.54-1.23,2.02-.41.47-1.68,1.48-3.8,3.04-1.06.78-2.12,1.55-3.18,2.33.15-.37.29-.74.44-1.11.29-.74,1-1.85,2.11-3.33,1.12-1.48,2.26-2.59,3.45-3.33,1.18-.74,1.95-1.08,2.3-1.02ZM292.18,16.75c.03.2.06.4.09.6.06.4-.08.87-.44,1.41-.35.54-1.41,1.48-3.18,2.83-.88.67-1.77,1.35-2.65,2.02.62-.84,1.23-1.68,1.85-2.52,1.23-1.68,2.26-2.83,3.09-3.43.41-.3.83-.61,1.24-.91ZM267.32,17.9c.06,0,.12,0,.18,0,0,.1,0,.2,0,.3,0,.2-.2.8-.61,1.81-.41,1.01-.88,1.85-1.41,2.52-.53.67-1.77,1.55-3.71,2.63-.97.54-1.95,1.08-2.92,1.62.29-.54.59-1.07.88-1.61.59-1.07,1.32-2.12,2.2-3.13.88-1.01,1.97-1.95,3.27-2.83,1.3-.88,2.01-1.32,2.12-1.32Z"/></g></svg>