<?xml version="1.0" encoding="UTF-8"?><svg id="Layer_2" xmlns="http://www.w3.org/2000/svg" viewBox="0 0 377.13 371.97"><defs><style>.cls-1{letter-spacing:-.02em;}.cls-2{font-family:Montserrat-SemiBold, Montserrat;font-size:57.05px;font-weight:600;}.cls-2,.cls-3{fill:#fff;}.cls-4{letter-spacing:-.02em;}.cls-5{letter-spacing:-.02em;}.cls-6{letter-spacing:0em;}.cls-7{letter-spacing:-.06em;}.cls-8{letter-spacing:-.01em;}.cls-9{letter-spacing:0em;}.cls-3{font-family:Montserrat-ExtraBold, Montserrat;font-size:89.45px;font-weight:700;}.cls-10{fill:#e90055;stroke-width:0px;}.cls-11{letter-spacing:0em;}.cls-12{letter-spacing:.04em;}.cls-13{letter-spacing:.01em;}.cls-14{letter-spacing:-.03em;}.cls-15{letter-spacing:0em;}.cls-16{letter-spacing:-.02em;}.cls-17{letter-spacing:0em;}.cls-18{letter-spacing:-.02em;}.cls-19{letter-spacing:0em;}.cls-20{letter-spacing:0em;}.cls-21{letter-spacing:-.02em;}.cls-22{letter-spacing:-.03em;}.cls-23{letter-spacing:0em;}.cls-24{letter-spacing:0em;}.cls-25{letter-spacing:-.01em;}</style></defs><g id="Type_treatment"><path class="cls-10" d="M236.81,32.45c.21,1.96-.03,4.06-.25,6.08-.07,1.45-1.1,6.09.68,6.07,1.1-.52,1.56-2.36,1.87-3.57,1.09-5.27,2.53-13.59-3.02-16.73-5.39-3.11-11.4.43-16.46,2.64-1.59.79-3.37,1.77-4.31,1.5-2.65-.81,1.96-9.96,2.72-11.79,1.68-3.98,4.69-7.66,5.17-12.01-.78-14.15-22.83,8.22-26.53,11.88-1.37,1.33-2.8,2.59-4.24,3.84-3.98,3.35-7.22,7.42-10.43,11.52-.98,1.28-2,2.61-2.65,4.08-.87,1.86-.59,3.76,1.49,2.44,3.28-2.7,5.97-6.27,9-9.25,2.07-2.13,4.09-4.18,6.13-6.27,5.2-5.05,10.67-9.9,16.46-14.26,2.21-1.73,7.14-5.46,4.38.37-3.1,6.67-7.81,13.23-7.47,20.87.39,4.77,4.25,4.56,7.6,2.61,3.46-1.85,6.96-3.74,10.71-4.77,4.13-1.27,8.72-.43,9.12,4.62v.12Z"/><path class="cls-10" d="M238.11,55.3c-.92.56-1.91.81-3.02.77-.79-.11-1.41-.89-1.91-2.46-.39-1.28-.76-2.61-1.11-3.9-.48-1.74-.98-3.54-1.54-5.28-.22-.92-.69-1.81-1.14-2.67-.59-1.12-1.14-2.18-1.14-3.3.08-.45.28-.77.58-.96.36-.22.91-.25,1.51-.09.87.24,1.66.83,2.02,1.52.83,1.26,1.24,2.69,1.67,4.21.17.6.34,1.19.53,1.78.53,1.79,1.2,2.72,2.05,2.82h.07c.29.04.58-.04.87-.21.53-.32,1.04-.98,1.67-2.13.92-1.69,1.78-3.19,2.95-4.4.39-.45.8-.8,1.25-1.07,1.02-.62,2.11-.73,2.83-.28.69.43,1.01,1.34.91,2.57-.23.99-.94,1.76-1.69,2.57-.62.67-1.25,1.36-1.68,2.23-.27.51-.55,1.07-.84,1.65-1.25,2.5-2.67,5.32-4.84,6.64Z"/><text class="cls-3" transform="translate(1.25 134.16)"><tspan class="cls-23" x="0" y="0">I</tspan><tspan class="cls-8" x="29.59" y="0">D</tspan><tspan class="cls-15" x="102.47" y="0">E</tspan><tspan class="cls-24" x="163.1" y="0">A</tspan><tspan x="233.84" y="0">S</tspan></text><text class="cls-2" transform="translate(.51 50.42)"><tspan class="cls-7" x="0" y="0">Y</tspan><tspan class="cls-4" x="34.33" y="0">O</tspan><tspan class="cls-1" x="81.17" y="0">U</tspan><tspan x="124.88" y="0">R</tspan></text><text class="cls-2" transform="translate(0 196.34)"><tspan class="cls-17" x="0" y="0">C</tspan><tspan class="cls-16" x="41.35" y="0">A</tspan><tspan class="cls-6" x="83.21" y="0">N </tspan><tspan class="cls-25" x="145.17" y="0">S</tspan><tspan class="cls-18" x="180.22" y="0">HA</tspan><tspan class="cls-22" x="267.43" y="0">P</tspan><tspan class="cls-6" x="306.93" y="0">E</tspan></text><text class="cls-2" transform="translate(0 258.13)"><tspan class="cls-4" x="0" y="0">O</tspan><tspan class="cls-1" x="46.84" y="0">U</tspan><tspan class="cls-6" x="90.55" y="0" xml:space="preserve">R    </tspan><tspan class="cls-14" x="195.24" y="0">C</tspan><tspan class="cls-5" x="235.25" y="0">I</tspan><tspan class="cls-12" x="252.27" y="0">T</tspan><tspan class="cls-13" x="288.66" y="0">Y</tspan><tspan class="cls-11" x="327.23" y="0">’</tspan><tspan x="341.24" y="0">S</tspan></text><path class="cls-10" d="M158.13,239.88c-.31-.35-.77-.3-1.16-.35-1.65-.21-3.3-.35-4.95-.54-1.18-.14-2.35-.31-3.52-.49-.29-.04-.58-.13-.85-.27-.43-.21-.72-.86-.64-1.35.05-.29.09-.59.19-.87.17-.48.49-.77,1.05-.8.89-.05,1.78.02,2.66.16.35.05.69.18,1.04.19,2.08.11,4.16.17,6.23.29,1.24.07,2.48.25,3.72.35.53.04.73-.22.67-.78-.31-2.7-.86-5.37-1.47-8.01-.61-2.65-1.46-5.25-2.83-7.64-.45-.79-.34-1.07.48-1.54,1.02-.59,1.39-.58,2.24.14.45.38.82.83,1.13,1.35.87,1.49,1.63,3.05,2.25,4.64.58,1.47,1.23,2.95,1.42,4.56.02.16.06.39.3.35.16-.02.35-.1.45-.22.38-.47.58-1.02.81-1.58.7-1.76,1.41-3.52,2.33-5.19.34-.62.56-1.31.83-1.97.31-.77.65-1.53,1.19-2.18.37-.45.82-.63,1.42-.53.89.15,1.29.58,1.07,1.46-.43,1.72-.78,3.48-1.55,5.1-.33.69-.64,1.41-.86,2.14-.46,1.54-1.12,2.99-1.81,4.43-.33.69-.55,1.42-.82,2.13.22.24.45.18.65.05,1.82-1.11,3.73-2.07,5.68-2.93.7-.31,1.3-.82,1.99-1.16,1.23-.6,2.47-1.15,3.73-1.68.6-.25,1.26-.32,1.93-.23.76.11,1.16.71.84,1.41-.42.93-1.03,1.73-1.9,2.3-2.27,1.5-4.63,2.86-7.01,4.18-.93.51-1.81,1.12-2.7,1.69-.16.1-.23.27-.11.45.06.09.16.19.26.23.16.06.34.07.52.1,2.29.31,4.59.6,6.88.92,1.24.17,2.46.41,3.69.62,1.01.17,1.93.58,2.79,1.13.34.22.46.53.34.92-.17.58-.52.91-.97.87-2.13-.17-4.25-.38-6.38-.53-1.3-.09-2.61-.12-3.91-.14-.95-.02-1.89-.09-2.84-.23-1.11-.16-2.24-.2-3.37-.28-.64-.05-1.01.3-.99.95.01.41.04.85.17,1.23.42,1.2.45,2.45.53,3.69.08,1.13.26,2.23.49,3.34.23,1.1.34,2.22.48,3.33.05.38-.04.78-.48.82-.55.05-.92.48-1.37.68-.68-.8-1.31-1.5-1.89-2.25-.29-.37-.57-.8-.68-1.24-.45-1.78-1.33-3.44-1.38-5.32,0-.19-.11-.38-.31-.34-.14.03-.31.19-.36.33-.67,2.07-1.43,4.13-1.95,6.24-.46,1.88-1.03,3.76-.89,5.76.07.94-.02.95-1.04,1.25-.22.06-.43.15-.67.24-.21-.28-.35-.56-.57-.74-1.19-.93-1.28-2.21-1.11-3.55.2-1.59.42-3.17.91-4.71.45-1.41.81-2.84,1.21-4.27.07-.26-.16-.44-.43-.38-.48.1-.87.34-1.21.7-1.2,1.25-2.71,2.1-4.05,3.17-.09.07-.21.11-.31.18-1.31,1.02-2.64,2.02-3.91,3.08-.89.75-1.78,1.49-2.4,2.55-.64,1.1-2.17,1.06-3.04.1-.22-.24-.3-.49-.29-.8.05-1.42.51-2.69,1.53-3.7,1.85-1.84,3.64-3.74,5.83-5.21.64-.43,1.09-1.07,1.73-1.53,1.64-1.16,3.23-2.4,4.82-3.63.22-.17.46-.37.46-.71Z"/><text class="cls-3" transform="translate(0 341.27)"><tspan class="cls-19" x="0" y="0">F</tspan><tspan class="cls-21" x="56.55" y="0">UT</tspan><tspan class="cls-9" x="180.68" y="0">U</tspan><tspan class="cls-20" x="250.37" y="0">R</tspan><tspan x="315.79" y="0">E</tspan></text><path class="cls-10" d="M265.48,368.26c.67-.76.7-1.12.09-1.24-3.5-.66-6.93-1.64-10.47-2.17-3.01-.44-5.97-1.14-8.96-1.72-.4-.08-.81-.24-1.2-.2-2.39.21-4.65-.53-6.96-.89-3.01-.48-6.07-.66-9.06-1.12-4.03-.62-8.08-.99-12.12-1.49-6.26-.78-12.55-1.43-18.83-2-4.45-.41-8.93-.47-13.37-.96-3.05-.33-6.1-.42-9.14-.53-2.74-.1-5.49-.29-8.23-.38-5.39-.17-10.77-.45-16.16-.53-4.47-.07-8.95.11-13.42.13-2.24,0-4.48-.19-6.72-.15-5.28.09-10.57.28-15.85.42-1.82.05-3.65.12-5.47.13-2.34.01-4.68.09-7-.06-4.3-.28-8.5.64-12.75.85-3.45.17-6.91.36-10.36.54-3.25.17-6.51.22-9.75.55-2.24.23-4.47.21-6.7.34-3.85.23-7.71.52-11.56.73-7.2.39-14.39.72-21.59,1.1-1.11.06-2.22.26-3.33.37-.5.05-1.04.19-1.51.09-2.24-.5-4.49-.15-6.71-.04-2.25.11-4.46-.3-6.71-.17-1.42.08-2.92-.63-4.31-1.15-1.19-.45-1.53-1.17-1.32-2.43.13-.79.41-1.57.69-2.33.22-.6.65-.96,1.36-1.06,1.91-.28,3.8-.67,5.71-.97,7.03-1.1,14.07-2.19,21.11-3.27,1-.15,2.02-.17,3.02-.3,4.33-.56,8.66-1.13,13-1.7,4.74-.62,9.46-1.31,14.23-1.74,6.39-.58,12.75-1.43,19.13-2.1,3.54-.37,7.08-.72,10.62-1.02,3.34-.29,6.68-.63,10.02-.9,4.36-.35,8.73-.65,13.1-.95,4.06-.28,8.12-.58,12.18-.8,5.39-.29,10.79-.53,16.18-.73,5.39-.2,10.79-.37,16.19-.47,6.01-.12,12.03-.08,18.04-.26,5.2-.15,10.38.21,15.59.03,2.72-.09,5.49-.16,8.24.26,1.3.2,2.65.07,3.97.09,8.46.13,16.9.65,25.35,1.05,3.35.16,6.7.42,10.05.59,5.18.27,10.35.84,15.51,1.39,4.76.51,9.48,1.44,14.3,1.46,1.72,0,3.45.38,5.16.64,7.47,1.11,14.98,2.04,22.39,3.44,5.1.96,10.22,1.79,15.29,3.01,4.05.97,8.17,1.76,12.25,2.67,2.49.55,4.97,1.12,7.44,1.73,5.24,1.3,10.47,2.68,15.72,3.93,2.08.5,4.2.82,6.37.81,1.02,0,2.03.14,3.05.22.49.04.8.38.77.78-.03.36-.29.89-.57.99-.75.28-1.57.5-2.37.5-2.14,0-4.3.02-6.42-.24-5.57-.7-11.12-1.49-16.6-2.77-5.06-1.18-10.19-2.11-15.26-3.24-4.48-1.01-9.04-1.53-13.48-2.75-2.64-.72-5.42-1.01-8.14-1.4-7.27-1.05-14.53-2.26-21.84-3.01-7.3-.75-14.56-1.83-21.9-2.26-4.88-.28-9.74-.8-14.61-1.17-2.44-.18-4.88-.25-7.32-.37-3.05-.15-6.1-.31-9.16-.44-2.75-.11-5.49-.21-8.24-.27-2.03-.04-4.06.05-6.09-.01-5.09-.16-10.17-.42-15.26-.57-2.54-.07-5.11-.17-7.62.08-2.25.23-4.47-.04-6.71.04-6.5.21-13.01.19-19.52.31-4.16.07-8.33.2-12.49.35-3.15.11-6.3.29-9.45.4-2.22.08-4.45.1-6.67.14-.51.01-1.03-.03-1.53.06-5.64.96-11.37.94-17.05,1.28-5.99.36-11.95,1.04-17.93,1.45-5.38.37-10.74.94-16.11,1.5-5.06.53-10.12,1.14-15.17,1.73-.48.06-1.03-.02-1.44.44.24.83,1,.55,1.46.53,2.84-.11,5.68-.34,8.53-.5,4.07-.22,8.13-.42,12.2-.62,1.32-.06,2.68.07,3.96-.18,2.83-.55,5.68-.32,8.52-.42,3.65-.14,7.29-.41,10.94-.59.61-.03,1.23-.17,1.81-.06,2.04.37,4.08.1,6.11.01,1.53-.07,3.05-.19,4.57-.08,3.67.26,7.32-.37,10.99-.26,2.24.06,4.47.03,6.71.03,3.96,0,7.92-.06,11.89.02,2.74.05,5.48.39,8.22.4,1.93.01,3.86.07,5.79.17,5.28.27,10.56.38,15.83.97,4.45.49,8.93.61,13.39.99,3.55.31,7.07.94,10.62,1.12,3.89.19,7.71.78,11.55,1.26,9.72,1.22,19.41,2.67,29.06,4.34,4.11.71,8.15,1.79,12.22,2.71,2.98.67,5.96,1.35,8.94,2.05,4.67,1.1,9.2,2.66,13.73,4.2.39.13.75.31,1.14.46.59.22,1.16.49,1.22,1.2.06.77-.85,1.96-1.62,1.99-.91.04-1.83-.06-2.74-.19-2.83-.4-5.64-.91-8.52-.88-2.27.02-4.46.36-6.58,1.18-1.52.59-3.08,1.07-4.62,1.58-.15.05-.45-.02-.53-.14-.2-.29-.02-.52.24-.71,1.33-.98,2.8-1.66,4.4-2.07.59-.15,1.18-.34,1.76-.51-.05.04-.09.09-.13.14.18-.37-.21.05.19-.05.4-.14.8-.28,1.19-.41,0,0-.14.15-.14.15l.09-.09Z"/></g></svg>