<?xml version="1.0" encoding="UTF-8"?><svg id="Layer_2" xmlns="http://www.w3.org/2000/svg" viewBox="0 0 124.12 114.34"><defs><style>.cls-1{fill:#fff;stroke-width:0px;}</style></defs><g id="Icons"><path class="cls-1" d="M38.97,87.61c.15-.18.28-.33.4-.48,1.96-2.49,4.19-4.7,6.73-6.59,3.22-2.39,6.84-3.77,10.81-4.23,1.82-.21,3.64-.12,5.43.29,1.92.44,3.78,1.02,5.55,1.88,1.51.74,3.05,1.45,4.49,2.31,2.94,1.76,5.43,4.04,7.44,6.82.32.44.64.88.97,1.32.02.03.05.04.12.09.08-.09.18-.17.25-.28,2.06-2.73,4.59-4.82,7.9-5.86,1.28-.4,2.56-.83,3.9-1.03,1.85-.27,3.71-.24,5.54.13,4.34.87,8.28,2.64,11.8,5.36,1.47,1.13,2.68,2.51,3.85,3.94,1.83,2.24,3.63,4.51,5.28,6.89,1.19,1.71,2.22,3.51,3.02,5.44.47,1.14.83,2.31,1.09,3.51.15.7.31,1.4.47,2.09.44,1.86-.66,3.5-2.56,3.73-.7.08-1.43,0-2.14-.01-.97,0-1.94-.05-2.91,0-3.71.18-7.41.38-11.12.61-2.62.16-5.23.37-7.84.57-2.28.18-4.56.22-6.84.22-1.68,0-3.37.04-5.05.04-1,0-2.01-.03-3.01-.07-1.9-.09-3.81-.18-5.71-.29-4.16-.25-8.32-.55-12.49-.77-1.53-.08-3.06-.05-4.59-.03-2.37.04-4.73.11-7.1.18-.82.02-1.63.05-2.45.08-1.8.06-3.61.13-5.41.2-.46.02-.92.02-1.38.06-2.67.22-5.34.17-8.01,0-6.39-.42-12.79-.57-19.19-.09-3.9.29-7.79.21-11.68-.14-.84-.08-1.65-.24-2.41-.61-1.66-.78-2.44-2.39-2.03-4.18.05-.22.11-.43.18-.64,2.43-6.78,6.17-12.72,11.39-17.7,1.67-1.59,3.47-3.02,5.45-4.2,3.71-2.22,7.72-3.37,12.05-3.32,1.95.02,3.82.41,5.59,1.25,1.6.76,2.94,1.83,3.96,3.29.06.08.13.15.23.27ZM84.34,108.09c-.08-.22-.12-.37-.18-.5-.24-.6-.51-1.19-.74-1.8-.63-1.64-1.36-3.24-2.24-4.75-1.19-2.05-2.4-4.08-3.63-6.1-.77-1.27-1.69-2.43-2.73-3.5-.62-.64-1.22-1.29-1.82-1.93-1.6-1.7-3.22-3.37-5-4.89-.5-.43-1.03-.84-1.6-1.18-2.25-1.39-4.71-2.1-7.36-2.18-2.39-.08-4.68.31-6.81,1.45-2.66,1.42-4.96,3.28-6.89,5.6-1.68,2.03-3.08,4.24-4.41,6.5-2.19,3.71-4.08,7.59-5.92,11.48-.19.4-.3.83-.43,1.25-.04.12-.02.26-.03.4.14.03.24.06.34.06,2.25.16,4.49.11,6.73-.04,3.29-.21,6.59-.39,9.89-.57,1.99-.11,3.98-.14,5.97-.31,3.03-.26,6.05-.27,9.08-.09,1.21.07,2.41.15,3.62.19,4.51.13,9.01.43,13.5.89.18.02.37,0,.64,0ZM82.82,91.6c.13.19.2.32.29.44,1.12,1.52,2.13,3.12,3.02,4.79,1.2,2.24,2.38,4.48,3.55,6.73.31.59.56,1.21.82,1.81.29.67.59,1.34.85,2.02.13.33.33.43.66.42.73-.03,1.46-.02,2.2-.03,2.18-.03,4.36-.1,6.51-.45.57-.09,1.15-.12,1.73-.16,2.13-.14,4.25,0,6.38.07,1.91.06,3.81.12,5.72-.03.18-.01.35-.05.62-.09-.14-.22-.22-.35-.31-.49-.5-.71-1.02-1.4-1.5-2.13-1.45-2.16-2.87-4.34-4.33-6.51-1.39-2.07-3.02-3.94-4.85-5.64-2.25-2.09-4.82-3.58-7.78-4.43-1.35-.38-2.71-.48-4.09-.28-.62.09-1.24.21-1.87.29-1.53.2-2.92.77-4.22,1.59-.66.42-1.34.81-2.01,1.21-.45.27-.9.54-1.4.84ZM37.02,90.34c-.11-.06-.16-.1-.22-.13-1.04-.38-2.07-.78-3.12-1.12-3.42-1.11-6.76-.93-10.04.6-2.72,1.27-5.2,2.9-7.41,4.92-3.94,3.6-6.77,7.96-8.85,12.85-.04.1-.05.22-.1.41.23,0,.41,0,.59,0,.85,0,1.7.01,2.55.02,1.75.02,3.5.09,5.26.06,2.36-.03,4.73-.15,7.09-.21,1.72-.04,3.44-.06,5.15-.07.59,0,.6.02.82-.53,1.04-2.54,2.16-5.03,3.6-7.38.43-.69.77-1.44,1.07-2.19.96-2.39,2.03-4.72,3.42-6.9.06-.1.11-.21.19-.35Z"/><path class="cls-1" d="M113.38,17.65c-.04.82-.04,1.64-.13,2.45-.08.74-.2,1.49-.42,2.2-.72,2.39-1.99,4.47-3.71,6.27-1.02,1.06-2.29,1.77-3.59,2.4-1.74.84-3.53,1.51-5.44,1.89-.68.14-1.36.33-2,.6-1.57.66-3.21,1.04-4.9,1.15-1.46.1-2.92.14-4.39.13-.9,0-1.8-.16-2.7-.23-1.07-.08-2.14-.17-3.21-.18-2.73-.01-5.45-.12-8.16-.32-1.36-.1-2.72-.11-4.08-.16-1.04-.05-2.07-.11-3.11-.16-.97-.05-1.94-.12-2.91-.12-3.46-.03-6.91-.24-10.34-.68-1.49-.19-2.98-.33-4.47-.51-.42-.05-.81,0-1.2.12-.53.17-1.08.33-1.62.45-.73.16-1.37.48-1.98.91-3.88,2.74-6.18,6.49-7.18,11.09-.31,1.41-.55,2.84-.83,4.26-.06.28-.13.57-.24.83-.12.3-.34.37-.62.18-.93-.62-1.88-1.22-2.77-1.9-.47-.36-.86-.82-1.22-1.29-1.24-1.65-2.26-3.43-3.15-5.3-1.28-2.71-2.58-5.41-3.71-8.19-.1-.23-.22-.47-.36-.67-.41-.57-.93-.93-1.67-1.04-1.02-.14-2.05-.34-3.04-.64-2.9-.88-5.1-2.68-6.58-5.33-1.23-2.19-1.9-4.54-1.88-7.08.02-1.86.18-3.71.59-5.53.29-1.29.78-2.5,1.42-3.65,1.81-3.24,4.4-5.63,7.74-7.24C24.32,1.03,27.27.35,30.35.23c4.44-.18,8.88-.28,13.33-.07,1.62.08,3.23.08,4.85.13,2.48.08,4.97.13,7.45.27,2.88.16,5.75.03,8.62-.15,1.46-.09,2.92-.19,4.39-.23,2.88-.08,5.75-.19,8.63-.18,3.54.01,7.08.11,10.62.23,1.24.04,2.48.19,3.7.39,1.44.24,2.87.34,4.32.32,2.07-.03,4.11.2,6.15.5.69.1,1.37.26,2.04.46,2.66.78,4.63,2.46,6.1,4.77,1.4,2.21,2.14,4.66,2.56,7.22.21,1.25.28,2.5.26,3.77ZM34.29,42.92c.03-.19.05-.27.05-.34.08-1.07.31-2.12.65-3.14,1.03-3.13,2.8-5.82,4.99-8.24,1.08-1.2,2.44-2.07,3.73-3.01.08-.06.17-.11.27-.15,1.4-.55,2.81-1.05,4.32-1.16.81-.06,1.63-.12,2.45-.13,1.79-.02,3.58-.06,5.36,0,2.93.09,5.85.25,8.77.39.56.03,1.12.08,1.68.13,1.31.12,2.61.28,3.92.35,1.43.07,2.86.06,4.29.08,2.71.04,5.41.11,8.11.37,1.87.18,3.73.29,5.61.13.81-.07,1.63-.15,2.44-.2,3-.18,5.9-.78,8.71-1.84,1.44-.54,2.86-1.09,4.12-2,1.73-1.25,2.87-2.88,3.33-4.97.42-1.93.37-3.86-.02-5.78-.26-1.24-.8-2.35-1.67-3.28-.29-.31-.58-.63-.84-.96-.77-.99-1.77-1.57-3-1.77-.18-.03-.37-.08-.55-.11-1.51-.27-3.03-.47-4.56-.5-1.67-.03-3.33-.12-4.98-.42-1.93-.35-3.88-.5-5.84-.52-2.11-.02-4.22-.11-6.33-.16-1.57-.04-3.13-.12-4.7-.07-3.95.11-7.9.22-11.84.43-3.53.18-7.04.13-10.56-.1-1.31-.09-2.62-.08-3.93-.09-1.62,0-3.23.02-4.85.02-4.82,0-9.64-.04-14.45-.01-2.68.02-5.17.79-7.43,2.25-2.71,1.75-4.24,4.23-4.61,7.46-.29,2.54.08,4.92,1.44,7.12.94,1.52,2.13,2.74,3.84,3.38.33.12.69.15,1.04.2.37.05.76.02,1.11.11,2.32.6,4.16,1.88,5.21,4.08.77,1.61,1.51,3.24,1.98,4.98.67,2.42,1.47,4.79,2.54,7.06.05.11.12.23.23.45Z"/><path class="cls-1" d="M60.23,37.1c3.23.03,6.87,1.05,10.21,3.13,6.04,3.77,9.25,10.61,8.31,17.71-.28,2.12-.88,4.16-1.76,6.11-1.61,3.55-4.16,6.24-7.49,8.19-2.15,1.26-4.43,2.18-6.92,2.51-2.09.28-4.15.03-6.19-.38-3.19-.65-6.08-1.97-8.6-4.04-3.23-2.65-5.24-6.05-6.18-10.09-.63-2.7-.57-5.41.08-8.1.93-3.87,2.78-7.22,5.62-10.02,3.39-3.35,7.47-5.02,12.93-5.01ZM45.41,55.46c.07,4.73,1.69,8.37,5.1,11.11,2.11,1.69,4.53,2.63,7.25,2.63,1.97,0,3.83-.55,5.66-1.21,1.08-.39,2.08-.94,2.99-1.63,1.88-1.43,3.3-3.23,4.39-5.3.5-.95.86-1.97,1.04-3.03.74-4.55-.37-8.6-3.5-12-2.66-2.88-6.02-4.06-9.92-3.62-2.3.26-4.45.99-6.44,2.16-4.29,2.52-6.43,6.32-6.58,10.9Z"/><path class="cls-1" d="M110.67,67.31c-.03,2.79-.74,5.39-2.39,7.7-2.51,3.52-7.04,5.27-10.75,4.73-.32-.05-.65-.05-.97,0-1.56.24-3.06,0-4.52-.53-3.2-1.18-5.71-3.21-7.41-6.19-.97-1.7-1.73-3.48-2.14-5.39-.62-2.93-.2-5.74,1.19-8.38,2.32-4.39,5.97-6.96,10.93-7.49,2.55-.28,4.98.3,7.25,1.5,4.13,2.19,6.9,5.52,8.27,9.99.4,1.31.52,2.67.53,4.07ZM95.1,57.45c-.72.11-1.46.14-2.16.33-2.42.64-3.96,2.26-4.75,4.58-.66,1.96-.73,3.98-.33,6,.1.53.28,1.06.53,1.54,1.17,2.27,2.84,4.07,5.19,5.16,1,.46,2.07.77,3.12,1.13.2.07.45.07.65.01,1.79-.51,3.39-1.34,4.58-2.82,2.28-2.83,2.98-5.96,1.87-9.48-1.21-3.83-4.65-6.39-8.68-6.45Z"/><path class="cls-1" d="M25.69,81.19c-.93.03-2.38-.3-3.85-.49-.65-.08-1.27-.24-1.81-.64-.12-.09-.27-.15-.41-.21-2.13-.9-3.99-2.21-5.63-3.82-2.26-2.22-3.45-4.97-3.86-8.09-.63-4.86,1.59-10.24,5.91-13.23,2.6-1.8,5.42-2.91,8.57-3.13,4.31-.31,8.04,1.11,11.09,4.11,3.88,3.81,5.07,8.47,3.82,13.74-.72,3.04-2.22,5.71-4.38,7.97-2.41,2.51-5.38,3.81-9.46,3.79ZM34.55,65.96c-.07-.64-.11-1.29-.23-1.92-1.11-6.05-7.29-9.72-13.09-7.81-2.39.79-4.16,2.35-5.54,4.38-2.38,3.5-3.05,8.63.48,13.01,1.03,1.27,2.31,2.14,3.87,2.61.44.13.88.23,1.35.19.25-.02.51.01.76.07.76.18,1.51.13,2.28-.02,1.03-.21,1.96-.67,2.91-1.09,1.55-.69,2.97-1.6,4.24-2.71,2.04-1.76,2.88-4.07,2.96-6.72Z"/></g></svg>