<?xml version="1.0" encoding="UTF-8"?><svg id="Layer_2" xmlns="http://www.w3.org/2000/svg" viewBox="0 0 120.51 104.77"><defs><style>.cls-1{fill:#fff;stroke-width:0px;}</style></defs><g id="Icons"><path class="cls-1" d="M57.99,80.07c-.18-.2-.27-.32-.37-.42-1.7-1.59-3.17-3.37-4.49-5.28-2-2.91-3.9-5.87-5.79-8.85-.44-.69-.83-1.41-1.07-2.2-.15-.49-.22-1-.16-1.51.12-1.07.86-1.6,1.9-1.35.4.1.78.23,1.16.39,1.86.77,3.53,1.82,5,3.22,2.72,2.6,5.38,5.27,7.9,8.06,1.07,1.19,2.28,2.25,3.51,3.27.38.32.45.31.8-.05,2.17-2.19,4.35-4.37,6.3-6.76.19-.24.4-.46.62-.68,3.13-3.13,6.27-6.25,9.68-9.08,2-1.66,3.93-3.42,5.92-5.1,1.87-1.58,3.69-3.22,5.44-4.95.74-.73,1.53-1.41,2.29-2.11.82-.77,1.64-1.53,2.44-2.32,1.48-1.45,2.96-2.91,4.42-4.39.88-.88,1.76-1.76,2.57-2.69,1.19-1.37,2.46-2.64,3.78-3.87.78-.73,1.49-1.54,2.21-2.33.35-.38.33-.45.04-.89-1.03-1.55-2.19-3-3.43-4.38-2.07-2.29-4.12-4.59-5.96-7.07-1.1-1.48-2.14-2.99-3.18-4.51-.91-1.33-1.44-2.81-1.66-4.41-.04-.3-.07-.61-.05-.92.07-1.35,1.12-2.19,2.44-1.93.41.08.81.26,1.18.45.89.47,1.67,1.1,2.42,1.78,2.03,1.83,3.89,3.81,5.67,5.87,1.71,1.99,3.45,3.95,5.2,5.9,1.7,1.9,3.2,3.94,4.5,6.12.51.86.86,1.77,1.09,2.74.39,1.64.17,3.18-.67,4.63-.97,1.67-2.08,3.24-3.42,4.64-.89.93-1.84,1.83-2.66,2.82-1.67,2.03-3.46,3.94-5.34,5.77-.49.48-.96.97-1.42,1.47-1.54,1.71-3.18,3.31-4.88,4.86-1.32,1.2-2.57,2.49-3.86,3.73-.34.33-.7.65-1.06.96-3.05,2.67-6.12,5.31-9.13,8.02-1.47,1.32-2.83,2.76-4.24,4.14-.3.3-.59.61-.9.91-1.68,1.62-3.26,3.33-4.74,5.14-.69.84-1.42,1.66-2.22,2.39-1.41,1.3-2.56,2.81-3.79,4.26-.47.56-.88,1.17-1.36,1.72-.51.59-1.06,1.16-1.61,1.71-.19.19-.44.32-.67.46-.48.28-.99.36-1.56.38-1.93.07-3.85-.08-5.77-.16-5.6-.24-11.2-.23-16.79.23-1.03.09-2.07.11-3.11.18-.64.05-1.29.09-1.93.22-1.26.26-2.74-.45-3.17-2.01-.06-.23-.11-.47-.13-.7-.23-1.95-.31-3.9-.07-5.86.15-1.28.1-2.55-.08-3.82-.12-.83-.22-1.65-.34-2.48-.28-1.89-.42-3.79-.41-5.7,0-.85,0-1.7,0-2.55,0-.18-.02-.36-.03-.54-.09-.03-.14-.05-.18-.05-1.65.09-3.26-.22-4.87-.49-.77-.13-1.55-.25-2.33-.33-2.22-.21-4.44-.38-6.68-.29-.71.03-1.43-.05-2.14-.13-.4-.05-.8-.17-1.17-.33-1.34-.58-2.18-2.18-1.92-3.62.11-.6.44-1.06.91-1.43.48-.37,1.02-.61,1.61-.76,1.09-.28,2.2-.47,3.33-.51,2.47-.09,4.94-.04,7.39.35.72.11,1.44.26,2.15.42.83.18,2.86.43,3.65.4.02-.24.05-.48.06-.73.03-.73.02-1.46.09-2.19.14-1.4.74-2.6,1.72-3.62,1.02-1.06,2.1-2.04,3.3-2.89,1.2-.84,2.29-1.82,3.33-2.85.84-.84,1.74-1.63,2.6-2.45,1.05-1.01,2.1-2.04,3.14-3.07.95-.95,1.89-1.91,2.84-2.87.09-.09.18-.2.32-.35-.16-.04-.27-.09-.37-.08-.53.04-1.06.06-1.58.15-2.57.47-5.17.58-7.77.77-3.97.28-7.93.18-11.89-.05-1.7-.1-3.4-.14-5.1-.22-1.28-.06-2.55-.14-3.82-.23-.56-.04-1.12-.11-1.67-.21-.83-.16-1.59-.5-2.26-1.03-.4-.32-.74-.7-.98-1.16-.52-1.01-.37-2.1.42-2.92.41-.43.91-.72,1.44-.94.9-.38,1.84-.62,2.8-.77.69-.1,1.38-.2,2.08-.23,2.65-.13,5.31-.23,7.96,0,1.8.16,3.61.14,5.41.06,3.66-.17,7.31-.38,10.97-.52,3.11-.12,6.23-.17,9.34-.24.92-.02,1.84-.02,2.76-.03.38,0,.69-.13.96-.41.53-.56,1.08-1.09,1.6-1.65,1.18-1.28,2.45-2.45,3.76-3.6,1.12-.99,2.21-2.03,3.3-3.05,1.11-1.03,2.21-2.08,3.31-3.12.14-.13.28-.28.41-.42-.01-.04-.03-.08-.04-.12-.17-.02-.35-.04-.52-.05-1.77-.09-3.54.11-5.3.2-4.66.25-9.32.48-13.99.3-2.82-.11-5.66-.06-8.48-.23-4.53-.27-9.05-.22-13.58-.31-2.06-.04-4.12.03-6.18.13-3.46.17-6.91.01-10.37-.07-2.01-.05-4.02.01-6.02.04-.42,0-.46.08-.45.5.14,6-.06,11.99-.4,17.97-.2,3.61-.23,7.22-.22,10.83,0,3.85,0,7.7-.01,11.54,0,5.6.1,11.2.32,16.8.08,2.23.13,4.46.14,6.69.02,3.51,0,7.02-.01,10.52,0,1.55-.11,3.1-.32,4.63-.03.24-.06.47-.08.71-.05.49-.01.54.48.52,1.53-.06,3.06-.13,4.59-.18,1.02-.03,2.04-.08,3.06-.03,2.99.16,5.98.34,8.97.57,2.33.18,4.66.16,6.99,0,4.38-.32,8.75-.8,13.11-1.32,2.4-.28,4.81-.5,7.22-.7,2.26-.19,4.53-.13,6.79.06,1.36.11,2.72.14,4.08.1,1.53-.04,3.06-.03,4.6-.02,3.39.02,6.78.04,10.16.08,1.79.02,3.57.07,5.36.11.1,0,.2.01.31,0,.38,0,.43-.06.44-.45,0-.14,0-.27-.01-.41-.02-.92-.05-1.84-.07-2.76-.05-2.12.17-4.22.63-6.29.15-.69.21-1.37.23-2.08.05-1.79.09-3.58.23-5.36.09-1.12.36-2.22.55-3.32.13-.72.27-1.44.4-2.16.05-.27.06-.54.07-.81.02-.49.13-.95.43-1.34.36-.47.83-.7,1.43-.61.58.09.93.44,1.15.97.29.69.33,1.42.45,2.14.1.55.2,1.1.3,1.65.05.29.1.57.12.86.24,2.71.47,5.43.72,8.14.05.56.16,1.11.26,1.66.28,1.41.36,2.83.34,4.27-.03,1.72,0,3.44.03,5.16.01,1.04.06,2.08.06,3.12,0,.47-.03.96-.1,1.42-.27,1.69-1.22,2.89-2.78,3.6-.67.31-1.38.48-2.11.56-2.13.25-4.26.47-6.42.34-.85-.05-1.7-.03-2.55-.04-1.62-.03-3.23-.06-4.85-.09-3.03-.05-6.06,0-9.09.24-1.72.13-3.44.12-5.15.02-.82-.05-1.63-.08-2.45-.08-2.9,0-5.79-.1-8.68-.3-1.15-.08-2.32-.09-3.47-.06-3.87.13-7.73-.02-11.59-.29-2.58-.18-5.16-.4-7.75-.51-2.26-.1-4.53-.07-6.79-.09-.09,0-.17.01-.26,0-2.2-.08-4.34.29-6.46.81-1.86.46-3.76.63-5.68.55-.44-.02-.89-.05-1.32-.14-1.82-.35-3.01-1.59-3.2-3.43-.12-1.08-.14-2.17-.14-3.26,0-.87.11-1.73.15-2.6.06-1.21.13-2.42.13-3.62,0-7.03-.28-14.06-.47-21.09C-.02,65.65,0,60.69,0,55.74c0-4.48.07-8.96.04-13.44-.03-4.53.2-9.06.45-13.58.09-1.63.14-3.27.22-4.9.12-2.3.27-4.59.38-6.88.04-.88,0-1.77,0-2.66,0-.46-.02-.92.04-1.38.18-1.38.92-2.39,2.15-3.04.66-.35,1.37-.52,2.11-.57,3.52-.24,7.03-.55,10.55-.58,4.12-.04,8.24-.18,12.36-.26,1.12-.02,2.25-.02,3.37,0,1.72.02,3.44.1,5.16.09,3.61-.02,7.21.33,10.81.5,4.18.2,8.37.39,12.56.06,2.89-.22,5.77-.48,8.66-.68,1.1-.08,2.22-.09,3.31-.01,1.83.14,3.66.36,5.49.58,1,.12,1.98.35,2.92.73.34.14.61.09.88-.15.97-.86,1.95-1.71,2.94-2.54,2.27-1.91,4.54-3.8,6.83-5.69.37-.3.77-.56,1.18-.8C93.03.18,93.7,0,94.42,0c2.26,0,3.86,1.98,3.35,4.18-.13.54-.37,1.07-.67,1.53-.37.57-.82,1.09-1.29,1.58-.81.83-1.66,1.62-2.5,2.42-2.12,2.02-4.24,4.05-6.37,6.05-1.87,1.76-3.75,3.51-5.64,5.26-.77.72-1.57,1.41-2.35,2.12-1.37,1.25-2.73,2.51-4.11,3.75-1.4,1.25-2.81,2.47-4.23,3.7-1.43,1.24-2.76,2.58-4.04,3.98-.59.64-1.22,1.22-1.95,1.71-.73.5-1.41,1.08-2.03,1.7-1.72,1.73-3.53,3.35-5.41,4.9-.84.69-1.6,1.48-2.35,2.27-1.37,1.45-2.78,2.85-4.28,4.16-1,.87-1.95,1.8-2.93,2.7-.95.88-1.96,1.69-3.03,2.43-.55.38-1.06.8-1.59,1.2-.39.29-.52.65-.49,1.15.24,3.74.47,7.48.67,11.22.09,1.7.13,3.4.18,5.11.06,2.22-.02,4.43-.26,6.63,0,.08-.02.17-.02.25-.01.22.1.31.31.31.12,0,.24,0,.36,0,4.51-.23,9.02-.13,13.53-.19.2,0,.39-.02.71-.04Z"/><path class="cls-1" d="M25.08,88.59c-1.93.14-4.1.06-6.26-.3-.81-.13-1.61-.32-2.34-.69-.45-.23-.9-.5-1.25-.85-1.16-1.16-1.12-2.99.09-4.1.36-.33.8-.58,1.23-.8.72-.36,1.5-.56,2.3-.62,1.1-.09,2.21-.14,3.31-.2,1.14-.06,2.28-.09,3.41-.17,1.29-.09,2.58-.1,3.87.07.71.1,1.41.27,2.02.66,1.32.84,2,2.04,1.84,3.61-.17,1.59-1.1,2.63-2.59,3.17-.73.26-1.5.25-2.27.23-1.04-.02-2.07,0-3.36,0Z"/></g></svg>