<?xml version="1.0" encoding="UTF-8"?><svg id="Layer_2" xmlns="http://www.w3.org/2000/svg" viewBox="0 0 400.72 43.07"><defs><style>.cls-1{fill:#0e0e30;stroke-width:0px;}</style></defs><g id="Scribbles"><path class="cls-1" d="M147.27,35.01c-2.22,0-5.08.01-7.93,0-.67,0-1.38-.02-2.01-.22-.67-.21-1.11-.81-1.14-1.54-.04-.85.59-1.15,1.31-1.22,2.84-.29,5.68-.7,8.52-.79,3-.1,5.99-.29,8.91-.91,4.68-.99,9.46-.94,14.16-1.64,5.77-.86,11.56-1.71,17.37-2.14,6.65-.49,13.19-1.72,19.84-2.23,7.85-.61,15.65-1.82,23.48-2.76,3.1-.37,6.22-.35,9.33-.79,4.83-.69,9.74-.76,14.61-1.15,3.24-.26,6.5-.48,9.71-.96,2.57-.38,5.14-.45,7.71-.65,5.14-.4,10.29-.82,15.43-1.24,1.08-.09,2.17-.2,3.25-.27,7.18-.46,14.35-.92,21.53-1.36,6.63-.4,13.26-.75,19.89-1.16,3.65-.23,7.3-.71,10.95-.79,6.39-.13,12.72-1.02,19.11-1.17,2.24-.05,4.6-.23,6.86-.71.17-.04.4-.41.37-.58-.04-.22-.31-.55-.5-.57-2.68-.2-5.36-.42-8.05-.52-3.94-.14-7.89-.12-11.82-.29-5.15-.23-10.28-.62-15.45-.57-7.75.08-15.49-.02-23.24-.06-3.25-.02-6.51.02-9.74-.55-2.04-.36-4.02.4-6.08.34-3.93-.11-7.88.16-11.81.34-7.15.33-14.31.52-21.46,1.04-7.29.53-14.61.72-21.9,1.38-3.78.34-7.57.38-11.35.72-2.29.21-4.57.27-6.88-.34-1.4-.36-3-.26-4.45-.01-2.16.38-4.31.51-6.5.45-1.64-.04-3.36-.05-4.77.83-2.29,1.42-4.9,1.6-7.41,2.04-3.19.56-6.45.83-9.69,1.04-5.02.32-9.95,1.26-14.93,1.91-3.36.44-6.7,1.01-10.06,1.46-5.51.73-11.04,1.32-16.54,2.12-9.53,1.39-19.04,2.89-28.56,4.37-6.57,1.02-13.13,2.12-19.7,3.13-5.76.89-11.53,1.67-17.29,2.58-4.14.66-8.32,1.05-12.41,2.07-2.36.59-4.84.64-7.26,1-4.03.6-8.04,1.29-12.07,1.85-1.34.19-2.86.48-4.03.03-1.98-.76-3.74-.15-5.57.16-2.54.44-5.07.98-7.6,1.48-.4.08-.82.12-1.18.29-5.77,2.71-11.98,3.26-18.19,3.8-1.76.15-3.5.46-5.26.69-1.78.23-3.53.14-5.24-.42-.71-.23-1.12-.68-1.39-1.36-.3-.73-.22-1.37.44-1.78.57-.35,1.21-.65,1.86-.8,4.76-1.12,9.52-2.2,14.29-3.27,3.18-.71,6.35-1.44,9.55-2.05,7.05-1.34,14.11-2.6,21.17-3.92,1.6-.3,3.19-.68,4.78-1.01,2.79-.59,5.59-1.07,8.43-1.4,3.62-.42,7.2-1.27,10.79-1.92,5.46-.98,10.93-1.87,16.37-2.92,5.2-1,10.47-1.49,15.66-2.57,5.68-1.18,11.45-1.93,17.18-2.84,6.57-1.04,13.14-2.07,19.72-3.04,5.23-.78,10.48-1.47,15.72-2.19,2.42-.33,4.79-.92,7.28-.78,1.19.07,2.43-.25,3.61-.54,6.09-1.49,12.33-1.85,18.52-2.65,5.51-.72,11.05-1.28,16.57-1.92,1.62-.18,3.23-.38,4.85-.55,4.85-.49,9.71-.97,14.57-1.45.68-.07,1.36-.16,2.03-.13,5.59.19,11.11-.71,16.67-1.08,4.47-.3,8.93-.61,13.41-.75,5-.15,9.99-.95,14.99-1.1,3.24-.1,6.48-.25,9.73-.32,7.6-.15,15.2-.18,22.8-.17,10.47.01,20.96-.22,31.41.26,8.96.41,17.92.38,26.87.91,3.79.22,7.57.69,11.36,1.03,3.78.33,7.56.76,11.35.92,5.61.23,11.01,1.59,16.46,2.73.37.08.8.29,1.01.58.93,1.28.53,2.9,1.04,4.31.26.72-.59,1.13-.87,1.7-.72,1.48-1.84,2.23-3.41,2.55-1.05.21-2.07.61-3.1.94-1.95.61-3.88,1.21-5.96,1.32-1.35.07-2.68.44-4.01.67-1.07.19-2.14.52-3.21.53-7.07.08-14.07,1.17-21.12,1.51-5.14.25-10.32.28-15.43.71-4.88.41-9.79-.13-14.63.82-1.71.33-3.52.45-5.25-.14-.25-.09-.54-.2-.79-.16-3.92.65-7.83-.4-11.75-.09-1.39.11-2.7.38-3.9,1.04-1.6.87-3.31,1.14-5.11,1.17-9.62.14-19.19,1.08-28.76,1.87-3.92.32-7.86.32-11.76.75-5.26.57-10.56.61-15.82,1.32-4.03.55-8.12.79-12.19.82-4.64.04-9.21.73-13.8,1.1-10.83.87-21.64,2.01-32.46,3.01-3.78.35-7.58.59-11.36.91-5.82.48-11.63,1.05-17.45,1.46-3.53.25-7.07.27-11.24.42ZM235.14,23.91c-.25-.03-.51-.07-.76-.08-.03,0-.06.19-.09.29.25.03.51.07.76.08.03,0,.06-.19.09-.29Z"/></g></svg>