<?xml version="1.0" encoding="UTF-8"?><svg id="Layer_2" xmlns="http://www.w3.org/2000/svg" viewBox="0 0 220.31 17.99"><defs><style>.cls-1{fill:#e90055;stroke-width:0px;}</style></defs><g id="Scribbles"><path class="cls-1" d="M9.92,2.27c2.33-.12,4.6.06,6.44,1.7.91.81,1.9.86,3,.8,5.35-.29,10.67-1.09,16.05-.83,4.71-1.24,9.6-.27,14.36-1.28,2.19-.46,4.54-.16,6.82-.26,6.03-.28,12.05-.71,18.08-.85,7.77-.17,15.51-.77,23.29-.79,5.75-.01,11.51,0,17.27-.29C124.58-.02,133.97.04,143.35.02c15.7-.03,31.4-.05,47.1.13,7.65.08,15.28.78,22.87,1.82,1.84.25,3.75.12,5.52.99.97.48,1.53,1.06,1.47,2.13-.04.8-.12,1.61-.22,2.4-.33,2.42-.77,2.49-3.17,3.25-3.57,1.13-7.08.8-10.7.6-10.96-.6-21.95-.79-32.91-1.49-9.38-.6-18.77-.51-28.15-.9-4.76-.2-9.59-.6-14.38.13-2.24-.7-4.49-.2-6.74,0-.97.08-1.74.33-1.78,1.66-.04,1.19-1.03,1.7-2.16,2.05-3.34,1.04-6.8,1.54-10.21,2.2-2.36.46-4.72,1.11-7.17.59-.69-.15-1.3.09-1.93.37-2.24,1-4.63,1.29-7.05,1.36-4.56.12-9.13.16-13.69.29-2.41.07-4.84.52-7.23.35-8.43-.57-16.87-.87-25.28-1.75-6.52-.68-12.96-1.98-19.55-2.21-4.26-.15-8.5-.89-12.75-1.42-.49-.06-.98-.41-1.39-.73-.68-.54-1.45-.6-2.26-.7-2.79-.32-5.58-.68-8.36-1.05C1.89,9.91-.01,8.05,0,6.99c.02-1.36,1.31-3.17,2.81-3.6,1.53-.44,3.12-.71,4.7-.98.79-.13,1.61-.1,2.41-.14ZM117.12,9.39c-2.02-1.05-3.3-.15-4.62-.19-1.34-.04-2.68-.01-4.02,0-1.34.02-2.68.09-4.02.09-1.34,0-2.68-.12-4.01-.12-1.34,0-2.68.13-4.01.16-1.34.02-2.68-.03-4.01-.03-1.34,0-2.68,0-4.02,0-1.33,0-2.67-.03-4-.01-1.34.01-2.68.02-4.02.1-1.32.08-2.67.49-3.95.32-1.36-.18-2.67.02-3.99.02-1.33,0-2.65.14-3.98.19-1.33.05-2.67.07-4,.11-1.34.04-2.68.08-4.02.13-1.2.04-2.46-.28-4.2.71,15.28,2.46,29.93,2.75,44.61,1.09,5.26-.59,10.6-.82,16.26-2.56Z"/></g></svg>