<svg xmlns="http://www.w3.org/2000/svg" width="1.9in" height="1.81in" viewBox="0 0 137 130">
  <g>
    <g>
      <path fill="#0d202e" d="m111.55,89.21v-51.01c0-2.98-2.41-5.39-5.39-5.39h-30.24c-2.98,0-5.39,2.41-5.39,5.39v51.01"></path>
      <circle fill="#0d202e" cx="91.83" cy="20.48" r="10.13"></circle>
    </g>
    <g>
      <path fill="#0d202e" d="m70.85,89.21v-51.01c0-2.98-2.41-5.39-5.39-5.39h-30.24c-2.98,0-5.39,2.41-5.39,5.39v51.01"></path>
      <circle fill="#0d202e" cx="48.22" cy="20.48" r="10.13"></circle>
    </g>
  </g>
  <rect fill="#f05047" x="30.15" y="102.16" width="81.07" height="18.84"></rect>
  <path fill="#fff" d="m69.51,44.82h3.17v4.51c3.41.35,5.64,1.25,8.74,3.17l-3.45,4c-2.62-1.33-3.25-1.49-5.29-1.92v5.21c3.25.74,6.07,1.41,7.84,3.25,1.14,1.18,1.84,2.94,1.84,4.82,0,.82-.12,1.61-.35,2.43-.67,2.39-1.8,3.72-3.57,4.82-2.04,1.21-3.76,1.41-5.76,1.65v4.7h-3.13v-4.7c-3.57-.35-6.7-1.02-10.54-3.6l3.57-4.08c3.64,2.04,5.49,2.23,6.97,2.35v-6.03c-2.9-.55-5.56-1.14-7.29-2.66-2.12-1.84-2.16-4.19-2.16-4.94,0-2.98,1.22-5.25,3.49-6.78,2.08-1.37,4.23-1.57,5.92-1.68v-4.51Zm.04,9.72c-.51.08-1.06.16-1.53.35-1.02.43-1.65,1.33-1.65,2.19,0,1.53,1.57,1.84,3.17,2.16v-4.7Zm3.13,16.81c.94-.16,3.41-.59,3.41-2.98,0-1.76-1.84-2.16-3.41-2.39v5.37Z"></path>
</svg>