<?xml version="1.0" encoding="UTF-8" standalone="no"?>
<svg
   width="100"
   height="100"
   viewBox="0 0 100 100"
   fill="none"
   version="1.1"
   id="svg5124"
   sodipodi:docname="facilities-dot.svg"
   inkscape:version="1.2.2 (b0a8486541, 2022-12-01)"
   xmlns:inkscape="http://www.inkscape.org/namespaces/inkscape"
   xmlns:sodipodi="http://sodipodi.sourceforge.net/DTD/sodipodi-0.dtd"
   xmlns="http://www.w3.org/2000/svg"
   xmlns:svg="http://www.w3.org/2000/svg">
  <defs
     id="defs5128" />
  <sodipodi:namedview
     id="namedview5126"
     pagecolor="#ffffff"
     bordercolor="#666666"
     borderopacity="1.0"
     inkscape:showpageshadow="2"
     inkscape:pageopacity="0.0"
     inkscape:pagecheckerboard="0"
     inkscape:deskcolor="#d1d1d1"
     showgrid="false"
     inkscape:zoom="6.18"
     inkscape:cx="49.919094"
     inkscape:cy="50.323625"
     inkscape:window-width="1600"
     inkscape:window-height="831"
     inkscape:window-x="0"
     inkscape:window-y="0"
     inkscape:window-maximized="1"
     inkscape:current-layer="layer1" />
  <g
     inkscape:groupmode="layer"
     id="layer2"
     inkscape:label="background"
     transform="translate(67.202573,-36.334403)">
    <circle
       style="fill:#ffffff;fill-opacity:1;stroke:none;stroke-width:6;stroke-linecap:round;stroke-linejoin:round"
       id="path38153"
       cx="-17.202572"
       cy="86.334404"
       r="40"
       inkscape:label="white-underlay" />
  </g>
  <g
     opacity="0.5"
     id="g5122">
    <path
       d="m 65.884713,66.800846 c 0,0 6.974,9.4113 22.4558,9.4113 v -4.0037 c -4.4173,0.2018 -8.8082,-0.7813 -12.7177,-2.8475 -3.9096,-2.0661 -7.1954,-5.1402 -9.5171,-8.9036"
       fill="#ffffff"
       id="path5088" />
    <path
       d="m 35.351513,78.643346 -10.7883,0.0796 1.1093,-13.8142 -6.4613,-12.5128 6.4418,-0.0455 3.9702,7.6487 2.6468,-7.6998 7.9469,-0.0512 -6.604,12.8084 z"
       fill="#091f2f"
       id="path5090" />
    <path
       d="m 26.467313,76.858546 6.9218,-0.048 -1.5699,-12.9729 5.6633,-11.5895 -3.8858,0.03 -3.6263,11.1163 -5.4428,-11.0504 -2.5819,0.0179 5.5271,11.29 z"
       fill="#288be4"
       id="path5092" />
    <path
       d="m 24.554513,51.650546 c 1.3347,0.7783 2.8472,1.1996 4.392,1.2236 1.5448,0.0239 3.0697,-0.3505 4.4278,-1.0871 0.612,0.5492 1.3559,0.9305 2.1591,1.1066 0.8032,0.176 1.6384,0.1409 2.424,-0.102 0.7856,-0.2429 1.4948,-0.6852 2.0585,-1.2839 0.5637,-0.5987 0.9626,-1.3332 1.1578,-2.132 0.045,-0.162 0.0776,-0.3271 0.0975,-0.494 2.0199,0.1405 4.0193,-0.4801 5.6046,-1.7398 1.5852,-1.2597 2.6416,-3.0671 2.9611,-5.0665 0.3195,-1.9995 -0.1209,-4.0461 -1.2347,-5.7371 -1.1137,-1.691 -2.8201,-2.9038 -4.7832,-3.3998 h -0.0585 c 0.09,-0.2102 0.1617,-0.4276 0.2145,-0.65 0.1889,-0.7516 0.1582,-1.5415 -0.0886,-2.27615 -0.2467,-0.73462 -0.699,-1.38301 -1.3033,-1.8682 -0.6042,-0.48518 -1.335,-0.78678 -2.1056,-0.86899 -0.7706,-0.08221 -1.5485,0.05843 -2.2416,0.40521 -0.7652,-1.55337 -1.9434,-2.86605 -3.4054,-3.79413 -1.4619,-0.92808 -3.1512,-1.43572 -4.8826,-1.46727 -1.7313,-0.03156 -3.4379,0.4142 -4.9327,1.28839 -1.4948,0.8742 -2.7201,2.14308 -3.5415,3.66754 -0.7653,-0.13659 -1.5537,-0.05318 -2.2735,0.24055 -0.7199,0.29373 -1.3416,0.7857 -1.7929,1.41876 -0.4513,0.63305 -0.7137,1.38118 -0.7566,2.15739 -0.043,0.7763 0.1352,1.5488 0.5139,2.2278 -1.2619,0.5477 -2.3445,1.439 -3.1242,2.5724 -0.7797,1.1333 -1.2251,2.463 -1.2854,3.8373 -0.0604,1.3743 0.2669,2.7379 0.9443,3.9352 0.6774,1.1973 1.6777,2.18 2.8868,2.8361 -0.6294,1.0584 -0.8209,2.3206 -0.5335,3.518 0.2873,1.1974 1.0307,2.2353 2.0719,2.8928 1.0413,0.6574 2.298,0.8824 3.5026,0.627 1.2046,-0.2553 2.262,-0.9708 2.9469,-1.9942 z"
       fill="#c2d9ed"
       stroke="#091f2f"
       stroke-width="2.28079"
       stroke-miterlimit="10"
       stroke-linecap="round"
       id="path5094" />
    <path
       d="m 53.490313,50.070946 6.2005,-8.4493 6.1941,8.4493 z"
       fill="#c2d9ed"
       stroke="#091f2f"
       stroke-width="2.28079"
       stroke-miterlimit="10"
       id="path5096" />
    <path
       d="m 66.118713,55.940146 h -12.622 v 5.2061 h 12.622 z"
       fill="#c2d9ed"
       stroke="#091f2f"
       stroke-width="2.28079"
       stroke-miterlimit="10"
       id="path5098" />
    <path
       d="m 53.496713,66.352646 v 11.8095"
       stroke="#091f2f"
       stroke-width="2.28079"
       stroke-miterlimit="10"
       id="path5100" />
    <path
       d="m 53.496713,55.940046 v -4.5107 l 3.2497,-1.3584 h 6.207 l 3.1328,1.8979 v 3.9712"
       stroke="#091f2f"
       stroke-width="2.28079"
       stroke-miterlimit="10"
       id="path5102" />
    <path
       d="m 66.118713,61.146246 h -12.622 v 5.2061 h 12.622 z"
       fill="#c2d9ed"
       stroke="#091f2f"
       stroke-width="2.28079"
       stroke-miterlimit="10"
       id="path5104" />
    <path
       d="m 66.118613,66.352646 v 12.349"
       stroke="#091f2f"
       stroke-width="2.28079"
       stroke-miterlimit="10"
       id="path5106" />
    <path
       d="m 53.496713,66.352646 h -0.312"
       stroke="#091f2f"
       stroke-width="2.28079"
       stroke-miterlimit="10"
       id="path5108" />
    <path
       d="m 53.496713,61.146246 h -0.312"
       stroke="#091f2f"
       stroke-width="2.28079"
       stroke-miterlimit="10"
       id="path5110" />
    <path
       d="m 53.496713,55.940146 h -0.312"
       stroke="#091f2f"
       stroke-width="2.28079"
       stroke-miterlimit="10"
       id="path5112" />
    <path
       d="m 66.105613,60.457346 c 2.3217,3.7634 5.6076,6.8375 9.5171,8.9036 3.9095,2.0662 8.3004,3.0493 12.7177,2.8475"
       stroke="#091f2f"
       stroke-width="2.28079"
       stroke-miterlimit="10"
       id="path5114" />
    <path
       d="m 65.884713,66.800946 c 0,0 6.974,9.4113 22.4558,9.4113"
       stroke="#091f2f"
       stroke-width="2.28079"
       stroke-miterlimit="10"
       id="path5116" />
    <path
       d="m 75.634013,74.489946 v 4.1597"
       stroke="#091f2f"
       stroke-width="2.28079"
       stroke-miterlimit="10"
       id="path5118" />
  </g>
  <g
     inkscape:groupmode="layer"
     id="layer1"
     inkscape:label="foreground"
     transform="translate(67.202573,-36.334403)">
    <path
       id="path38153-1"
       style="fill:#b6fa41;fill-opacity:1;stroke:none;stroke-width:6;stroke-linecap:round;stroke-linejoin:round"
       d="m -17.202571,36.334405 a 50,50 0 0 0 -50.000003,50 50,50 0 0 0 50.000003,49.999995 50,50 0 0 0 49.999999,-49.999995 50,50 0 0 0 -49.999999,-50 z m 0,10 a 40,40 0 0 1 40,40 40,40 0 0 1 -40,39.999995 40,40 0 0 1 -40.000003,-39.999995 40,40 0 0 1 40.000003,-40 z"
       inkscape:label="color-overlay" />
  </g>
</svg>
