<svg width="100" height="75" viewBox="0 0 100 75" fill="none" xmlns="http://www.w3.org/2000/svg">
<g opacity="0.5">
<path d="M100 64.0148H0L0 74.7787H100V64.0148Z" fill="#091f2f"/>
<path d="M62.1632 32.4523H73.1885V3.24182H52.4017V0H47.8522V3.24182H27.0654V32.4523H37.9404L26.0749 59.7178H30.6722L34.5727 50.627H47.8522V59.7178H52.4017V50.627H65.5309L69.4314 59.7178H74.0287L62.1632 32.4523ZM47.8522 46.73H36.3829L42.5172 32.4523H47.8522V46.73ZM32.9128 26.6102V9.08392H67.3411V26.6102H32.9128ZM52.4017 46.73V32.4523H57.5796L63.7139 46.73H52.4017Z" fill="#091f2f" fill-opacity="0.9"/>
<path d="M69.5755 6.35974H30.3995V27.7285H69.5755V6.35974Z" fill="#c2d9ed"/>
<path d="M42.3019 12.4324C43.0505 12.4362 43.798 12.4167 44.5394 12.3001C45.39 12.1663 46.1916 11.8758 46.9794 11.5391C47.6045 11.2718 48.2146 10.968 48.862 10.7544C49.1867 10.6472 49.5179 10.5695 49.8626 10.5869C50.4252 10.6152 50.8258 10.9064 51.1116 11.3754C51.3542 11.7731 51.4796 12.2141 51.5758 12.6643C51.8046 13.7355 52.0334 14.8068 52.2546 15.8797C52.4171 16.6672 52.4477 17.466 52.4085 18.2666C52.3508 19.4517 52.1246 20.6054 51.7253 21.7232C51.3929 22.6533 50.9557 23.5281 50.3209 24.2926C49.6757 25.0699 48.899 25.6532 47.895 25.8839C47.0231 26.0842 46.1806 25.9587 45.3605 25.6328C44.5067 25.2935 43.7645 24.7782 43.0971 24.156C41.6453 22.8027 40.5987 21.1834 39.9494 19.3082C39.743 18.7119 39.6346 18.0911 39.504 17.4762C39.3353 16.6834 39.1645 15.8911 39.0036 15.0966C38.9264 14.7151 38.8941 14.3273 38.949 13.9391C39.0533 13.2026 39.4714 12.7543 40.2103 12.573C40.7025 12.4521 41.2055 12.4438 41.708 12.4336C41.9059 12.4295 42.1038 12.4329 42.3017 12.4329L42.3019 12.4324ZM42.3328 13.0741C41.9052 13.0717 41.4775 13.0701 41.0506 13.0976C40.766 13.1159 40.483 13.1494 40.211 13.2418C39.876 13.3556 39.6679 13.579 39.6011 13.9332C39.5308 14.3069 39.5726 14.6759 39.6467 15.041C39.8069 15.8276 39.9763 16.6121 40.144 17.3971C40.2687 17.9808 40.3725 18.57 40.5695 19.1359C41.1383 20.7702 42.0404 22.1971 43.261 23.4209C43.9517 24.1132 44.7233 24.6941 45.6442 25.0512C46.326 25.3156 47.0264 25.4208 47.7501 25.255C48.4182 25.1018 48.9715 24.7452 49.4545 24.2703C50.1798 23.557 50.6621 22.6901 51.027 21.7524C51.4245 20.7313 51.6523 19.67 51.7398 18.5795C51.8075 17.7364 51.8018 16.8929 51.6338 16.0607C51.4069 14.9367 51.1641 13.8158 50.9232 12.6947C50.8424 12.3184 50.7296 11.9515 50.511 11.6275C50.3031 11.3191 50.014 11.1906 49.6441 11.2321C49.3863 11.2611 49.1404 11.3319 48.8983 11.4201C48.307 11.6356 47.742 11.9133 47.1635 12.1587C46.3788 12.4916 45.5789 12.7752 44.7347 12.9178C43.9393 13.052 43.1368 13.076 42.3326 13.0739L42.3328 13.0741Z" fill="#091f2f" fill-opacity="0.9"/>
<path d="M42.2236 12.3048L42.3026 12.3052C43.0492 12.309 43.7885 12.2895 44.5197 12.1744L44.5197 12.1744C45.3549 12.0431 46.1452 11.7572 46.9294 11.4221C47.1052 11.347 47.2815 11.2681 47.459 11.1886C47.9033 10.9898 48.3547 10.7878 48.8221 10.6336C49.1529 10.5244 49.5015 10.4414 49.869 10.4599C50.4815 10.4906 50.9169 10.8116 51.2202 11.3092C51.4741 11.7255 51.6031 12.1833 51.7002 12.6377L51.7002 12.6377L51.7004 12.6387C51.9291 13.7095 52.1579 14.7809 52.3792 15.854C52.5445 16.655 52.5751 17.4651 52.5356 18.2728M42.2236 12.3048L52.4085 18.2666M42.2236 12.3048L42.2232 12.3055M42.2236 12.3048L44.5394 12.3001C43.798 12.4167 43.0505 12.4362 42.3019 12.4324L42.3017 12.4329M52.5356 18.2728L52.4085 18.2666M52.5356 18.2728C52.5356 18.2728 52.5356 18.2728 52.5356 18.2728L52.4085 18.2666M52.5356 18.2728C52.4773 19.4702 52.2487 20.6362 51.845 21.766L51.845 21.766C51.5094 22.7054 51.0659 23.5945 50.4188 24.3738M52.4085 18.2666C52.3508 19.4517 52.1246 20.6054 51.7253 21.7232C51.3929 22.6533 50.9557 23.5281 50.3209 24.2926M50.4188 24.3738L50.3209 24.2926M50.4188 24.3738C49.7612 25.1661 48.962 25.7693 47.9235 26.0079L47.9235 26.0079C47.0207 26.2152 46.1516 26.0841 45.3135 25.751M50.4188 24.3738C50.4188 24.3738 50.4188 24.3738 50.4188 24.3738L50.3209 24.2926M50.3209 24.2926C49.6757 25.0699 48.899 25.6532 47.895 25.8839C47.0231 26.0842 46.1806 25.9587 45.3605 25.6328M42.3017 12.4329V12.4323V12.3057C42.2756 12.3057 42.2495 12.3056 42.2232 12.3055M42.3017 12.4329C42.2401 12.4329 42.1786 12.4326 42.117 12.4322C41.9806 12.4315 41.8443 12.4308 41.708 12.4336M42.3017 12.4329L41.708 12.4336M42.2232 12.3055C42.1888 12.3054 42.1543 12.3052 42.1196 12.305C41.9825 12.3043 41.8434 12.3036 41.7054 12.3064M42.2232 12.3055L41.7054 12.3064M41.7054 12.3064C41.7054 12.3064 41.7054 12.3064 41.7054 12.3064L41.708 12.4336M41.7054 12.3064C41.6951 12.3066 41.6849 12.3068 41.6746 12.307C41.1845 12.317 40.6779 12.3272 40.18 12.4495M41.708 12.4336C41.6996 12.4338 41.6912 12.4339 41.6829 12.4341C41.1888 12.4441 40.6944 12.4541 40.2103 12.573M40.2103 12.573L40.18 12.4495M40.2103 12.573L40.1799 12.4495C40.18 12.4495 40.18 12.4495 40.18 12.4495M40.2103 12.573C39.4714 12.7543 39.0533 13.2026 38.949 13.9391L40.18 12.4495M40.18 12.4495C39.7922 12.5446 39.4789 12.7124 39.2483 12.9615C39.0175 13.2108 38.8781 13.5327 38.823 13.9213L38.823 13.9213C38.7655 14.328 38.7998 14.731 38.879 15.1218L38.879 15.1219C39.0115 15.7766 39.1509 16.43 39.2901 17.0827L40.18 12.4495ZM39.9494 19.3082C39.7813 18.8227 39.6783 18.321 39.5753 17.8195C39.5518 17.705 39.5282 17.5905 39.504 17.4762C39.4742 17.3361 39.4443 17.196 39.4144 17.056C39.2752 16.4033 39.136 15.7507 39.0036 15.0966L39.3795 17.5026L39.5039 17.4762L39.3795 17.5027C39.4034 17.6151 39.4267 17.7283 39.45 17.842C39.5531 18.3439 39.6582 18.8557 39.8292 19.3498L39.9494 19.3082ZM39.9494 19.3082C40.5987 21.1834 41.6453 22.8027 43.0971 24.156M39.9494 19.3082L39.8292 19.3498C40.4852 21.2444 41.5431 22.8814 43.0104 24.249M43.0971 24.156C43.7645 24.7782 44.5067 25.2935 45.3605 25.6328M43.0971 24.156L43.0104 24.249C43.0104 24.249 43.0104 24.249 43.0104 24.249M43.0971 24.156L43.0104 24.249M43.0104 24.249C43.6865 24.8794 44.4418 25.4046 45.3135 25.751M45.3135 25.751C45.3135 25.751 45.3136 25.751 45.3136 25.751L45.3605 25.6328M45.3135 25.751L45.3605 25.6328M42.6414 13.203L42.3321 13.2013C41.9039 13.1989 41.4806 13.1973 41.0588 13.2246L41.0588 13.2246C40.7777 13.2426 40.508 13.2753 40.2519 13.3623L40.2519 13.3623C40.101 13.4135 39.9853 13.4871 39.9003 13.5821C39.8156 13.6769 39.7558 13.7992 39.7261 13.9567L42.6414 13.203ZM42.6414 13.203L42.6388 13.2004M42.6414 13.203L42.6388 13.2004M42.6388 13.2004C43.3439 13.1953 44.0518 13.162 44.7559 13.0432L44.7559 13.0432C45.614 12.8983 46.4243 12.6104 47.2132 12.2758L47.2132 12.2758C47.4155 12.19 47.6137 12.1014 47.8105 12.0134C48.1857 11.8457 48.5563 11.6801 48.9418 11.5396C49.1788 11.4533 49.4143 11.386 49.6583 11.3585C49.8248 11.3398 49.9658 11.3601 50.0858 11.4144C50.2056 11.4687 50.3126 11.5607 50.4055 11.6986L50.4056 11.6986C50.6107 12.0028 50.7194 12.3511 50.7988 12.7214L50.7988 12.7214C50.8242 12.8395 50.8496 12.9575 50.875 13.0755C51.0907 14.0787 51.3063 15.0811 51.5091 16.0859C51.6739 16.9025 51.6801 17.7331 51.613 18.5693L51.613 18.5694C51.5264 19.6487 51.301 20.6978 50.9085 21.7063L50.9085 21.7063C50.5476 22.6337 50.0736 23.4831 49.3653 24.1796C48.8944 24.6425 48.3612 24.9843 47.7217 25.131C47.0289 25.2898 46.3549 25.1904 45.6902 24.9326C44.7908 24.5838 44.0336 24.0152 43.3511 23.3311C42.1437 22.1206 41.252 20.71 40.6896 19.0941C40.5319 18.6408 40.4352 18.1733 40.3365 17.6964C40.3142 17.5882 40.2917 17.4796 40.2684 17.3705C40.2426 17.2498 40.2168 17.1292 40.191 17.0086C40.0488 16.3443 39.9068 15.6808 39.7714 15.0157L42.6388 13.2004ZM39.7714 15.0156C39.6985 14.6567 39.6603 14.3066 39.7261 13.9567L39.7714 15.0156Z" stroke="#091f2f" stroke-opacity="0.9" stroke-width="0.254389"/>
<path d="M57.7971 10.3769C57.0563 10.3952 56.317 10.3828 55.5814 10.2807C54.733 10.1626 53.9255 9.90291 53.1334 9.58622C52.5167 9.33985 51.9156 9.05452 51.2877 8.83547C51.0629 8.75707 50.8341 8.69625 50.598 8.66394C50.1882 8.60787 49.8689 8.74305 49.6491 9.10156C49.4814 9.37525 49.3923 9.67816 49.3082 9.98369C49.254 10.1809 49.1005 10.2826 48.9193 10.2407C48.7477 10.2011 48.6401 10.039 48.6859 9.84708C48.7952 9.39093 48.9425 8.94856 49.2412 8.57437C49.5895 8.13794 50.0506 7.97092 50.5968 8.02223C51.2252 8.08115 51.7959 8.33228 52.3684 8.57175C53.0942 8.87562 53.8153 9.19065 54.5729 9.41112C55.5529 9.69645 56.5569 9.75514 57.57 9.74682C58.211 9.74159 58.8527 9.70762 59.4929 9.76868C59.8455 9.80241 60.191 9.86727 60.5065 10.039C60.9857 10.3001 61.2102 10.7254 61.2772 11.2497C61.343 11.7646 61.2572 12.2673 61.1584 12.7693C60.9564 13.7937 60.7716 14.822 60.5506 15.8422C60.2615 17.1776 59.6799 18.3904 58.9242 19.5218C58.2737 20.4959 57.5051 21.3647 56.576 22.0841C55.848 22.6476 55.0543 23.0805 54.1448 23.2715C53.391 23.43 52.6497 23.3865 51.9284 23.1026C51.778 23.0434 51.7004 22.9313 51.7027 22.7873C51.7051 22.654 51.7921 22.5364 51.9206 22.4913C52.0123 22.459 52.0992 22.4782 52.1862 22.5119C52.6024 22.673 53.0341 22.7379 53.4789 22.7089C54.089 22.669 54.6558 22.4801 55.1959 22.2012C56.1512 21.708 56.9304 21.0009 57.6161 20.186C58.6244 18.9875 59.3753 17.6459 59.8153 16.1382C59.9895 15.5411 60.0779 14.9249 60.2009 14.3167C60.3392 13.6343 60.4699 12.9506 60.5982 12.2663C60.653 11.9741 60.6846 11.6779 60.6469 11.3804C60.5749 10.8159 60.3354 10.5662 59.7754 10.4567C59.2977 10.3633 58.8144 10.3769 58.3317 10.3771C58.1535 10.3771 57.9753 10.3771 57.7973 10.3771L57.7971 10.3769Z" fill="#091f2f" fill-opacity="0.9"/>
<path d="M59.8153 16.1382C59.9393 15.7133 60.0198 15.2786 60.1003 14.844C60.1329 14.668 60.1655 14.492 60.2009 14.3167C60.3392 13.6343 60.4699 12.9506 60.5982 12.2663C60.653 11.9741 60.6846 11.6779 60.6469 11.3804M59.8153 16.1382L59.6322 16.0847C59.6322 16.0847 59.6322 16.0847 59.6322 16.0847M59.8153 16.1382L59.6322 16.0847M59.8153 16.1382C59.3753 17.6459 58.6244 18.9875 57.6161 20.186M59.6322 16.0847C59.7533 15.6696 59.831 15.2497 59.9108 14.8191C59.9437 14.641 59.9771 14.461 60.0139 14.2788L60.0139 14.2788C60.1519 13.5978 60.2824 12.915 60.4106 12.2312L60.4107 12.2311C60.4639 11.9477 60.4918 11.6737 60.4576 11.4046M59.6322 16.0847C59.2003 17.5647 58.4629 18.8831 57.4701 20.0632M60.4576 11.4046L60.6469 11.3804M60.4576 11.4046C60.4576 11.4045 60.4576 11.4045 60.4576 11.4045L60.6469 11.3804M60.4576 11.4046C60.4243 11.1432 60.3557 10.9849 60.2556 10.8791C60.1551 10.773 59.9993 10.6949 59.7388 10.644M60.6469 11.3804C60.5749 10.8159 60.3354 10.5662 59.7754 10.4567M59.7754 10.4567L59.7388 10.644C59.7388 10.644 59.7388 10.644 59.7388 10.644M59.7754 10.4567C59.3505 10.3737 58.9213 10.3752 58.492 10.3767C58.4385 10.3769 58.3851 10.3771 58.3317 10.3771L51.2877 8.83547C51.6833 8.97347 52.0682 9.13778 52.4531 9.30209C52.6792 9.39858 52.9052 9.49506 53.1334 9.58622L53.0626 9.76337C53.0626 9.76338 53.0626 9.76339 53.0627 9.7634C53.8623 10.0831 54.6857 10.3486 55.5551 10.4696L55.5552 10.4696C56.3014 10.5733 57.0483 10.5859 57.7897 10.5679M59.7754 10.4567L59.7388 10.644M59.7388 10.644C59.3336 10.5648 58.924 10.5661 58.4923 10.5675C58.4391 10.5677 58.3856 10.5679 58.3318 10.5679H58.3317H58.3306H58.3296H58.3285H58.3275H58.3264H58.3254H58.3244H58.3233H58.3223H58.3212H58.3202H58.3191H58.3181H58.317H58.316H58.315H58.3139H58.3129H58.3118H58.3108H58.3097H58.3087H58.3076H58.3066H58.3056H58.3045H58.3035H58.3024H58.3014H58.3003H58.2993H58.2983H58.2972H58.2962H58.2951H58.2941H58.293H58.292H58.2909H58.2899H58.2889H58.2878H58.2868H58.2857H58.2847H58.2836H58.2826H58.2815H58.2805H58.2795H58.2784H58.2774H58.2763H58.2753H58.2742H58.2732H58.2722H58.2711H58.2701H58.269H58.268H58.2669H58.2659H58.2648H58.2638H58.2628H58.2617H58.2607H58.2596H58.2586H58.2575H58.2565H58.2554H58.2544H58.2534H58.2523H58.2513H58.2502H58.2492H58.2481H58.2471H58.246H58.245H58.244H58.2429H58.2419H58.2408H58.2398H58.2387H58.2377H58.2367H58.2356H58.2346H58.2335H58.2325H58.2314H58.2304H58.2293H58.2283H58.2273H58.2262H58.2252H58.2241H58.2231H58.222H58.221H58.2199H58.2189H58.2179H58.2168H58.2158H58.2147H58.2137H58.2126H58.2116H58.2106H58.2095H58.2085H58.2074H58.2064H58.2053H58.2043H58.2032H58.2022H58.2012H58.2001H58.1991H58.198H58.197H58.1959H58.1949H58.1938H58.1928H58.1918H58.1907H58.1897H58.1886H58.1876H58.1865H58.1855H58.1845H58.1834H58.1824H58.1813H58.1803H58.1792H58.1782H58.1771H58.1761H58.1751H58.174H58.173H58.1719H58.1709H58.1698H58.1688H58.1678H58.1667H58.1657H58.1646H58.1636H58.1625H58.1615H58.1604H58.1594H58.1584H58.1573H58.1563H58.1552H58.1542H58.1531H58.1521H58.151H58.15H58.149H58.1479H58.1469H58.1458H58.1448H58.1437H58.1427H58.1417H58.1406H58.1396H58.1385H58.1375H58.1364H58.1354H58.1343H58.1333H58.1323H58.1312H58.1302H58.1291H58.1281H58.127H58.126H58.125H58.1239H58.1229H58.1218H58.1208H58.1197H58.1187H58.1176H58.1166H58.1156H58.1145H58.1135H58.1124H58.1114H58.1103H58.1093H58.1083H58.1072H58.1062H58.1051H58.1041H58.103H58.102H58.1009H58.0999H58.0989H58.0978H58.0968H58.0957H58.0947H58.0936H58.0926H58.0915H58.0905H58.0895H58.0884H58.0874H58.0863H58.0853H58.0842H58.0832H58.0822H58.0811H58.0801H58.079H58.078H58.0769H58.0759H58.0749H58.0738H58.0728H58.0717H58.0707H58.0696H58.0686H58.0675H58.0665H58.0655H58.0644H58.0634H58.0623H58.0613H58.0602H58.0592H58.0582H58.0571H58.0561H58.055H58.054H58.0529H58.0519H58.0508H58.0498H58.0488H58.0477H58.0467H58.0456H58.0446H58.0435H58.0425H58.0415H58.0404H58.0394H58.0383H58.0373H58.0362H58.0352H58.0341H58.0331H58.0321H58.031H58.03H58.0289H58.0279H58.0268H58.0258H58.0248H58.0237H58.0227H58.0216H58.0206H58.0195H58.0185H58.0174H58.0164H58.0154H58.0143H58.0133H58.0122H58.0112H58.0101H58.0091H58.0081H58.007H58.006H58.0049H58.0039H58.0028H58.0018H58.0008H57.9997H57.9987H57.9976H57.9966H57.9955H57.9945H57.9934H57.9924H57.9914H57.9903H57.9893H57.9882H57.9872H57.9861H57.9851H57.9841H57.983H57.982H57.9809H57.9799H57.9788H57.9778H57.9768H57.9757H57.9747H57.9736H57.9726H57.9715H57.9705H57.9694H57.9684H57.9674H57.9663H57.9653H57.9642H57.9632H57.9621H57.9611H57.9601H57.959H57.958H57.9569H57.9559H57.9548H57.9538H57.9528H57.9517H57.9507H57.9496H57.9486H57.9475H57.9465H57.9455H57.9444H57.9434H57.9423H57.9413H57.9402H57.9392H57.9381H57.9371H57.9361H57.935H57.934H57.9329H57.9319H57.9308H57.9298H57.9288H57.9277H57.9267H57.9256H57.9246H57.9235H57.9225H57.9215H57.9204H57.9194H57.9183H57.9173H57.9162H57.9152H57.9142H57.9131H57.9121H57.911H57.91H57.9089H57.9079H57.9069H57.9058H57.9048H57.9037H57.9027H57.9016H57.9006H57.8995H57.8985H57.8975H57.8964H57.8954H57.8943H57.8933H57.8922H57.8912H57.8902H57.8891H57.8881H57.887H57.886H57.8849H57.8839H57.8829H57.8818H57.8808H57.8797H57.8787H57.8776H57.8766H57.8756H57.8745H57.8735H57.8724H57.8714H57.8703H57.8693H57.8683H57.8672H57.8662H57.8651H57.8641H57.863H57.862H57.861H57.8599H57.8589H57.8578H57.8568H57.8557H57.8547H57.8537H57.8526H57.8516H57.8505H57.8495H57.8484H57.8474H57.8464H57.8453H57.8443H57.8432H57.8422H57.8411H57.8401H57.8391H57.838H57.837H57.8359H57.8349H57.8338H57.8328H57.8318H57.8307H57.8297H57.8286H57.8276H57.8265H57.8255H57.8245H57.8234H57.8224H57.8213H57.8203H57.8192H57.8182H57.8172H57.8161H57.8151H57.814H57.813H57.8119H57.8109H57.8099H57.8088H57.8078H57.8067H57.8057H57.8046H57.8036H57.8026H57.8015H57.8005H57.7994H57.7984H57.7973H57.7897M57.7897 10.5679C57.7923 10.5678 57.7948 10.5678 57.7973 10.5677C57.7988 10.5677 57.8003 10.5677 57.8018 10.5676L57.7973 10.3865L57.7971 10.3773L57.7971 10.3769L57.6621 10.5117L57.6624 10.512L57.7183 10.5679H57.7897ZM57.4701 20.0632L57.6161 20.186M57.4701 20.0632C56.7951 20.8655 56.0347 21.5534 55.1083 22.0317L55.1083 22.0317C54.5855 22.3017 54.0442 22.4807 53.4664 22.5185M57.4701 20.0632C57.4701 20.0632 57.4701 20.0632 57.4701 20.0632L57.6161 20.186M57.6161 20.186C56.9304 21.0009 56.1512 21.708 55.1959 22.2012C54.6558 22.4801 54.089 22.669 53.4789 22.7089M53.4664 22.5185C53.4664 22.5185 53.4664 22.5185 53.4665 22.5185L53.4789 22.7089M53.4664 22.5185C53.049 22.5457 52.6451 22.4849 52.2551 22.334M53.4664 22.5185L53.4789 22.7089M53.4789 22.7089C53.0341 22.7379 52.6024 22.673 52.1862 22.5119M52.2551 22.334C52.2551 22.334 52.2552 22.3341 52.2552 22.3341L52.1862 22.5119M52.2551 22.334C52.1534 22.2946 52.0134 22.2563 51.8574 22.3113L51.9206 22.4913M52.2551 22.334L52.1862 22.5119M52.1862 22.5119C52.0992 22.4782 52.0123 22.459 51.9206 22.4913M51.9206 22.4913C51.7921 22.5364 51.7051 22.654 51.7027 22.7873L51.8572 22.3113M51.9206 22.4913L51.8572 22.3113M51.8572 22.3113C51.6563 22.3819 51.5158 22.568 51.512 22.7839L51.512 22.7842M51.8572 22.3113L51.512 22.7842M48.8764 10.4267L48.8763 10.4266C48.6001 10.3627 48.4303 10.0962 48.5004 9.80275L48.5004 9.80263C48.6116 9.33831 48.7669 8.86281 49.092 8.45535C49.4848 7.96315 50.0117 7.77564 50.6146 7.83228L48.8764 10.4267ZM48.8764 10.4267C49.0139 10.4584 49.1518 10.4369 49.2666 10.361C49.3797 10.2862 49.4552 10.1689 49.4921 10.0342M48.8764 10.4267L49.4921 10.0342M52.442 8.39574L52.4421 8.39576C52.5199 8.42833 52.5974 8.46094 52.6748 8.49348C53.3239 8.76643 53.9608 9.0343 54.6262 9.22793L54.6263 9.22794C55.58 9.50563 56.5625 9.56429 57.5684 9.55604L57.5684 9.55604C57.7128 9.55486 57.8588 9.55214 58.0059 9.5494C58.5003 9.54019 59.0076 9.53073 59.5111 9.57875L59.5111 9.57875C59.8731 9.61339 60.2487 9.68149 60.5977 9.87148L60.5977 9.87151C61.1433 10.1688 61.3937 10.6563 61.4664 11.2256M52.442 8.39574L60.9672 13.7577C60.8339 14.4538 60.7006 15.1498 60.5506 15.8422M52.442 8.39574C52.409 8.3819 52.3758 8.36797 52.3424 8.35398M52.442 8.39574L52.3424 8.35398M61.4664 11.2256L61.2772 11.2497L61.4664 11.2256C61.4664 11.2256 61.4664 11.2256 61.4664 11.2256ZM61.4664 11.2256C61.5366 11.7743 61.4443 12.3045 61.3456 12.8062L61.3456 12.8062C61.2811 13.1332 61.2182 13.4617 61.1552 13.7907C61.0216 14.488 60.8876 15.188 60.7371 15.8825M60.7371 15.8825L60.5506 15.8422M60.7371 15.8825C60.7371 15.8825 60.7371 15.8825 60.7371 15.8825L60.5506 15.8422M60.7371 15.8825C60.4417 17.2468 59.8484 18.4817 59.0828 19.6277C58.4228 20.6161 57.6407 21.501 56.6928 22.2349L56.6927 22.2349C55.9492 22.8105 55.1295 23.2596 54.1841 23.4582L60.5506 15.8422M51.512 22.7842C51.5102 22.8927 51.539 22.9974 51.6027 23.0872C51.6658 23.1761 51.7555 23.2396 51.8586 23.2801M51.512 22.7842L51.8586 23.2801M49.4921 10.0342C49.5765 9.72762 49.6598 9.44916 49.8118 9.20127L49.4921 10.0342ZM52.3424 8.35398C51.8069 8.12918 51.239 7.89083 50.6146 7.83228L52.3424 8.35398ZM51.8586 23.2801C52.6175 23.5788 53.397 23.6237 54.184 23.4582L51.8586 23.2801Z" stroke="#091f2f" stroke-opacity="0.9" stroke-width="0.381584"/>
<path d="M55.1222 19.4533C54.9994 18.7924 54.7273 18.2203 54.1954 17.8017C53.9509 17.6092 53.6696 17.519 53.352 17.5536C53.1653 17.5741 53.0158 17.4436 52.9987 17.2633C52.9814 17.0813 53.1023 16.9359 53.2935 16.9157C53.8675 16.8552 54.3551 17.0538 54.7656 17.4401C55.3296 17.9708 55.6605 18.6301 55.7798 19.3937C55.8055 19.5579 55.804 19.7256 55.7458 19.8864C55.6506 20.1502 55.4163 20.2678 55.1479 20.1855C54.9987 20.1399 54.8677 20.0577 54.7378 19.9743C54.4316 19.7779 54.1329 19.569 53.7932 19.4305C53.5791 19.3433 53.3589 19.2844 53.1289 19.2602C52.927 19.239 52.8029 19.0984 52.8182 18.9131C52.8334 18.7297 52.9816 18.6087 53.1838 18.6244C53.7179 18.666 54.194 18.871 54.6435 19.149C54.8043 19.2485 54.9628 19.3519 55.1224 19.4533H55.1222Z" fill="#091f2f" fill-opacity="0.9"/>
<path d="M57.1611 15.0187C56.168 15.0363 55.2519 14.3221 55.0357 13.3628C55.0048 13.2257 55.02 13.1009 55.1338 13.0064C55.2293 12.9273 55.3396 12.9071 55.4567 12.9532C55.5736 12.9993 55.6294 13.0922 55.6612 13.2109C55.8204 13.807 56.2013 14.1914 56.7997 14.3302C57.4376 14.478 57.9705 14.2812 58.3782 13.7652C58.4447 13.6811 58.5134 13.6091 58.6236 13.5956C58.7571 13.579 58.8671 13.6248 58.9394 13.7396C59.0173 13.8629 59.0075 13.9878 58.9249 14.1064C58.7407 14.3703 58.5096 14.5834 58.2276 14.7388C57.8771 14.9317 57.5659 15.0113 57.1608 15.0184L57.1611 15.0187Z" fill="#091f2f" fill-opacity="0.9"/>
<path d="M53.7808 12.6384C53.9151 12.6344 54.0117 12.6916 54.0707 12.7997C54.1317 12.9114 54.1279 13.0285 54.0548 13.1366C53.8533 13.4343 53.5891 13.6619 53.27 13.8249C53.0757 13.9242 52.8714 13.9966 52.6549 14.0328C52.4751 14.0627 52.3097 13.9506 52.276 13.7743C52.2437 13.6065 52.3539 13.4376 52.5302 13.4041C52.9502 13.3243 53.2859 13.1166 53.5342 12.7674C53.5948 12.6821 53.6803 12.636 53.7808 12.6384Z" fill="#091f2f" fill-opacity="0.9"/>
<path d="M49.5326 19.4906C49.4538 20.4792 49.1784 21.4468 48.5747 22.3017C48.2856 22.711 47.9226 23.0374 47.4339 23.1909C46.8784 23.3653 46.3522 23.2501 45.8523 22.9887C45.1536 22.6236 44.6102 22.0812 44.1455 21.454C43.8878 21.1059 43.6644 20.7384 43.5254 20.3248C43.4784 20.1853 43.4466 20.0432 43.4551 19.894C43.4706 19.6267 43.6537 19.4362 43.9205 19.4108C44.1054 19.3932 44.2829 19.4324 44.4591 19.4797C44.8602 19.5873 45.2574 19.7078 45.6698 19.7705C46.3683 19.8769 46.9834 19.6831 47.5462 19.2758C47.832 19.0689 48.0958 18.8351 48.3728 18.6178C48.4818 18.5322 48.5947 18.4507 48.7234 18.3973C49.0399 18.2654 49.3219 18.3873 49.4421 18.7087C49.531 18.947 49.5355 19.1965 49.5329 19.4906H49.5326ZM44.1253 20.0568C44.1396 20.1599 44.1721 20.2316 44.2052 20.3027C44.4805 20.8964 44.8766 21.4015 45.3505 21.8474C45.6523 22.1315 45.9839 22.3734 46.3752 22.5219C46.8739 22.711 47.3296 22.6514 47.7313 22.2831C47.8575 22.1677 47.972 22.0422 48.0687 21.9016C48.5438 21.21 48.7859 20.4359 48.8731 19.6085C48.8919 19.4305 48.9092 19.2504 48.8605 19.0563C48.7907 19.111 48.7315 19.1556 48.674 19.2024C48.4008 19.4248 48.1326 19.6531 47.8423 19.8536C47.2471 20.2647 46.5966 20.4835 45.8666 20.4355C45.5216 20.4129 45.1847 20.3447 44.8516 20.2554C44.6155 20.192 44.38 20.1266 44.1253 20.057V20.0568Z" fill="#091f2f" fill-opacity="0.9"/>
<path d="M41.3602 16.9856C41.3915 16.7644 41.4735 16.5304 41.5958 16.3109C42.3485 14.9598 44.2311 14.8089 45.188 16.0229C45.2391 16.0878 45.2952 16.151 45.3109 16.2368C45.3391 16.3914 45.2641 16.5392 45.1267 16.5993C44.9868 16.6604 44.8338 16.6228 44.7369 16.49C44.5573 16.2436 44.3313 16.0586 44.0477 15.9462C43.1895 15.606 42.2307 16.1025 42.0109 17.0003C42.0023 17.035 41.9962 17.0702 41.9862 17.1042C41.9396 17.2633 41.7888 17.3626 41.6334 17.3372C41.4685 17.3101 41.3599 17.1821 41.3604 16.9856H41.3602Z" fill="#091f2f" fill-opacity="0.9"/>
<path d="M50.1803 15.2731C50.1794 15.4054 50.0917 15.5278 49.966 15.5717C49.8304 15.6195 49.6971 15.5836 49.6059 15.4663C49.5108 15.3439 49.4115 15.227 49.2887 15.131C48.4199 14.4516 47.15 14.8844 46.8768 15.954C46.868 15.9885 46.8616 16.0236 46.8526 16.0581C46.8067 16.232 46.6432 16.3353 46.4724 16.2992C46.3018 16.2629 46.1964 16.1025 46.2251 15.9234C46.3648 15.0533 47.1395 14.3028 48.0281 14.189C48.8717 14.0809 49.5583 14.3675 50.0841 15.0362C50.1563 15.1282 50.1808 15.1976 50.1803 15.2733V15.2731Z" fill="#091f2f" fill-opacity="0.9"/>
</g>
</svg>
