<svg width="100" height="80" viewBox="0 0 100 80" fill="none" xmlns="http://www.w3.org/2000/svg">
<g opacity="0.5">
<path opacity="0.5" d="M100 68.7031H0L0 79.467H100V68.7031Z" fill="#091f2f"/>
<g opacity="0.9">
<path d="M30.0859 42.125C30.4381 42.1606 30.3986 42.4258 30.3986 42.6645C30.3986 48.5518 30.3986 54.4377 30.3973 60.325C30.3973 60.5295 30.4711 60.792 30.1295 60.8157C30.1308 54.7372 30.1334 48.6573 30.1321 42.5788C30.1321 42.4271 30.1018 42.2767 30.0859 42.125Z" fill="#3c7297" stroke="#091f2f" stroke-width="1.14475"/>
<path d="M69.9829 30.5342C69.818 30.5619 69.665 30.5579 69.6399 30.3455C69.6228 30.1938 69.6228 30.0395 69.6228 29.8851C69.6228 24.2657 69.6201 18.6475 69.6307 13.028C69.6307 12.7774 69.4381 12.3553 69.9829 12.3685C69.8352 12.631 69.8655 12.9199 69.8655 13.2035C69.8655 18.7267 69.8642 24.2512 69.8681 29.7743C69.8681 30.0289 69.793 30.3033 69.9816 30.5328L69.9829 30.5342Z" fill="#3c7297" stroke="#091f2f" stroke-width="1.14475"/>
<path d="M30.0801 12.3695C30.5365 12.4222 30.3927 12.7797 30.394 13.0317C30.4033 15.3784 30.3993 17.7251 30.3993 20.0719C30.3993 23.3393 30.4019 26.6068 30.394 29.8743C30.394 30.1249 30.5405 30.4851 30.0801 30.5339C30.0985 30.3162 30.1328 30.0999 30.1328 29.8822C30.1355 24.2838 30.1355 18.6868 30.1328 13.0884C30.1328 12.8483 30.0985 12.6082 30.0814 12.3682L30.0801 12.3695Z" fill="#3c7297" stroke="#091f2f" stroke-width="1.14475"/>
<path d="M70.9736 11.3761C70.9697 9.25489 70.9736 7.13242 70.9551 5.01126C70.9512 4.57331 71.1345 4.45855 71.5435 4.45063C72.8151 4.42557 72.827 4.41238 72.8098 3.11172C72.8006 2.41522 72.8903 1.71345 72.7505 1.0209C73.1093 0.925926 73.0868 1.1726 73.0868 1.39817C73.0868 2.36114 73.075 3.32542 73.0934 4.28838C73.1 4.63004 72.9826 4.72897 72.6436 4.7448C72.1819 4.76722 71.5619 4.49416 71.2981 4.88726C71.0844 5.20649 71.2427 5.77767 71.2401 6.23673C71.2348 7.72603 71.2335 9.214 71.2256 10.7033C71.2256 10.9539 71.2955 11.2415 70.9749 11.3761H70.9736Z" fill="#3c7297" stroke="#091f2f" stroke-width="1.14475"/>
<path d="M28.8148 4.73926C29.1498 4.77092 29.0786 5.02947 29.0786 5.23393C29.0852 7.3696 29.0865 9.50394 29.0905 11.6396C28.7172 11.5051 28.8227 11.1792 28.8214 10.9154C28.8122 8.85625 28.8161 6.7971 28.8148 4.73926Z" fill="#3c7297" stroke="#091f2f" stroke-width="1.14475"/>
<path d="M28.7962 34.4678C29.0785 34.5324 29.0838 34.7461 29.0838 34.9783C29.0851 36.9306 29.0917 38.8816 29.097 40.8339C29.097 40.9697 29.0812 41.0964 28.9427 41.1676C28.7474 40.9183 28.8239 40.6241 28.8213 40.3498C28.8068 38.3895 28.8028 36.4293 28.7949 34.4691L28.7962 34.4678Z" fill="#3c7297" stroke="#091f2f" stroke-width="1.14475"/>
<path d="M73.137 63.7481C72.8271 63.7402 72.8139 63.5252 72.8152 63.293C72.8178 62.7917 72.7848 62.2878 72.8231 61.7905C72.864 61.2642 72.7097 61.0347 72.1424 61.0821C71.5805 61.1296 71.0106 61.0927 70.4447 61.0927C70.206 61.0927 69.9474 61.1296 69.8867 60.7959C70.7824 60.8051 71.6794 60.8328 72.5751 60.8144C72.9695 60.8065 73.108 60.9107 73.0975 61.3249C73.0777 62.1322 73.1199 62.9395 73.1357 63.7481H73.137Z" fill="#3c7297" stroke="#091f2f" stroke-width="1.14475"/>
<path d="M30.129 60.8174C30.1 61.2105 29.7953 61.0773 29.5842 61.0891C28.7188 61.1392 27.8469 61.0073 26.9842 61.163C26.8839 60.7435 27.1953 60.8266 27.4129 60.8253C28.3178 60.8174 29.2241 60.8187 30.129 60.8174Z" fill="#3c7297" stroke="#091f2f" stroke-width="1.14475"/>
<path d="M26.9842 4.39648C27.434 4.51784 27.8943 4.42682 28.3481 4.4598C28.5473 4.47431 28.8191 4.37934 28.8138 4.73946C28.331 4.73682 27.8495 4.73418 27.3667 4.73286C27.1411 4.73286 26.8958 4.75397 26.9828 4.39648H26.9842Z" fill="#3c7297" stroke="#091f2f" stroke-width="1.14475"/>
<path d="M70.1152 12.368C70.1667 12.2071 70.2194 12.0462 70.4463 12.1068C70.449 12.3377 70.2907 12.3628 70.1152 12.368Z" fill="#3c7297" stroke="#091f2f" stroke-width="1.14475"/>
<path d="M29.5547 12.1056C29.7618 12.0805 29.862 12.2151 29.9504 12.3681C29.7315 12.4116 29.5916 12.3377 29.5547 12.1056Z" fill="#3c7297" stroke="#091f2f" stroke-width="1.14475"/>
<path d="M70.4479 12.1053C70.4387 11.918 70.5258 11.8296 70.7144 11.8481C70.7368 12.0486 70.6511 12.1396 70.4479 12.1053Z" fill="#3c7297" stroke="#091f2f" stroke-width="1.14475"/>
<path d="M70.7164 11.8442C70.6729 11.6344 70.8285 11.5751 70.9723 11.5078C70.9868 11.6951 70.9723 11.8627 70.7164 11.8442Z" fill="#3c7297" stroke="#091f2f" stroke-width="1.14475"/>
<path d="M50.0079 26.8564C44.6562 26.8564 39.3058 26.8472 33.9554 26.8696C33.4027 26.8722 33.2747 26.7271 33.2774 26.1836C33.3011 21.8609 33.2945 17.5381 33.2853 13.214C33.2853 12.7615 33.2932 12.5017 33.9053 12.5689C34.4263 12.6257 34.9382 12.3275 35.3616 12.0057C35.5397 11.8711 35.5054 11.8658 35.7099 12.0123C36.7889 12.78 37.4155 12.8143 38.5473 12.0096C38.7676 11.8526 38.7227 11.9199 38.8916 12.0241C40.1131 12.776 40.5682 12.8117 41.7303 11.9991C41.8886 11.8883 41.915 11.8487 42.076 11.9674C43.0389 12.6784 44.0019 12.9014 44.9543 11.9305C45.0796 11.8025 45.2353 11.854 45.4081 11.9674C46.7562 12.8499 46.7681 12.7576 48.0516 12.069C48.322 11.9239 48.4553 11.8526 48.7296 12.098C49.5053 12.7932 50.2268 12.7708 51.4009 12.0281C51.6106 11.8962 51.5987 11.9028 51.8019 12.0426C52.8598 12.7708 53.4745 12.7892 54.6011 12.0373C54.7567 11.9331 54.7185 11.8487 54.952 11.9977C56.2144 12.8011 56.5705 12.8473 57.8092 11.945C58.0651 11.7577 58.0994 11.9793 58.2194 12.0439C58.9093 12.4146 59.6388 12.9343 60.3854 12.3526C61.0239 11.854 61.5041 12.0136 62.0739 12.3737C62.8641 12.8737 63.55 12.4608 64.2043 12.0466C64.4325 11.9028 64.509 11.8711 64.7452 12.0782C65.158 12.441 65.6923 12.6956 66.2635 12.5729C66.8175 12.4542 66.7463 12.7734 66.7463 13.1045C66.7436 16.4181 66.745 19.7318 66.745 23.0454C66.745 24.0994 66.7054 25.1547 66.7608 26.2047C66.7911 26.7878 66.5814 26.8696 66.063 26.867C60.7126 26.8485 55.3609 26.8551 50.0105 26.8551L50.0079 26.8564Z" fill="#98b3cb" stroke="#091f2f" stroke-width="1.14475"/>
<path d="M42.532 56.6019C39.5705 56.6019 36.6078 56.5926 33.6464 56.6124C33.1913 56.6151 33.0514 56.4977 33.0527 56.0307C33.0699 51.5734 33.0673 47.1173 33.0554 42.66C33.0554 42.2484 33.1253 42.0638 33.5896 42.1324C34.1898 42.2207 34.7491 42.1073 35.224 41.6641C35.4298 41.4715 35.7029 41.5071 35.9152 41.7247C36.5273 42.35 37.8253 42.3395 38.448 41.6139C38.7065 41.3132 38.8529 41.482 39.0152 41.6337C39.6194 42.2023 40.6206 42.379 41.3316 41.8764C41.7313 41.5942 42.032 41.5176 42.4924 41.8474C43.1348 42.3091 43.9065 42.3263 44.5727 41.8619C45.0331 41.5401 45.4024 41.6139 45.8047 41.8883C46.5659 42.4041 47.3336 42.1957 47.9998 41.7696C48.3388 41.5519 48.4826 41.5796 48.7649 41.7736C49.6579 42.3843 50.5826 42.2854 51.3662 41.6008C51.7738 41.2446 51.878 41.5968 51.9862 41.8329C52.0627 41.9991 52.0257 42.2207 52.0257 42.4173C52.0271 46.8957 52.0165 51.3755 52.0389 55.8539C52.0416 56.4396 51.9057 56.6256 51.2857 56.6177C48.3678 56.5808 45.4499 56.6019 42.532 56.6019Z" fill="#98b3cb" stroke="#091f2f" stroke-width="1.14475"/>
<path d="M66.4178 60.8357C63.1292 60.8357 59.8393 60.8239 56.5507 60.8516C56.0389 60.8555 55.9518 60.7012 55.9531 60.2289C55.9703 54.4142 55.9703 48.6008 55.9531 42.7861C55.9518 42.2941 56.0455 42.058 56.5863 42.1358C56.8106 42.1688 57.0375 42.1464 57.2525 41.9617C57.672 41.6016 58.106 41.4762 58.6402 41.8733C59.2787 42.3455 60.0332 42.3112 60.6505 41.8482C61.1136 41.5013 61.4341 41.6438 61.8219 41.8812C62.6213 42.3706 63.3891 42.2242 64.1093 41.7097C64.2439 41.6134 64.443 41.5132 64.5037 41.5686C65.0551 42.0672 65.7384 42.0844 66.4138 42.1398C66.4376 42.3324 66.4811 42.5249 66.4811 42.7189C66.4851 48.5877 66.4851 54.4551 66.4811 60.3239C66.4811 60.4941 66.4376 60.6643 66.4138 60.8357H66.4178Z" fill="#98b3cb" stroke="#091f2f" stroke-width="1.14475"/>
<path d="M49.9677 30.5873C43.8246 30.5873 37.6827 30.5873 31.5395 30.5873C30.9494 30.5873 30.654 30.2874 30.6531 29.6876C30.6531 24.2212 30.657 18.756 30.6465 13.2896C30.6465 12.7078 30.6399 12.2211 31.4432 12.2989C31.7084 12.324 31.8614 12.0298 32.083 11.9071C32.4049 11.7277 32.579 11.7699 32.5803 12.1696C32.5803 12.3675 32.5843 12.5654 32.5843 12.7619C32.5843 17.4382 32.5935 22.1132 32.5724 26.7895C32.5698 27.3726 32.6951 27.577 33.3256 27.5757C44.4037 27.5559 55.483 27.5572 66.561 27.5744C67.1203 27.5744 67.2523 27.4082 67.2496 26.8713C67.2298 22.195 67.2377 17.52 67.2391 12.8437C67.2391 12.6458 67.1876 12.4216 67.2628 12.258C67.3802 12.0034 67.4831 11.5272 67.9224 11.9995C68.0081 12.0918 68.1321 12.1854 68.2522 12.2052C69.2178 12.3675 69.1795 13.0534 69.1769 13.8053C69.1571 19.161 69.1571 24.518 69.1808 29.8736C69.1835 30.4474 69.0516 30.6044 68.4619 30.6018C62.2976 30.578 56.1333 30.5873 49.9677 30.5873Z" fill="#3c7297" stroke="#091f2f" stroke-width="1.14475"/>
<path d="M43.036 61.0857C39.2408 61.0857 35.447 61.0857 31.6519 61.0857C30.7641 61.0857 30.6546 60.9775 30.6546 60.1174C30.6546 54.4333 30.656 48.7479 30.6507 43.0637C30.6507 42.5598 30.6164 42.209 31.2984 41.9702C32.6003 41.5138 32.566 41.4162 32.566 42.8316C32.566 47.3747 32.574 51.9177 32.5555 56.4621C32.5542 56.9555 32.6478 57.123 33.1874 57.1217C39.4822 57.1006 45.7771 57.1006 52.0733 57.1217C52.6379 57.123 52.7474 56.9528 52.7447 56.4239C52.7236 51.8808 52.7395 47.3377 52.7223 42.7946C52.721 42.2881 52.7896 41.9979 53.3845 42.081C53.7644 42.1338 54.0309 41.8224 54.3501 41.6813C54.5427 41.5969 54.6271 41.1721 54.9015 41.4148C55.1403 41.6259 55.5044 41.7895 55.4753 42.2129C55.4674 42.3224 55.4753 42.4319 55.4753 42.5427C55.4753 48.4247 55.4753 54.3067 55.4753 60.1887C55.4753 60.9551 55.3474 61.0857 54.5533 61.087C50.7146 61.0909 46.8759 61.0883 43.0373 61.0883L43.036 61.0857Z" fill="#3c7297" stroke="#091f2f" stroke-width="1.14475"/>
<path d="M50.0394 1.51154C57.2551 1.51154 64.4707 1.51154 71.6863 1.51154C72.2799 1.51154 72.5772 1.80659 72.578 2.39668C72.5798 3.61027 71.969 4.21663 70.7458 4.21575C56.643 4.21575 42.5415 4.21575 28.4387 4.21575C27.7932 4.21575 27.4701 3.89828 27.4692 3.26334C27.4692 2.89003 27.5048 2.51276 27.4613 2.14472C27.3979 1.59992 27.6341 1.49967 28.1287 1.50099C35.4314 1.5155 42.7354 1.51022 50.0381 1.51022L50.0394 1.51154Z" fill="#3c7297" stroke="#091f2f" stroke-width="1.14475"/>
<path d="M49.9555 64.0539C42.7188 64.0539 35.482 64.0446 28.244 64.0697C27.6029 64.0723 27.3852 63.9048 27.4591 63.2703C27.5119 62.8152 27.4802 62.3496 27.467 61.8892C27.4551 61.5093 27.5884 61.3061 27.9999 61.3457C28.1741 61.3628 28.3508 61.3483 28.5263 61.3483C42.8902 61.3483 57.2555 61.3483 71.6195 61.3483C72.2588 61.3483 72.5785 61.675 72.5785 62.3284C72.5785 63.4787 72.0117 64.0539 70.8782 64.0539H49.9568H49.9555Z" fill="#3c7297" stroke="#091f2f" stroke-width="1.14475"/>
<path d="M49.882 33.7511C42.6427 33.7511 35.4033 33.7471 28.1639 33.7603C27.6468 33.7603 27.2973 33.7774 27.4503 33.0717C27.5466 32.6311 27.4938 32.1523 27.4608 31.6932C27.4252 31.1933 27.5782 30.9954 28.1164 31.0139C29.2337 31.0548 30.3537 31.0271 31.4723 31.0271C44.81 31.0271 58.1477 31.031 71.4854 31.0165C72.5011 31.0165 72.5934 31.2474 72.5816 32.0903C72.5578 33.7511 72.5763 33.7511 70.9406 33.7511C63.9202 33.7511 56.9011 33.7511 49.8807 33.7511H49.882Z" fill="#3c7297" stroke="#091f2f" stroke-width="1.14475"/>
<path d="M67.2251 51.2238C67.2251 48.2175 67.2212 45.2112 67.2317 42.2049C67.2317 41.9754 67.109 41.7063 67.4599 41.5295C67.7963 41.3607 67.9282 41.5757 68.1221 41.7248C68.1551 41.7498 68.1841 41.7986 68.2184 41.8013C69.3885 41.9108 69.1669 42.7827 69.1669 43.532C69.1669 49.1053 69.1563 54.6799 69.1814 60.2532C69.184 60.926 68.9862 61.1898 68.324 61.0869C68.196 61.0671 68.0588 61.0684 67.9295 61.0869C67.3689 61.1674 67.2119 60.9101 67.2159 60.3746C67.2343 57.3248 67.2251 54.2736 67.2251 51.2238Z" fill="#3c7297" stroke="#091f2f" stroke-width="1.14475"/>
<path d="M48.0346 7.96829C48.0346 8.84551 48.0385 9.72273 48.0346 10.5999C48.0306 11.3136 47.6349 11.8004 47.0439 11.8267C46.0308 11.8742 45.4847 11.5273 45.4702 10.7121C45.4372 8.84815 45.4636 6.98422 45.4557 5.11898C45.4557 4.83009 45.5823 4.72983 45.8488 4.73247C46.4622 4.73643 47.0769 4.74566 47.6903 4.72983C48.0636 4.71928 48.0438 4.9554 48.0425 5.20472C48.0399 6.12547 48.0425 7.04754 48.0425 7.96829C48.0399 7.96829 48.0385 7.96829 48.0359 7.96829H48.0346Z" fill="#98b3cb" stroke="#091f2f" stroke-width="1.14475"/>
<path d="M60.9163 7.47427C60.973 8.39634 60.8332 9.65347 60.7408 10.9132C60.6841 11.6862 60.5153 11.8261 59.6578 11.8287C58.9033 11.8313 58.3532 11.4659 58.3466 10.8803C58.3268 8.94906 58.3414 7.01785 58.3374 5.08665C58.3374 4.84921 58.402 4.7041 58.6698 4.73181C58.7134 4.73576 58.7582 4.72521 58.8017 4.73181C59.5022 4.85185 60.4652 4.35058 60.853 4.99431C61.1722 5.52592 60.9176 6.40314 60.9176 7.47163L60.9163 7.47427Z" fill="#98b3cb" stroke="#091f2f" stroke-width="1.14475"/>
<path d="M45.4577 37.588C45.4577 36.7095 45.4748 35.8323 45.4498 34.955C45.4392 34.5791 45.5777 34.4287 45.9352 34.4445C45.9576 34.4445 45.9787 34.4445 46.0012 34.4445C46.6555 34.4788 47.4852 34.1781 47.9139 34.5646C48.3215 34.9313 48.0247 35.7676 48.0353 36.3969C48.0551 37.6698 48.0405 38.9428 48.0339 40.2157C48.03 40.8964 47.3401 41.6034 46.7254 41.5705C46.1014 41.5362 45.4682 40.8726 45.4617 40.2236C45.4524 39.3464 45.459 38.4679 45.459 37.5893L45.4577 37.588Z" fill="#98b3cb" stroke="#091f2f" stroke-width="1.14475"/>
<path d="M58.3378 37.6415C58.3378 36.7418 58.351 35.8422 58.3312 34.9425C58.3233 34.5916 58.4038 34.4188 58.7943 34.4373C59.3193 34.4624 59.8482 34.4637 60.3733 34.4373C60.8547 34.4135 60.9629 34.6325 60.9352 35.0692C60.8969 35.6812 60.8706 36.2999 60.918 36.9107C61.0077 38.0715 60.7096 39.2059 60.7413 40.3615C60.7532 40.7744 60.6898 41.1226 60.2268 41.3495C59.6781 41.6173 59.2348 41.5223 58.7995 41.1807C58.4922 40.9379 58.3101 40.6438 58.3273 40.2085C58.3616 39.3537 58.3378 38.4976 58.3378 37.6415Z" fill="#98b3cb" stroke="#091f2f" stroke-width="1.14475"/>
<path d="M35.1463 8.04361C35.1463 8.94193 35.1516 9.83894 35.145 10.7373C35.1397 11.4219 34.678 11.8295 33.9287 11.8295C33.0265 11.8295 32.7692 11.6105 32.764 10.7755C32.7547 8.93666 32.7732 7.09647 32.7521 5.25761C32.7468 4.8157 32.9025 4.69566 33.318 4.726C33.9024 4.76953 34.6688 4.54792 35.0263 4.84209C35.4075 5.15472 35.1239 5.95015 35.1463 6.53321C35.1661 7.03579 35.1503 7.5397 35.1503 8.04361H35.1463Z" fill="#98b3cb" stroke="#091f2f" stroke-width="1.14475"/>
<path d="M64.8978 8.07915C64.8978 7.13729 64.9097 6.19411 64.8912 5.25358C64.8833 4.88158 64.9545 4.68239 65.3898 4.72593C65.994 4.78661 66.7723 4.48453 67.1614 4.84201C67.5268 5.17707 67.263 5.95931 67.2696 6.545C67.2841 7.94723 67.2775 9.34947 67.2722 10.7517C67.2696 11.4205 66.7973 11.8294 66.0494 11.8294C65.1313 11.8294 64.9044 11.6276 64.8978 10.7741C64.8912 9.8758 64.8965 8.97747 64.8965 8.07915H64.8978Z" fill="#98b3cb" stroke="#091f2f" stroke-width="1.14475"/>
<path d="M41.4939 8.03982C41.4939 8.96057 41.5018 9.88132 41.4913 10.8008C41.4833 11.5131 41.0837 11.8363 40.2566 11.8284C39.5864 11.8231 39.1208 11.4076 39.1182 10.7928C39.1129 8.95266 39.1287 7.11115 39.1076 5.27097C39.1023 4.84885 39.2144 4.68924 39.6524 4.72353C40.2368 4.77102 40.9953 4.54677 41.3659 4.8383C41.7656 5.15225 41.4688 5.94504 41.4979 6.52678C41.5229 7.02937 41.5031 7.53459 41.5031 8.0385C41.5005 8.0385 41.4979 8.0385 41.4952 8.0385L41.4939 8.03982Z" fill="#98b3cb" stroke="#091f2f" stroke-width="1.14475"/>
<path d="M52.0123 8.02555C52.0123 7.0837 52.0281 6.14052 52.0044 5.19866C51.9951 4.82139 52.1191 4.6974 52.4898 4.72906C53.0953 4.77918 53.8723 4.48634 54.264 4.8425C54.6321 5.17624 54.3683 5.9598 54.3749 6.54417C54.3907 7.9253 54.3801 9.30511 54.3775 10.6862C54.3762 11.4276 53.9659 11.8299 53.2167 11.8312C52.408 11.8326 52.0163 11.4751 52.0136 10.7218C52.011 9.82352 52.0136 8.9252 52.0136 8.02555H52.0123Z" fill="#98b3cb" stroke="#091f2f" stroke-width="1.14475"/>
<path d="M52.0124 37.7413C52.0124 36.8007 52.0269 35.8589 52.0045 34.9183C51.9952 34.5516 52.0994 34.4131 52.4793 34.4368C53.0861 34.4751 53.8631 34.2508 54.2588 34.549C54.6388 34.8339 54.3683 35.6544 54.3749 36.2388C54.3921 37.6397 54.3828 39.0406 54.3762 40.4402C54.3736 41.0694 53.8341 41.5694 53.1864 41.5641C52.5334 41.5588 52.0176 41.0668 52.0137 40.4323C52.0084 39.5353 52.0137 38.6383 52.0124 37.7399V37.7413Z" fill="#98b3cb" stroke="#091f2f" stroke-width="1.14475"/>
<path d="M65.3755 41.3349C65.0629 41.1673 64.8927 40.9365 64.8953 40.5526C64.9072 38.6689 64.9099 36.7852 64.8887 34.9015C64.8848 34.5058 65.0365 34.4147 65.3874 34.4398C65.9942 34.4833 66.7725 34.1971 67.1616 34.5493C67.527 34.8791 67.2632 35.6679 67.2698 36.2536C67.2843 37.6334 67.283 39.0132 67.2698 40.3943C67.2632 41.1331 66.3952 41.7082 65.7884 41.3942C65.6499 41.3744 65.5127 41.3547 65.3755 41.3362V41.3349Z" fill="#98b3cb" stroke="#091f2f" stroke-width="1.14475"/>
<path d="M41.4917 37.7827C41.4917 38.6824 41.5009 39.5833 41.489 40.483C41.4811 41.0806 40.9535 41.5581 40.3269 41.5647C39.8401 41.5699 39.1278 41.0172 39.1238 40.5648C39.1067 38.6323 39.1172 36.7011 39.1133 34.7685C39.1133 34.5548 39.1779 34.4335 39.4101 34.448C39.476 34.4519 39.542 34.4414 39.608 34.4453C40.2148 34.481 40.9891 34.1908 41.3848 34.5588C41.7555 34.9044 41.4758 35.6814 41.4983 36.2671C41.5167 36.771 41.5022 37.2762 41.5022 37.7814C41.4996 37.7814 41.4956 37.7814 41.493 37.7814L41.4917 37.7827Z" fill="#98b3cb" stroke="#091f2f" stroke-width="1.14475"/>
<path d="M32.7629 37.6942C32.7629 36.7747 32.7747 35.8553 32.7563 34.9359C32.7497 34.5876 32.8222 34.4109 33.2193 34.4359C33.7205 34.4676 34.2258 34.465 34.727 34.4373C35.0872 34.4175 35.161 34.5678 35.1584 34.895C35.1439 36.7339 35.1544 38.5714 35.1439 40.4103C35.1412 40.9498 34.4184 41.5975 33.8999 41.5619C33.2549 41.5183 32.7734 41.0606 32.7668 40.4498C32.7549 39.5304 32.7642 38.611 32.7629 37.6915V37.6942Z" fill="#98b3cb" stroke="#091f2f" stroke-width="1.14475"/>
<path d="M66.418 60.8353C66.4417 60.6651 66.4852 60.4949 66.4852 60.3235C66.4892 54.4547 66.4892 48.5872 66.4852 42.7184C66.4852 42.5258 66.4417 42.3332 66.418 42.1393C66.5842 42.1248 66.7332 42.1472 66.753 42.3517C66.7675 42.5034 66.7675 42.6577 66.7675 42.8107C66.7675 48.5951 66.7702 54.3795 66.7596 60.1638C66.7596 60.4118 66.9667 60.8366 66.418 60.8353Z" fill="#3c7297" stroke="#091f2f" stroke-width="1.14475"/>
<path d="M70.641 4.87305V10.9028C70.6159 10.9028 70.5895 10.9028 70.5645 10.9028V4.87305C70.5895 4.87305 70.6159 4.87305 70.641 4.87305Z" fill="#3c7297" stroke="#091f2f" stroke-width="1.14475"/>
<path d="M65.377 41.335C65.5141 41.3547 65.6527 41.3732 65.7898 41.393C65.5933 41.7953 65.493 41.5078 65.377 41.335Z" fill="#3c7297" stroke="#091f2f" stroke-width="1.14475"/>
<path d="M29.4688 11.207L29.4648 11.1621L29.5057 11.1806L29.4688 11.207Z" fill="#3c7297" stroke="#091f2f" stroke-width="1.14475"/>
<path d="M44.5564 46.8664C44.6647 46.9643 44.7913 47.0397 44.929 47.0883C45.0666 47.1369 45.2126 47.1578 45.3583 47.1496C45.3892 47.0045 45.3912 46.8548 45.364 46.709C45.3369 46.5632 45.2812 46.4241 45.2001 46.2999C44.978 46.1054 44.6895 46.004 44.3946 46.0167C44.3645 46.1602 44.3633 46.3083 44.3911 46.4523C44.4189 46.5963 44.4751 46.7333 44.5564 46.8553V46.8664Z" fill="#98b3cb" stroke="#091f2f" stroke-width="0.22816"/>
<path d="M46.0945 47.7499C46.1081 47.6656 46.1047 47.5795 46.0844 47.4966C46.0641 47.4137 46.0273 47.3358 45.9763 47.2674C45.9252 47.199 45.8609 47.1416 45.7872 47.0986C45.7135 47.0555 45.6319 47.0277 45.5473 47.0169C45.4627 47.006 45.3767 47.0123 45.2945 47.0354C45.2124 47.0584 45.1357 47.0977 45.069 47.151C45.0023 47.2043 44.9471 47.2704 44.9065 47.3455C44.8659 47.4206 44.8409 47.5031 44.8328 47.588C44.7482 48.2464 44.1524 48.6694 44.0972 49.2212C44.0742 49.5211 44.1673 49.8184 44.3573 50.0517C44.5473 50.285 44.8196 50.4364 45.118 50.4746C45.4164 50.5129 45.718 50.435 45.9607 50.2572C46.2033 50.0794 46.3684 49.8152 46.4218 49.5191C46.477 48.9674 46.0062 48.4303 46.0945 47.7499Z" fill="#98b3cb" stroke="#091f2f" stroke-width="0.22816"/>
<path d="M45.6787 47.1313L45.3477 47.0908C45.3622 46.9614 45.3696 46.8312 45.3697 46.7009C45.3697 46.3 45.3697 45.8439 45.9877 45.752L46.0392 46.0793C45.7228 46.1271 45.7044 46.2779 45.7008 46.7046C45.702 46.8472 45.6947 46.9897 45.6787 47.1313Z" fill="#091f2f"/>
<path d="M44.2544 50.0342C45.0507 50.0342 45.6963 49.3886 45.6963 48.5923C45.6963 47.7959 45.0507 47.1504 44.2544 47.1504C43.4581 47.1504 42.8125 47.7959 42.8125 48.5923C42.8125 49.3886 43.4581 50.0342 44.2544 50.0342Z" fill="#98b3cb" stroke="#091f2f" stroke-width="0.22816"/>
<path d="M42.7348 50.792C43.5312 50.792 44.1767 50.1464 44.1767 49.3501C44.1767 48.5538 43.5312 47.9082 42.7348 47.9082C41.9385 47.9082 41.293 48.5538 41.293 49.3501C41.293 50.1464 41.9385 50.792 42.7348 50.792Z" fill="#98b3cb"/>
<path d="M45.6958 51.2988C46.4921 51.2988 47.1377 50.6532 47.1377 49.8569C47.1377 49.0606 46.4921 48.415 45.6958 48.415C44.8995 48.415 44.2539 49.0606 44.2539 49.8569C44.2539 50.6532 44.8995 51.2988 45.6958 51.2988Z" fill="#98b3cb" stroke="#091f2f" stroke-width="0.22816"/>
<path d="M43.4227 46.7271C43.4401 46.6457 43.4412 46.5617 43.4262 46.4799C43.4111 46.398 43.38 46.3199 43.3348 46.2501C43.2895 46.1802 43.2309 46.12 43.1624 46.0728C43.0939 46.0256 43.0167 45.9923 42.9353 45.9749C42.8539 45.9575 42.7699 45.9563 42.688 45.9714C42.6062 45.9865 42.5281 46.0176 42.4583 46.0628C42.3884 46.1081 42.3282 46.1667 42.2809 46.2352C42.2337 46.3037 42.2005 46.3809 42.1831 46.4623C42.0433 47.1133 41.4143 47.4849 41.3003 48.0292C41.2564 48.1842 41.2449 48.3465 41.2664 48.5061C41.2879 48.6657 41.3421 48.8192 41.4255 48.9569C41.5089 49.0947 41.6198 49.2138 41.7513 49.3068C41.8827 49.3999 42.0319 49.4649 42.1895 49.4978C42.3472 49.5307 42.5099 49.5308 42.6676 49.498C42.8253 49.4653 42.9746 49.4005 43.1061 49.3076C43.2377 49.2147 43.3487 49.0957 43.4322 48.958C43.5158 48.8204 43.5701 48.667 43.5919 48.5074C43.7059 47.9741 43.2792 47.4039 43.4227 46.7271Z" fill="#98b3cb" stroke="#091f2f" stroke-width="0.22816"/>
<path d="M43.0637 46.0756L42.7363 46.0094C42.7617 45.8881 42.7789 45.7652 42.7878 45.6416C42.8246 45.2738 42.8651 44.8471 43.483 44.8066L43.5051 45.134C43.1814 45.1598 43.1373 45.2738 43.1189 45.671C43.1081 45.8068 43.0896 45.9419 43.0637 46.0756Z" fill="#091f2f"/>
<path d="M39.7665 45.9654C39.7062 46.0983 39.6729 46.2418 39.6685 46.3876C39.6641 46.5335 39.6886 46.6788 39.7407 46.8151C40.0302 46.7815 40.2947 46.6347 40.4764 46.4068C40.5954 46.1409 40.6086 45.8397 40.5131 45.5645C40.2216 45.5961 39.9539 45.7399 39.7665 45.9654Z" fill="#091f2f"/>
<path d="M40.492 46.4071C40.3103 46.635 40.0458 46.7818 39.7563 46.8154C39.7042 46.6791 39.6797 46.5338 39.6841 46.3879C39.6885 46.2421 39.7218 46.0986 39.7821 45.9657C39.9649 45.7385 40.2285 45.5909 40.5177 45.5537C40.6196 45.8308 40.6104 46.1366 40.492 46.4071Z" fill="#98b3cb" stroke="#091f2f" stroke-width="0.22816"/>
<path d="M40.4585 46.9659C40.3779 46.8227 40.2452 46.7163 40.088 46.6688C39.9307 46.6213 39.7612 46.6364 39.6149 46.711C39.4686 46.7856 39.3568 46.9139 39.3029 47.069C39.2489 47.2241 39.2571 47.3941 39.3256 47.5433C39.6272 48.1355 39.3734 48.8197 39.6272 49.3163C39.7765 49.5784 40.021 49.773 40.3099 49.8596C40.5988 49.9462 40.9101 49.9182 41.1789 49.7814C41.4478 49.6446 41.6536 49.4095 41.7537 49.125C41.8538 48.8404 41.8404 48.5282 41.7164 48.2532C41.4553 47.7714 40.7638 47.5801 40.4585 46.9659Z" fill="#98b3cb" stroke="#091f2f" stroke-width="0.22816"/>
<path d="M39.4657 46.841L39.3738 46.6681C39.1641 46.2782 38.9839 45.9324 39.4841 45.4727L39.7122 45.7154C39.3995 46.0097 39.4584 46.1237 39.668 46.5099L39.76 46.6865L39.4657 46.841Z" fill="#091f2f"/>
<path d="M39.7337 50.8981C40.5402 50.8981 41.194 50.2443 41.194 49.4378C41.194 48.6313 40.5402 47.9775 39.7337 47.9775C38.9272 47.9775 38.2734 48.6313 38.2734 49.4378C38.2734 50.2443 38.9272 50.8981 39.7337 50.8981Z" fill="#98b3cb" stroke="#091f2f" stroke-width="0.22816"/>
<path d="M47.9364 49.5156H37.3945V50.4793H47.9364V49.5156Z" fill="#091f2f"/>
<path d="M37.8438 50.3467L38.8185 55.8347H46.5134L47.4882 50.3467H37.8438ZM40.7533 54.9923H39.8043V51.2883H40.7533V54.9923ZM43.0779 54.9923H42.1289V51.2883H43.0779V54.9923ZM45.4283 54.9923H44.4793V51.2883H45.4283V54.9923Z" fill="#091f2f"/>
<path d="M38.1602 49.8573V47.1538C38.1866 45.9616 38.677 44.8267 39.5272 43.9904C40.3774 43.1542 41.5202 42.6826 42.7127 42.6759C43.9052 42.6691 45.0533 43.1279 45.9128 43.9545C46.7724 44.7811 47.2755 45.9104 47.3154 47.1023V49.8573" stroke="#091f2f" stroke-width="0.387139" stroke-miterlimit="10"/>
</g>
<path d="M40.642 17.115C40.5027 16.939 40.312 16.8107 40.07 16.73C39.8353 16.642 39.6117 16.598 39.399 16.598C39.2743 16.598 39.146 16.6127 39.014 16.642C38.882 16.6713 38.7573 16.719 38.64 16.785C38.5227 16.8437 38.4273 16.9243 38.354 17.027C38.2807 17.1297 38.244 17.2543 38.244 17.401C38.244 17.6357 38.332 17.8153 38.508 17.94C38.684 18.0647 38.904 18.171 39.168 18.259C39.4393 18.347 39.729 18.435 40.037 18.523C40.345 18.611 40.631 18.7357 40.895 18.897C41.1663 19.0583 41.39 19.2747 41.566 19.546C41.742 19.8173 41.83 20.1803 41.83 20.635C41.83 21.0677 41.7493 21.4453 41.588 21.768C41.4267 22.0907 41.2067 22.3583 40.928 22.571C40.6567 22.7837 40.3377 22.9413 39.971 23.044C39.6117 23.1467 39.2303 23.198 38.827 23.198C38.321 23.198 37.8517 23.121 37.419 22.967C36.9863 22.813 36.583 22.5637 36.209 22.219L37.43 20.877C37.606 21.1117 37.826 21.295 38.09 21.427C38.3613 21.5517 38.64 21.614 38.926 21.614C39.0653 21.614 39.2047 21.5993 39.344 21.57C39.4907 21.5333 39.619 21.482 39.729 21.416C39.8463 21.35 39.938 21.2657 40.004 21.163C40.0773 21.0603 40.114 20.9393 40.114 20.8C40.114 20.5653 40.0223 20.382 39.839 20.25C39.663 20.1107 39.4393 19.9933 39.168 19.898C38.8967 19.8027 38.6033 19.7073 38.288 19.612C37.9727 19.5167 37.6793 19.3883 37.408 19.227C37.1367 19.0657 36.9093 18.853 36.726 18.589C36.55 18.325 36.462 17.9767 36.462 17.544C36.462 17.126 36.5427 16.7593 36.704 16.444C36.8727 16.1287 37.0927 15.8647 37.364 15.652C37.6427 15.4393 37.9617 15.2817 38.321 15.179C38.6803 15.069 39.0507 15.014 39.432 15.014C39.872 15.014 40.2973 15.0763 40.708 15.201C41.1187 15.3257 41.489 15.5347 41.819 15.828L40.642 17.115ZM42.2284 15.212H43.9444V18.116H47.2774V15.212H48.9934V23H47.2774V19.634H43.9444V23H42.2284V15.212ZM49.2771 19.106C49.2771 18.4827 49.3798 17.918 49.5851 17.412C49.7978 16.906 50.0911 16.477 50.4651 16.125C50.8391 15.7657 51.2828 15.4907 51.7961 15.3C52.3094 15.1093 52.8704 15.014 53.4791 15.014C54.0878 15.014 54.6488 15.1093 55.1621 15.3C55.6754 15.4907 56.1191 15.7657 56.4931 16.125C56.8671 16.477 57.1568 16.906 57.3621 17.412C57.5748 17.918 57.6811 18.4827 57.6811 19.106C57.6811 19.7293 57.5748 20.294 57.3621 20.8C57.1568 21.306 56.8671 21.7387 56.4931 22.098C56.1191 22.45 55.6754 22.7213 55.1621 22.912C54.6488 23.1027 54.0878 23.198 53.4791 23.198C52.8704 23.198 52.3094 23.1027 51.7961 22.912C51.2828 22.7213 50.8391 22.45 50.4651 22.098C50.0911 21.7387 49.7978 21.306 49.5851 20.8C49.3798 20.294 49.2771 19.7293 49.2771 19.106ZM51.0591 19.106C51.0591 19.4727 51.1141 19.81 51.2241 20.118C51.3414 20.4187 51.5064 20.6827 51.7191 20.91C51.9318 21.13 52.1848 21.3023 52.4781 21.427C52.7788 21.5517 53.1124 21.614 53.4791 21.614C53.8458 21.614 54.1758 21.5517 54.4691 21.427C54.7698 21.3023 55.0264 21.13 55.2391 20.91C55.4518 20.6827 55.6131 20.4187 55.7231 20.118C55.8404 19.81 55.8991 19.4727 55.8991 19.106C55.8991 18.7467 55.8404 18.413 55.7231 18.105C55.6131 17.797 55.4518 17.533 55.2391 17.313C55.0264 17.0857 54.7698 16.9097 54.4691 16.785C54.1758 16.6603 53.8458 16.598 53.4791 16.598C53.1124 16.598 52.7788 16.6603 52.4781 16.785C52.1848 16.9097 51.9318 17.0857 51.7191 17.313C51.5064 17.533 51.3414 17.797 51.2241 18.105C51.1141 18.413 51.0591 18.7467 51.0591 19.106ZM57.9674 15.212H60.8604C61.2638 15.212 61.6451 15.2487 62.0044 15.322C62.3638 15.3953 62.6754 15.5237 62.9394 15.707C63.2108 15.883 63.4234 16.125 63.5774 16.433C63.7388 16.7337 63.8194 17.115 63.8194 17.577C63.8194 18.0317 63.7461 18.413 63.5994 18.721C63.4528 19.029 63.2511 19.2747 62.9944 19.458C62.7378 19.6413 62.4334 19.7733 62.0814 19.854C61.7294 19.9273 61.3481 19.964 60.9374 19.964H59.6834V23H57.9674V15.212ZM59.6834 18.512H60.8274C60.9814 18.512 61.1281 18.4973 61.2674 18.468C61.4141 18.4387 61.5424 18.391 61.6524 18.325C61.7698 18.2517 61.8614 18.1563 61.9274 18.039C62.0008 17.9143 62.0374 17.7603 62.0374 17.577C62.0374 17.379 61.9898 17.2213 61.8944 17.104C61.8064 16.9793 61.6891 16.884 61.5424 16.818C61.4031 16.752 61.2454 16.7117 61.0694 16.697C60.8934 16.675 60.7248 16.664 60.5634 16.664H59.6834V18.512Z" fill="#091f2f"/>
</g>
</svg>
