<?xml version="1.0" encoding="UTF-8" standalone="no"?>
<svg
   viewBox="0 0 144 144"
   xmlns="http://www.w3.org/2000/svg">
  <path
     style="fill:none;stroke:#000000;stroke-width:3;stroke-linecap:butt;stroke-linejoin:miter;stroke-dasharray:none;stroke-opacity:1"
     d="M 68,97 V 61 a 4,4 0 1 0 -4,4 h 16 a 4,4 0 1 0 -4,-4 v 36"
     id="filament" />
  <path
     style="fill:#ffffff;fill-opacity:0.496052;stroke:#000000;stroke-width:3;stroke-linecap:butt;stroke-linejoin:miter;stroke-dasharray:none;stroke-opacity:1"
     d="m 54,97 h 36 v 7 a 7,7 0 0 1 -7,7 H 61 a 7,7 0 0 1 -7,-7 z m 10,14 a 8,8 0 0 0 16,0 z"
     id="screw" />
  <path
     style="fill:none;stroke:#000000;stroke-width:3;stroke-linecap:butt;stroke-linejoin:miter;stroke-dasharray:none;stroke-opacity:1"
     d="M 54,104 H 90"
     id="screw-mid" />
  <path
     style="fill:#ffffff;fill-opacity:0.496052;stroke:#000000;stroke-width:3px;stroke-linecap:butt;stroke-linejoin:round;stroke-opacity:1"
     d="m 54,97 v -8 a 36,36 0 1 1 36,0 v 8 z"
     id="path1787" />
</svg>
