<svg width="100" height="74" viewBox="0 0 100 74" fill="none" xmlns="http://www.w3.org/2000/svg">
<g opacity="0.5">
<path d="M65.1368 46.3834C65.1368 46.3834 72.1108 55.7947 87.5926 55.7947V51.791C83.1753 51.9928 78.7844 51.0097 74.8749 48.9435C70.9653 46.8774 67.6795 43.8033 65.3578 40.0399" fill="white"/>
<path d="M34.6036 58.2259L23.8153 58.3055L24.9246 44.4913L18.4633 31.9785L24.9051 31.933L28.8753 39.5817L31.5221 31.8819L39.469 31.8307L32.865 44.6391L34.6036 58.2259Z" fill="#091f2f"/>
<path d="M25.7194 56.4411L32.6412 56.3931L31.0713 43.4202L36.7346 31.8307L32.8488 31.8607L29.2225 42.977L23.7797 31.9266L21.1978 31.9445L26.7249 43.2345L25.7194 56.4411Z" fill="#3c7297"/>
<path d="M23.8066 31.2331C25.1413 32.0114 26.6538 32.4327 28.1986 32.4567C29.7434 32.4806 31.2683 32.1062 32.6264 31.3696C33.2384 31.9188 33.9823 32.3001 34.7855 32.4762C35.5887 32.6522 36.4239 32.6171 37.2095 32.3742C37.9951 32.1313 38.7043 31.689 39.268 31.0903C39.8317 30.4916 40.2306 29.7571 40.4258 28.9583C40.4708 28.7963 40.5034 28.6312 40.5233 28.4643C42.5432 28.6048 44.5426 27.9842 46.1279 26.7245C47.7131 25.4648 48.7695 23.6574 49.089 21.658C49.4085 19.6585 48.9681 17.6119 47.8543 15.9209C46.7406 14.2299 45.0342 13.0171 43.0711 12.5211H43.0126C43.1026 12.3109 43.1743 12.0935 43.2271 11.8711C43.416 11.1195 43.3853 10.3296 43.1385 9.59495C42.8918 8.86033 42.4395 8.21194 41.8352 7.72675C41.231 7.24157 40.5002 6.93997 39.7296 6.85776C38.959 6.77555 38.1811 6.91619 37.488 7.26297C36.7228 5.7096 35.5446 4.39692 34.0826 3.46884C32.6207 2.54076 30.9314 2.03312 29.2 2.00157C27.4687 1.97001 25.7621 2.41577 24.2673 3.28996C22.7725 4.16416 21.5472 5.43304 20.7258 6.9575C19.9605 6.82091 19.1721 6.90432 18.4523 7.19805C17.7324 7.49178 17.1107 7.98375 16.6594 8.61681C16.2081 9.24986 15.9457 9.99799 15.9028 10.7742C15.8598 11.5505 16.038 12.323 16.4167 13.002C15.1548 13.5497 14.0722 14.441 13.2925 15.5744C12.5128 16.7077 12.0674 18.0374 12.0071 19.4117C11.9467 20.786 12.274 22.1496 12.9514 23.3469C13.6288 24.5442 14.6291 25.5269 15.8382 26.183C15.2088 27.2414 15.0173 28.5036 15.3047 29.701C15.592 30.8984 16.3354 31.9363 17.3766 32.5938C18.4179 33.2512 19.6746 33.4762 20.8792 33.2208C22.0838 32.9655 23.1412 32.25 23.8261 31.2266L23.8066 31.2331Z" fill="#98b3cb" stroke="#091f2f" stroke-width="2.28079" stroke-miterlimit="10" stroke-linecap="round"/>
<path d="M52.7424 29.6535L58.9429 21.2042L65.137 29.6535H52.7424Z" fill="#98b3cb" stroke="#091f2f" stroke-width="2.28079" stroke-miterlimit="10"/>
<path d="M65.3708 35.5227H52.7488V40.7288H65.3708V35.5227Z" fill="#98b3cb" stroke="#091f2f" stroke-width="2.28079" stroke-miterlimit="10"/>
<path d="M52.7488 45.9352V57.7447" stroke="#091f2f" stroke-width="2.28079" stroke-miterlimit="10"/>
<path d="M52.7488 35.5226V31.0119L55.9985 29.6535H62.2055L65.3383 31.5514V35.5226" stroke="#091f2f" stroke-width="2.28079" stroke-miterlimit="10"/>
<path d="M65.3708 40.7288H52.7488V45.9349H65.3708V40.7288Z" fill="#98b3cb" stroke="#091f2f" stroke-width="2.28079" stroke-miterlimit="10"/>
<path d="M65.3707 45.9352V58.2842" stroke="#091f2f" stroke-width="2.28079" stroke-miterlimit="10"/>
<path d="M52.7488 45.9352H52.4368" stroke="#091f2f" stroke-width="2.28079" stroke-miterlimit="10"/>
<path d="M52.7488 40.7288H52.4368" stroke="#091f2f" stroke-width="2.28079" stroke-miterlimit="10"/>
<path d="M52.7488 35.5227H52.4368" stroke="#091f2f" stroke-width="2.28079" stroke-miterlimit="10"/>
<path d="M65.3577 40.0399C67.6794 43.8033 70.9653 46.8774 74.8748 48.9435C78.7843 51.0097 83.1752 51.9928 87.5925 51.791" stroke="#091f2f" stroke-width="2.28079" stroke-miterlimit="10"/>
<path d="M65.1368 46.3835C65.1368 46.3835 72.1108 55.7948 87.5926 55.7948" stroke="#091f2f" stroke-width="2.28079" stroke-miterlimit="10"/>
<path d="M74.8861 54.0725V58.2322" stroke="#091f2f" stroke-width="2.28079" stroke-miterlimit="10"/>
<path d="M99.6193 62.874L0 62.874L0 73.5969H99.6193V62.874Z" fill="#091f2f"/>
</g>
</svg>
