<svg width="100" height="57" viewBox="0 0 100 57" fill="none" xmlns="http://www.w3.org/2000/svg">
<path opacity="0.5" d="M100 45.4612L0 45.4612L0 56.2251L100 56.2251V45.4612Z" fill="#091f2f"/>
<g opacity="0.5">
<path d="M49.8344 40.3734C49.3752 41.2617 49.375 41.2616 49.3747 41.2615L49.3738 41.261L49.3711 41.2596L49.3619 41.2548L49.3286 41.2373C49.2998 41.2222 49.2581 41.2001 49.2041 41.1712C49.0962 41.1133 48.9391 41.028 48.7386 40.9162C48.3376 40.6925 47.7622 40.3626 47.0573 39.9333C45.6482 39.0753 43.7167 37.8178 41.6225 36.2167C37.456 33.0313 32.5495 28.4139 29.9025 22.8014L29.2296 21.3748H30.8069H38.5265L39.1251 20.9535L40.8257 14.9201L41.8282 11.3631L42.7561 14.9403L46.9743 31.2022H47.9077L50.3256 22.1176L50.5233 21.3748H51.2919H55.228L55.8165 20.9606L57.3717 14.9412L58.3144 11.2926H57.9666L55.5514 20.1924L55.3511 20.9304H54.5863H50.6821L50.0653 21.4753L48.3491 27.402L47.3437 30.8743L46.4217 27.3789L42.1758 11.2826H41.2675L39.0036 20.1674L38.8117 20.9205H38.0346H29.8386H29.0995L28.8826 20.2139C28.3614 18.5158 28 16.6095 28 14.6925C28 7.14759 33.8082 1.10147 40.9795 1.10147C44.3319 1.10147 47.4226 2.40583 49.8191 4.71938C52.0831 2.40451 55.156 1.11145 58.5096 1.11145C65.8322 1.11145 71.6489 7.14878 71.6489 14.7025C71.6489 16.6208 71.2869 18.5528 70.5893 20.301L70.3382 20.9304H69.6606H62.1134H61.3487L61.1483 20.1924L58.7331 11.2926H58.3654L59.3081 14.9412L60.8547 20.9273L61.5789 21.3748H68.8419H70.4186L69.7466 22.8011C67.0997 28.4184 62.1984 33.0358 58.0366 36.2202C55.9449 37.8207 54.0159 39.0774 52.6086 39.9346C51.9046 40.3635 51.33 40.6931 50.9295 40.9165C50.7292 41.0282 50.5723 41.1134 50.4645 41.1713C50.4106 41.2002 50.369 41.2222 50.3402 41.2374L50.307 41.2548L50.2978 41.2596L50.295 41.261L50.2942 41.2614C50.2939 41.2616 50.2936 41.2617 49.8344 40.3734ZM49.8344 40.3734L49.3752 41.2617L49.8344 41.4991L50.2936 41.2617L49.8344 40.3734Z" fill="#288be4" fill-opacity="0.7" stroke="#091f2f" stroke-width="2"/>
</g>
</svg>
