<svg id="Layer_1" data-name="Layer 1" xmlns="http://www.w3.org/2000/svg" viewBox="0 0 144 144"><defs><style>.cls-1{fill:#fff;stroke:#121f2c;stroke-linecap:round;stroke-miterlimit:10;stroke-width:3px;}</style></defs><title>lightbulb</title><path class="cls-1" d="M54.57,56.51a3.6,3.6,0,0,1-1.12-7l34.86-11.4a3.6,3.6,0,0,1,2.24,6.84L55.69,56.33A3.64,3.64,0,0,1,54.57,56.51Z"/><path class="cls-1" d="M54.57,41.81a3.6,3.6,0,0,1-1.12-7L69.1,29.68l0-2.91a3.61,3.61,0,0,1,3.6-3.55h0a3.58,3.58,0,0,1,3.55,3.64l-.07,5.48a3.61,3.61,0,0,1-2.48,3.38L55.69,41.64A3.63,3.63,0,0,1,54.57,41.81Z"/><path class="cls-1" d="M54.57,71.21a3.6,3.6,0,0,1-1.12-7l34.86-11.4a3.6,3.6,0,0,1,2.24,6.84L55.69,71A3.64,3.64,0,0,1,54.57,71.21Z"/><path class="cls-1" d="M77.91,106.77a3.6,3.6,0,0,1-3.6-3.6c0-19.26,7.31-22.53,8.78-23a33.72,33.72,0,0,1,6-1.59,3.6,3.6,0,0,1,.82,7.15A33.79,33.79,0,0,0,85.5,87c-.49.34-4,3.25-4,16.2A3.6,3.6,0,0,1,77.91,106.77Z"/><path class="cls-1" d="M68.46,106.77a3.6,3.6,0,0,1-3.6-3.6c0-10.92-4.08-14-4.32-14.2h0l-7.83-4.73a3.59,3.59,0,0,1,.74-6.5l34.86-11.4a3.6,3.6,0,0,1,2.24,6.84l-27.4,9,1.09.66c1.14.67,7.81,5.27,7.81,20.37A3.6,3.6,0,0,1,68.46,106.77Z"/><path class="cls-1" d="M60.77,99.48H85.22a0,0,0,0,1,0,0v16.38a4.92,4.92,0,0,1-4.92,4.92H65.69a4.92,4.92,0,0,1-4.92-4.92V99.48A0,0,0,0,1,60.77,99.48Z"/></svg>