<svg width="100" height="80" viewBox="0 0 100 80" fill="none" xmlns="http://www.w3.org/2000/svg">
<g opacity="0.5">
<path d="M34.0205 30.7695L33.5103 31.4992L34.6727 30.1633C34.6239 30.1109 34.5759 30.0611 34.534 30.0176L34.5318 30.0153C34.4877 29.9696 34.4501 29.9305 34.4132 29.8908L33.087 31.0787L33.2489 31.2663C33.3251 31.3564 33.4071 31.4211 33.4295 31.4388C33.4303 31.4394 33.431 31.4399 33.4316 31.4404C33.4521 31.4566 33.4701 31.4701 33.483 31.4796L33.5 31.4919L33.506 31.4962L33.5084 31.4978L33.5094 31.4985L33.5099 31.4989L33.5101 31.499L33.5102 31.4991C33.5102 31.4991 33.5103 31.4992 34.0205 30.7695Z" fill="#98b3cb" stroke="#091f2f" stroke-width="1.78073"/>
<path d="M28.3317 17.2676L27.9139 17.7072L28.1701 18.257C29.1655 20.3932 29.4355 22.8113 28.9136 25.1301L28.6785 26.1745L29.7482 26.2154C30.5367 26.2455 31.3417 26.6193 31.94 27.3013C31.9402 27.3015 31.9404 27.3017 31.9405 27.3019L34.2615 29.9594L34.2706 29.9698L34.2799 29.9799L34.3664 30.073L34.3664 30.073L34.3752 30.0822C35.8038 31.5758 37.4721 33.3355 39.1206 35.0887L40.6596 36.7254V34.4787V24.1858L45.9085 19.4457L46.5708 18.8476L45.9712 18.1867L41.4667 13.2213L41.2017 12.9292H40.8072H32.8362H32.454L32.1908 13.2062L28.3317 17.2676Z" fill="#98b3cb" stroke="#091f2f" stroke-width="1.78073"/>
<path d="M40.9823 5.11163C40.9823 7.51251 39.0339 9.46008 36.6288 9.46008C34.2238 9.46008 32.2754 7.51251 32.2754 5.11163C32.2754 2.71074 34.2238 0.763168 36.6288 0.763168C39.0339 0.763168 40.9823 2.71074 40.9823 5.11163Z" fill="#98b3cb" stroke="#091f2f" stroke-width="1.52634"/>
<path d="M79.8181 29.0531L79.6866 29.5489L76.1535 42.8697L76.0812 43.1425L75.8648 43.3238L61.7538 55.1501L59.7202 60.0273L59.3255 60.974L58.4436 60.4501L50.466 55.7107L49.7026 55.2572L50.154 54.4926L50.46 53.9741L50.4602 53.9739L50.9392 53.163L50.9393 53.163L51.4183 52.352L51.4196 52.3499L52.3138 50.8456L52.5593 43.9392L52.5711 43.6057L52.7993 43.3621C53.2842 42.8446 54.5876 41.4495 56.2572 39.6552L56.2586 39.6537C56.9174 38.949 57.63 38.1905 58.3829 37.3984C58.4614 37.3141 58.542 37.2269 58.6241 37.138C58.8095 36.9375 59.0029 36.7282 59.1991 36.5229C59.3313 36.3845 59.4624 36.2438 59.5977 36.0985L59.599 36.0972C59.7319 35.9546 59.869 35.8075 60.0083 35.6615C61.4181 34.16 62.8681 32.6251 64.199 31.2289C64.433 30.9782 64.6713 30.7284 64.9002 30.4883C65.0294 30.3528 65.1557 30.2204 65.2765 30.0927C65.277 30.0922 65.2775 30.0917 65.2779 30.0912L65.28 30.089C65.3704 29.9927 65.4706 29.8859 65.5731 29.7827L67.4078 27.6869L67.4105 27.6839L67.9254 27.0903C67.9257 27.09 67.9259 27.0898 67.9261 27.0895C68.541 26.3778 69.3947 25.9749 70.2741 25.9515C70.5902 25.935 70.8981 25.9779 71.1887 26.066L71.1212 25.8449C70.4473 23.6372 70.4981 21.2926 71.2294 19.1438M79.8181 29.0531L79.4419 28.6774L79.4552 28.6907L79.5627 28.7981M79.8181 29.0531L79.5627 28.7981M79.8181 29.0531L79.5627 28.7981M71.2294 19.1438C71.2295 19.1435 71.2296 19.1431 71.2297 19.1428L72.0726 19.4297L71.2292 19.1442C71.2293 19.1441 71.2293 19.1439 71.2294 19.1438ZM71.2294 19.1438C71.5644 18.1544 72.0512 17.212 72.6732 16.345L73.1155 15.7283L73.7945 16.0674L73.861 16.1007L74.152 16.246L74.2808 16.5447L79.5627 28.7981M73.8465 17.7864C73.9337 17.6501 74.025 17.5156 74.1201 17.3829L73.4722 16.9182L73.8465 17.7864ZM73.3334 16.9531L72.6455 17.2496L72.8471 17.7173C72.9968 17.4568 73.159 17.2018 73.3334 16.9531Z" fill="#3c7297" stroke="#091f2f" stroke-width="1.78073"/>
<path d="M70.2276 26.1163H71.3324L71.0843 25.028C70.581 22.8207 70.802 20.5147 71.6919 18.4609L71.9203 17.9338L71.5341 17.5084L67.6417 13.221L67.3768 12.9292H66.9825H59.0115H58.6292L58.3659 13.2064L54.0477 17.753L53.4332 18.4L54.0816 19.0131L59.7646 24.3864V33.927V36.1743L61.3037 34.5368C62.8391 32.9033 64.3747 31.2829 65.6975 29.895L65.7112 29.8806L65.7243 29.8655L68.0446 27.2022C68.0448 27.2019 68.045 27.2017 68.0453 27.2014C68.6391 26.5246 69.4371 26.1508 70.2276 26.1163Z" fill="#98b3cb" stroke="#091f2f" stroke-width="1.78073"/>
<path d="M67.1576 5.11163C67.1576 7.51251 65.2092 9.46008 62.8041 9.46008C60.3991 9.46008 58.4507 7.51251 58.4507 5.11163C58.4507 2.71074 60.3991 0.763168 62.8041 0.763168C65.2092 0.763168 67.1576 2.71074 67.1576 5.11163Z" fill="#98b3cb" stroke="#091f2f" stroke-width="1.52634"/>
<path d="M59.6675 24.0643L58.1479 22.5459V22.6289L54.5263 19.2078L54.269 18.9647H53.9149H46.576H46.2417L45.99 19.1847L45.8303 19.3243L45.8248 19.3291L45.8194 19.334L40.8092 23.8607L40.5158 24.1258V24.5213V36.2202V36.5726L40.7569 36.8295C40.9837 37.0713 41.2086 37.3108 41.4308 37.5476C42.5779 38.7696 43.6533 39.9154 44.5608 40.8888L44.5618 40.8899C45.3701 41.7538 46.0468 42.478 46.5246 42.9903C46.7636 43.2464 46.9525 43.4493 47.0831 43.5899C47.1315 43.642 47.1681 43.6816 47.1949 43.7106C47.2541 43.7745 47.2657 43.7871 47.2516 43.7695L47.2685 43.7906L47.2708 43.7931L47.5159 50.782L47.5239 51.0102L47.6407 51.2063L48.8716 53.2736L49.1306 53.7084H49.6367H50.3087H50.8154L51.0742 53.2727L52.365 51.0991L52.4811 50.9036L52.4893 50.6765L52.7413 43.68L52.7426 43.6785L52.7602 43.6566C52.7467 43.6734 52.7571 43.6622 52.8115 43.6032C52.8374 43.5751 52.8733 43.5362 52.9213 43.4844C53.0466 43.3492 53.2279 43.1542 53.4576 42.9077C53.9169 42.4148 54.5684 41.7175 55.3497 40.8838L55.3522 40.8811C56.4009 39.7529 57.6898 38.3797 59.0558 36.9242C59.2648 36.7016 59.4755 36.4771 59.6875 36.2512L59.9286 35.9943V35.6419V24.6941H59.0818L59.6808 24.0776L59.6675 24.0643Z" fill="#98b3cb" stroke="#091f2f" stroke-width="1.78073"/>
<path d="M54.396 10.2631C54.396 12.664 52.4476 14.6116 50.0425 14.6116C47.6375 14.6116 45.6891 12.664 45.6891 10.2631C45.6891 7.86226 47.6375 5.91469 50.0425 5.91469C52.4476 5.91469 54.396 7.86226 54.396 10.2631Z" fill="#98b3cb" stroke="#091f2f" stroke-width="1.52634"/>
<path d="M49.4811 53.9918L49.4767 53.9842L49.0088 53.1808L49.006 53.1762L48.5269 52.3652L48.5258 52.3633L47.6913 50.9585L47.4458 44.0521L47.434 43.7182L47.2053 43.4745C46.9863 43.2412 46.607 42.8349 46.1046 42.2968C45.4612 41.6077 44.6158 40.7023 43.6464 39.6666L43.6464 39.6665L43.6416 39.6614C43.1963 39.1932 42.7301 38.6936 42.2441 38.1729C42.1821 38.1064 42.1197 38.0396 42.057 37.9724L42.057 37.9724L42.0506 37.9656L42.0136 37.9268C41.7587 37.6595 41.5019 37.3901 41.2455 37.1152C41.1219 36.9825 40.9706 36.8219 40.8208 36.663C40.6828 36.5166 40.5461 36.3715 40.4338 36.2511L40.4326 36.2498C38.8869 34.5991 37.2684 32.8891 35.7974 31.3397L35.7972 31.3395C35.681 31.2172 35.5669 31.0977 35.455 30.9805C35.2013 30.7148 34.9587 30.4607 34.7264 30.2104L34.6164 30.0919L34.6086 30.088C34.5873 30.0657 34.5667 30.0444 34.5475 30.0244L34.5452 30.0221C34.5046 29.9799 34.4694 29.9433 34.4352 29.9068L32.588 27.7968L32.5874 27.7961L32.0706 27.207C31.4581 26.4991 30.5945 26.0763 29.7014 26.0574L29.6919 26.0572H29.6825C29.4269 26.0572 29.1382 26.0843 28.8447 26.1702H28.8188L28.7876 26.1811L28.8495 25.9815C29.5819 23.6198 29.4729 21.1007 28.5968 18.843C28.3525 18.2072 28.0382 17.6112 27.6827 17.043L27.588 16.8916L27.4422 16.7885L26.9631 16.4495L26.0661 15.8147L25.6312 16.8239L20.3482 29.0811L20.2274 29.3613L20.3039 29.6567L20.5035 30.4277L20.5035 30.4277L20.505 30.4336L23.8451 42.9833L23.9176 43.2556L24.1335 43.4366L38.238 55.263L40.2718 60.1339L40.6665 61.0793L41.5477 60.5566L49.4588 55.8638L49.8147 55.6527L49.8828 55.2445C49.8834 55.2411 49.8838 55.2386 49.8841 55.237C49.8849 55.2326 49.8846 55.2344 49.8836 55.239C49.8832 55.2406 49.8828 55.2424 49.8823 55.2444C49.8817 55.2468 49.881 55.2495 49.8802 55.2524C49.8787 55.2577 49.8772 55.2626 49.8758 55.2668L49.735 55.2199L49.1782 55.0341L49.8094 54.5426L49.4811 53.9918ZM39.394 44.8119C39.3936 44.8115 39.3933 44.8111 39.3929 44.8106L39.394 44.8119Z" fill="#3c7297" stroke="#091f2f" stroke-width="1.78073"/>
<path d="M49.3632 55.0913L49.303 55.0712L49.2694 54.9395L49.8459 54.6248L49.806 54.5516L48.8268 52.758L48.18 54.6965L48.1768 54.7057L48.1702 54.7254C48.1649 54.7411 48.1561 54.768 48.1473 54.8003C48.1287 54.8685 48.1076 54.9687 48.1076 55.0913V56.5904L49.4239 55.8731L49.4971 55.8332L49.3081 55.0913H49.3632ZM49.3632 55.0913L49.8677 55.2596M49.3632 55.0913H49.8883C49.8883 55.1663 49.8764 55.2256 49.8677 55.2596M49.8677 55.2596L49.8691 55.2601L49.8623 55.2802L49.8594 55.289C49.8592 55.2894 49.8592 55.2896 49.8592 55.2896C49.8592 55.2896 49.8619 55.2814 49.8652 55.2693C49.866 55.2663 49.8668 55.2631 49.8677 55.2596Z" fill="#3c7297" stroke="#091f2f" stroke-width="1.78073"/>
</g>
<path opacity="0.5" d="M100 69.0667H0L0 79.8306H100V69.0667Z" fill="#091f2f"/>
</svg>
