<?xml version="1.0" encoding="UTF-8" standalone="no"?>
<svg
   width="80"
   height="80"
   viewBox="0 0 80 80"
   fill="none"
   version="1.1"
   id="svg5776"
   sodipodi:docname="streets_sidewalks-dark-square.svg"
   inkscape:version="1.2.2 (b0a8486541, 2022-12-01)"
   xmlns:inkscape="http://www.inkscape.org/namespaces/inkscape"
   xmlns:sodipodi="http://sodipodi.sourceforge.net/DTD/sodipodi-0.dtd"
   xmlns="http://www.w3.org/2000/svg"
   xmlns:svg="http://www.w3.org/2000/svg">
  <sodipodi:namedview
     id="namedview1743"
     pagecolor="#ffffff"
     bordercolor="#666666"
     borderopacity="1.0"
     inkscape:showpageshadow="2"
     inkscape:pageopacity="0.0"
     inkscape:pagecheckerboard="0"
     inkscape:deskcolor="#d1d1d1"
     showgrid="false"
     inkscape:zoom="7.8625"
     inkscape:cx="39.936407"
     inkscape:cy="39.936407"
     inkscape:window-width="1600"
     inkscape:window-height="831"
     inkscape:window-x="0"
     inkscape:window-y="0"
     inkscape:window-maximized="1"
     inkscape:current-layer="g5774" />
  <defs
     id="defs5780" />
  <g
     opacity="1"
     id="g5774">
    <path
       id="path5762"
       style="fill:#080808;fill-opacity:0.1;stroke-width:2;stroke-dasharray:none;stroke:#080808;stroke-opacity:0.80000001"
       d="M 46.761719 33.660156 L 46.761719 46.117188 L 65.974609 46.117188 L 66.388672 46.117188 L 66.681641 45.824219 L 71.910156 40.595703 L 72.617188 39.888672 L 71.910156 39.181641 L 66.681641 33.953125 L 66.388672 33.660156 L 65.974609 33.660156 L 46.761719 33.660156 z " />
    <path
       id="path5764"
       style="fill:#080808;fill-opacity:0.1;stroke:#080808;stroke-opacity:0.80000001;stroke-width:2;stroke-dasharray:none"
       d="M 46.761719 19.830078 C 45.864078 21.057118 44.41801 21.857422 42.78125 21.857422 C 41.145155 21.857422 39.698495 21.058146 38.800781 19.832031 L 38.800781 23.673828 L 41.708984 23.673828 L 42.708984 23.673828 L 42.708984 24.673828 L 42.708984 35.425781 L 42.708984 36.425781 L 41.708984 36.425781 L 38.800781 36.425781 L 38.800781 44.894531 L 41.722656 44.894531 L 42.722656 44.894531 L 42.722656 45.894531 L 42.722656 53.638672 L 42.722656 54.638672 L 41.722656 54.638672 L 38.800781 54.638672 L 38.800781 67.011719 L 38.800781 68.011719 L 39.800781 68.011719 L 45.761719 68.011719 L 46.761719 68.011719 L 46.761719 67.011719 L 46.761719 19.830078 z " />
    <path
       d="m 41.709247,36.42525 h 1 v -1 -10.7507 -1 h -1 -28.54 -0.4702 l -0.2999,0.362 -4.5748005,5.5224 -0.5431,0.6557 0.5607,0.6408 4.5747005,5.2283 0.2988,0.3415 h 0.4538 z"
       fill="#c2d9ed"
       stroke="#091f2f"
       stroke-width="2"
       stroke-miterlimit="10"
       id="path5766"
       style="fill:#080808;fill-opacity:0.1;stroke:#080808;stroke-opacity:0.80000001" />
    <path
       d="m 41.722347,54.63945 h 1 v -1 -7.7445 -1 h -1 -19.4559 -0.4608 l -0.2993,0.3503 -3.2677,3.8232 -0.5484,0.6416 0.5403,0.6483 3.2677,3.9212 0.2998,0.3599 h 0.4684 z"
       fill="#c2d9ed"
       stroke="#091f2f"
       stroke-width="2"
       stroke-miterlimit="10"
       id="path5768"
       style="fill:#080808;fill-opacity:0.1;stroke:#080808;stroke-opacity:0.80000001" />
    <path
       d="m 42.781147,21.85785 c 2.7251,0 4.9343,-2.20916 4.9343,-4.9343 0,-2.72514 -2.2092,-4.9343 -4.9343,-4.9343 -2.7252,0 -4.9343,2.20916 -4.9343,4.9343 0,2.72515 2.2091,4.9343 4.9343,4.9343 z"
       fill="#c2d9ed"
       stroke="#091f2f"
       stroke-width="2"
       stroke-miterlimit="10"
       id="path5770"
       style="fill:#080808;fill-opacity:0.1;stroke:#080808;stroke-opacity:0.80000001" />
  </g>
</svg>
