<?xml version="1.0" encoding="UTF-8" standalone="no"?>
<svg
   width="100"
   height="100"
   viewBox="0 0 100 100"
   fill="none"
   version="1.1"
   id="svg5776"
   sodipodi:docname="streets_sidewalks-dot.svg"
   inkscape:version="1.2.2 (b0a8486541, 2022-12-01)"
   xmlns:inkscape="http://www.inkscape.org/namespaces/inkscape"
   xmlns:sodipodi="http://sodipodi.sourceforge.net/DTD/sodipodi-0.dtd"
   xmlns="http://www.w3.org/2000/svg"
   xmlns:svg="http://www.w3.org/2000/svg">
  <defs
     id="defs5780" />
  <sodipodi:namedview
     id="namedview5778"
     pagecolor="#ffffff"
     bordercolor="#666666"
     borderopacity="1.0"
     inkscape:showpageshadow="2"
     inkscape:pageopacity="0.0"
     inkscape:pagecheckerboard="0"
     inkscape:deskcolor="#d1d1d1"
     showgrid="false"
     inkscape:zoom="6.22"
     inkscape:cx="49.919614"
     inkscape:cy="50"
     inkscape:window-width="1600"
     inkscape:window-height="831"
     inkscape:window-x="0"
     inkscape:window-y="0"
     inkscape:window-maximized="1"
     inkscape:current-layer="layer1" />
  <g
     inkscape:groupmode="layer"
     id="layer2"
     inkscape:label="background"
     transform="translate(67.202573,-36.334402)">
    <circle
       style="fill:#ffffff;fill-opacity:1;stroke:none;stroke-width:6;stroke-linecap:round;stroke-linejoin:round"
       id="path38153"
       cx="-17.202572"
       cy="86.334404"
       r="40"
       inkscape:label="white-underlay" />
  </g>
  <g
     opacity="0.5"
     id="g5774"
     transform="translate(10,10)">
    <path
       d="m 65.975247,46.11725 h 0.4142 l 0.2929,-0.2929 5.2283,-5.2283 0.7071,-0.7071 -0.7071,-0.7071 -5.2283,-5.2284 -0.2929,-0.2928 h -0.4142 -22.6582 -1 v 1 10.4566 1 h 1 z"
       fill="#c2d9ed"
       stroke="#091f2f"
       stroke-width="2"
       stroke-miterlimit="10"
       id="path5762" />
    <path
       d="m 46.761247,19.44622 v -1 h -1 -5.9603 -1 v 1 47.56453 1 h 1 5.9603 1 v -1 z"
       fill="#c2d9ed"
       stroke="#091f2f"
       stroke-width="2"
       stroke-miterlimit="10"
       id="path5764" />
    <path
       d="m 41.709247,36.42525 h 1 v -1 -10.7507 -1 h -1 -28.54 -0.4702 l -0.2999,0.362 -4.5748005,5.5224 -0.5431,0.6557 0.5607,0.6408 4.5747005,5.2283 0.2988,0.3415 h 0.4538 z"
       fill="#c2d9ed"
       stroke="#091f2f"
       stroke-width="2"
       stroke-miterlimit="10"
       id="path5766" />
    <path
       d="m 41.722347,54.63945 h 1 v -1 -7.7445 -1 h -1 -19.4559 -0.4608 l -0.2993,0.3503 -3.2677,3.8232 -0.5484,0.6416 0.5403,0.6483 3.2677,3.9212 0.2998,0.3599 h 0.4684 z"
       fill="#c2d9ed"
       stroke="#091f2f"
       stroke-width="2"
       stroke-miterlimit="10"
       id="path5768" />
    <path
       d="m 42.781147,21.85785 c 2.7251,0 4.9343,-2.20916 4.9343,-4.9343 0,-2.72514 -2.2092,-4.9343 -4.9343,-4.9343 -2.7252,0 -4.9343,2.20916 -4.9343,4.9343 0,2.72515 2.2091,4.9343 4.9343,4.9343 z"
       fill="#c2d9ed"
       stroke="#091f2f"
       stroke-width="2"
       stroke-miterlimit="10"
       id="path5770" />
  </g>
  <g
     inkscape:groupmode="layer"
     id="layer1"
     inkscape:label="foreground"
     transform="translate(37.202573,-66.334403)">
    <path
       id="path38153-1"
       style="fill:#4441fa;fill-opacity:1;stroke:none;stroke-width:6;stroke-linecap:round;stroke-linejoin:round"
       d="M 12.797429,66.334405 A 50,50 0 0 0 -37.202574,116.33441 50,50 0 0 0 12.797429,166.3344 50,50 0 0 0 62.797428,116.33441 50,50 0 0 0 12.797429,66.334405 Z m 0,10.000001 a 40,40 0 0 1 40,40.000004 40,40 0 0 1 -40,39.99999 40,40 0 0 1 -40.000003,-39.99999 40,40 0 0 1 40.000003,-40.000004 z"
       inkscape:label="color-overlay" />
  </g>
</svg>
