<svg width="100" height="85" viewBox="0 0 100 85" fill="none" xmlns="http://www.w3.org/2000/svg">
<path opacity="0.5" d="M99.2916 74.2962H0L0 84.9838H99.2916V74.2962Z" fill="#091f2f"/>
<path d="M53.6018 61.2721C52.6635 62.6224 52.427 63.0114 51.7786 63.0114C51.1302 63.0114 50.825 62.6224 49.8944 61.2721C48.9179 59.8684 47.4837 57.7477 44.5696 57.7477C41.6555 57.7477 40.2061 59.8684 39.2296 61.2721C38.2913 62.6224 37.9327 63.0114 37.2843 63.0114C36.6359 63.0114 36.2697 62.6224 35.3314 61.2721C34.3549 59.8684 32.8902 57.7477 29.9761 57.7477C27.062 57.7477 25.5897 59.8684 24.6208 61.2721C23.6825 62.6224 23.3087 63.0114 22.6679 63.0114C22.0271 63.0114 21.6457 62.6224 20.715 61.2721C19.7385 59.8684 18.2662 57.7477 15.3521 57.7477C12.438 57.7477 10.9657 59.8684 9.9892 61.2721C9.05089 62.6224 8.66946 63.0114 8.02103 63.0114C7.3726 63.0114 7.05983 62.6224 6.12151 61.2721C5.14505 59.8684 3.84056 57.7477 0.789124 57.7477L0.789124 61.89C1.55198 61.89 1.78084 62.2791 2.71916 63.6293C3.69562 65.033 5.17556 67.1537 8.08968 67.1537C11.0038 67.1537 12.4532 65.033 13.4297 63.6293C14.368 62.2791 14.7266 61.89 15.375 61.89C16.0234 61.89 16.3896 62.2791 17.3279 63.6293C18.3044 65.033 19.7691 67.1537 22.6832 67.1537C25.5973 67.1537 27.062 65.033 28.0384 63.6293C28.9768 62.2791 29.3429 61.89 29.9914 61.89C30.6398 61.89 31.006 62.2791 31.9443 63.6293C32.9207 65.033 34.3931 67.1537 37.2996 67.1537C40.2061 67.1537 41.686 65.033 42.6548 63.6293C43.5931 62.2791 43.9593 61.89 44.6077 61.89C45.2562 61.89 45.6223 62.2791 46.5607 63.6293C47.5371 65.033 49.0094 67.1537 51.9159 67.1537C54.8224 67.1537 56.0277 65.033 57.0042 63.6293C57.5687 62.8207 57.9959 62.3554 57.9959 62.1112V57.7858C55.7073 58.091 54.4944 59.9752 53.6018 61.2645V61.2721Z" fill="#c2d9ed"/>
<path d="M53.6019 47.4892C52.6636 48.8394 52.4271 49.2285 51.7787 49.2285C51.1302 49.2285 50.8251 48.8394 49.8944 47.4892C48.918 46.0855 47.4838 43.9647 44.5697 43.9647C41.6555 43.9647 40.2061 46.0855 39.2297 47.4892C38.2913 48.8394 37.9328 49.2285 37.2844 49.2285C36.6359 49.2285 36.2698 48.8394 35.3314 47.4815C34.355 46.0779 32.8903 43.9571 29.9762 43.9571C27.062 43.9571 25.5897 46.0779 24.6209 47.4815C23.6826 48.8318 23.3088 49.2209 22.668 49.2209C22.0272 49.2209 21.6457 48.8318 20.7151 47.4815C19.7386 46.0779 18.2663 43.9571 15.3522 43.9571C12.438 43.9571 10.9657 46.0779 9.98927 47.4815C9.05095 48.8318 8.66952 49.2209 8.02109 49.2209C7.37266 49.2209 7.05989 48.8318 6.12157 47.4815C5.14511 46.0779 3.84062 43.9571 0.789185 43.9571L0.789185 48.0994C1.55204 48.0994 1.7809 48.4885 2.71922 49.8388C3.69568 51.2424 5.17562 53.3632 8.08975 53.3632C11.0039 53.3632 12.4533 51.2424 13.4298 49.8388C14.3681 48.4885 14.7266 48.0994 15.375 48.0994C16.0235 48.0994 16.3897 48.4885 17.328 49.8388C18.3044 51.2424 19.7691 53.3632 22.6832 53.3632C25.5974 53.3632 27.062 51.2424 28.0385 49.8388C28.9768 48.4885 29.343 48.0994 29.9914 48.0994C30.6399 48.0994 31.006 48.4885 31.9443 49.8388C32.9208 51.2424 34.3931 53.3632 37.2996 53.3632C40.2061 53.3632 41.6861 51.2424 42.6549 49.8388C43.5932 48.4885 43.9594 48.0994 44.6078 48.0994C45.2562 48.0994 45.6224 48.4885 46.5607 49.8388C47.5372 51.2424 49.0095 53.3632 51.916 53.3632C54.8225 53.3632 56.0278 51.2424 57.0043 49.8388C57.5688 49.0301 57.996 48.5648 57.996 48.3207V43.9953C55.7074 44.3004 54.4945 46.1847 53.6019 47.4739V47.4892Z" fill="#c2d9ed"/>
<path d="M95.5821 47.4893C94.6438 48.8395 94.4073 49.2286 93.7589 49.2286C93.1105 49.2286 92.8053 48.8395 91.8746 47.4893C90.8982 46.0856 89.464 43.9649 86.5499 43.9649C83.6358 43.9649 82.1863 46.0856 81.2099 47.4893C80.2716 48.8395 79.913 49.2286 79.2646 49.2286C78.6162 49.2286 78.25 48.8395 77.3117 47.4816C76.3352 46.078 74.8705 43.9572 71.9564 43.9572C69.0423 43.9572 67.57 46.078 66.6011 47.4816C65.6628 48.8319 65.289 49.221 64.6482 49.221C64.0074 49.221 63.626 48.8319 62.6953 47.4816C61.7188 46.078 60.2465 43.9572 57.3324 43.9572C54.4183 43.9572 52.9459 46.078 51.9695 47.4816C51.0312 48.8319 50.6497 49.221 50.0013 49.221C49.3529 49.221 49.0401 48.8319 48.1018 47.4816C47.1253 46.078 45.8208 43.9572 42.7694 43.9572V48.0996C43.5323 48.0996 43.7611 48.4886 44.6994 49.8389C45.6759 51.2425 47.1558 53.3633 50.07 53.3633C52.9841 53.3633 54.4335 51.2425 55.41 49.8389C56.3483 48.4886 56.7068 48.0996 57.3553 48.0996C58.0037 48.0996 58.3699 48.4886 59.3082 49.8389C60.2847 51.2425 61.7493 53.3633 64.6635 53.3633C67.5776 53.3633 69.0423 51.2425 70.0187 49.8389C70.9571 48.4886 71.3232 48.0996 71.9717 48.0996C72.6201 48.0996 72.9863 48.4886 73.9246 49.8389C74.901 51.2425 76.3734 53.3633 79.2798 53.3633C82.1863 53.3633 83.6663 51.2425 84.6351 49.8389C85.5734 48.4886 85.9396 48.0996 86.588 48.0996C87.2365 48.0996 87.6026 48.4886 88.541 49.8389C89.5174 51.2425 90.9897 53.3633 93.8962 53.3633C96.8027 53.3633 98.008 51.2425 98.9845 49.8389C99.549 49.0303 99.9762 48.5649 99.9762 48.3208V43.9954C97.6876 44.3005 96.4747 46.1848 95.5821 47.474V47.4893Z" fill="#c2d9ed"/>
<path d="M95.5821 61.2796C94.6438 62.6299 94.4073 63.0189 93.7589 63.0189C93.1105 63.0189 92.8053 62.6299 91.8746 61.2796C90.8982 59.8759 89.464 57.7552 86.5499 57.7552C83.6358 57.7552 82.1863 59.8759 81.2099 61.2796C80.2716 62.6299 79.913 63.0189 79.2646 63.0189C78.6162 63.0189 78.25 62.6299 77.3117 61.272C76.3352 59.8683 74.8705 57.7476 71.9564 57.7476C69.0423 57.7476 67.57 59.8683 66.6011 61.272C65.6628 62.6222 65.289 63.0113 64.6482 63.0113C64.0074 63.0113 63.626 62.6222 62.6953 61.272C61.7188 59.8683 60.2465 57.7476 57.3324 57.7476C54.4183 57.7476 52.9459 59.8683 51.9695 61.272C51.0312 62.6222 50.6497 63.0113 50.0013 63.0113C49.3529 63.0113 49.0401 62.6222 48.1018 61.272C47.1253 59.8683 45.8208 57.7476 42.7694 57.7476V61.8899C43.5323 61.8899 43.7611 62.2789 44.6994 63.6292C45.6759 65.0329 47.1558 67.1536 50.07 67.1536C52.9841 67.1536 54.4335 65.0329 55.41 63.6292C56.3483 62.2789 56.7068 61.8899 57.3553 61.8899C58.0037 61.8899 58.3699 62.2789 59.3082 63.6292C60.2847 65.0329 61.7493 67.1536 64.6635 67.1536C67.5776 67.1536 69.0423 65.0329 70.0187 63.6292C70.9571 62.2789 71.3232 61.8899 71.9717 61.8899C72.6201 61.8899 72.9863 62.2789 73.9246 63.6292C74.901 65.0329 76.3734 67.1536 79.2798 67.1536C82.1863 67.1536 83.6663 65.0329 84.6351 63.6292C85.5734 62.2789 85.9396 61.8899 86.588 61.8899C87.2365 61.8899 87.6026 62.2789 88.541 63.6292C89.5174 65.0329 90.9897 67.1536 93.8962 67.1536C96.8027 67.1536 98.008 65.0329 98.9845 63.6292C99.549 62.8206 99.9762 62.3552 99.9762 62.1111V57.7857C97.6876 58.0908 96.4747 59.9751 95.5821 61.2643V61.2796Z" fill="#c2d9ed"/>
<path d="M30.8029 36.2414L22.4179 32.4227L29.2983 26.6174L30.1634 29.1107C30.1634 29.1107 35.6041 27.8934 38.1035 21.3868L43.1611 23.5835C43.1611 23.5835 41.5453 32.0828 30.6825 34.0292L30.8029 36.2414Z" fill="#c2d9ed" stroke="#288be4" stroke-width="1.76811" stroke-miterlimit="10" stroke-linecap="round"/>
<path d="M20.1657 29.809C20.1657 29.809 13.5016 24.3066 17.0082 13.8515L15 12.9247L22.3809 7.38818L24.1667 16.2088L21.5622 15.7763C21.5622 15.7763 20.0143 21.1274 24.5065 26.4414L20.1657 29.809Z" fill="#c2d9ed" stroke="#288be4" stroke-width="1.76811" stroke-miterlimit="10" stroke-linecap="round"/>
<path d="M43.9212 19.9873L35.4373 16.9811L37.1551 14.9791C37.1551 14.9791 33.3643 10.8947 26.4777 12.0008L25.8597 6.55081C25.8597 6.55081 34.0069 3.65899 41.1561 12.0595L43.0098 10.8237L43.9212 19.9873Z" fill="#c2d9ed" stroke="#288be4" stroke-width="1.76811" stroke-miterlimit="10" stroke-linecap="round"/>
<path d="M69.5055 34.1351C69.2409 34.647 69.2408 34.647 69.2406 34.6469L69.2401 34.6466L69.2386 34.6458L69.2335 34.6432L69.215 34.6335C69.199 34.6251 69.176 34.6129 69.1461 34.5969C69.0864 34.5648 68.9995 34.5177 68.8887 34.4558C68.667 34.3322 68.349 34.1498 67.9594 33.9126C67.1807 33.4385 66.1133 32.7435 64.956 31.8587C62.654 30.0988 59.9409 27.5461 58.4767 24.4415L58.0889 23.6194H58.9978H63.2533L63.5707 23.396L64.5074 20.0724L65.065 18.0942H64.7932L63.5476 22.9826L63.437 23.4165H62.9892H58.4631H58.0372L57.9122 23.0094C57.6238 22.0699 57.4238 21.0147 57.4238 19.9532C57.4238 15.7744 60.641 12.4238 64.6155 12.4238C66.4654 12.4238 68.1713 13.1405 69.4966 14.4119C70.7498 13.1396 72.4461 12.4293 74.2963 12.4293C78.3541 12.4293 81.5762 15.7748 81.5762 19.9587C81.5762 21.021 81.3758 22.091 80.9894 23.0594L80.8447 23.422H80.4542H76.2864H75.8457L75.7303 22.9967L74.4013 18.0997H74.2476L74.7605 20.0845L75.6122 23.381L75.9981 23.6194H80.0022H80.9107L80.5234 24.4413C79.0593 27.5485 76.349 30.1013 74.0497 31.8607C72.8937 32.7452 71.8277 33.4396 71.05 33.9133C70.6609 34.1504 70.3433 34.3325 70.1219 34.456C70.0112 34.5178 69.9245 34.5649 69.8648 34.5969C69.835 34.6129 69.8119 34.6251 69.796 34.6335L69.7776 34.6432L69.7725 34.6458L69.7709 34.6466L69.7704 34.6469C69.7703 34.647 69.7701 34.647 69.5055 34.1351ZM69.5055 34.1351L69.2409 34.647L69.5055 34.7838L69.7701 34.647L69.5055 34.1351ZM74.0148 18.0997H74.1574L73.6446 20.0846L72.788 23.4001L72.4764 23.6194H70.3104H69.8675L69.7535 24.0475L68.4231 29.0465H67.9446L65.6199 20.084L65.1037 18.0942H65.2576L67.5977 26.9653L68.129 28.9795L68.7084 26.9786L69.6541 23.7123L69.9827 23.422H72.1297H72.5704L72.6858 22.9967L74.0148 18.0997Z" fill="#c2d9ed" stroke="#c2d9ed" stroke-width="1.15249"/>
<path d="M82.5321 12.1472C81.7216 11.3262 80.7527 10.6785 79.6842 10.2434C78.6157 9.80833 77.47 9.59502 76.3165 9.61641C74.2334 9.66773 72.2434 10.49 70.7317 11.9242C70.6125 6.21247 67.9701 3.97395 67.7932 3.8701L66.8816 3.26239L64.6585 6.93557C65.6409 7.18294 66.5258 7.7209 67.1975 8.47915C67.8693 9.2374 68.2968 10.1807 68.424 11.1857C68.4701 11.5703 68.5124 11.9549 68.5394 12.4165C67.8687 11.7453 67.0882 11.1938 66.2316 10.7857C64.6778 10.0354 62.9311 9.7806 61.2278 10.0558C59.5244 10.331 57.9467 11.1228 56.7083 12.3242C56.566 12.4626 56.4275 12.605 56.2775 12.7703C54.7051 14.5652 53.865 16.8858 53.9242 19.2713C53.9833 21.6568 54.9373 23.9328 56.5967 25.6476L67.8355 36.9325C68.1111 37.2119 68.4392 37.4342 68.8009 37.5867C69.1626 37.7392 69.5508 37.8188 69.9432 37.821H70.0125C70.4168 37.8107 70.8147 37.7185 71.1823 37.5499C71.5499 37.3813 71.8794 37.1399 72.151 36.8402L82.8359 25.0168C84.4073 23.2239 85.2482 20.9063 85.1919 18.5228C85.1356 16.1394 84.1863 13.864 82.5321 12.1472ZM59.1506 14.8165C59.616 14.3646 60.1659 14.0089 60.769 13.77C61.3721 13.5311 62.0165 13.4136 62.6651 13.4243C63.3137 13.435 63.9538 13.5737 64.5487 13.8325C65.1436 14.0912 65.6815 14.4648 66.1316 14.9319L69.5509 18.3936L72.8356 14.7435C73.2837 14.2368 73.8315 13.828 74.4448 13.5427C75.0581 13.2574 75.7237 13.1018 76.3999 13.0856C77.0761 13.0693 77.7484 13.1928 78.3747 13.4483C79.001 13.7038 79.5678 14.0858 80.0397 14.5704C81.0839 15.6504 81.6853 17.0826 81.7252 18.5844C81.7651 20.0861 81.2405 21.5482 80.2551 22.6821L69.9279 34.1017L59.093 23.2052C58.0476 22.1238 57.4463 20.6895 57.4078 19.186C57.3694 17.6824 57.8966 16.2192 58.8853 15.0858C58.9891 14.9973 59.0583 14.905 59.1506 14.8165Z" fill="#288be4"/>
<path d="M76.7084 5.23297L76.7055 5.23643C76.1049 5.94215 75.0567 6.34189 73.925 6.52319C73.6728 6.5636 73.4306 6.59086 73.2077 6.60885C73.1889 6.38463 73.1762 6.13962 73.175 5.88246C73.1698 4.73446 73.3957 3.63736 73.9978 2.93418C74.6049 2.22509 75.6559 1.8262 76.7847 1.64602C77.0357 1.60594 77.2767 1.57894 77.4985 1.56113C77.5173 1.78507 77.53 2.02978 77.5312 2.28662C77.5364 3.4333 77.3106 4.52963 76.7084 5.23297Z" fill="#c2d9ed" stroke="#288be4" stroke-width="3.05951"/>
</svg>
