<?xml version="1.0" encoding="UTF-8" standalone="no"?>
<svg
   width="80"
   height="80"
   viewBox="0 0 80 80"
   fill="none"
   version="1.1"
   id="svg5956"
   sodipodi:docname="sustainability-button.svg"
   inkscape:version="1.2.2 (b0a8486541, 2022-12-01)"
   xmlns:inkscape="http://www.inkscape.org/namespaces/inkscape"
   xmlns:sodipodi="http://sodipodi.sourceforge.net/DTD/sodipodi-0.dtd"
   xmlns="http://www.w3.org/2000/svg"
   xmlns:svg="http://www.w3.org/2000/svg">
  <defs
     id="defs5960" />
  <sodipodi:namedview
     id="namedview5958"
     pagecolor="#ffffff"
     bordercolor="#666666"
     borderopacity="1.0"
     inkscape:showpageshadow="2"
     inkscape:pageopacity="0.0"
     inkscape:pagecheckerboard="0"
     inkscape:deskcolor="#d1d1d1"
     showgrid="false"
     inkscape:zoom="7.3176471"
     inkscape:cx="44.481511"
     inkscape:cy="42.5"
     inkscape:window-width="1600"
     inkscape:window-height="831"
     inkscape:window-x="0"
     inkscape:window-y="0"
     inkscape:window-maximized="1"
     inkscape:current-layer="svg5956" />
  <g
     opacity="0.6">
   <path
      d="m 43.219138,67.738107 c -0.9383,1.3503 -1.1748,1.7393 -1.8232,1.7393 -0.6484,0 -0.9536,-0.389 -1.8842,-1.7393 -0.9765,-1.4037 -2.4107,-3.5244 -5.3248,-3.5244 -2.9141,0 -4.3635,2.1207 -5.34,3.5244 -0.9383,1.3503 -1.2969,1.7393 -1.9453,1.7393 -0.6484,0 -1.0146,-0.389 -1.9529,-1.7393 -0.9765,-1.4037 -2.4412,-3.5244 -5.3553,-3.5244 -2.9141,0 -4.3864,2.1207 -5.3553,3.5244 -0.9383,1.3503 -1.3121,1.7393 -1.9529,1.7393 -0.6408,0 -1.0222,-0.389 -1.9529,-1.7393 -0.9765,-1.4037 -2.4488,-3.5244 -5.3629,-3.5244 -2.9141,0 -4.3864,2.1207 -5.3629,3.5244 -0.93831,1.3503 -1.31974,1.7393 -1.96817,1.7393 -0.64843,0 -0.9612,-0.389 -1.89952,-1.7393 -0.97646,-1.4037 -2.28095,-3.5244 -5.332386,-3.5244 v 4.1423 c 0.762856,0 0.991716,0.3891 1.930036,1.7393 0.97646,1.4037 2.4564,3.5244 5.37052,3.5244 2.91412,0 4.36352,-2.1207 5.34002,-3.5244 0.9383,-1.3502 1.2969,-1.7393 1.9453,-1.7393 0.6484,0 1.0146,0.3891 1.9529,1.7393 0.9765,1.4037 2.4412,3.5244 5.3553,3.5244 2.9141,0 4.3788,-2.1207 5.3552,-3.5244 0.9384,-1.3502 1.3045,-1.7393 1.953,-1.7393 0.6484,0 1.0146,0.3891 1.9529,1.7393 0.9764,1.4037 2.4488,3.5244 5.3553,3.5244 2.9065,0 4.3864,-2.1207 5.3552,-3.5244 0.9383,-1.3502 1.3045,-1.7393 1.9529,-1.7393 0.6485,0 1.0146,0.3891 1.953,1.7393 0.9764,1.4037 2.4487,3.5244 5.3552,3.5244 2.9065,0 4.1118,-2.1207 5.0883,-3.5244 0.5645,-0.8086 0.9917,-1.2739 0.9917,-1.5181 v -4.3254 c -2.2886,0.3052 -3.5015,2.1894 -4.3941,3.4787 z"
      fill="#98b3cb"
      id="path5936" />
   <path
      d="m 43.219238,53.955207 c -0.9383,1.3502 -1.1748,1.7393 -1.8232,1.7393 -0.6485,0 -0.9536,-0.3891 -1.8843,-1.7393 -0.9764,-1.4037 -2.4106,-3.5245 -5.3247,-3.5245 -2.9142,0 -4.3636,2.1208 -5.34,3.5245 -0.9384,1.3502 -1.2969,1.7393 -1.9453,1.7393 -0.6485,0 -1.0146,-0.3891 -1.953,-1.747 -0.9764,-1.4036 -2.4411,-3.5244 -5.3552,-3.5244 -2.9142,0 -4.3865,2.1208 -5.3553,3.5244 -0.9383,1.3503 -1.3121,1.7394 -1.9529,1.7394 -0.6408,0 -1.0223,-0.3891 -1.9529,-1.7394 -0.9765,-1.4036 -2.4488,-3.5244 -5.3629,-3.5244 -2.9142,0 -4.3865,2.1208 -5.36293,3.5244 -0.93832,1.3503 -1.31975,1.7394 -1.96818,1.7394 -0.64843,0 -0.9612,-0.3891 -1.89952,-1.7394 -0.97646,-1.4036 -2.28095,-3.5244 -5.332385,-3.5244 v 4.1423 c 0.762855,0 0.991715,0.3891 1.930035,1.7394 0.97646,1.4036 2.4564,3.5244 5.37053,3.5244 2.91415,0 4.36355,-2.1208 5.34005,-3.5244 0.9383,-1.3503 1.2968,-1.7394 1.9452,-1.7394 0.6485,0 1.0147,0.3891 1.953,1.7394 0.9764,1.4036 2.4411,3.5244 5.3552,3.5244 2.9142,0 4.3788,-2.1208 5.3553,-3.5244 0.9383,-1.3503 1.3045,-1.7394 1.9529,-1.7394 0.6485,0 1.0146,0.3891 1.9529,1.7394 0.9765,1.4036 2.4488,3.5244 5.3553,3.5244 2.9065,0 4.3865,-2.1208 5.3553,-3.5244 0.9383,-1.3503 1.3045,-1.7394 1.9529,-1.7394 0.6484,0 1.0146,0.3891 1.9529,1.7394 0.9765,1.4036 2.4488,3.5244 5.3553,3.5244 2.9065,0 4.1118,-2.1208 5.0883,-3.5244 0.5645,-0.8087 0.9917,-1.274 0.9917,-1.5181 v -4.3254 c -2.2886,0.3051 -3.5015,2.1894 -4.3941,3.4786 z"
      fill="#98b3cb"
      id="path5938" />
   <path
      d="m 85.199438,53.955307 c -0.9383,1.3502 -1.1748,1.7393 -1.8232,1.7393 -0.6484,0 -0.9536,-0.3891 -1.8843,-1.7393 -0.9764,-1.4037 -2.4106,-3.5244 -5.3247,-3.5244 -2.9141,0 -4.3636,2.1207 -5.34,3.5244 -0.9383,1.3502 -1.2969,1.7393 -1.9453,1.7393 -0.6484,0 -1.0146,-0.3891 -1.9529,-1.747 -0.9765,-1.4036 -2.4412,-3.5244 -5.3553,-3.5244 -2.9141,0 -4.3864,2.1208 -5.3553,3.5244 -0.9383,1.3503 -1.3121,1.7394 -1.9529,1.7394 -0.6408,0 -1.0222,-0.3891 -1.9529,-1.7394 -0.9765,-1.4036 -2.4488,-3.5244 -5.3629,-3.5244 -2.9141,0 -4.3865,2.1208 -5.3629,3.5244 -0.9383,1.3503 -1.3198,1.7394 -1.9682,1.7394 -0.6484,0 -0.9612,-0.3891 -1.8995,-1.7394 -0.9765,-1.4036 -2.281,-3.5244 -5.3324,-3.5244 v 4.1424 c 0.7629,0 0.9917,0.389 1.93,1.7393 0.9765,1.4036 2.4564,3.5244 5.3706,3.5244 2.9141,0 4.3635,-2.1208 5.34,-3.5244 0.9383,-1.3503 1.2968,-1.7393 1.9453,-1.7393 0.6484,0 1.0146,0.389 1.9529,1.7393 0.9765,1.4036 2.4411,3.5244 5.3553,3.5244 2.9141,0 4.3788,-2.1208 5.3552,-3.5244 0.9384,-1.3503 1.3045,-1.7393 1.953,-1.7393 0.6484,0 1.0146,0.389 1.9529,1.7393 0.9764,1.4036 2.4488,3.5244 5.3552,3.5244 2.9065,0 4.3865,-2.1208 5.3553,-3.5244 0.9383,-1.3503 1.3045,-1.7393 1.9529,-1.7393 0.6485,0 1.0146,0.389 1.953,1.7393 0.9764,1.4036 2.4487,3.5244 5.3552,3.5244 2.9065,0 4.1118,-2.1208 5.0883,-3.5244 0.5645,-0.8086 0.9917,-1.274 0.9917,-1.5181 v -4.3254 c -2.2886,0.3051 -3.5015,2.1894 -4.3941,3.4786 z"
      fill="#98b3cb"
      id="path5940" />
   <path
      d="m 85.199438,67.745607 c -0.9383,1.3503 -1.1748,1.7393 -1.8232,1.7393 -0.6484,0 -0.9536,-0.389 -1.8843,-1.7393 -0.9764,-1.4037 -2.4106,-3.5244 -5.3247,-3.5244 -2.9141,0 -4.3636,2.1207 -5.34,3.5244 -0.9383,1.3503 -1.2969,1.7393 -1.9453,1.7393 -0.6484,0 -1.0146,-0.389 -1.9529,-1.7469 -0.9765,-1.4037 -2.4412,-3.5244 -5.3553,-3.5244 -2.9141,0 -4.3864,2.1207 -5.3553,3.5244 -0.9383,1.3502 -1.3121,1.7393 -1.9529,1.7393 -0.6408,0 -1.0222,-0.3891 -1.9529,-1.7393 -0.9765,-1.4037 -2.4488,-3.5244 -5.3629,-3.5244 -2.9141,0 -4.3865,2.1207 -5.3629,3.5244 -0.9383,1.3502 -1.3198,1.7393 -1.9682,1.7393 -0.6484,0 -0.9612,-0.3891 -1.8995,-1.7393 -0.9765,-1.4037 -2.281,-3.5244 -5.3324,-3.5244 v 4.1423 c 0.7629,0 0.9917,0.389 1.93,1.7393 0.9765,1.4037 2.4564,3.5244 5.3706,3.5244 2.9141,0 4.3635,-2.1207 5.34,-3.5244 0.9383,-1.3503 1.2968,-1.7393 1.9453,-1.7393 0.6484,0 1.0146,0.389 1.9529,1.7393 0.9765,1.4037 2.4411,3.5244 5.3553,3.5244 2.9141,0 4.3788,-2.1207 5.3552,-3.5244 0.9384,-1.3503 1.3045,-1.7393 1.953,-1.7393 0.6484,0 1.0146,0.389 1.9529,1.7393 0.9764,1.4037 2.4488,3.5244 5.3552,3.5244 2.9065,0 4.3865,-2.1207 5.3553,-3.5244 0.9383,-1.3503 1.3045,-1.7393 1.9529,-1.7393 0.6485,0 1.0146,0.389 1.953,1.7393 0.9764,1.4037 2.4487,3.5244 5.3552,3.5244 2.9065,0 4.1118,-2.1207 5.0883,-3.5244 0.5645,-0.8086 0.9917,-1.274 0.9917,-1.5181 v -4.3254 c -2.2886,0.3051 -3.5015,2.1894 -4.3941,3.4786 z"
      fill="#98b3cb"
      id="path5942" />
   <path
      d="m 20.420238,42.707407 -8.385,-3.8187 6.8804,-5.8053 0.8651,2.4933 c 0,0 5.4407,-1.2173 7.9401,-7.7239 l 5.0576,2.1967 c 0,0 -1.6158,8.4993 -12.4786,10.4457 z"
      fill="#98b3cb"
      stroke="#3c7297"
      stroke-width="1.76811"
      stroke-miterlimit="10"
      stroke-linecap="round"
      id="path5944" />
   <path
      d="m 9.783038,36.275007 c 0,0 -6.6641,-5.5024 -3.1575,-15.9575 l -2.0082,-0.9268 7.3809,-5.53652 1.7858,8.82062 -2.6045,-0.4325 c 0,0 -1.5479,5.3511 2.9443,10.6651 z"
      fill="#98b3cb"
      stroke="#3c7297"
      stroke-width="1.76811"
      stroke-miterlimit="10"
      stroke-linecap="round"
      id="path5946" />
   <path
      d="m 33.538538,26.453307 -8.4839,-3.0062 1.7178,-2.002 c 0,0 -3.7908,-4.0844 -10.6774,-2.9783 l -0.618,-5.44999 c 0,0 8.1472,-2.89182 15.2964,5.50869 l 1.8537,-1.2358 z"
      fill="#98b3cb"
      stroke="#3c7297"
      stroke-width="1.76811"
      stroke-miterlimit="10"
      stroke-linecap="round"
      id="path5948" />
   <path
      d="m 59.122838,40.601107 c -0.2646,0.5119 -0.2647,0.5119 -0.2649,0.5118 l -5e-4,-3e-4 -0.0015,-8e-4 -0.0051,-0.0026 -0.0185,-0.0097 c -0.016,-0.0084 -0.039,-0.0206 -0.0689,-0.0366 -0.0597,-0.0321 -0.1466,-0.0792 -0.2574,-0.1411 -0.2217,-0.1236 -0.5397,-0.306 -0.9293,-0.5432 -0.7787,-0.4741 -1.8461,-1.1691 -3.0034,-2.0539 -2.302,-1.7599 -5.0151,-4.3126 -6.4793,-7.4172 l -0.3878,-0.8221 h 0.9089 4.2555 l 0.3174,-0.2234 0.9367,-3.3236 0.5576,-1.9782 h -0.2718 l -1.2456,4.8884 -0.1106,0.4339 h -0.4478 -4.5261 -0.4259 l -0.125,-0.4071 c -0.2884,-0.9395 -0.4884,-1.9947 -0.4884,-3.0562 0,-4.1788 3.2172,-7.5294 7.1917,-7.5294 1.8499,0 3.5558,0.7167 4.8811,1.9881 1.2532,-1.2723 2.9495,-1.9826 4.7997,-1.9826 4.0578,0 7.2799,3.3455 7.2799,7.5294 0,1.0623 -0.2004,2.1323 -0.5868,3.1007 l -0.1447,0.3626 h -0.3905 -4.1678 -0.4407 l -0.1154,-0.4253 -1.329,-4.897 h -0.1537 l 0.5129,1.9848 0.8517,3.2965 0.3859,0.2384 h 4.0041 0.9085 l -0.3873,0.8219 c -1.4641,3.1072 -4.1744,5.66 -6.4737,7.4194 -1.156,0.8845 -2.222,1.5789 -2.9997,2.0526 -0.3891,0.2371 -0.7067,0.4192 -0.9281,0.5427 -0.1107,0.0618 -0.1974,0.1089 -0.2571,0.1409 -0.0298,0.016 -0.0529,0.0282 -0.0688,0.0366 l -0.0184,0.0097 -0.0051,0.0026 -0.0016,8e-4 -5e-4,3e-4 c -10e-5,1e-4 -3e-4,1e-4 -0.2649,-0.5118 z m 0,0 -0.2646,0.5119 0.2646,0.1368 0.2646,-0.1368 z m 4.5093,-16.0354 h 0.1426 l -0.5128,1.9849 -0.8566,3.3155 -0.3116,0.2193 h -2.166 -0.4429 l -0.114,0.4281 -1.3304,4.999 h -0.4785 l -2.3247,-8.9625 -0.5162,-1.9898 h 0.1539 l 2.3401,8.8711 0.5313,2.0142 0.5794,-2.0009 0.9457,-3.2663 0.3286,-0.2903 h 2.147 0.4407 l 0.1154,-0.4253 z"
      fill="#98b3cb"
      stroke="#98b3cb"
      stroke-width="1.15249"
      id="path5950" />
   <path
      d="m 72.149438,18.613207 c -0.8105,-0.821 -1.7794,-1.4687 -2.8479,-1.9038 -1.0685,-0.43507 -2.2142,-0.64838 -3.3677,-0.62699 -2.0831,0.05132 -4.0731,0.87359 -5.5848,2.30779 -0.1192,-5.71173 -2.7616,-7.95025 -2.9385,-8.0541 l -0.9116,-0.6077095 -2.2231,3.6731795 c 0.9824,0.24737 1.8673,0.78533 2.539,1.54358 0.6718,0.75825 1.0993,1.70155 1.2265,2.70655 0.0461,0.3846 0.0884,0.7692 0.1154,1.2308 -0.6707,-0.6712 -1.4512,-1.2227 -2.3078,-1.6308 -1.5538,-0.7503 -3.3005,-1.0051 -5.0038,-0.7299 -1.7034,0.2752 -3.2811,1.067 -4.5195,2.2684 -0.1423,0.1384 -0.2808,0.2808 -0.4308,0.4461 -1.5724,1.7949 -2.4125,4.1155 -2.3533,6.501 0.0591,2.3855 1.0131,4.6615 2.6725,6.3763 l 11.2388,11.2849 c 0.2756,0.2794 0.6037,0.5017 0.9654,0.6542 0.3617,0.1525 0.7499,0.2321 1.1423,0.2343 h 0.0693 c 0.4043,-0.0103 0.8022,-0.1025 1.1698,-0.2711 0.3676,-0.1686 0.6971,-0.41 0.9687,-0.7097 l 10.6849,-11.8234 c 1.5714,-1.7929 2.4123,-4.1105 2.356,-6.494 -0.0563,-2.3834 -1.0056,-4.6588 -2.6598,-6.3756 z m -23.3815,2.6693 c 0.4654,-0.4519 1.0153,-0.8076 1.6184,-1.0465 0.6031,-0.2389 1.2475,-0.3564 1.8961,-0.3457 0.6486,0.0107 1.2887,0.1494 1.8836,0.4082 0.5949,0.2587 1.1328,0.6323 1.5829,1.0994 l 3.4193,3.4617 3.2847,-3.6501 c 0.4481,-0.5067 0.9959,-0.9155 1.6092,-1.2008 0.6133,-0.2853 1.2789,-0.4409 1.9551,-0.4571 0.6762,-0.0163 1.3485,0.1072 1.9748,0.3627 0.6263,0.2555 1.1931,0.6375 1.665,1.1221 1.0442,1.08 1.6456,2.5122 1.6855,4.014 0.0399,1.5017 -0.4847,2.9638 -1.4701,4.0977 l -10.3272,11.4196 -10.8349,-10.8965 c -1.0454,-1.0814 -1.6467,-2.5157 -1.6852,-4.0192 -0.0384,-1.5036 0.4888,-2.9668 1.4775,-4.1002 0.1038,-0.0885 0.173,-0.1808 0.2653,-0.2693 z"
      fill="#3c7297"
      id="path5952" />
   <path
      d="m 66.325738,11.698977 -0.0029,0.0035 c -0.6006,0.70572 -1.6488,1.10546 -2.7805,1.28676 -0.2522,0.04041 -0.4944,0.06767 -0.7173,0.08566 -0.0188,-0.22422 -0.0315,-0.46923 -0.0327,-0.72639 -0.0052,-1.148 0.2207,-2.2451 0.8228,-2.9482795 0.6071,-0.70909 1.6581,-1.10798 2.7869,-1.28816 0.251,-0.04008 0.492,-0.06708 0.7138,-0.08489 0.0188,0.22394 0.0315,0.46865 0.0327,0.72549 0.0052,1.14668 -0.2206,2.2430095 -0.8228,2.9463495 z"
      fill="#98b3cb"
      stroke="#3c7297"
      stroke-width="3.05951"
      id="path5954" />
  </g>
</svg>
