<?xml version="1.0" encoding="UTF-8" standalone="no"?>
<svg
   width="80"
   height="80"
   viewBox="0 0 80 80"
   fill="none"
   version="1.1"
   id="svg5956"
   xmlns="http://www.w3.org/2000/svg"
   xmlns:svg="http://www.w3.org/2000/svg">
  <defs
     id="defs5960" />
  <g
     opacity="1"
     id="g14">
    <path
       id="path5936"
       style="fill:#080808;fill-opacity:0.1"
       d="M -9.59375 50.423828 L -9.59375 54.564453 C -8.8308958 54.564453 -8.6023816 54.954389 -7.6640625 56.304688 C -6.6876035 57.708286 -5.2070958 59.830078 -2.2929688 59.830078 C 0.62117834 59.830078 2.070376 57.708286 3.046875 56.304688 C 3.9851741 54.954389 4.3437881 54.564453 4.9921875 54.564453 C 5.6406869 54.564453 6.0070134 54.954389 6.9453125 56.304688 C 7.9217115 57.708286 9.3866842 59.830078 12.300781 59.830078 C 15.214978 59.830078 16.679751 57.708286 17.65625 56.304688 C 18.594549 54.954389 18.960976 54.564453 19.609375 54.564453 C 20.257874 54.564453 20.624201 54.954389 21.5625 56.304688 C 22.538999 57.708286 24.009519 59.830078 26.916016 59.830078 C 29.822513 59.830078 31.302685 57.708286 32.271484 56.304688 C 33.209783 54.954389 33.57621 54.564453 34.224609 54.564453 C 34.873009 54.564453 35.239435 54.954389 36.177734 56.304688 C 37.154233 57.708286 38.626706 59.830078 41.533203 59.830078 C 41.559544 59.830078 41.583313 59.826518 41.609375 59.826172 C 41.636018 59.826531 41.660614 59.830078 41.6875 59.830078 C 44.601597 59.830078 46.050845 57.708286 47.027344 56.304688 C 47.965643 54.954389 48.324157 54.566406 48.972656 54.566406 C 49.621056 54.566406 49.987482 54.954389 50.925781 56.304688 C 51.90228 57.708286 53.367053 59.830078 56.28125 59.830078 C 59.195347 59.830078 60.66032 57.708286 61.636719 56.304688 C 62.575118 54.954389 62.941344 54.566406 63.589844 54.566406 C 64.238243 54.566406 64.602717 54.954389 65.541016 56.304688 C 66.517415 57.708286 67.990087 59.830078 70.896484 59.830078 C 73.802981 59.830078 75.283154 57.708286 76.251953 56.304688 C 77.190252 54.954389 77.556679 54.566406 78.205078 54.566406 C 78.853577 54.566406 79.219804 54.954389 80.158203 56.304688 C 81.134602 57.708286 82.607175 59.830078 85.513672 59.830078 C 88.420169 59.830078 89.625063 57.708286 90.601562 56.304688 C 91.166062 55.496088 91.59375 55.031209 91.59375 54.787109 L 91.59375 50.460938 C 89.305152 50.766037 88.091818 52.650254 87.199219 53.939453 L 87.199219 53.955078 C 86.26092 55.305277 86.025352 55.695312 85.376953 55.695312 C 84.728554 55.695312 84.422887 55.305277 83.492188 53.955078 C 82.515788 52.55138 81.082066 50.431641 78.167969 50.431641 C 75.253872 50.431641 73.804524 52.55138 72.828125 53.955078 C 71.889826 55.305277 71.531212 55.695312 70.882812 55.695312 C 70.234413 55.695312 69.867987 55.305164 68.929688 53.947266 C 67.953188 52.543667 66.488316 50.423828 63.574219 50.423828 C 60.660122 50.423828 59.187649 52.543667 58.21875 53.947266 C 57.280451 55.297564 56.906424 55.6875 56.265625 55.6875 C 55.624826 55.6875 55.243199 55.297564 54.3125 53.947266 C 53.336001 52.543667 51.863316 50.423828 48.949219 50.423828 C 48.464018 50.423828 48.022911 50.487309 47.613281 50.591797 L 47.613281 50.460938 C 45.324684 50.766037 44.111349 52.650254 43.21875 53.939453 L 43.21875 53.955078 C 42.362046 55.187863 42.08703 55.615903 41.552734 55.681641 C 40.949803 55.653898 40.623244 55.248916 39.71875 53.947266 C 38.742251 52.543667 37.438116 50.423828 34.386719 50.423828 L 34.386719 50.441406 C 34.319778 50.439095 34.256066 50.431641 34.1875 50.431641 C 31.273303 50.431641 29.824055 52.55138 28.847656 53.955078 C 27.909257 55.305277 27.550743 55.695312 26.902344 55.695312 C 26.253844 55.695312 25.887618 55.305164 24.949219 53.947266 C 23.97282 52.543667 22.507847 50.423828 19.59375 50.423828 C 16.679553 50.423828 15.20708 52.543667 14.238281 53.947266 C 13.299982 55.297564 12.925956 55.6875 12.285156 55.6875 C 11.644357 55.6875 11.26263 55.297564 10.332031 53.947266 C 9.3555322 52.543667 7.8828471 50.423828 4.96875 50.423828 C 2.0545529 50.423828 0.5838509 52.543667 -0.39257812 53.947266 C -1.3308972 55.297564 -1.7128988 55.6875 -2.3613281 55.6875 C -3.0097575 55.6875 -3.3233997 55.297564 -4.2617188 53.947266 C -5.2381778 52.543667 -6.5423181 50.423828 -9.59375 50.423828 z M -9.59375 64.212891 L -9.59375 68.355469 C -8.8308948 68.355469 -8.6023816 68.745504 -7.6640625 70.095703 C -6.6876035 71.499402 -5.2070858 73.619141 -2.2929688 73.619141 C 0.62114834 73.619141 2.070376 71.499402 3.046875 70.095703 C 3.9851741 68.745504 4.3437881 68.355469 4.9921875 68.355469 C 5.6405869 68.355469 6.0070134 68.745504 6.9453125 70.095703 C 7.9218115 71.499402 9.3866842 73.619141 12.300781 73.619141 C 15.214878 73.619141 16.679851 71.499402 17.65625 70.095703 C 18.594649 68.745504 18.960876 68.355469 19.609375 68.355469 C 20.257774 68.355469 20.624201 68.745504 21.5625 70.095703 C 22.538899 71.499402 24.009519 73.619141 26.916016 73.619141 C 29.822513 73.619141 31.302685 71.499402 32.271484 70.095703 C 33.209783 68.745504 33.57621 68.355469 34.224609 68.355469 C 34.873109 68.355469 35.239335 68.745504 36.177734 70.095703 C 37.154133 71.499402 38.626706 73.619141 41.533203 73.619141 C 41.559548 73.619141 41.583309 73.615581 41.609375 73.615234 C 41.636022 73.615593 41.660609 73.619141 41.6875 73.619141 C 44.601597 73.619141 46.050845 71.499402 47.027344 70.095703 C 47.965643 68.745404 48.324157 68.355469 48.972656 68.355469 C 49.621056 68.355469 49.987482 68.745404 50.925781 70.095703 C 51.90228 71.499402 53.367053 73.619141 56.28125 73.619141 C 59.195347 73.619141 60.66032 71.499402 61.636719 70.095703 C 62.575118 68.745404 62.941344 68.355469 63.589844 68.355469 C 64.238243 68.355469 64.602717 68.745404 65.541016 70.095703 C 66.517415 71.499402 67.990087 73.619141 70.896484 73.619141 C 73.802981 73.619141 75.283154 71.499402 76.251953 70.095703 C 77.190252 68.745404 77.556679 68.355469 78.205078 68.355469 C 78.853577 68.355469 79.219804 68.745404 80.158203 70.095703 C 81.134602 71.499402 82.607175 73.619141 85.513672 73.619141 C 88.420169 73.619141 89.625063 71.499402 90.601562 70.095703 C 91.166062 69.287104 91.59375 68.820272 91.59375 68.576172 L 91.59375 64.251953 C 89.305152 64.557053 88.091818 66.44127 87.199219 67.730469 L 87.199219 67.746094 C 86.26092 69.096392 86.025352 69.484375 85.376953 69.484375 C 84.728554 69.484375 84.422887 69.096392 83.492188 67.746094 C 82.515788 66.342395 81.082066 64.220703 78.167969 64.220703 C 75.253872 64.220703 73.804524 66.342395 72.828125 67.746094 C 71.889826 69.096392 71.531212 69.484375 70.882812 69.484375 C 70.234413 69.484375 69.867987 69.09618 68.929688 67.738281 C 67.953188 66.334583 66.488316 64.212891 63.574219 64.212891 C 60.660122 64.212891 59.187649 66.334583 58.21875 67.738281 C 57.280451 69.08848 56.906424 69.476562 56.265625 69.476562 C 55.624826 69.476562 55.243199 69.08848 54.3125 67.738281 C 53.336001 66.334583 51.863316 64.212891 48.949219 64.212891 C 48.464018 64.212891 48.022911 64.276375 47.613281 64.380859 L 47.613281 64.251953 C 45.324684 64.557153 44.111349 66.44117 43.21875 67.730469 L 43.21875 67.738281 C 42.340655 69.001941 42.07334 69.417876 41.511719 69.466797 C 40.934886 69.422247 40.602353 69.009773 39.71875 67.738281 C 38.742251 66.334583 37.438116 64.212891 34.386719 64.212891 L 34.386719 64.222656 C 34.319789 64.220346 34.256055 64.212891 34.1875 64.212891 C 31.273403 64.212891 29.824155 66.334583 28.847656 67.738281 C 27.909357 69.08858 27.550743 69.476562 26.902344 69.476562 C 26.253944 69.476562 25.887518 69.08858 24.949219 67.738281 C 23.97272 66.334583 22.507847 64.212891 19.59375 64.212891 C 16.679653 64.212891 15.20718 66.334583 14.238281 67.738281 C 13.299982 69.08858 12.925956 69.476562 12.285156 69.476562 C 11.644357 69.476562 11.26273 69.08858 10.332031 67.738281 C 9.3555322 66.334583 7.8828471 64.212891 4.96875 64.212891 C 2.0546529 64.212891 0.5839209 66.334583 -0.39257812 67.738281 C -1.3308872 69.08858 -1.7128988 69.476562 -2.3613281 69.476562 C -3.0097575 69.476562 -3.3233997 69.08858 -4.2617188 67.738281 C -5.2381778 66.334583 -6.5423171 64.212891 -9.59375 64.212891 z " />
    <path
       d="m 20.420238,42.707407 -8.385,-3.8187 6.8804,-5.8053 0.8651,2.4933 c 0,0 5.4407,-1.2173 7.9401,-7.7239 l 5.0576,2.1967 c 0,0 -1.6158,8.4993 -12.4786,10.4457 z"
       fill="#c2d9ed"
       stroke="#288be4"
       stroke-width="1.76811"
       stroke-miterlimit="10"
       stroke-linecap="round"
       id="path5944"
       style="stroke:#080808;stroke-opacity:0.80000001;fill:#08080d;fill-opacity:0.1" />
    <path
       d="m 9.783038,36.275007 c 0,0 -6.6641,-5.5024 -3.1575,-15.9575 l -2.0082,-0.9268 7.3809,-5.53652 1.7858,8.82062 -2.6045,-0.4325 c 0,0 -1.5479,5.3511 2.9443,10.6651 z"
       fill="#c2d9ed"
       stroke="#288be4"
       stroke-width="1.76811"
       stroke-miterlimit="10"
       stroke-linecap="round"
       id="path5946"
       style="stroke:#080808;stroke-opacity:0.80000001;fill:#08080d;fill-opacity:0.1" />
    <path
       d="m 33.538538,26.453307 -8.4839,-3.0062 1.7178,-2.002 c 0,0 -3.7908,-4.0844 -10.6774,-2.9783 l -0.618,-5.44999 c 0,0 8.1472,-2.89182 15.2964,5.50869 l 1.8537,-1.2358 z"
       fill="#c2d9ed"
       stroke="#288be4"
       stroke-width="1.76811"
       stroke-miterlimit="10"
       stroke-linecap="round"
       id="path5948"
       style="stroke:#080808;stroke-opacity:0.80000001;fill:#08080d;fill-opacity:0.1" />
    <path
       id="path1624"
       style="color:#000000;fill:#080808;fill-opacity:0.1;stroke-width:1.15249;-inkscape-stroke:none"
       d="M 54.232422 18.314453 C 49.934071 18.314453 46.464844 21.945368 46.464844 26.419922 C 46.464844 27.506412 46.675093 28.557356 46.957031 29.509766 L 46.796875 29.509766 L 47.199219 30.361328 L 47.228516 30.458984 L 47.244141 30.458984 L 47.572266 31.154297 C 49.101774 34.396376 51.880978 36.992968 54.222656 38.783203 C 55.400103 39.683406 56.484772 40.388547 57.277344 40.871094 C 57.616601 41.077644 57.869697 41.222588 58.087891 41.345703 L 58.082031 41.359375 L 58.490234 41.570312 L 58.556641 41.605469 C 58.558741 41.606569 58.562553 41.608375 58.564453 41.609375 L 58.576172 41.615234 L 58.578125 41.617188 L 58.580078 41.619141 L 58.585938 41.621094 L 58.589844 41.623047 L 58.599609 41.628906 L 58.599609 41.626953 L 59.123047 41.898438 L 59.660156 41.621094 L 59.666016 41.617188 L 59.681641 41.609375 L 59.683594 41.607422 L 59.689453 41.605469 C 59.705283 41.597069 59.725676 41.585472 59.753906 41.570312 L 60.164062 41.359375 L 60.15625 41.345703 C 60.374069 41.222767 60.627846 41.077635 60.966797 40.871094 C 61.758371 40.388942 62.841398 39.685097 64.017578 38.785156 C 66.356953 36.995092 69.133005 34.397501 70.662109 31.152344 L 71.4375 29.509766 L 71.185547 29.509766 C 71.546033 28.528869 71.769531 27.480376 71.769531 26.423828 C 71.769531 21.944086 68.288582 18.318359 63.914062 18.318359 C 62.087787 18.318359 60.427856 19.033063 59.109375 20.199219 C 57.738694 19.036288 56.064776 18.314453 54.232422 18.314453 z " />
    <path
       d="m 72.149438,18.613207 c -0.8105,-0.821 -1.7794,-1.4687 -2.8479,-1.9038 -1.0685,-0.43507 -2.2142,-0.64838 -3.3677,-0.62699 -2.0831,0.05132 -4.0731,0.87359 -5.5848,2.30779 -0.1192,-5.71173 -2.7616,-7.95025 -2.9385,-8.0541 l -0.9116,-0.6077095 -2.2231,3.6731795 c 0.9824,0.24737 1.8673,0.78533 2.539,1.54358 0.6718,0.75825 1.0993,1.70155 1.2265,2.70655 0.0461,0.3846 0.0884,0.7692 0.1154,1.2308 -0.6707,-0.6712 -1.4512,-1.2227 -2.3078,-1.6308 -1.5538,-0.7503 -3.3005,-1.0051 -5.0038,-0.7299 -1.7034,0.2752 -3.2811,1.067 -4.5195,2.2684 -0.1423,0.1384 -0.2808,0.2808 -0.4308,0.4461 -1.5724,1.7949 -2.4125,4.1155 -2.3533,6.501 0.0591,2.3855 1.0131,4.6615 2.6725,6.3763 l 11.2388,11.2849 c 0.2756,0.2794 0.6037,0.5017 0.9654,0.6542 0.3617,0.1525 0.7499,0.2321 1.1423,0.2343 h 0.0693 c 0.4043,-0.0103 0.8022,-0.1025 1.1698,-0.2711 0.3676,-0.1686 0.6971,-0.41 0.9687,-0.7097 l 10.6849,-11.8234 c 1.5714,-1.7929 2.4123,-4.1105 2.356,-6.494 -0.0563,-2.3834 -1.0056,-4.6588 -2.6598,-6.3756 z m -23.3815,2.6693 c 0.4654,-0.4519 1.0153,-0.8076 1.6184,-1.0465 0.6031,-0.2389 1.2475,-0.3564 1.8961,-0.3457 0.6486,0.0107 1.2887,0.1494 1.8836,0.4082 0.5949,0.2587 1.1328,0.6323 1.5829,1.0994 l 3.4193,3.4617 3.2847,-3.6501 c 0.4481,-0.5067 0.9959,-0.9155 1.6092,-1.2008 0.6133,-0.2853 1.2789,-0.4409 1.9551,-0.4571 0.6762,-0.0163 1.3485,0.1072 1.9748,0.3627 0.6263,0.2555 1.1931,0.6375 1.665,1.1221 1.0442,1.08 1.6456,2.5122 1.6855,4.014 0.0399,1.5017 -0.4847,2.9638 -1.4701,4.0977 l -10.3272,11.4196 -10.8349,-10.8965 c -1.0454,-1.0814 -1.6467,-2.5157 -1.6852,-4.0192 -0.0384,-1.5036 0.4888,-2.9668 1.4775,-4.1002 0.1038,-0.0885 0.173,-0.1808 0.2653,-0.2693 z"
       fill="#288be4"
       id="path5952"
       style="fill:#080808;fill-opacity:0.80000001" />
    <path
       d="m 66.325738,11.698977 -0.0029,0.0035 c -0.6006,0.70572 -1.6488,1.10546 -2.7805,1.28676 -0.2522,0.04041 -0.4944,0.06767 -0.7173,0.08566 -0.0188,-0.22422 -0.0315,-0.46923 -0.0327,-0.72639 -0.0052,-1.148 0.2207,-2.2451 0.8228,-2.9482795 0.6071,-0.70909 1.6581,-1.10798 2.7869,-1.28816 0.251,-0.04008 0.492,-0.06708 0.7138,-0.08489 0.0188,0.22394 0.0315,0.46865 0.0327,0.72549 0.0052,1.14668 -0.2206,2.2430095 -0.8228,2.9463495 z"
       fill="#c2d9ed"
       stroke="#288be4"
       stroke-width="3.05951"
       id="path5954"
       style="stroke:#080808;stroke-opacity:0.80000001;fill:#08080d;fill-opacity:0.1" />
  </g>
</svg>
