<svg width="102" height="38" viewBox="0 0 102 38" fill="none" xmlns="http://www.w3.org/2000/svg">
<g opacity="0.5">
<path d="M69.9133 19.7672H70.6128V19.0676V2.00002V1.30044H69.9133H45.0187H44.7648L44.57 1.46323L42.095 3.53176L41.9344 3.666L41.8739 3.86638L39.015 13.3374L38.9852 13.4362V13.5395V19.0676V19.7672H39.6848H69.9133Z" fill="#c2d9ed" stroke="#091f2f" stroke-width="1.39914" stroke-miterlimit="10" stroke-linecap="round"/>
<path d="M58.712 5.33305V4.63348H58.0125H53.4328H52.7332V5.33305V10.5315V11.231H53.4328H58.0125H58.712V10.5315V5.33305Z" fill="#c2d9ed" stroke="#091f2f" stroke-width="1.39914" stroke-miterlimit="10" stroke-linecap="round"/>
<mask id="path-3-outside-1_15_34" maskUnits="userSpaceOnUse" x="37.9061" y="3.33305" width="13" height="12" fill="black">
<rect fill="white" x="37.9061" y="3.33305" width="13" height="12"/>
<path d="M42.1643 5.33305H49.4132V11.5115L46.3781 13.3136H39.9061"/>
</mask>
<path d="M42.1643 3.9339C41.3916 3.9339 40.7651 4.56032 40.7651 5.33305C40.7651 6.10577 41.3916 6.73219 42.1643 6.73219V3.9339ZM49.4132 5.33305H50.8123V3.9339H49.4132V5.33305ZM49.4132 11.5115L50.1275 12.7146L50.8123 12.308V11.5115H49.4132ZM46.3781 13.3136V14.7127H46.7622L47.0924 14.5167L46.3781 13.3136ZM39.9061 11.9145C39.1333 11.9145 38.5069 12.5409 38.5069 13.3136C38.5069 14.0863 39.1333 14.7127 39.9061 14.7127V11.9145ZM42.1643 6.73219H49.4132V3.9339H42.1643V6.73219ZM48.014 5.33305V11.5115H50.8123V5.33305H48.014ZM48.6989 10.3085L45.6638 12.1105L47.0924 14.5167L50.1275 12.7146L48.6989 10.3085ZM46.3781 11.9145H39.9061V14.7127H46.3781V11.9145Z" fill="#091f2f" mask="url(#path-3-outside-1_15_34)"/>
<path d="M66.9545 5.33305V4.63348H66.255H61.6753H60.9757V5.33305V10.5315V11.231H61.6753H66.255H66.9545V10.5315V5.33305Z" fill="#c2d9ed" stroke="#091f2f" stroke-width="1.39914" stroke-miterlimit="10" stroke-linecap="round"/>
<path d="M46.753 23.5476C48.9428 23.5476 50.718 21.7724 50.718 19.5826C50.718 17.3928 48.9428 15.6177 46.753 15.6177C44.5632 15.6177 42.788 17.3928 42.788 19.5826C42.788 21.7724 44.5632 23.5476 46.753 23.5476Z" fill="#c2d9ed" stroke="#091f2f" stroke-width="1.39914" stroke-miterlimit="10" stroke-linecap="round"/>
<path d="M64.8187 23.3847C67.0085 23.3847 68.7837 21.6095 68.7837 19.4198C68.7837 17.23 67.0085 15.4548 64.8187 15.4548C62.6289 15.4548 60.8538 17.23 60.8538 19.4198C60.8538 21.6095 62.6289 23.3847 64.8187 23.3847Z" fill="#c2d9ed" stroke="#091f2f" stroke-width="1.39914" stroke-miterlimit="10" stroke-linecap="round"/>
<path d="M100.625 2.00002V1.30044H99.925H73.6032H72.9036V2.00002V19.0676V19.7672H73.6032H99.925H100.625V19.0676V2.00002Z" fill="#c2d9ed" stroke="#091f2f" stroke-width="1.39914" stroke-miterlimit="10" stroke-linecap="round"/>
<path d="M81.9672 5.33305V4.63348H81.2676H76.6879H75.9884V5.33305V10.5315V11.231H76.6879H81.2676H81.9672V10.5315V5.33305Z" fill="#c2d9ed" stroke="#091f2f" stroke-width="1.39914" stroke-miterlimit="10" stroke-linecap="round"/>
<path d="M89.7309 5.33305V4.63348H89.0313H84.4517H83.7521V5.33305V10.5315V11.231H84.4517H89.0313H89.7309V10.5315V5.33305Z" fill="#c2d9ed" stroke="#091f2f" stroke-width="1.39914" stroke-miterlimit="10" stroke-linecap="round"/>
<path d="M97.6212 5.33305V4.63348H96.9216H92.3419H91.6423V5.33305V10.5315V11.231H92.3419H96.9216H97.6212V10.5315V5.33305Z" fill="#c2d9ed" stroke="#091f2f" stroke-width="1.39914" stroke-miterlimit="10" stroke-linecap="round"/>
<path d="M74.3976 3.05236V2.35279H73.698H69.9133H69.2137V3.05236V18.0244V18.7239H69.9133H73.698H74.3976V18.0244V3.05236Z" fill="#c2d9ed" stroke="#091f2f" stroke-width="1.39914" stroke-miterlimit="10" stroke-linecap="round"/>
<path d="M93.6562 23.3847C95.846 23.3847 97.6211 21.6095 97.6211 19.4198C97.6211 17.23 95.846 15.4548 93.6562 15.4548C91.4664 15.4548 89.6912 17.23 89.6912 19.4198C89.6912 21.6095 91.4664 23.3847 93.6562 23.3847Z" fill="#c2d9ed" stroke="#091f2f" stroke-width="1.39914" stroke-miterlimit="10" stroke-linecap="round"/>
<path d="M81.8593 23.3847C84.049 23.3847 85.8242 21.6095 85.8242 19.4198C85.8242 17.23 84.049 15.4548 81.8593 15.4548C79.6695 15.4548 77.8943 17.23 77.8943 19.4198C77.8943 21.6095 79.6695 23.3847 81.8593 23.3847Z" fill="#c2d9ed" stroke="#091f2f" stroke-width="1.39914" stroke-miterlimit="10" stroke-linecap="round"/>
<path d="M100 27.2205L0 27.2205L0 37.9844L100 37.9844V27.2205Z" fill="#091f2f"/>
<path d="M26.184 23.3955C23.7505 23.3955 21.7777 21.4227 21.7777 18.9891C21.7777 16.5556 23.7505 14.5828 26.184 14.5828C28.6175 14.5828 30.5903 16.5556 30.5903 18.9891C30.5903 21.4227 28.6175 23.3955 26.184 23.3955Z" stroke="#091f2f" stroke-width="1.14475" stroke-miterlimit="10" stroke-linecap="round"/>
<path d="M26.184 21.6549C24.7117 21.6549 23.5181 20.4613 23.5181 18.989C23.5181 17.5167 24.7117 16.3231 26.184 16.3231C27.6563 16.3231 28.8498 17.5167 28.8498 18.989C28.8498 20.4613 27.6563 21.6549 26.184 21.6549Z" fill="#c2d9ed" stroke="#091f2f" stroke-width="1.14475" stroke-miterlimit="10" stroke-linecap="round"/>
<path d="M9.04891 21.6549C7.57659 21.6549 6.38305 20.4613 6.38305 18.989C6.38305 17.5167 7.57659 16.3231 9.04891 16.3231C10.5212 16.3231 11.7148 17.5167 11.7148 18.989C11.7148 20.4613 10.5212 21.6549 9.04891 21.6549Z" fill="#c2d9ed" stroke="#091f2f" stroke-width="1.14475" stroke-miterlimit="10" stroke-linecap="round"/>
<path d="M9.04893 23.3955C6.61538 23.3955 4.64261 21.4227 4.64261 18.9891C4.64261 16.5556 6.61538 14.5828 9.04893 14.5828C11.4825 14.5828 13.4552 16.5556 13.4552 18.9891C13.4552 21.4227 11.4825 23.3955 9.04893 23.3955Z" stroke="#091f2f" stroke-width="1.14475" stroke-miterlimit="10" stroke-linecap="round"/>
<mask id="path-20-outside-2_15_34" maskUnits="userSpaceOnUse" x="7.46625" y="7.05498" width="11" height="14" fill="black">
<rect fill="white" x="7.46625" y="7.05498" width="11" height="14"/>
<path d="M9.04889 18.9891L14.0292 9.05498H16.4662"/>
</mask>
<path d="M10.0722 19.5021C9.78889 20.0673 9.10103 20.2958 8.53585 20.0124C7.97067 19.7291 7.7422 19.0412 8.02554 18.476L10.0722 19.5021ZM14.0292 9.05498L13.0059 8.54193L13.3226 7.91022H14.0292V9.05498ZM16.4662 7.91022C17.0985 7.91022 17.611 8.42275 17.611 9.05498C17.611 9.68721 17.0985 10.1997 16.4662 10.1997V7.91022ZM8.02554 18.476L13.0059 8.54193L15.0526 9.56802L10.0722 19.5021L8.02554 18.476ZM14.0292 7.91022H16.4662V10.1997H14.0292V7.91022Z" fill="#091f2f" mask="url(#path-20-outside-2_15_34)"/>
<mask id="path-22-outside-3_15_34" maskUnits="userSpaceOnUse" x="10.184" y="11.441" width="19" height="9" fill="black">
<rect fill="white" x="10.184" y="11.441" width="19" height="9"/>
<path d="M12.1465 13.5568H22.3501L26.184 18.9889H19.0438L11.8295 13.441"/>
</mask>
<path d="M12.1465 14.7016C11.5142 14.7016 11.0017 14.189 11.0017 13.5568C11.0017 12.9246 11.5142 12.4121 12.1465 12.4121V14.7016ZM22.3501 13.5568V12.4121H22.9433L23.2853 12.8967L22.3501 13.5568ZM26.184 18.9889L27.1193 18.3288L28.3932 20.1336H26.184V18.9889ZM19.0438 18.9889V20.1336H18.6545L18.3459 19.8963L19.0438 18.9889ZM11.1317 14.3485C10.6305 13.9631 10.5366 13.2444 10.922 12.7432C11.3075 12.242 12.0262 12.1482 12.5273 12.5336L11.1317 14.3485ZM12.1465 12.4121H22.3501V14.7016H12.1465V12.4121ZM23.2853 12.8967L27.1193 18.3288L25.2488 19.649L21.4148 14.2169L23.2853 12.8967ZM26.184 20.1336H19.0438V17.8441H26.184V20.1336ZM18.3459 19.8963L11.1317 14.3485L12.5273 12.5336L19.7416 18.0814L18.3459 19.8963Z" fill="#091f2f" mask="url(#path-22-outside-3_15_34)"/>
<path d="M23.6217 11.2395L19.0437 18.989" stroke="#091f2f" stroke-width="1.14475" stroke-miterlimit="10" stroke-linecap="round"/>
<path d="M24.7225 11.2395H20.9759" stroke="#091f2f" stroke-width="1.14475" stroke-miterlimit="10" stroke-linecap="round"/>
</g>
</svg>
