<?xml version="1.0" encoding="UTF-8" standalone="no"?>
<svg
   width="80"
   height="80"
   viewBox="0 0 80 80"
   fill="none"
   version="1.1"
   id="svg3946"
   sodipodi:docname="arts_culture-dark-square.svg"
   inkscape:version="1.2.2 (b0a8486541, 2022-12-01)"
   xmlns:inkscape="http://www.inkscape.org/namespaces/inkscape"
   xmlns:sodipodi="http://sodipodi.sourceforge.net/DTD/sodipodi-0.dtd"
   xmlns="http://www.w3.org/2000/svg"
   xmlns:svg="http://www.w3.org/2000/svg">
  <defs
     id="defs3950" />
  <sodipodi:namedview
     id="namedview3948"
     pagecolor="#ffffff"
     bordercolor="#666666"
     borderopacity="1.0"
     inkscape:showpageshadow="2"
     inkscape:pageopacity="0.0"
     inkscape:pagecheckerboard="0"
     inkscape:deskcolor="#d1d1d1"
     showgrid="false"
     inkscape:zoom="5.1833333"
     inkscape:cx="22.090032"
     inkscape:cy="29.903537"
     inkscape:window-width="1600"
     inkscape:window-height="831"
     inkscape:window-x="0"
     inkscape:window-y="0"
     inkscape:window-maximized="1"
     inkscape:current-layer="g3944" />
  <g
     opacity="1"
     id="g3944">
    <path
       id="path3920"
       style="fill:#080808;fill-opacity:0.80289531"
       d="M 37.800781 10.140625 L 37.800781 13.382812 L 17.013672 13.382812 L 17.013672 42.59375 L 27.888672 42.59375 L 16.023438 69.859375 L 20.621094 69.859375 L 24.521484 60.767578 L 37.800781 60.767578 L 37.800781 69.859375 L 42.349609 69.859375 L 42.349609 60.767578 L 55.478516 60.767578 L 59.378906 69.859375 L 63.976562 69.859375 L 52.111328 42.59375 L 63.136719 42.59375 L 63.136719 13.382812 L 42.349609 13.382812 L 42.349609 10.140625 L 37.800781 10.140625 z M 20.347656 16.5 L 59.523438 16.5 L 59.523438 37.869141 L 20.347656 37.869141 L 20.347656 16.5 z M 32.464844 42.59375 L 37.800781 42.59375 L 37.800781 56.871094 L 26.332031 56.871094 L 32.464844 42.59375 z M 42.349609 42.59375 L 47.527344 42.59375 L 53.662109 56.871094 L 42.349609 56.871094 L 42.349609 42.59375 z " />
    <path
       d="M 59.5237,16.50084 H 20.3477 V 37.8696 h 39.176 z"
       fill="#c2d9ed"
       id="path3922"
       style="fill:#080808;fill-opacity:0.1" />
    <path
       d="m 32.1718,22.4459 0.079,4e-4 c 0.7466,0.0038 1.4859,-0.0157 2.2171,-0.1308 v 0 c 0.8352,-0.1313 1.6255,-0.4172 2.4097,-0.7523 0.1758,-0.0751 0.3521,-0.154 0.5296,-0.2335 0.4443,-0.1988 0.8957,-0.4008 1.3631,-0.555 0.3308,-0.1092 0.6794,-0.1922 1.0469,-0.1737 0.6125,0.0307 1.0479,0.3517 1.3512,0.8493 0.2539,0.4163 0.3829,0.8741 0.48,1.3285 v 0 l 2e-4,0.001 c 0.2287,1.0708 0.4575,2.1422 0.6788,3.2153 0.1653,0.801 0.1959,1.6111 0.1564,2.4188 m -10.312,-5.968 10.1849,5.9618 m -10.1849,-5.9618 -4e-4,7e-4 m 4e-4,-7e-4 2.3158,-0.0047 c -0.7414,0.1166 -1.4889,0.1361 -2.2375,0.1323 l -2e-4,5e-4 m 10.2339,5.8399 -0.1271,-0.0062 m 0.1271,0.0062 c 0,0 0,0 0,0 l -0.1271,-0.0062 m 0.1271,0.0062 c -0.0583,1.1974 -0.2869,2.3634 -0.6906,3.4932 v 0 c -0.3356,0.9394 -0.7791,1.8285 -1.4262,2.6078 m 1.9897,-6.1072 c -0.0577,1.1851 -0.2839,2.3388 -0.6832,3.4566 -0.3324,0.9301 -0.7696,1.8049 -1.4044,2.5694 m 0.0979,0.0812 -0.0979,-0.0812 m 0.0979,0.0812 c -0.6576,0.7923 -1.4568,1.3955 -2.4953,1.6341 v 0 c -0.9028,0.2073 -1.7719,0.0762 -2.61,-0.2569 m 5.1053,-1.3772 c 0,0 0,0 0,0 l -0.0979,-0.0812 m 0,0 c -0.6452,0.7773 -1.4219,1.3606 -2.4259,1.5913 -0.8719,0.2003 -1.7144,0.0748 -2.5345,-0.2511 M 32.2499,22.574 v -6e-4 -0.1266 c -0.0261,0 -0.0522,-10e-5 -0.0785,-2e-4 m 0.0785,0.1274 c -0.0616,0 -0.1231,-3e-4 -0.1847,-7e-4 -0.1364,-7e-4 -0.2727,-0.0014 -0.409,0.0014 m 0.5937,-7e-4 -0.5937,7e-4 m 0.5152,-0.1281 c -0.0344,-10e-5 -0.0689,-3e-4 -0.1036,-5e-4 -0.1371,-7e-4 -0.2762,-0.0014 -0.4142,0.0014 m 0.5178,-9e-4 -0.5178,9e-4 m 0,0 c 0,0 0,0 0,0 l 0.0026,0.1272 m -0.0026,-0.1272 c -0.0103,2e-4 -0.0205,4e-4 -0.0308,6e-4 -0.4901,0.01 -0.9967,0.0202 -1.4946,0.1425 m 1.528,-0.0159 c -0.0084,2e-4 -0.0168,3e-4 -0.0251,5e-4 -0.4941,0.01 -0.9885,0.02 -1.4726,0.1389 m 0,0 -0.0303,-0.1235 m 0.0303,0.1235 -0.0304,-0.1235 c 10e-5,0 10e-5,0 10e-5,0 m 0.0303,0.1235 c -0.7389,0.1813 -1.157,0.6296 -1.2613,1.3661 l 1.231,-1.4896 m 0,0 c -0.3878,0.0951 -0.7011,0.2629 -0.9317,0.512 -0.2308,0.2493 -0.3702,0.5712 -0.4253,0.9598 v 0 c -0.0575,0.4067 -0.0232,0.8097 0.056,1.2005 v 1e-4 c 0.1325,0.6547 0.2719,1.3081 0.4111,1.9608 z m -0.2306,6.8587 C 29.7295,28.9638 29.6265,28.4621 29.5235,27.9606 29.5,27.8461 29.4764,27.7316 29.4522,27.6173 29.4224,27.4772 29.3925,27.3371 29.3626,27.1971 29.2234,26.5444 29.0842,25.8918 28.9518,25.2377 l 0.3759,2.406 0.1244,-0.0264 -0.1244,0.0265 c 0.0239,0.1124 0.0472,0.2256 0.0705,0.3393 0.1031,0.5019 0.2082,1.0137 0.3792,1.5078 z m 0,0 c 0.6493,1.8752 1.6959,3.4945 3.1477,4.8478 m -3.1477,-4.8478 -0.1202,0.0416 c 0.656,1.8946 1.7139,3.5316 3.1812,4.8992 m 0.0867,-0.093 c 0.6674,0.6222 1.4096,1.1375 2.2634,1.4768 m -2.2634,-1.4768 -0.0867,0.093 c 0,0 0,0 0,0 m 0.0867,-0.093 -0.0867,0.093 m 0,0 c 0.6761,0.6304 1.4314,1.1556 2.3031,1.502 m 0,0 c 0,0 1e-4,0 1e-4,0 l 0.0469,-0.1182 m -0.047,0.1182 0.047,-0.1182 M 32.5896,23.3441 32.2803,23.3424 C 31.8521,23.34 31.4288,23.3384 31.007,23.3657 v 0 c -0.2811,0.018 -0.5508,0.0507 -0.8069,0.1377 v 0 c -0.1509,0.0512 -0.2666,0.1248 -0.3516,0.2198 -0.0847,0.0948 -0.1445,0.2171 -0.1742,0.3746 z m 0,0 -0.0026,-0.0026 m 0.0026,0.0026 -0.0026,-0.0026 m 0,0 C 33.2921,23.3364 34,23.3031 34.7041,23.1843 v 0 c 0.8581,-0.1449 1.6684,-0.4328 2.4573,-0.7674 v 0 c 0.2023,-0.0858 0.4005,-0.1744 0.5973,-0.2624 0.3752,-0.1677 0.7458,-0.3333 1.1313,-0.4738 0.237,-0.0863 0.4725,-0.1536 0.7165,-0.1811 0.1665,-0.0187 0.3075,0.0016 0.4275,0.0559 0.1198,0.0543 0.2268,0.1463 0.3197,0.2842 h 10e-5 c 0.2051,0.3042 0.3138,0.6525 0.3932,1.0228 v 0 c 0.0254,0.1181 0.0508,0.2361 0.0762,0.3541 0.2157,1.0032 0.4313,2.0056 0.6341,3.0104 0.1648,0.8166 0.171,1.6472 0.1039,2.4834 v 10e-5 c -0.0866,1.0793 -0.312,2.1284 -0.7045,3.1369 v 0 c -0.3609,0.9274 -0.8349,1.7768 -1.5432,2.4733 -0.4709,0.4629 -1.0041,0.8047 -1.6436,0.9514 -0.6928,0.1588 -1.3668,0.0594 -2.0315,-0.1984 C 34.739,34.7249 33.9818,34.1563 33.2993,33.4722 32.0919,32.2617 31.2002,30.8511 30.6378,29.2352 30.4801,28.7819 30.3834,28.3144 30.2847,27.8375 30.2624,27.7293 30.2399,27.6207 30.2166,27.5116 30.1908,27.3909 30.165,27.2703 30.1392,27.1497 29.997,26.4854 29.855,25.8219 29.7196,25.1568 Z m -2.8674,1.8152 c -0.0729,-0.3589 -0.1111,-0.709 -0.0453,-1.0589 z"
       stroke="#091f2f"
       stroke-opacity="0.9"
       stroke-width="0.254389"
       id="path3926"
       style="stroke:#080808;stroke-opacity:0.8" />
    <path
       d="m 47.7453,20.518 c -0.7408,0.0183 -1.4801,0.0059 -2.2157,-0.0962 -0.8484,-0.1181 -1.6559,-0.37779 -2.448,-0.69448 -0.6167,-0.24637 -1.2178,-0.5317 -1.8457,-0.75075 -0.2248,-0.0784 -0.4536,-0.13922 -0.6897,-0.17153 -0.4098,-0.05607 -0.7291,0.07911 -0.9489,0.43762 -0.1677,0.27369 -0.2568,0.5766 -0.3409,0.88213 -0.0542,0.19721 -0.2077,0.29891 -0.3889,0.25701 -0.1716,-0.0396 -0.2792,-0.2017 -0.2334,-0.39362 0.1093,-0.45615 0.2566,-0.89852 0.5553,-1.27271 0.3483,-0.43643 0.8094,-0.60345 1.3556,-0.55214 0.6284,0.05892 1.1991,0.31005 1.7716,0.54952 0.7258,0.30387 1.4469,0.6189 2.2045,0.83937 0.98,0.28533 1.984,0.34402 2.9971,0.3357 0.641,-0.0052 1.2827,-0.0392 1.9229,0.02186 0.3526,0.03373 0.6981,0.09859 1.0136,0.27032 0.4792,0.2611 0.7037,0.6864 0.7707,1.2107 0.0658,0.5149 -0.02,1.0176 -0.1188,1.5196 -0.202,1.0244 -0.3868,2.0527 -0.6078,3.0729 -0.2891,1.3354 -0.8707,2.5482 -1.6264,3.6796 -0.6505,0.9741 -1.4191,1.8429 -2.3482,2.5623 -0.728,0.5635 -1.5217,0.9964 -2.4312,1.1874 -0.7538,0.1585 -1.4951,0.115 -2.2164,-0.1689 -0.1504,-0.0592 -0.228,-0.1713 -0.2257,-0.3153 0.0024,-0.1333 0.0894,-0.2509 0.2179,-0.296 0.0917,-0.0323 0.1786,-0.0131 0.2656,0.0206 0.4162,0.1611 0.8479,0.226 1.2927,0.197 0.6101,-0.0399 1.1769,-0.2288 1.717,-0.5077 0.9553,-0.4932 1.7345,-1.2003 2.4202,-2.0152 1.0083,-1.1985 1.7592,-2.5401 2.1992,-4.0478 0.1742,-0.5971 0.2626,-1.2133 0.3856,-1.8215 0.1383,-0.6824 0.269,-1.3661 0.3973,-2.0504 0.0548,-0.2922 0.0864,-0.5884 0.0487,-0.8859 -0.072,-0.5645 -0.3115,-0.8142 -0.8715,-0.9237 -0.4777,-0.0934 -0.961,-0.0798 -1.4437,-0.0796 -0.1782,0 -0.3564,0 -0.5344,0 z"
       fill="#091f2f"
       fill-opacity="0.9"
       id="path3928"
       style="fill:#080808;fill-opacity:0.8" />
    <path
       d="m 49.7635,26.2793 c 0.124,-0.4249 0.2045,-0.8596 0.285,-1.2942 0.0326,-0.176 0.0652,-0.352 0.1006,-0.5273 0.1383,-0.6824 0.269,-1.3661 0.3973,-2.0504 0.0548,-0.2922 0.0864,-0.5884 0.0487,-0.8859 m -0.8316,4.7578 -0.1831,-0.0535 c 0,0 0,0 0,0 m 0.1831,0.0535 -0.1831,-0.0535 m 0.1831,0.0535 c -0.44,1.5077 -1.1909,2.8493 -2.1992,4.0478 m 2.0161,-4.1013 c 0.1211,-0.4151 0.1988,-0.835 0.2786,-1.2656 0.0329,-0.1781 0.0663,-0.3581 0.1031,-0.5403 v 0 c 0.138,-0.681 0.2685,-1.3638 0.3967,-2.0476 l 10e-5,-10e-5 c 0.0532,-0.2834 0.0811,-0.5574 0.0469,-0.8265 m -0.8254,4.6801 c -0.4319,1.48 -1.1693,2.7984 -2.1621,3.9785 m 2.9875,-8.6586 0.1893,-0.0242 m -0.1893,0.0242 c 0,-10e-5 0,-10e-5 0,-10e-5 l 0.1893,-0.0241 m -0.1893,0.0242 C 50.3725,21.2843 50.3039,21.126 50.2038,21.0202 50.1033,20.9141 49.9475,20.836 49.687,20.7851 m 0.9081,0.7364 c -0.072,-0.5645 -0.3115,-0.8142 -0.8715,-0.9237 m 0,0 -0.0366,0.1873 c 0,0 0,0 0,0 m 0.0366,-0.1873 c -0.4249,-0.083 -0.8541,-0.0815 -1.2834,-0.08 -0.0535,2e-4 -0.1069,4e-4 -0.1603,4e-4 l -7.044,-1.54163 c 0.3956,0.138 0.7805,0.30231 1.1654,0.46662 0.2261,0.09649 0.4521,0.19297 0.6803,0.28413 l -0.0708,0.17715 c 0,10e-6 0,2e-5 10e-5,3e-5 0.7996,0.3197 1.623,0.5852 2.4924,0.7062 h 10e-5 c 0.7462,0.1037 1.4931,0.1163 2.2345,0.0983 m 1.9857,-0.1112 -0.0366,0.1873 m 0,0 c -0.4052,-0.0792 -0.8148,-0.0779 -1.2465,-0.0765 -0.0532,2e-4 -0.1067,4e-4 -0.1605,4e-4 h -1e-4 -0.0011 -10e-4 -0.0011 -10e-4 -0.0011 -10e-4 -0.001 -0.0011 -0.001 -0.0011 -10e-4 -0.0011 -10e-4 -0.0011 -10e-4 -0.001 -0.0011 -10e-4 -0.0011 -10e-4 -0.0011 -10e-4 -0.0011 -10e-4 -0.001 -0.0011 -10e-4 -0.0011 -10e-4 -0.0011 -10e-4 -0.001 -0.0011 -10e-4 -0.0011 -10e-4 -0.0011 -10e-4 -0.0011 -10e-4 -0.001 -0.0011 -10e-4 -0.0011 -10e-4 -0.0011 -10e-4 -0.0011 -10e-4 -0.001 -0.0011 -10e-4 -0.0011 -10e-4 -0.0011 -10e-4 -0.001 -0.0011 -10e-4 -0.0011 -10e-4 -0.0011 -10e-4 -0.0011 -10e-4 -0.001 -0.0011 -10e-4 -0.0011 -10e-4 -0.0011 -10e-4 -0.0011 -0.001 -10e-4 -0.0011 -10e-4 -0.0011 -10e-4 -0.0011 -10e-4 -0.0011 -0.001 -10e-4 -0.0011 -10e-4 -0.0011 -10e-4 -0.0011 -0.001 -10e-4 -0.0011 -10e-4 -0.0011 -10e-4 -0.0011 -10e-4 -0.0011 -0.001 -10e-4 -0.0011 -10e-4 -0.0011 -10e-4 -0.0011 -0.001 -0.0011 -0.001 -10e-4 -0.0011 -10e-4 -0.0011 -10e-4 -0.0011 -0.001 -10e-4 -0.0011 -10e-4 -0.0011 -10e-4 -0.0011 -10e-4 -0.0011 -0.001 -10e-4 -0.0011 -10e-4 -0.0011 -10e-4 -0.0011 -0.001 -0.0011 -0.001 -10e-4 -0.0011 -10e-4 -0.0011 -10e-4 -0.0011 -0.001 -10e-4 -0.0011 -10e-4 -0.0011 -10e-4 -0.0011 -0.001 -0.0011 -0.001 -10e-4 -0.0011 -10e-4 -0.0011 -10e-4 -0.0011 -0.001 -10e-4 -0.0011 -10e-4 -0.0011 -10e-4 -0.0011 -0.001 -0.0011 -0.001 -10e-4 -0.0011 -10e-4 -0.0011 -10e-4 -0.0011 -0.001 -0.0011 -0.001 -10e-4 -0.0011 -10e-4 -0.0011 -10e-4 -0.0011 -0.001 -10e-4 -0.0011 -10e-4 -0.0011 -10e-4 -0.0011 -0.001 -0.0011 -0.001 -10e-4 -0.0011 -10e-4 -0.0011 -10e-4 -0.0011 -0.001 -10e-4 -0.0011 -10e-4 -0.0011 -10e-4 -0.0011 -0.001 -0.0011 -0.001 -10e-4 -0.0011 -10e-4 -0.0011 -10e-4 -0.0011 -0.001 -10e-4 -0.0011 -10e-4 -0.0011 -10e-4 -0.0011 -0.001 -0.0011 -0.001 -10e-4 -0.0011 -10e-4 -0.0011 -10e-4 -0.0011 -0.001 -0.0011 -0.001 -10e-4 -0.0011 -10e-4 -0.0011 -0.001 -0.0011 -0.001 -10e-4 -0.0011 -10e-4 -0.0011 -10e-4 -0.0011 -0.001 -10e-4 -0.0011 -10e-4 -0.0011 -10e-4 -0.0011 -10e-4 -0.0011 -0.001 -10e-4 -0.0011 -10e-4 -0.0011 -10e-4 -0.0011 -0.001 -10e-4 -0.0011 -10e-4 -0.0011 -10e-4 -0.0011 -10e-4 -0.0011 -0.001 -10e-4 -0.0011 -10e-4 -0.0011 -10e-4 -0.0011 -0.001 -10e-4 -0.0011 -10e-4 -0.0011 -10e-4 -0.0011 -10e-4 -0.0011 -0.001 -10e-4 -0.0011 -10e-4 -0.0011 -10e-4 -0.0011 -0.001 -10e-4 -0.0011 -10e-4 -0.0011 -10e-4 -0.0011 -10e-4 -0.0011 -0.001 -10e-4 -0.0011 -10e-4 -0.0011 -10e-4 -0.0011 -0.001 -10e-4 -0.0011 -10e-4 -0.0011 -10e-4 -0.0011 -10e-4 -0.001 -0.0011 -10e-4 -0.0011 -10e-4 -0.0011 -10e-4 -0.0011 -10e-4 -0.001 -0.0011 -10e-4 -0.0011 -10e-4 -0.0011 -10e-4 -0.001 -0.0011 -10e-4 -0.0011 -10e-4 -0.0011 -10e-4 -0.001 -0.0011 -0.001 -0.0011 -10e-4 -0.0011 -10e-4 -0.0011 -10e-4 -0.001 -0.0011 -10e-4 -0.0011 -10e-4 -0.0011 -10e-4 -0.001 -0.0011 -0.001 -0.0011 -10e-4 -0.0011 -10e-4 -10e-4 -0.0011 -0.001 -0.0011 -10e-4 -0.0011 -10e-4 -10e-4 -0.0011 -0.001 -0.0011 -0.001 -0.0011 -10e-4 -0.0011 -10e-4 -10e-4 -0.0011 -0.001 -0.0011 -0.001 -0.0011 -10e-4 -10e-4 -0.0011 -0.001 -0.0011 -0.001 -0.0011 -10e-4 -10e-4 -0.0011 -10e-4 -0.0011 -0.001 -0.0011 -0.001 -10e-4 -0.0011 -10e-4 -0.0011 -0.001 -0.0011 -0.001 -10e-4 -0.0011 -10e-4 -0.0011 -10e-4 -0.0011 -0.001 -0.0011 -0.001 -10e-4 -0.0011 -10e-4 -0.0011 -10e-4 -0.0011 -0.001 -10e-4 -0.0011 -10e-4 -0.0011 -10e-4 -0.0011 -0.001 -10e-4 -0.0011 -10e-4 -0.0011 -10e-4 -0.0011 -10e-4 -0.001 -0.0011 -10e-4 -0.0011 -10e-4 -0.0011 -10e-4 -0.001 -0.0011 -10e-4 -0.0011 -10e-4 -0.0011 -10e-4 -0.001 -0.0011 -0.001 -0.0011 -10e-4 -0.0011 -10e-4 -10e-4 -0.0011 -0.001 -0.0011 -10e-4 -0.0011 -10e-4 -10e-4 -0.0011 -0.001 -0.0011 -0.001 -0.0011 -10e-4 -10e-4 -0.0011 -10e-4 -0.0011 -0.001 -0.0011 -10e-4 -10e-4 -0.0011 -10e-4 -0.0011 -0.001 -0.0011 -0.001 -10e-4 -0.0011 -10e-4 -0.0011 -10e-4 -0.0011 -0.001 -10e-4 -0.0011 -10e-4 -0.0011 -10e-4 -0.0011 -0.001 -10e-4 -0.0011 -10e-4 -0.0011 -10e-4 -0.0011 -10e-4 -0.001 -0.0011 -10e-4 -0.0011 -10e-4 -0.0011 -0.0076 m 0,0 c 0.0026,-10e-5 0.0051,-10e-5 0.0076,-2e-4 0.0015,0 0.003,0 0.0045,-10e-5 l -0.0045,-0.1811 -2e-4,-0.0092 v -4e-4 l -0.135,0.1348 3e-4,3e-4 0.0559,0.0559 z m -0.3196,9.4953 0.146,0.1228 m -0.146,-0.1228 c -0.675,0.8023 -1.4354,1.4902 -2.3618,1.9685 v 0 c -0.5228,0.27 -1.0641,0.449 -1.6419,0.4868 m 4.0037,-2.4553 c 0,0 0,0 0,0 l 0.146,0.1228 m 0,0 c -0.6857,0.8149 -1.4649,1.522 -2.4202,2.0152 -0.5401,0.2789 -1.1069,0.4678 -1.717,0.5077 m -0.0125,-0.1904 c 0,0 0,0 1e-4,0 l 0.0124,0.1904 m -0.0125,-0.1904 c -0.4174,0.0272 -0.8213,-0.0336 -1.2113,-0.1845 m 1.2113,0.1845 0.0125,0.1904 m 0,0 c -0.4448,0.029 -0.8765,-0.0359 -1.2927,-0.197 m 0.0689,-0.1779 c 0,0 1e-4,1e-4 1e-4,1e-4 l -0.069,0.1778 m 0.0689,-0.1779 c -0.1017,-0.0394 -0.2417,-0.0777 -0.3977,-0.0227 l 0.0632,0.18 m 0.3345,-0.1573 -0.0689,0.1779 m 0,0 c -0.087,-0.0337 -0.1739,-0.0529 -0.2656,-0.0206 m 0,0 c -0.1285,0.0451 -0.2155,0.1627 -0.2179,0.296 l 0.1545,-0.476 m 0.0634,0.18 -0.0634,-0.18 m 0,0 c -0.2009,0.0706 -0.3414,0.2567 -0.3452,0.4726 v 3e-4 m 0.3452,-0.4729 -0.3452,0.4729 m -2.6356,-12.3575 -10e-5,-10e-5 c -0.2762,-0.0639 -0.446,-0.3304 -0.3759,-0.62385 v -1.2e-4 c 0.1112,-0.46432 0.2665,-0.93982 0.5916,-1.34728 0.3928,-0.4922 0.9197,-0.67971 1.5226,-0.62307 z m 0,0 c 0.1375,0.0317 0.2754,0.0102 0.3902,-0.0657 0.1131,-0.0748 0.1886,-0.1921 0.2255,-0.3268 m -0.6157,0.3925 0.6157,-0.3925 m 2.9499,-1.63846 1e-4,2e-5 c 0.0778,0.03257 0.1553,0.06518 0.2327,0.09772 0.6491,0.27295 1.286,0.54082 1.9514,0.73445 l 1e-4,10e-6 c 0.9537,0.27769 1.9362,0.33635 2.9421,0.3281 v 0 c 0.1444,-0.0012 0.2904,-0.0039 0.4375,-0.0066 0.4944,-0.0092 1.0017,-0.01867 1.5052,0.02935 v 0 c 0.362,0.03464 0.7376,0.10274 1.0866,0.29273 v 3e-5 c 0.5456,0.29729 0.796,0.78479 0.8687,1.35409 m -9.0244,-2.82986 8.5252,5.36196 c -0.1333,0.6961 -0.2666,1.3921 -0.4166,2.0845 M 42.3902,18.53684 C 42.3572,18.523 42.324,18.50907 42.2906,18.49508 m 0.0996,0.04176 -0.0996,-0.04176 m 9.124,2.87162 -0.1892,0.0241 0.1892,-0.0241 c 0,0 0,0 0,0 z m 0,0 c 0.0702,0.5487 -0.0221,1.0789 -0.1208,1.5806 v 0 c -0.0645,0.327 -0.1274,0.6555 -0.1904,0.9845 -0.1336,0.6973 -0.2676,1.3973 -0.4181,2.0918 m 0,0 -0.1865,-0.0403 m 0.1865,0.0403 c 0,0 0,0 0,0 l -0.1865,-0.0403 m 0.1865,0.0403 c -0.2954,1.3643 -0.8887,2.5992 -1.6543,3.7452 -0.66,0.9884 -1.4421,1.8733 -2.39,2.6072 h -10e-5 c -0.7435,0.5756 -1.5632,1.0247 -2.5086,1.2233 l 6.3665,-7.616 m -9.0386,6.942 c -0.0018,0.1085 0.027,0.2132 0.0907,0.303 0.0631,0.0889 0.1528,0.1524 0.2559,0.1929 m -0.3466,-0.4959 0.3466,0.4959 M 39.4403,20.1753 c 0.0844,-0.30658 0.1677,-0.58504 0.3197,-0.83293 z m 2.8503,-1.68022 c -0.5355,-0.2248 -1.1034,-0.46315 -1.7278,-0.5217 z M 41.8068,33.4212 c 0.7589,0.2987 1.5384,0.3436 2.3254,0.1781 z"
       stroke="#091f2f"
       stroke-opacity="0.9"
       stroke-width="0.381584"
       id="path3930"
       style="stroke:#080808;stroke-opacity:0.8" />
    <path
       d="m 45.0704,29.5944 c -0.1228,-0.6609 -0.3949,-1.233 -0.9268,-1.6516 -0.2445,-0.1925 -0.5258,-0.2827 -0.8434,-0.2481 -0.1867,0.0205 -0.3362,-0.11 -0.3533,-0.2903 -0.0173,-0.182 0.1036,-0.3274 0.2948,-0.3476 0.574,-0.0605 1.0616,0.1381 1.4721,0.5244 0.564,0.5307 0.8949,1.19 1.0142,1.9536 0.0257,0.1642 0.0242,0.3319 -0.034,0.4927 -0.0952,0.2638 -0.3295,0.3814 -0.5979,0.2991 -0.1492,-0.0456 -0.2802,-0.1278 -0.4101,-0.2112 -0.3062,-0.1964 -0.6049,-0.4053 -0.9446,-0.5438 -0.2141,-0.0872 -0.4343,-0.1461 -0.6643,-0.1703 -0.2019,-0.0212 -0.326,-0.1618 -0.3107,-0.3471 0.0152,-0.1834 0.1634,-0.3044 0.3656,-0.2887 0.5341,0.0416 1.0102,0.2466 1.4597,0.5246 0.1608,0.0995 0.3193,0.2029 0.4789,0.3043 z"
       fill="#091f2f"
       fill-opacity="0.9"
       id="path3932"
       style="fill:#080808;fill-opacity:0.8" />
    <path
       d="m 47.1093,25.1598 c -0.9931,0.0176 -1.9092,-0.6966 -2.1254,-1.6559 -0.0309,-0.1371 -0.0157,-0.2619 0.0981,-0.3564 0.0955,-0.0791 0.2058,-0.0993 0.3229,-0.0532 0.1169,0.0461 0.1727,0.139 0.2045,0.2577 0.1592,0.5961 0.5401,0.9805 1.1385,1.1193 0.6379,0.1478 1.1708,-0.049 1.5785,-0.565 0.0665,-0.0841 0.1352,-0.1561 0.2454,-0.1696 0.1335,-0.0166 0.2435,0.0292 0.3158,0.144 0.0779,0.1233 0.0681,0.2482 -0.0145,0.3668 -0.1842,0.2639 -0.4153,0.477 -0.6973,0.6324 -0.3505,0.1929 -0.6617,0.2725 -1.0668,0.2796 z"
       fill="#091f2f"
       fill-opacity="0.9"
       id="path3934"
       style="fill:#080808;fill-opacity:0.8" />
    <path
       d="m 43.729,22.7795 c 0.1343,-0.004 0.2309,0.0532 0.2899,0.1613 0.061,0.1117 0.0572,0.2288 -0.0159,0.3369 -0.2015,0.2977 -0.4657,0.5253 -0.7848,0.6883 -0.1943,0.0993 -0.3986,0.1717 -0.6151,0.2079 -0.1798,0.0299 -0.3452,-0.0822 -0.3789,-0.2585 -0.0323,-0.1678 0.0779,-0.3367 0.2542,-0.3702 0.42,-0.0798 0.7557,-0.2875 1.004,-0.6367 0.0606,-0.0853 0.1461,-0.1314 0.2466,-0.129 z"
       fill="#091f2f"
       fill-opacity="0.9"
       id="path3936"
       style="fill:#080808;fill-opacity:0.8" />
    <path
       d="m 32.2501,22.5735 c 0.7486,0.0038 1.4961,-0.0157 2.2375,-0.1323 0.8506,-0.1338 1.6522,-0.4243 2.44,-0.761 0.6251,-0.2673 1.2352,-0.5711 1.8826,-0.7847 0.3247,-0.1072 0.6559,-0.1849 1.0006,-0.1675 0.5626,0.0283 0.9632,0.3195 1.249,0.7885 0.2426,0.3977 0.368,0.8387 0.4642,1.2889 0.2288,1.0712 0.4576,2.1425 0.6788,3.2154 0.1625,0.7875 0.1931,1.5863 0.1539,2.3869 -0.0577,1.1851 -0.2839,2.3388 -0.6832,3.4566 -0.3324,0.9301 -0.7696,1.8049 -1.4044,2.5694 -0.6452,0.7773 -1.4219,1.3606 -2.4259,1.5913 -0.8719,0.2003 -1.7144,0.0748 -2.5345,-0.2511 -0.8538,-0.3393 -1.596,-0.8546 -2.2634,-1.4768 -1.4518,-1.3533 -2.4984,-2.9726 -3.1477,-4.8478 -0.2064,-0.5963 -0.3148,-1.2171 -0.4454,-1.832 -0.1687,-0.7928 -0.3395,-1.5851 -0.5004,-2.3796 -0.0772,-0.3815 -0.1095,-0.7693 -0.0546,-1.1575 0.1043,-0.7365 0.5224,-1.1848 1.2613,-1.3661 0.4922,-0.1209 0.9952,-0.1292 1.4977,-0.1394 0.1979,-0.0041 0.3958,-7e-4 0.5937,-7e-4 z m 0.0309,0.6417 c -0.4276,-0.0024 -0.8553,-0.004 -1.2822,0.0235 -0.2846,0.0183 -0.5676,0.0518 -0.8396,0.1442 -0.335,0.1138 -0.5431,0.3372 -0.6099,0.6914 -0.0703,0.3737 -0.0285,0.7427 0.0456,1.1078 0.1602,0.7866 0.3296,1.5711 0.4973,2.3561 0.1247,0.5837 0.2285,1.1729 0.4255,1.7388 0.5688,1.6343 1.4709,3.0612 2.6915,4.285 0.6907,0.6923 1.4623,1.2732 2.3832,1.6303 0.6818,0.2644 1.3822,0.3696 2.1059,0.2038 0.6681,-0.1532 1.2214,-0.5098 1.7044,-0.9847 0.7253,-0.7133 1.2076,-1.5802 1.5725,-2.5179 0.3975,-1.0211 0.6253,-2.0824 0.7128,-3.1729 0.0677,-0.8431 0.062,-1.6866 -0.106,-2.5188 -0.2269,-1.124 -0.4697,-2.2449 -0.7106,-3.366 -0.0808,-0.3763 -0.1936,-0.7432 -0.4122,-1.0672 -0.2079,-0.3084 -0.497,-0.4369 -0.8669,-0.3954 -0.2578,0.029 -0.5037,0.0998 -0.7458,0.188 -0.5913,0.2155 -1.1563,0.4932 -1.7348,0.7386 -0.7847,0.3329 -1.5846,0.6165 -2.4288,0.7591 -0.7954,0.1342 -1.5979,0.1582 -2.4021,0.1561 z"
       fill="#091f2f"
       fill-opacity="0.9"
       id="path3924"
       style="fill:#080808;fill-opacity:0.8" />
    <path
       d="m 39.4808,29.6317 c -0.0788,0.9886 -0.3542,1.9562 -0.9579,2.8111 -0.2891,0.4093 -0.6521,0.7357 -1.1408,0.8892 -0.5555,0.1744 -1.0817,0.0592 -1.5816,-0.2022 -0.6987,-0.3651 -1.2421,-0.9075 -1.7068,-1.5347 -0.2577,-0.3481 -0.4811,-0.7156 -0.6201,-1.1292 -0.047,-0.1395 -0.0788,-0.2816 -0.0703,-0.4308 0.0155,-0.2673 0.1986,-0.4578 0.4654,-0.4832 0.1849,-0.0176 0.3624,0.0216 0.5386,0.0689 0.4011,0.1076 0.7983,0.2281 1.2107,0.2908 0.6985,0.1064 1.3136,-0.0874 1.8764,-0.4947 0.2858,-0.2069 0.5496,-0.4407 0.8266,-0.658 0.109,-0.0856 0.2219,-0.1671 0.3506,-0.2205 0.3165,-0.1319 0.5985,-0.01 0.7187,0.3114 0.0889,0.2383 0.0934,0.4878 0.0908,0.7819 z m -5.4073,0.5662 c 0.0143,0.1031 0.0468,0.1748 0.0799,0.2459 0.2753,0.5937 0.6714,1.0988 1.1453,1.5447 0.3018,0.2841 0.6334,0.526 1.0247,0.6745 0.4987,0.1891 0.9544,0.1295 1.3561,-0.2388 0.1262,-0.1154 0.2407,-0.2409 0.3374,-0.3815 0.4751,-0.6916 0.7172,-1.4657 0.8044,-2.2931 0.0188,-0.178 0.0361,-0.3581 -0.0126,-0.5522 -0.0698,0.0547 -0.129,0.0993 -0.1865,0.1461 -0.2732,0.2224 -0.5414,0.4507 -0.8317,0.6512 -0.5952,0.4111 -1.2457,0.6299 -1.9757,0.5819 -0.345,-0.0226 -0.6819,-0.0908 -1.015,-0.1801 -0.2361,-0.0634 -0.4716,-0.1288 -0.7263,-0.1984 z"
       fill="#091f2f"
       fill-opacity="0.9"
       id="path3938"
       style="fill:#080808;fill-opacity:0.8" />
    <path
       d="m 31.3084,27.1267 c 0.0313,-0.2212 0.1133,-0.4552 0.2356,-0.6747 0.7527,-1.3511 2.6353,-1.502 3.5922,-0.288 0.0511,0.0649 0.1072,0.1281 0.1229,0.2139 0.0282,0.1546 -0.0468,0.3024 -0.1842,0.3625 -0.1399,0.0611 -0.2929,0.0235 -0.3898,-0.1093 -0.1796,-0.2464 -0.4056,-0.4314 -0.6892,-0.5438 -0.8582,-0.3402 -1.817,0.1563 -2.0368,1.0541 -0.0086,0.0347 -0.0147,0.0699 -0.0247,0.1039 -0.0466,0.1591 -0.1974,0.2584 -0.3528,0.233 -0.1649,-0.0271 -0.2735,-0.1551 -0.273,-0.3516 z"
       fill="#091f2f"
       fill-opacity="0.9"
       id="path3940"
       style="fill:#080808;fill-opacity:0.8" />
    <path
       d="m 40.1285,25.4142 c -9e-4,0.1323 -0.0886,0.2547 -0.2143,0.2986 -0.1356,0.0478 -0.2689,0.0119 -0.3601,-0.1054 -0.0951,-0.1224 -0.1944,-0.2393 -0.3172,-0.3353 -0.8688,-0.6794 -2.1387,-0.2466 -2.4119,0.823 -0.0088,0.0345 -0.0152,0.0696 -0.0242,0.1041 -0.0459,0.1739 -0.2094,0.2772 -0.3802,0.2411 -0.1706,-0.0363 -0.276,-0.1967 -0.2473,-0.3758 0.1397,-0.8701 0.9144,-1.6206 1.803,-1.7344 0.8436,-0.1081 1.5302,0.1785 2.056,0.8472 0.0722,0.092 0.0967,0.1614 0.0962,0.2371 z"
       fill="#091f2f"
       fill-opacity="0.9"
       id="path3942"
       style="fill:#080808;fill-opacity:0.8" />
  </g>
</svg>
