<?xml version="1.0" encoding="UTF-8" standalone="no"?>
<svg
   width="100"
   height="52"
   viewBox="0 0 100 52"
   fill="none"
   version="1.1"
   id="svg4817"
   sodipodi:docname="education_youth.svg"
   inkscape:version="1.2.2 (b0a8486541, 2022-12-01)"
   xmlns:inkscape="http://www.inkscape.org/namespaces/inkscape"
   xmlns:sodipodi="http://sodipodi.sourceforge.net/DTD/sodipodi-0.dtd"
   xmlns="http://www.w3.org/2000/svg"
   xmlns:svg="http://www.w3.org/2000/svg">
  <defs
     id="defs4821" />
  <sodipodi:namedview
     id="namedview4819"
     pagecolor="#ffffff"
     bordercolor="#666666"
     borderopacity="1.0"
     inkscape:showpageshadow="2"
     inkscape:pageopacity="0.0"
     inkscape:pagecheckerboard="0"
     inkscape:deskcolor="#d1d1d1"
     showgrid="false"
     inkscape:zoom="9.64"
     inkscape:cx="15.767635"
     inkscape:cy="46.058091"
     inkscape:window-width="1600"
     inkscape:window-height="831"
     inkscape:window-x="0"
     inkscape:window-y="0"
     inkscape:window-maximized="1"
     inkscape:current-layer="g4815" />
  <g
     opacity="0.5"
     id="g4815">
    <path
       d="M100 40.3391L0 40.3391L0 51.1029L100 51.1029V40.3391Z"
       fill="#091f2f"
       id="path4775" />
    <path
       d="M91.6018 31.4072L75.2441 33.7157L75.7256 34.7777L69.5783 34.7513L70.0433 33.7157L53.4218 31.4072V8.29868L72.5398 10.937L91.6018 8.29868V31.4072Z"
       fill="#c2d9ed"
       stroke="#091f2f"
       stroke-width="1.78073"
       stroke-miterlimit="10"
       stroke-linecap="round"
       id="path4777" />
    <path
       d="M72.5596 32.3405L55.938 29.9627V6.85092L72.5596 9.23202V32.3405Z"
       fill="#c2d9ed"
       stroke="#091f2f"
       stroke-width="1.78073"
       stroke-miterlimit="10"
       stroke-linecap="round"
       id="path4779" />
    <path
       d="M89.0228 29.9627L72.4012 32.3405V9.23202L89.0228 6.85092V29.9627Z"
       fill="#c2d9ed"
       stroke="#091f2f"
       stroke-width="1.78073"
       stroke-miterlimit="10"
       stroke-linecap="round"
       id="path4781" />
    <path
       d="M74.7164 12.8332L86.6977 11.0886"
       stroke="#091f2f"
       stroke-width="1.78073"
       stroke-miterlimit="10"
       stroke-linecap="round"
       id="path4783" />
    <path
       d="M74.7164 16.537L86.6977 14.7924"
       stroke="#091f2f"
       stroke-width="1.78073"
       stroke-miterlimit="10"
       stroke-linecap="round"
       id="path4785" />
    <path
       d="M74.7164 20.2403L86.6977 18.4957"
       stroke="#091f2f"
       stroke-width="1.78073"
       stroke-miterlimit="10"
       stroke-linecap="round"
       id="path4787" />
    <path
       d="M74.7164 23.944L86.6977 22.1994"
       stroke="#091f2f"
       stroke-width="1.78073"
       stroke-miterlimit="10"
       stroke-linecap="round"
       id="path4789" />
    <path
       d="M74.7164 27.6478L86.6977 25.9032"
       stroke="#091f2f"
       stroke-width="1.78073"
       stroke-miterlimit="10"
       stroke-linecap="round"
       id="path4791" />
    <path
       d="M70.0234 12.8332L58.0421 11.0886"
       stroke="#091f2f"
       stroke-width="1.78073"
       stroke-miterlimit="10"
       stroke-linecap="round"
       id="path4793" />
    <path
       d="M70.0234 16.537L58.0421 14.7924"
       stroke="#091f2f"
       stroke-width="1.78073"
       stroke-miterlimit="10"
       stroke-linecap="round"
       id="path4795" />
    <path
       d="M70.0234 20.2403L58.0421 18.4957"
       stroke="#091f2f"
       stroke-width="1.78073"
       stroke-miterlimit="10"
       stroke-linecap="round"
       id="path4797" />
    <path
       d="M70.0234 23.944L58.0421 22.1994"
       stroke="#091f2f"
       stroke-width="1.78073"
       stroke-miterlimit="10"
       stroke-linecap="round"
       id="path4799" />
    <path
       d="M70.0234 27.6478L58.0421 25.9032"
       stroke="#091f2f"
       stroke-width="1.78073"
       stroke-miterlimit="10"
       stroke-linecap="round"
       id="path4801" />
    <path
       d="M23.2984 16.4263L18.5521 20.7167V34.6501H8.39484V17.5303L13.1243 12.5499H19.7816L23.2984 16.4263Z"
       fill="#c2d9ed"
       stroke="#091f2f"
       stroke-width="1.25664"
       id="path4803" />
    <path
       d="M16.2941 9.53897C18.6521 9.53897 20.5636 7.62745 20.5636 5.26947C20.5636 2.91149 18.6521 0.999969 16.2941 0.999969C13.9361 0.999969 12.0246 2.91149 12.0246 5.26947C12.0246 7.62745 13.9361 9.53897 16.2941 9.53897Z"
       fill="#c2d9ed"
       stroke="#091f2f"
       stroke-width="1.25664"
       id="path4805" />
    <path
       d="M46.3268 17.7226V34.6501H36.7131V20.8965L31.624 16.0792L34.9777 12.5499H41.6307L46.3268 17.7226Z"
       fill="#c2d9ed"
       stroke="#091f2f"
       stroke-width="1.25664"
       id="path4807" />
    <path
       d="M38.1434 9.53897C40.5014 9.53897 42.4129 7.62745 42.4129 5.26947C42.4129 2.91149 40.5014 0.999969 38.1434 0.999969C35.7854 0.999969 33.8739 2.91149 33.8739 5.26947C33.8739 7.62745 35.7854 9.53897 38.1434 9.53897Z"
       fill="#c2d9ed"
       stroke="#091f2f"
       stroke-width="1.25664"
       id="path4809" />
    <path
       d="M34.6306 21.7911V34.8338H20.6303V21.6406L24.4775 18.1614L24.72 17.944H30.5618L34.6306 21.7911Z"
       fill="#c2d9ed"
       stroke="#091f2f"
       stroke-width="1.25664"
       id="path4811" />
    <path
       d="M27.4884 13.846C29.8464 13.846 31.7579 11.9345 31.7579 9.57651C31.7579 7.21853 29.8464 5.30701 27.4884 5.30701C25.1305 5.30701 23.2189 7.21853 23.2189 9.57651C23.2189 11.9345 25.1305 13.846 27.4884 13.846Z"
       fill="#c2d9ed"
       stroke="#091f2f"
       stroke-width="1.25664"
       id="path4813" />
  </g>
</svg>
