<?xml version="1.0" encoding="UTF-8" standalone="no"?>
<svg
   width="80"
   height="80"
   viewBox="0 0 80 80"
   fill="none"
   version="1.1"
   id="svg5367"
   sodipodi:docname="human_services-button.svg"
   inkscape:version="1.2.2 (b0a8486541, 2022-12-01)"
   xmlns:inkscape="http://www.inkscape.org/namespaces/inkscape"
   xmlns:sodipodi="http://sodipodi.sourceforge.net/DTD/sodipodi-0.dtd"
   xmlns="http://www.w3.org/2000/svg"
   xmlns:svg="http://www.w3.org/2000/svg">
  <defs
     id="defs5371" />
  <sodipodi:namedview
     id="namedview5369"
     pagecolor="#ffffff"
     bordercolor="#666666"
     borderopacity="1.0"
     inkscape:showpageshadow="2"
     inkscape:pageopacity="0.0"
     inkscape:pagecheckerboard="0"
     inkscape:deskcolor="#d1d1d1"
     showgrid="false"
     inkscape:zoom="6.22"
     inkscape:cx="43.488746"
     inkscape:cy="50"
     inkscape:window-width="1600"
     inkscape:window-height="831"
     inkscape:window-x="0"
     inkscape:window-y="0"
     inkscape:window-maximized="1"
     inkscape:current-layer="svg5367" />
  <g
     opacity="1"
     id="g5365"
     transform="translate(-9.82445,18.636849)">
    <path
       d="m 49.8344,40.3734 c -0.4592,0.8883 -0.4594,0.8882 -0.4597,0.8881 l -9e-4,-5e-4 -0.0027,-0.0014 -0.0092,-0.0048 -0.0333,-0.0175 c -0.0288,-0.0151 -0.0705,-0.0372 -0.1245,-0.0661 -0.1079,-0.0579 -0.265,-0.1432 -0.4655,-0.255 -0.401,-0.2237 -0.9764,-0.5536 -1.6813,-0.9829 -1.4091,-0.858 -3.3406,-2.1155 -5.4348,-3.7166 -4.1665,-3.1854 -9.073,-7.8028 -11.72,-13.4153 l -0.6729,-1.4266 h 1.5773 7.7196 l 0.5986,-0.4213 1.7006,-6.0334 1.0025,-3.557 0.9279,3.5772 4.2182,16.2619 h 0.9334 l 2.4179,-9.0846 0.1977,-0.7428 h 0.7686 3.9361 l 0.5885,-0.4142 1.5552,-6.0194 0.9427,-3.6486 h -0.3478 l -2.4152,8.8998 -0.2003,0.738 h -0.7648 -3.9042 l -0.6168,0.5449 -1.7162,5.9267 -1.0054,3.4723 -0.922,-3.4954 -4.2459,-16.0963 h -0.9083 l -2.2639,8.8848 -0.1919,0.7531 h -0.7771 -8.196 -0.7391 L 28.8826,20.2139 C 28.3614,18.5158 28,16.6095 28,14.6925 28,7.14759 33.8082,1.10147 40.9795,1.10147 c 3.3524,0 6.4431,1.30436 8.8396,3.61791 2.264,-2.31487 5.3369,-3.60793 8.6905,-3.60793 7.3226,0 13.1393,6.03733 13.1393,13.59105 0,1.9183 -0.362,3.8503 -1.0596,5.5985 l -0.2511,0.6294 h -0.6776 -7.5472 -0.7647 l -0.2004,-0.738 -2.4152,-8.8998 h -0.3677 l 0.9427,3.6486 1.5466,5.9861 0.7242,0.4475 h 7.263 1.5767 l -0.672,1.4263 c -2.6469,5.6173 -7.5482,10.2347 -11.71,13.4191 -2.0917,1.6005 -4.0207,2.8572 -5.428,3.7144 -0.704,0.4289 -1.2786,0.7585 -1.6791,0.9819 -0.2003,0.1117 -0.3572,0.1969 -0.465,0.2548 -0.0539,0.0289 -0.0955,0.0509 -0.1243,0.0661 l -0.0332,0.0174 -0.0092,0.0048 -0.0028,0.0014 -8e-4,4e-4 c -3e-4,2e-4 -6e-4,3e-4 -0.4598,-0.888 z m 0,0 -0.4592,0.8883 0.4592,0.2374 0.4592,-0.2374 z"
       fill="#f8f8f8"
       fill-opacity="0.3"
       stroke="#f8f8f8"
       stroke-opacity="1"
       stroke-width="2"
       id="path5363" />
  </g>
</svg>
