<?xml version="1.0" encoding="UTF-8" standalone="no"?>
<svg
   width="100"
   height="100"
   viewBox="0 0 100 100"
   fill="none"
   version="1.1"
   id="svg5594"
   sodipodi:docname="public_safety-dot.svg"
   inkscape:version="1.2.2 (b0a8486541, 2022-12-01)"
   xmlns:inkscape="http://www.inkscape.org/namespaces/inkscape"
   xmlns:sodipodi="http://sodipodi.sourceforge.net/DTD/sodipodi-0.dtd"
   xmlns="http://www.w3.org/2000/svg"
   xmlns:svg="http://www.w3.org/2000/svg">
  <defs
     id="defs5598" />
  <sodipodi:namedview
     id="namedview5596"
     pagecolor="#ffffff"
     bordercolor="#666666"
     borderopacity="1.0"
     inkscape:showpageshadow="2"
     inkscape:pageopacity="0.0"
     inkscape:pagecheckerboard="0"
     inkscape:deskcolor="#d1d1d1"
     showgrid="false"
     inkscape:zoom="7.775"
     inkscape:cx="39.678457"
     inkscape:cy="40"
     inkscape:window-width="1600"
     inkscape:window-height="831"
     inkscape:window-x="0"
     inkscape:window-y="0"
     inkscape:window-maximized="1"
     inkscape:current-layer="layer1" />
  <g
     inkscape:groupmode="layer"
     id="layer2"
     inkscape:label="background"
     transform="translate(67.202573,-36.334402)">
    <circle
       style="fill:#ffffff;fill-opacity:1;stroke:none;stroke-width:6;stroke-linecap:round;stroke-linejoin:round"
       id="path38153"
       cx="-17.202572"
       cy="86.334404"
       r="40"
       inkscape:label="white-underlay" />
  </g>
  <g
     opacity="0.5"
     id="g5590"
     transform="translate(0.0161671,18.816123)">
    <path
       d="m 34.0205,30.7695 -0.5102,0.7297 1.1624,-1.3359 C 34.6239,30.1109 34.5759,30.0611 34.534,30.0176 l -0.0022,-0.0023 c -0.0441,-0.0457 -0.0817,-0.0848 -0.1186,-0.1245 l -1.3262,1.1879 0.1619,0.1876 c 0.0762,0.0901 0.1582,0.1548 0.1806,0.1725 8e-4,6e-4 0.0015,0.0011 0.0021,0.0016 0.0205,0.0162 0.0385,0.0297 0.0514,0.0392 l 0.017,0.0123 0.006,0.0043 0.0024,0.0016 10e-4,7e-4 5e-4,4e-4 2e-4,10e-5 10e-5,10e-5 c 0,0 1e-4,10e-5 0.5103,-0.7296 z"
       fill="#c2d9ed"
       stroke="#091f2f"
       stroke-width="1.78073"
       id="path5570" />
    <path
       d="m 28.3317,17.2676 -0.4178,0.4396 0.2562,0.5498 c 0.9954,2.1362 1.2654,4.5543 0.7435,6.8731 l -0.2351,1.0444 1.0697,0.0409 c 0.7885,0.0301 1.5935,0.4039 2.1918,1.0859 2e-4,2e-4 4e-4,4e-4 5e-4,6e-4 l 2.321,2.6575 0.0091,0.0104 0.0093,0.0101 0.0865,0.0931 v 0 l 0.0088,0.0092 c 1.4286,1.4936 3.0969,3.2533 4.7454,5.0065 l 1.539,1.6367 V 34.4787 24.1858 l 5.2489,-4.7401 0.6623,-0.5981 -0.5996,-0.6609 -4.5045,-4.9654 -0.265,-0.2921 h -0.3945 -7.971 -0.3822 l -0.2632,0.277 z"
       fill="#c2d9ed"
       stroke="#091f2f"
       stroke-width="1.78073"
       id="path5572" />
    <path
       d="m 40.9823,5.11163 c 0,2.40088 -1.9484,4.34845 -4.3535,4.34845 -2.405,0 -4.3534,-1.94757 -4.3534,-4.34845 0,-2.40089 1.9484,-4.348462 4.3534,-4.348462 2.4051,0 4.3535,1.947572 4.3535,4.348462 z"
       fill="#c2d9ed"
       stroke="#091f2f"
       stroke-width="1.52634"
       id="path5574" />
    <path
       d="m 79.8181,29.0531 -0.1315,0.4958 -3.5331,13.3208 -0.0723,0.2728 -0.2164,0.1813 -14.111,11.8263 -2.0336,4.8772 -0.3947,0.9467 -0.8819,-0.5239 -7.9776,-4.7394 -0.7634,-0.4535 0.4514,-0.7646 0.306,-0.5185 2e-4,-2e-4 0.479,-0.8109 h 1e-4 l 0.479,-0.811 0.0013,-0.0021 0.8942,-1.5043 0.2455,-6.9064 0.0118,-0.3335 0.2282,-0.2436 c 0.4849,-0.5175 1.7883,-1.9126 3.4579,-3.7069 l 0.0014,-0.0015 c 0.6588,-0.7047 1.3714,-1.4632 2.1243,-2.2553 0.0785,-0.0843 0.1591,-0.1715 0.2412,-0.2604 0.1854,-0.2005 0.3788,-0.4098 0.575,-0.6151 0.1322,-0.1384 0.2633,-0.2791 0.3986,-0.4244 l 0.0013,-0.0013 c 0.1329,-0.1426 0.27,-0.2897 0.4093,-0.4357 1.4098,-1.5015 2.8598,-3.0364 4.1907,-4.4326 0.234,-0.2507 0.4723,-0.5005 0.7012,-0.7406 0.1292,-0.1355 0.2555,-0.2679 0.3763,-0.3956 5e-4,-5e-4 0.001,-0.001 0.0014,-0.0015 L 65.28,30.089 c 0.0904,-0.0963 0.1906,-0.2031 0.2931,-0.3063 l 1.8347,-2.0958 0.0027,-0.003 0.5149,-0.5936 c 3e-4,-3e-4 5e-4,-5e-4 7e-4,-8e-4 0.6149,-0.7117 1.4686,-1.1146 2.348,-1.138 0.3161,-0.0165 0.624,0.0264 0.9146,0.1145 l -0.0675,-0.2211 c -0.6739,-2.2077 -0.6231,-4.5523 0.1082,-6.7011 m 8.5887,9.9093 -0.3762,-0.3757 0.0133,0.0133 0.1075,0.1074 m 0.2554,0.255 -0.2554,-0.255 m 0.2554,0.255 -0.2554,-0.255 m -8.3333,-9.6543 c 1e-4,-3e-4 2e-4,-7e-4 3e-4,-10e-4 l 0.8429,0.2869 -0.8434,-0.2855 c 10e-5,-10e-5 10e-5,-3e-4 2e-4,-4e-4 z m 0,0 c 0.335,-0.9894 0.8218,-1.9318 1.4438,-2.7988 l 0.4423,-0.6167 0.679,0.3391 0.0665,0.0333 0.291,0.1453 0.1288,0.2987 5.2819,12.2534 M 73.8465,17.7864 c 0.0872,-0.1363 0.1785,-0.2708 0.2736,-0.4035 l -0.6479,-0.4647 z m -0.5131,-0.8333 -0.6879,0.2965 0.2016,0.4677 c 0.1497,-0.2605 0.3119,-0.5155 0.4863,-0.7642 z"
       fill="#288be4"
       stroke="#091f2f"
       stroke-width="1.78073"
       id="path5576" />
    <path
       d="m 70.2276,26.1163 h 1.1048 L 71.0843,25.028 C 70.581,22.8207 70.802,20.5147 71.6919,18.4609 l 0.2284,-0.5271 -0.3862,-0.4254 -3.8924,-4.2874 -0.2649,-0.2918 h -0.3943 -7.971 -0.3823 l -0.2633,0.2772 -4.3182,4.5466 -0.6145,0.647 0.6484,0.6131 5.683,5.3733 v 9.5406 2.2473 l 1.5391,-1.6375 c 1.5354,-1.6335 3.071,-3.2539 4.3938,-4.6418 l 0.0137,-0.0144 0.0131,-0.0151 2.3203,-2.6633 c 2e-4,-3e-4 4e-4,-5e-4 7e-4,-8e-4 0.5938,-0.6768 1.3918,-1.0506 2.1823,-1.0851 z"
       fill="#c2d9ed"
       stroke="#091f2f"
       stroke-width="1.78073"
       id="path5578" />
    <path
       d="m 67.1576,5.11163 c 0,2.40088 -1.9484,4.34845 -4.3535,4.34845 -2.405,0 -4.3534,-1.94757 -4.3534,-4.34845 0,-2.40089 1.9484,-4.348462 4.3534,-4.348462 2.4051,0 4.3535,1.947572 4.3535,4.348462 z"
       fill="#c2d9ed"
       stroke="#091f2f"
       stroke-width="1.52634"
       id="path5580" />
    <path
       d="m 59.6675,24.0643 -1.5196,-1.5184 v 0.083 L 54.5263,19.2078 54.269,18.9647 H 53.9149 46.576 46.2417 l -0.2517,0.22 -0.1597,0.1396 -0.0055,0.0048 -0.0054,0.0049 -5.0102,4.5267 -0.2934,0.2651 v 0.3955 11.6989 0.3524 l 0.2411,0.2569 c 0.2268,0.2418 0.4517,0.4813 0.6739,0.7181 1.1471,1.222 2.2225,2.3678 3.13,3.3412 l 10e-4,0.0011 c 0.8083,0.8639 1.485,1.5881 1.9628,2.1004 0.239,0.2561 0.4279,0.459 0.5585,0.5996 0.0484,0.0521 0.085,0.0917 0.1118,0.1207 0.0592,0.0639 0.0708,0.0765 0.0567,0.0589 l 0.0169,0.0211 0.0023,0.0025 0.2451,6.9889 0.008,0.2282 0.1168,0.1961 1.2309,2.0673 0.259,0.4348 h 0.5061 0.672 0.5067 l 0.2588,-0.4357 1.2908,-2.1736 0.1161,-0.1955 0.0082,-0.2271 0.252,-6.9965 0.0013,-0.0015 0.0176,-0.0219 c -0.0135,0.0168 -0.0031,0.0056 0.0513,-0.0534 0.0259,-0.0281 0.0618,-0.067 0.1098,-0.1188 0.1253,-0.1352 0.3066,-0.3302 0.5363,-0.5767 0.4593,-0.4929 1.1108,-1.1902 1.8921,-2.0239 l 0.0025,-0.0027 c 1.0487,-1.1282 2.3376,-2.5014 3.7036,-3.9569 0.209,-0.2226 0.4197,-0.4471 0.6317,-0.673 l 0.2411,-0.2569 V 35.6419 24.6941 h -0.8468 l 0.599,-0.6165 z"
       fill="#c2d9ed"
       stroke="#091f2f"
       stroke-width="1.78073"
       id="path5582" />
    <path
       d="m 54.396,10.2631 c 0,2.4009 -1.9484,4.3485 -4.3535,4.3485 -2.405,0 -4.3534,-1.9476 -4.3534,-4.3485 0,-2.40084 1.9484,-4.34841 4.3534,-4.34841 2.4051,0 4.3535,1.94757 4.3535,4.34841 z"
       fill="#c2d9ed"
       stroke="#091f2f"
       stroke-width="1.52634"
       id="path5584" />
    <path
       d="M 49.4811,53.9918 49.4767,53.9842 49.0088,53.1808 49.006,53.1762 48.5269,52.3652 48.5258,52.3633 47.6913,50.9585 47.4458,44.0521 47.434,43.7182 47.2053,43.4745 c -0.219,-0.2333 -0.5983,-0.6396 -1.1007,-1.1777 -0.6434,-0.6891 -1.4888,-1.5945 -2.4582,-2.6302 v -1e-4 l -0.0048,-0.0051 c -0.4453,-0.4682 -0.9115,-0.9678 -1.3975,-1.4885 -0.062,-0.0665 -0.1244,-0.1333 -0.1871,-0.2005 v 0 l -0.0064,-0.0068 -0.037,-0.0388 c -0.2549,-0.2673 -0.5117,-0.5367 -0.7681,-0.8116 -0.1236,-0.1327 -0.2749,-0.2933 -0.4247,-0.4522 -0.138,-0.1464 -0.2747,-0.2915 -0.387,-0.4119 l -0.0012,-0.0013 c -1.5457,-1.6507 -3.1642,-3.3607 -4.6352,-4.9101 l -2e-4,-2e-4 C 35.681,31.2172 35.5669,31.0977 35.455,30.9805 35.2013,30.7148 34.9587,30.4607 34.7264,30.2104 l -0.11,-0.1185 -0.0078,-0.0039 c -0.0213,-0.0223 -0.0419,-0.0436 -0.0611,-0.0636 l -0.0023,-0.0023 c -0.0406,-0.0422 -0.0758,-0.0788 -0.11,-0.1153 l -1.8472,-2.11 -6e-4,-7e-4 -0.5168,-0.5891 c -0.6125,-0.7079 -1.4761,-1.1307 -2.3692,-1.1496 l -0.0095,-2e-4 h -0.0094 c -0.2556,0 -0.5443,0.0271 -0.8378,0.113 h -0.0259 l -0.0312,0.0109 0.0619,-0.1996 c 0.7324,-2.3617 0.6234,-4.8808 -0.2527,-7.1385 -0.2443,-0.6358 -0.5586,-1.2318 -0.9141,-1.8 l -0.0947,-0.1514 -0.1458,-0.1031 -0.4791,-0.339 -0.897,-0.6348 -0.4349,1.0092 -5.283,12.2572 -0.1208,0.2802 0.0765,0.2954 0.1996,0.771 v 0 l 0.0015,0.0059 3.3401,12.5497 0.0725,0.2723 0.2159,0.181 14.1045,11.8264 2.0338,4.8709 0.3947,0.9454 0.8812,-0.5227 7.9111,-4.6928 0.3559,-0.2111 0.0681,-0.4082 c 6e-4,-0.0034 10e-4,-0.0059 0.0013,-0.0075 8e-4,-0.0044 5e-4,-0.0026 -5e-4,0.002 -4e-4,0.0016 -8e-4,0.0034 -0.0013,0.0054 -6e-4,0.0024 -0.0013,0.0051 -0.0021,0.008 -0.0015,0.0053 -0.003,0.0102 -0.0044,0.0144 L 49.735,55.2199 49.1782,55.0341 49.8094,54.5426 Z M 39.394,44.8119 c -4e-4,-4e-4 -7e-4,-8e-4 -0.0011,-0.0013 z"
       fill="#288be4"
       stroke="#091f2f"
       stroke-width="1.78073"
       id="path5586" />
    <path
       d="M 49.3632,55.0913 49.303,55.0712 49.2694,54.9395 49.8459,54.6248 49.806,54.5516 48.8268,52.758 48.18,54.6965 l -0.0032,0.0092 -0.0066,0.0197 c -0.0053,0.0157 -0.0141,0.0426 -0.0229,0.0749 -0.0186,0.0682 -0.0397,0.1684 -0.0397,0.291 v 1.4991 l 1.3163,-0.7173 0.0732,-0.0399 -0.189,-0.7419 z m 0,0 0.5045,0.1683 m -0.5045,-0.1683 h 0.5251 c 0,0.075 -0.0119,0.1343 -0.0206,0.1683 m 0,0 0.0014,5e-4 -0.0068,0.0201 -0.0029,0.0088 c -2e-4,4e-4 -2e-4,6e-4 -2e-4,6e-4 0,0 0.0027,-0.0082 0.006,-0.0203 8e-4,-0.003 0.0016,-0.0062 0.0025,-0.0097 z"
       fill="#288be4"
       stroke="#091f2f"
       stroke-width="1.78073"
       id="path5588" />
  </g>
  <g
     inkscape:groupmode="layer"
     id="layer1"
     inkscape:label="foreground"
     transform="translate(47.202573,-56.334402)">
    <path
       id="path38153-1"
       style="fill:#4185fa;fill-opacity:1;stroke:none;stroke-width:6;stroke-linecap:round;stroke-linejoin:round"
       d="M 2.797429,56.334405 A 50,50 0 0 0 -47.202574,106.33441 50,50 0 0 0 2.797429,156.3344 50,50 0 0 0 52.797428,106.33441 50,50 0 0 0 2.797429,56.334405 Z m 0,10 a 40,40 0 0 1 40,40.000005 40,40 0 0 1 -40,39.99999 40,40 0 0 1 -40.000003,-39.99999 40,40 0 0 1 40.000003,-40.000005 z"
       inkscape:label="color-overlay" />
  </g>
</svg>
