<?xml version="1.0" encoding="UTF-8" standalone="no"?>
<svg
   width="80"
   height="80"
   viewBox="0 0 80 80"
   fill="none"
   version="1.1"
   id="svg4455"
   xmlns="http://www.w3.org/2000/svg"
   xmlns:svg="http://www.w3.org/2000/svg">
  <defs
     id="defs4459" />
  <g
     opacity="1"
     id="g4453">
    <g
       opacity="0.9"
       id="g4449"
       transform="translate(-10.049026,7.46595)">
      <path
         d="m 30.0859,42.125 c 0.3522,0.0356 0.3127,0.3008 0.3127,0.5395 0,5.8873 0,11.7732 -0.0013,17.6605 0,0.2045 0.0738,0.467 -0.2678,0.4907 0.0013,-6.0785 0.0039,-12.1584 0.0026,-18.2369 0,-0.1517 -0.0303,-0.3021 -0.0462,-0.4538 z"
         fill="#f8f8f8"
         fill-opacity="0.5"
         stroke="#f8f8f8"
         stroke-opacity="1"
         stroke-width="1.14475"
         id="path4341" />
      <path
         d="m 69.9829,30.5342 c -0.1649,0.0277 -0.3179,0.0237 -0.343,-0.1887 -0.0171,-0.1517 -0.0171,-0.306 -0.0171,-0.4604 0,-5.6194 -0.0027,-11.2376 0.0079,-16.8571 0,-0.2506 -0.1926,-0.6727 0.3522,-0.6595 -0.1477,0.2625 -0.1174,0.5514 -0.1174,0.835 0,5.5232 -0.0013,11.0477 0.0026,16.5708 0,0.2546 -0.0751,0.529 0.1135,0.7585 z"
         fill="#f8f8f8"
         fill-opacity="0.5"
         stroke="#f8f8f8"
         stroke-opacity="1"
         stroke-width="1.14475"
         id="path4343" />
      <path
         d="m 30.0801,12.3695 c 0.4564,0.0527 0.3126,0.4102 0.3139,0.6622 0.0093,2.3467 0.0053,4.6934 0.0053,7.0402 0,3.2674 0.0026,6.5349 -0.0053,9.8024 0,0.2506 0.1465,0.6108 -0.3139,0.6596 0.0184,-0.2177 0.0527,-0.434 0.0527,-0.6517 0.0027,-5.5984 0.0027,-11.1954 0,-16.7938 0,-0.2401 -0.0343,-0.4802 -0.0514,-0.7202 z"
         fill="#f8f8f8"
         fill-opacity="0.5"
         stroke="#f8f8f8"
         stroke-opacity="1"
         stroke-width="1.14475"
         id="path4345" />
      <path
         d="m 70.9736,11.3761 c -0.0039,-2.12121 0,-4.24368 -0.0185,-6.36484 -0.0039,-0.43795 0.1794,-0.55271 0.5884,-0.56063 1.2716,-0.02506 1.2835,-0.03825 1.2663,-1.33891 -0.0092,-0.6965 0.0805,-1.39827 -0.0593,-2.09082 0.3588,-0.094974 0.3363,0.1517 0.3363,0.37727 0,0.96297 -0.0118,1.92725 0.0066,2.89021 0.0066,0.34166 -0.1108,0.44059 -0.4498,0.45642 -0.4617,0.02242 -1.0817,-0.25064 -1.3455,0.14246 -0.2137,0.31923 -0.0554,0.89041 -0.058,1.34947 -0.0053,1.4893 -0.0066,2.97727 -0.0145,4.46657 0,0.2506 0.0699,0.5382 -0.2507,0.6728 z"
         fill="#f8f8f8"
         fill-opacity="0.5"
         stroke="#f8f8f8"
         stroke-opacity="1"
         stroke-width="1.14475"
         id="path4347" />
      <path
         d="m 28.8148,4.73926 c 0.335,0.03166 0.2638,0.29021 0.2638,0.49467 0.0066,2.13567 0.0079,4.27001 0.0119,6.40567 C 28.7172,11.5051 28.8227,11.1792 28.8214,10.9154 28.8122,8.85625 28.8161,6.7971 28.8148,4.73926 Z"
         fill="#f8f8f8"
         fill-opacity="0.5"
         stroke="#f8f8f8"
         stroke-opacity="1"
         stroke-width="1.14475"
         id="path4349" />
      <path
         d="m 28.7962,34.4678 c 0.2823,0.0646 0.2876,0.2783 0.2876,0.5105 0.0013,1.9523 0.0079,3.9033 0.0132,5.8556 0,0.1358 -0.0158,0.2625 -0.1543,0.3337 -0.1953,-0.2493 -0.1188,-0.5435 -0.1214,-0.8178 -0.0145,-1.9603 -0.0185,-3.9205 -0.0264,-5.8807 z"
         fill="#f8f8f8"
         fill-opacity="0.5"
         stroke="#f8f8f8"
         stroke-opacity="1"
         stroke-width="1.14475"
         id="path4351" />
      <path
         d="m 73.137,63.7481 c -0.3099,-0.0079 -0.3231,-0.2229 -0.3218,-0.4551 0.0026,-0.5013 -0.0304,-1.0052 0.0079,-1.5025 0.0409,-0.5263 -0.1134,-0.7558 -0.6807,-0.7084 -0.5619,0.0475 -1.1318,0.0106 -1.6977,0.0106 -0.2387,0 -0.4973,0.0369 -0.558,-0.2968 0.8957,0.0092 1.7927,0.0369 2.6884,0.0185 0.3944,-0.0079 0.5329,0.0963 0.5224,0.5105 -0.0198,0.8073 0.0224,1.6146 0.0382,2.4232 z"
         fill="#f8f8f8"
         fill-opacity="0.5"
         stroke="#f8f8f8"
         stroke-opacity="1"
         stroke-width="1.14475"
         id="path4353" />
      <path
         d="m 30.129,60.8174 c -0.029,0.3931 -0.3337,0.2599 -0.5448,0.2717 -0.8654,0.0501 -1.7373,-0.0818 -2.6,0.0739 -0.1003,-0.4195 0.2111,-0.3364 0.4287,-0.3377 0.9049,-0.0079 1.8112,-0.0066 2.7161,-0.0079 z"
         fill="#f8f8f8"
         fill-opacity="0.5"
         stroke="#f8f8f8"
         stroke-opacity="1"
         stroke-width="1.14475"
         id="path4355" />
      <path
         d="m 26.9842,4.39648 c 0.4498,0.12136 0.9101,0.03034 1.3639,0.06332 0.1992,0.01451 0.471,-0.08046 0.4657,0.27966 -0.4828,-0.00264 -0.9643,-0.00528 -1.4471,-0.0066 -0.2256,0 -0.4709,0.02111 -0.3839,-0.33638 z"
         fill="#f8f8f8"
         fill-opacity="0.5"
         stroke="#f8f8f8"
         stroke-opacity="1"
         stroke-width="1.14475"
         id="path4357" />
      <path
         d="m 70.1152,12.368 c 0.0515,-0.1609 0.1042,-0.3218 0.3311,-0.2612 0.0027,0.2309 -0.1556,0.256 -0.3311,0.2612 z"
         fill="#f8f8f8"
         fill-opacity="0.5"
         stroke="#f8f8f8"
         stroke-opacity="1"
         stroke-width="1.14475"
         id="path4359" />
      <path
         d="m 29.5547,12.1056 c 0.2071,-0.0251 0.3073,0.1095 0.3957,0.2625 -0.2189,0.0435 -0.3588,-0.0304 -0.3957,-0.2625 z"
         fill="#f8f8f8"
         fill-opacity="0.5"
         stroke="#f8f8f8"
         stroke-opacity="1"
         stroke-width="1.14475"
         id="path4361" />
      <path
         d="m 70.4479,12.1053 c -0.0092,-0.1873 0.0779,-0.2757 0.2665,-0.2572 0.0224,0.2005 -0.0633,0.2915 -0.2665,0.2572 z"
         fill="#f8f8f8"
         fill-opacity="0.5"
         stroke="#f8f8f8"
         stroke-opacity="1"
         stroke-width="1.14475"
         id="path4363" />
      <path
         d="m 70.7164,11.8442 c -0.0435,-0.2098 0.1121,-0.2691 0.2559,-0.3364 0.0145,0.1873 0,0.3549 -0.2559,0.3364 z"
         fill="#f8f8f8"
         fill-opacity="0.5"
         stroke="#f8f8f8"
         stroke-opacity="1"
         stroke-width="1.14475"
         id="path4365" />
      <path
         d="m 50.0079,26.8564 c -5.3517,0 -10.7021,-0.0092 -16.0525,0.0132 -0.5527,0.0026 -0.6807,-0.1425 -0.678,-0.686 0.0237,-4.3227 0.0171,-8.6455 0.0079,-12.9696 0,-0.4525 0.0079,-0.7123 0.62,-0.6451 0.521,0.0568 1.0329,-0.2414 1.4563,-0.5632 0.1781,-0.1346 0.1438,-0.1399 0.3483,0.0066 1.079,0.7677 1.7056,0.802 2.8374,-0.0027 0.2203,-0.157 0.1754,-0.0897 0.3443,0.0145 1.2215,0.7519 1.6766,0.7876 2.8387,-0.025 0.1583,-0.1108 0.1847,-0.1504 0.3457,-0.0317 0.9629,0.711 1.9259,0.934 2.8783,-0.0369 0.1253,-0.128 0.281,-0.0765 0.4538,0.0369 1.3481,0.8825 1.36,0.7902 2.6435,0.1016 0.2704,-0.1451 0.4037,-0.2164 0.678,0.029 0.7757,0.6952 1.4972,0.6728 2.6713,-0.0699 0.2097,-0.1319 0.1978,-0.1253 0.401,0.0145 1.0579,0.7282 1.6726,0.7466 2.7992,-0.0053 0.1556,-0.1042 0.1174,-0.1886 0.3509,-0.0396 1.2624,0.8034 1.6185,0.8496 2.8572,-0.0527 0.2559,-0.1873 0.2902,0.0343 0.4102,0.0989 0.6899,0.3707 1.4194,0.8904 2.166,0.3087 0.6385,-0.4986 1.1187,-0.339 1.6885,0.0211 0.7902,0.5 1.4761,0.0871 2.1304,-0.3271 0.2282,-0.1438 0.3047,-0.1755 0.5409,0.0316 0.4128,0.3628 0.9471,0.6174 1.5183,0.4947 0.554,-0.1187 0.4828,0.2005 0.4828,0.5316 -0.0027,3.3136 -0.0013,6.6273 -0.0013,9.9409 0,1.054 -0.0396,2.1093 0.0158,3.1593 0.0303,0.5831 -0.1794,0.6649 -0.6978,0.6623 -5.3504,-0.0185 -10.7021,-0.0119 -16.0525,-0.0119 z"
         fill="#f8f8f8"
         fill-opacity="0.3"
         stroke="#f8f8f8"
         stroke-opacity="1"
         stroke-width="1.14475"
         id="path4367" />
      <path
         d="m 42.532,56.6019 c -2.9615,0 -5.9242,-0.0093 -8.8856,0.0105 -0.4551,0.0027 -0.595,-0.1147 -0.5937,-0.5817 0.0172,-4.4573 0.0146,-8.9134 0.0027,-13.3707 0,-0.4116 0.0699,-0.5962 0.5342,-0.5276 0.6002,0.0883 1.1595,-0.0251 1.6344,-0.4683 0.2058,-0.1926 0.4789,-0.157 0.6912,0.0606 0.6121,0.6253 1.9101,0.6148 2.5328,-0.1108 0.2585,-0.3007 0.4049,-0.1319 0.5672,0.0198 0.6042,0.5686 1.6054,0.7453 2.3164,0.2427 0.3997,-0.2822 0.7004,-0.3588 1.1608,-0.029 0.6424,0.4617 1.4141,0.4789 2.0803,0.0145 0.4604,-0.3218 0.8297,-0.248 1.232,0.0264 0.7612,0.5158 1.5289,0.3074 2.1951,-0.1187 0.339,-0.2177 0.4828,-0.19 0.7651,0.004 0.893,0.6107 1.8177,0.5118 2.6013,-0.1728 0.4076,-0.3562 0.5118,-0.004 0.62,0.2321 0.0765,0.1662 0.0395,0.3878 0.0395,0.5844 0.0014,4.4784 -0.0092,8.9582 0.0132,13.4366 0.0027,0.5857 -0.1332,0.7717 -0.7532,0.7638 -2.9179,-0.0369 -5.8358,-0.0158 -8.7537,-0.0158 z"
         fill="#f8f8f8"
         fill-opacity="0.3"
         stroke="#f8f8f8"
         stroke-opacity="1"
         stroke-width="1.14475"
         id="path4369" />
      <path
         d="m 66.4178,60.8357 c -3.2886,0 -6.5785,-0.0118 -9.8671,0.0159 -0.5118,0.0039 -0.5989,-0.1504 -0.5976,-0.6227 0.0172,-5.8147 0.0172,-11.6281 0,-17.4428 -0.0013,-0.492 0.0924,-0.7281 0.6332,-0.6503 0.2243,0.033 0.4512,0.0106 0.6662,-0.1741 0.4195,-0.3601 0.8535,-0.4855 1.3877,-0.0884 0.6385,0.4722 1.393,0.4379 2.0103,-0.0251 0.4631,-0.3469 0.7836,-0.2044 1.1714,0.033 0.7994,0.4894 1.5672,0.343 2.2874,-0.1715 0.1346,-0.0963 0.3337,-0.1965 0.3944,-0.1411 0.5514,0.4986 1.2347,0.5158 1.9101,0.5712 0.0238,0.1926 0.0673,0.3851 0.0673,0.5791 0.004,5.8688 0.004,11.7362 0,17.605 0,0.1702 -0.0435,0.3404 -0.0673,0.5118 z"
         fill="#f8f8f8"
         fill-opacity="0.3"
         stroke="#f8f8f8"
         stroke-opacity="1"
         stroke-width="1.14475"
         id="path4371" />
      <path
         d="m 49.9677,30.5873 c -6.1431,0 -12.285,0 -18.4282,0 -0.5901,0 -0.8855,-0.2999 -0.8864,-0.8997 0,-5.4664 0.0039,-10.9316 -0.0066,-16.398 0,-0.5818 -0.0066,-1.0685 0.7967,-0.9907 0.2652,0.0251 0.4182,-0.2691 0.6398,-0.3918 0.3219,-0.1794 0.496,-0.1372 0.4973,0.2625 0,0.1979 0.004,0.3958 0.004,0.5923 0,4.6763 0.0092,9.3513 -0.0119,14.0276 -0.0026,0.5831 0.1227,0.7875 0.7532,0.7862 11.0781,-0.0198 22.1574,-0.0185 33.2354,-0.0013 0.5593,0 0.6913,-0.1662 0.6886,-0.7031 -0.0198,-4.6763 -0.0119,-9.3513 -0.0105,-14.0276 0,-0.1979 -0.0515,-0.4221 0.0237,-0.5857 0.1174,-0.2546 0.2203,-0.7308 0.6596,-0.2585 0.0857,0.0923 0.2097,0.1859 0.3298,0.2057 0.9656,0.1623 0.9273,0.8482 0.9247,1.6001 -0.0198,5.3557 -0.0198,10.7127 0.0039,16.0683 0.0027,0.5738 -0.1292,0.7308 -0.7189,0.7282 C 62.2976,30.578 56.1333,30.5873 49.9677,30.5873 Z"
         fill="#f8f8f8"
         fill-opacity="0.5"
         stroke="#f8f8f8"
         stroke-opacity="1"
         stroke-width="1.14475"
         id="path4373" />
      <path
         d="m 43.036,61.0857 c -3.7952,0 -7.589,0 -11.3841,0 -0.8878,0 -0.9973,-0.1082 -0.9973,-0.9683 0,-5.6841 0.0014,-11.3695 -0.0039,-17.0537 0,-0.5039 -0.0343,-0.8547 0.6477,-1.0935 1.3019,-0.4564 1.2676,-0.554 1.2676,0.8614 0,4.5431 0.008,9.0861 -0.0105,13.6305 -0.0013,0.4934 0.0923,0.6609 0.6319,0.6596 6.2948,-0.0211 12.5897,-0.0211 18.8859,0 0.5646,0.0013 0.6741,-0.1689 0.6714,-0.6978 -0.0211,-4.5431 -0.0052,-9.0862 -0.0224,-13.6293 -0.0013,-0.5065 0.0673,-0.7967 0.6622,-0.7136 0.3799,0.0528 0.6464,-0.2586 0.9656,-0.3997 0.1926,-0.0844 0.277,-0.5092 0.5514,-0.2665 0.2388,0.2111 0.6029,0.3747 0.5738,0.7981 -0.0079,0.1095 0,0.219 0,0.3298 0,5.882 0,11.764 0,17.646 0,0.7664 -0.1279,0.897 -0.922,0.8983 -3.8387,0.0039 -7.6774,0.0013 -11.516,0.0013 z"
         fill="#f8f8f8"
         fill-opacity="0.5"
         stroke="#f8f8f8"
         stroke-opacity="1"
         stroke-width="1.14475"
         id="path4375" />
      <path
         d="m 50.0394,1.51154 c 7.2157,0 14.4313,0 21.6469,0 0.5936,0 0.8909,0.29505 0.8917,0.88514 0.0018,1.21359 -0.609,1.81995 -1.8322,1.81907 -14.1028,0 -28.2043,0 -42.3071,0 -0.6455,0 -0.9686,-0.31747 -0.9695,-0.95241 0,-0.37331 0.0356,-0.75058 -0.0079,-1.11862 -0.0634,-0.5448 0.1728,-0.64505 0.6674,-0.64373 7.3027,0.01451 14.6067,0.00923 21.9094,0.00923 z"
         fill="#f8f8f8"
         fill-opacity="0.5"
         stroke="#f8f8f8"
         stroke-opacity="1"
         stroke-width="1.14475"
         id="path4377" />
      <path
         d="m 49.9555,64.0539 c -7.2367,0 -14.4735,-0.0093 -21.7115,0.0158 -0.6411,0.0026 -0.8588,-0.1649 -0.7849,-0.7994 0.0528,-0.4551 0.0211,-0.9207 0.0079,-1.3811 -0.0119,-0.3799 0.1214,-0.5831 0.5329,-0.5435 0.1742,0.0171 0.3509,0.0026 0.5264,0.0026 14.3639,0 28.7292,0 43.0932,0 0.6393,0 0.959,0.3267 0.959,0.9801 0,1.1503 -0.5668,1.7255 -1.7003,1.7255 H 49.9568 Z"
         fill="#f8f8f8"
         fill-opacity="0.5"
         stroke="#f8f8f8"
         stroke-opacity="1"
         stroke-width="1.14475"
         id="path4379" />
      <path
         d="m 49.882,33.7511 c -7.2393,0 -14.4787,-0.004 -21.7181,0.0092 -0.5171,0 -0.8666,0.0171 -0.7136,-0.6886 0.0963,-0.4406 0.0435,-0.9194 0.0105,-1.3785 -0.0356,-0.4999 0.1174,-0.6978 0.6556,-0.6793 1.1173,0.0409 2.2373,0.0132 3.3559,0.0132 13.3377,0 26.6754,0.0039 40.0131,-0.0106 1.0157,0 1.108,0.2309 1.0962,1.0738 -0.0238,1.6608 -0.0053,1.6608 -1.641,1.6608 -7.0204,0 -14.0395,0 -21.0599,0 z"
         fill="#f8f8f8"
         fill-opacity="0.5"
         stroke="#f8f8f8"
         stroke-opacity="1"
         stroke-width="1.14475"
         id="path4381" />
      <path
         d="m 67.2251,51.2238 c 0,-3.0063 -0.0039,-6.0126 0.0066,-9.0189 0,-0.2295 -0.1227,-0.4986 0.2282,-0.6754 0.3364,-0.1688 0.4683,0.0462 0.6622,0.1953 0.033,0.025 0.062,0.0738 0.0963,0.0765 1.1701,0.1095 0.9485,0.9814 0.9485,1.7307 0,5.5733 -0.0106,11.1479 0.0145,16.7212 0.0026,0.6728 -0.1952,0.9366 -0.8574,0.8337 -0.128,-0.0198 -0.2652,-0.0185 -0.3945,0 -0.5606,0.0805 -0.7176,-0.1768 -0.7136,-0.7123 0.0184,-3.0498 0.0092,-6.101 0.0092,-9.1508 z"
         fill="#f8f8f8"
         fill-opacity="0.5"
         stroke="#f8f8f8"
         stroke-opacity="1"
         stroke-width="1.14475"
         id="path4383" />
      <path
         d="m 48.0346,7.96829 c 0,0.87722 0.0039,1.75444 0,2.63161 -0.004,0.7137 -0.3997,1.2005 -0.9907,1.2268 -1.0131,0.0475 -1.5592,-0.2994 -1.5737,-1.1146 -0.033,-1.86395 -0.0066,-3.72788 -0.0145,-5.59312 0,-0.28889 0.1266,-0.38915 0.3931,-0.38651 0.6134,0.00396 1.2281,0.01319 1.8415,-0.00264 0.3733,-0.01055 0.3535,0.22557 0.3522,0.47489 -0.0026,0.92075 0,1.84282 0,2.76357 -0.0026,0 -0.004,0 -0.0066,0 z"
         fill="#f8f8f8"
         fill-opacity="0.3"
         stroke="#f8f8f8"
         stroke-opacity="1"
         stroke-width="1.14475"
         id="path4385" />
      <path
         d="m 60.9163,7.47427 c 0.0567,0.92207 -0.0831,2.1792 -0.1755,3.43893 -0.0567,0.773 -0.2255,0.9129 -1.083,0.9155 -0.7545,0.0026 -1.3046,-0.3628 -1.3112,-0.9484 -0.0198,-1.93124 -0.0052,-3.86245 -0.0092,-5.79365 0,-0.23744 0.0646,-0.38255 0.3324,-0.35484 0.0436,0.00395 0.0884,-0.0066 0.1319,0 0.7005,0.12004 1.6635,-0.38123 2.0513,0.2625 0.3192,0.53161 0.0646,1.40883 0.0646,2.47732 z"
         fill="#f8f8f8"
         fill-opacity="0.3"
         stroke="#f8f8f8"
         stroke-opacity="1"
         stroke-width="1.14475"
         id="path4387" />
      <path
         d="m 45.4577,37.588 c 0,-0.8785 0.0171,-1.7557 -0.0079,-2.633 -0.0106,-0.3759 0.1279,-0.5263 0.4854,-0.5105 0.0224,0 0.0435,0 0.066,0 0.6543,0.0343 1.484,-0.2664 1.9127,0.1201 0.4076,0.3667 0.1108,1.203 0.1214,1.8323 0.0198,1.2729 0.0052,2.5459 -0.0014,3.8188 -0.0039,0.6807 -0.6938,1.3877 -1.3085,1.3548 -0.624,-0.0343 -1.2572,-0.6979 -1.2637,-1.3469 -0.0093,-0.8772 -0.0027,-1.7557 -0.0027,-2.6343 z"
         fill="#f8f8f8"
         fill-opacity="0.3"
         stroke="#f8f8f8"
         stroke-opacity="1"
         stroke-width="1.14475"
         id="path4389" />
      <path
         d="m 58.3378,37.6415 c 0,-0.8997 0.0132,-1.7993 -0.0066,-2.699 -0.0079,-0.3509 0.0726,-0.5237 0.4631,-0.5052 0.525,0.0251 1.0539,0.0264 1.579,0 0.4814,-0.0238 0.5896,0.1952 0.5619,0.6319 -0.0383,0.612 -0.0646,1.2307 -0.0172,1.8415 0.0897,1.1608 -0.2084,2.2952 -0.1767,3.4508 0.0119,0.4129 -0.0515,0.7611 -0.5145,0.988 -0.5487,0.2678 -0.992,0.1728 -1.4273,-0.1688 -0.3073,-0.2428 -0.4894,-0.5369 -0.4722,-0.9722 0.0343,-0.8548 0.0105,-1.7109 0.0105,-2.567 z"
         fill="#f8f8f8"
         fill-opacity="0.3"
         stroke="#f8f8f8"
         stroke-opacity="1"
         stroke-width="1.14475"
         id="path4391" />
      <path
         d="m 35.1463,8.04361 c 0,0.89832 0.0053,1.79533 -0.0013,2.69369 -0.0053,0.6846 -0.467,1.0922 -1.2163,1.0922 -0.9022,0 -1.1595,-0.219 -1.1647,-1.054 C 32.7547,8.93666 32.7732,7.09647 32.7521,5.25761 32.7468,4.8157 32.9025,4.69566 33.318,4.726 c 0.5844,0.04353 1.3508,-0.17808 1.7083,0.11609 0.3812,0.31263 0.0976,1.10806 0.12,1.69112 0.0198,0.50258 0.004,1.00649 0.004,1.5104 z"
         fill="#f8f8f8"
         fill-opacity="0.3"
         stroke="#f8f8f8"
         stroke-opacity="1"
         stroke-width="1.14475"
         id="path4393" />
      <path
         d="m 64.8978,8.07915 c 0,-0.94186 0.0119,-1.88504 -0.0066,-2.82557 -0.0079,-0.372 0.0633,-0.57119 0.4986,-0.52765 0.6042,0.06068 1.3825,-0.2414 1.7716,0.11608 0.3654,0.33506 0.1016,1.1173 0.1082,1.70299 0.0145,1.40223 0.0079,2.80447 0.0026,4.2067 -0.0026,0.6688 -0.4749,1.0777 -1.2228,1.0777 -0.9181,0 -1.145,-0.2018 -1.1516,-1.0553 C 64.8912,9.8758 64.8965,8.97747 64.8965,8.07915 Z"
         fill="#f8f8f8"
         fill-opacity="0.3"
         stroke="#f8f8f8"
         stroke-opacity="1"
         stroke-width="1.14475"
         id="path4395" />
      <path
         d="m 41.4939,8.03982 c 0,0.92075 0.0079,1.8415 -0.0026,2.76098 -0.008,0.7123 -0.4076,1.0355 -1.2347,1.0276 -0.6702,-0.0053 -1.1358,-0.4208 -1.1384,-1.0356 -0.0053,-1.84014 0.0105,-3.68165 -0.0106,-5.52183 -0.0053,-0.42212 0.1068,-0.58173 0.5448,-0.54744 0.5844,0.04749 1.3429,-0.17676 1.7135,0.11477 0.3997,0.31395 0.1029,1.10674 0.132,1.68848 0.025,0.50259 0.0052,1.00781 0.0052,1.51172 -0.0026,0 -0.0052,0 -0.0079,0 z"
         fill="#f8f8f8"
         fill-opacity="0.3"
         stroke="#f8f8f8"
         stroke-opacity="1"
         stroke-width="1.14475"
         id="path4397" />
      <path
         d="m 52.0123,8.02555 c 0,-0.94185 0.0158,-1.88503 -0.0079,-2.82689 -0.0093,-0.37727 0.1147,-0.50126 0.4854,-0.4696 0.6055,0.05012 1.3825,-0.24272 1.7742,0.11344 0.3681,0.33374 0.1043,1.1173 0.1109,1.70167 0.0158,1.38113 0.0052,2.76094 0.0026,4.14203 -0.0013,0.7414 -0.4116,1.1437 -1.1608,1.145 -0.8087,0.0014 -1.2004,-0.3561 -1.2031,-1.1094 -0.0026,-0.89828 0,-1.7966 0,-2.69625 z"
         fill="#f8f8f8"
         fill-opacity="0.3"
         stroke="#f8f8f8"
         stroke-opacity="1"
         stroke-width="1.14475"
         id="path4399" />
      <path
         d="m 52.0124,37.7413 c 0,-0.9406 0.0145,-1.8824 -0.0079,-2.823 -0.0093,-0.3667 0.0949,-0.5052 0.4748,-0.4815 0.6068,0.0383 1.3838,-0.186 1.7795,0.1122 0.38,0.2849 0.1095,1.1054 0.1161,1.6898 0.0172,1.4009 0.0079,2.8018 0.0013,4.2014 -0.0026,0.6292 -0.5421,1.1292 -1.1898,1.1239 -0.653,-0.0053 -1.1688,-0.4973 -1.1727,-1.1318 -0.0053,-0.897 0,-1.794 -0.0013,-2.6924 z"
         fill="#f8f8f8"
         fill-opacity="0.3"
         stroke="#f8f8f8"
         stroke-opacity="1"
         stroke-width="1.14475"
         id="path4401" />
      <path
         d="m 65.3755,41.3349 c -0.3126,-0.1676 -0.4828,-0.3984 -0.4802,-0.7823 0.0119,-1.8837 0.0146,-3.7674 -0.0066,-5.6511 -0.0039,-0.3957 0.1478,-0.4868 0.4987,-0.4617 0.6068,0.0435 1.3851,-0.2427 1.7742,0.1095 0.3654,0.3298 0.1016,1.1186 0.1082,1.7043 0.0145,1.3798 0.0132,2.7596 0,4.1407 -0.0066,0.7388 -0.8746,1.3139 -1.4814,0.9999 -0.1385,-0.0198 -0.2757,-0.0395 -0.4129,-0.058 z"
         fill="#f8f8f8"
         fill-opacity="0.3"
         stroke="#f8f8f8"
         stroke-opacity="1"
         stroke-width="1.14475"
         id="path4403" />
      <path
         d="m 41.4917,37.7827 c 0,0.8997 0.0092,1.8006 -0.0027,2.7003 -0.0079,0.5976 -0.5355,1.0751 -1.1621,1.0817 -0.4868,0.0052 -1.1991,-0.5475 -1.2031,-0.9999 -0.0171,-1.9325 -0.0066,-3.8637 -0.0105,-5.7963 0,-0.2137 0.0646,-0.335 0.2968,-0.3205 0.0659,0.0039 0.1319,-0.0066 0.1979,-0.0027 0.6068,0.0357 1.3811,-0.2545 1.7768,0.1135 0.3707,0.3456 0.091,1.1226 0.1135,1.7083 0.0184,0.5039 0.0039,1.0091 0.0039,1.5143 -0.0026,0 -0.0066,0 -0.0092,0 z"
         fill="#f8f8f8"
         fill-opacity="0.3"
         stroke="#f8f8f8"
         stroke-opacity="1"
         stroke-width="1.14475"
         id="path4405" />
      <path
         d="m 32.7629,37.6942 c 0,-0.9195 0.0118,-1.8389 -0.0066,-2.7583 -0.0066,-0.3483 0.0659,-0.525 0.463,-0.5 0.5012,0.0317 1.0065,0.0291 1.5077,0.0014 0.3602,-0.0198 0.434,0.1305 0.4314,0.4577 -0.0145,1.8389 -0.004,3.6764 -0.0145,5.5153 -0.0027,0.5395 -0.7255,1.1872 -1.244,1.1516 -0.645,-0.0436 -1.1265,-0.5013 -1.1331,-1.1121 -0.0119,-0.9194 -0.0026,-1.8388 -0.0039,-2.7583 z"
         fill="#f8f8f8"
         fill-opacity="0.3"
         stroke="#f8f8f8"
         stroke-opacity="1"
         stroke-width="1.14475"
         id="path4407" />
      <path
         d="m 66.418,60.8353 c 0.0237,-0.1702 0.0672,-0.3404 0.0672,-0.5118 0.004,-5.8688 0.004,-11.7363 0,-17.6051 0,-0.1926 -0.0435,-0.3852 -0.0672,-0.5791 0.1662,-0.0145 0.3152,0.0079 0.335,0.2124 0.0145,0.1517 0.0145,0.306 0.0145,0.459 0,5.7844 0.0027,11.5688 -0.0079,17.3531 0,0.248 0.2071,0.6728 -0.3416,0.6715 z"
         fill="#f8f8f8"
         fill-opacity="0.5"
         stroke="#f8f8f8"
         stroke-opacity="1"
         stroke-width="1.14475"
         id="path4409" />
      <path
         d="m 70.641,4.87305 v 6.02975 c -0.0251,0 -0.0515,0 -0.0765,0 V 4.87305 c 0.025,0 0.0514,0 0.0765,0 z"
         fill="#f8f8f8"
         fill-opacity="0.5"
         stroke="#f8f8f8"
         stroke-opacity="1"
         stroke-width="1.14475"
         id="path4411" />
      <path
         d="m 65.377,41.335 c 0.1371,0.0197 0.2757,0.0382 0.4128,0.058 -0.1965,0.4023 -0.2968,0.1148 -0.4128,-0.058 z"
         fill="#f8f8f8"
         fill-opacity="0.5"
         stroke="#f8f8f8"
         stroke-opacity="1"
         stroke-width="1.14475"
         id="path4413" />
      <path
         d="m 29.4688,11.207 -0.004,-0.0449 0.0409,0.0185 z"
         fill="#f8f8f8"
         fill-opacity="0.5"
         stroke="#f8f8f8"
         stroke-opacity="1"
         stroke-width="1.14475"
         id="path4415" />
      <path
         d="m 44.5564,46.8664 c 0.1083,0.0979 0.2349,0.1733 0.3726,0.2219 0.1376,0.0486 0.2836,0.0695 0.4293,0.0613 0.0309,-0.1451 0.0329,-0.2948 0.0057,-0.4406 -0.0271,-0.1458 -0.0828,-0.2849 -0.1639,-0.4091 -0.2221,-0.1945 -0.5106,-0.2959 -0.8055,-0.2832 -0.0301,0.1435 -0.0313,0.2916 -0.0035,0.4356 0.0278,0.144 0.084,0.281 0.1653,0.403 z"
         fill="#f8f8f8"
         fill-opacity="0.3"
         stroke="#f8f8f8"
         stroke-opacity="1"
         stroke-width="0.22816"
         id="path4417" />
      <path
         d="m 46.0945,47.7499 c 0.0136,-0.0843 0.0102,-0.1704 -0.0101,-0.2533 -0.0203,-0.0829 -0.0571,-0.1608 -0.1081,-0.2292 -0.0511,-0.0684 -0.1154,-0.1258 -0.1891,-0.1688 -0.0737,-0.0431 -0.1553,-0.0709 -0.2399,-0.0817 -0.0846,-0.0109 -0.1706,-0.0046 -0.2528,0.0185 -0.0821,0.023 -0.1588,0.0623 -0.2255,0.1156 -0.0667,0.0533 -0.1219,0.1194 -0.1625,0.1945 -0.0406,0.0751 -0.0656,0.1576 -0.0737,0.2425 -0.0846,0.6584 -0.6804,1.0814 -0.7356,1.6332 -0.023,0.2999 0.0701,0.5972 0.2601,0.8305 0.19,0.2333 0.4623,0.3847 0.7607,0.4229 0.2984,0.0383 0.6,-0.0396 0.8427,-0.2174 0.2426,-0.1778 0.4077,-0.442 0.4611,-0.7381 0.0552,-0.5517 -0.4156,-1.0888 -0.3273,-1.7692 z"
         fill="#f8f8f8"
         fill-opacity="0.3"
         stroke="#f8f8f8"
         stroke-opacity="1"
         stroke-width="0.22816"
         id="path4419" />
      <path
         d="m 45.6787,47.1313 -0.331,-0.0405 c 0.0145,-0.1294 0.0219,-0.2596 0.022,-0.3899 0,-0.4009 0,-0.857 0.618,-0.9489 l 0.0515,0.3273 c -0.3164,0.0478 -0.3348,0.1986 -0.3384,0.6253 0.0012,0.1426 -0.0061,0.2851 -0.0221,0.4267 z"
         fill="#f8f8f8"
         fill-opacity="1"
         id="path4421" />
      <path
         d="m 44.2544,50.0342 c 0.7963,0 1.4419,-0.6456 1.4419,-1.4419 0,-0.7964 -0.6456,-1.4419 -1.4419,-1.4419 -0.7963,0 -1.4419,0.6455 -1.4419,1.4419 0,0.7963 0.6456,1.4419 1.4419,1.4419 z"
         fill="#f8f8f8"
         fill-opacity="0.3"
         stroke="#f8f8f8"
         stroke-opacity="1"
         stroke-width="0.22816"
         id="path4423" />
      <path
         d="m 42.7348,50.792 c 0.7964,0 1.4419,-0.6456 1.4419,-1.4419 0,-0.7963 -0.6455,-1.4419 -1.4419,-1.4419 -0.7963,0 -1.4418,0.6456 -1.4418,1.4419 0,0.7963 0.6455,1.4419 1.4418,1.4419 z"
         fill="#f8f8f8"
         fill-opacity="0.3"
         id="path4425" />
      <path
         d="m 45.6958,51.2988 c 0.7963,0 1.4419,-0.6456 1.4419,-1.4419 0,-0.7963 -0.6456,-1.4419 -1.4419,-1.4419 -0.7963,0 -1.4419,0.6456 -1.4419,1.4419 0,0.7963 0.6456,1.4419 1.4419,1.4419 z"
         fill="#f8f8f8"
         fill-opacity="0.3"
         stroke="#f8f8f8"
         stroke-opacity="1"
         stroke-width="0.22816"
         id="path4427" />
      <path
         d="m 43.4227,46.7271 c 0.0174,-0.0814 0.0185,-0.1654 0.0035,-0.2472 -0.0151,-0.0819 -0.0462,-0.16 -0.0914,-0.2298 -0.0453,-0.0699 -0.1039,-0.1301 -0.1724,-0.1773 -0.0685,-0.0472 -0.1457,-0.0805 -0.2271,-0.0979 -0.0814,-0.0174 -0.1654,-0.0186 -0.2473,-0.0035 -0.0818,0.0151 -0.1599,0.0462 -0.2297,0.0914 -0.0699,0.0453 -0.1301,0.1039 -0.1774,0.1724 -0.0472,0.0685 -0.0804,0.1457 -0.0978,0.2271 -0.1398,0.651 -0.7688,1.0226 -0.8828,1.5669 -0.0439,0.155 -0.0554,0.3173 -0.0339,0.4769 0.0215,0.1596 0.0757,0.3131 0.1591,0.4508 0.0834,0.1378 0.1943,0.2569 0.3258,0.3499 0.1314,0.0931 0.2806,0.1581 0.4382,0.191 0.1577,0.0329 0.3204,0.033 0.4781,2e-4 0.1577,-0.0327 0.307,-0.0975 0.4385,-0.1904 0.1316,-0.0929 0.2426,-0.2119 0.3261,-0.3496 0.0836,-0.1376 0.1379,-0.291 0.1597,-0.4506 0.114,-0.5333 -0.3127,-1.1035 -0.1692,-1.7803 z"
         fill="#f8f8f8"
         fill-opacity="0.3"
         stroke="#f8f8f8"
         stroke-opacity="1"
         stroke-width="0.22816"
         id="path4429" />
      <path
         d="m 43.0637,46.0756 -0.3274,-0.0662 c 0.0254,-0.1213 0.0426,-0.2442 0.0515,-0.3678 0.0368,-0.3678 0.0773,-0.7945 0.6952,-0.835 l 0.0221,0.3274 c -0.3237,0.0258 -0.3678,0.1398 -0.3862,0.537 -0.0108,0.1358 -0.0293,0.2709 -0.0552,0.4046 z"
         fill="#f8f8f8"
         fill-opacity="1"
         id="path4431" />
      <path
         d="m 39.7665,45.9654 c -0.0603,0.1329 -0.0936,0.2764 -0.098,0.4222 -0.0044,0.1459 0.0201,0.2912 0.0722,0.4275 0.2895,-0.0336 0.554,-0.1804 0.7357,-0.4083 0.119,-0.2659 0.1322,-0.5671 0.0367,-0.8423 -0.2915,0.0316 -0.5592,0.1754 -0.7466,0.4009 z"
         fill="#f8f8f8"
         fill-opacity="1"
         id="path4433" />
      <path
         d="m 40.492,46.4071 c -0.1817,0.2279 -0.4462,0.3747 -0.7357,0.4083 -0.0521,-0.1363 -0.0766,-0.2816 -0.0722,-0.4275 0.0044,-0.1458 0.0377,-0.2893 0.098,-0.4222 0.1828,-0.2272 0.4464,-0.3748 0.7356,-0.412 0.1019,0.2771 0.0927,0.5829 -0.0257,0.8534 z"
         fill="#f8f8f8"
         fill-opacity="0.3"
         stroke="#f8f8f8"
         stroke-opacity="1"
         stroke-width="0.22816"
         id="path4435" />
      <path
         d="m 40.4585,46.9659 c -0.0806,-0.1432 -0.2133,-0.2496 -0.3705,-0.2971 -0.1573,-0.0475 -0.3268,-0.0324 -0.4731,0.0422 -0.1463,0.0746 -0.2581,0.2029 -0.312,0.358 -0.054,0.1551 -0.0458,0.3251 0.0227,0.4743 0.3016,0.5922 0.0478,1.2764 0.3016,1.773 0.1493,0.2621 0.3938,0.4567 0.6827,0.5433 0.2889,0.0866 0.6002,0.0586 0.869,-0.0782 0.2689,-0.1368 0.4747,-0.3719 0.5748,-0.6564 0.1001,-0.2846 0.0867,-0.5968 -0.0373,-0.8718 -0.2611,-0.4818 -0.9526,-0.6731 -1.2579,-1.2873 z"
         fill="#f8f8f8"
         fill-opacity="0.3"
         stroke="#f8f8f8"
         stroke-opacity="1"
         stroke-width="0.22816"
         id="path4437" />
      <path
         d="m 39.4657,46.841 -0.0919,-0.1729 c -0.2097,-0.3899 -0.3899,-0.7357 0.1103,-1.1954 l 0.2281,0.2427 c -0.3127,0.2943 -0.2538,0.4083 -0.0442,0.7945 l 0.092,0.1766 z"
         fill="#f8f8f8"
         fill-opacity="1"
         id="path4439" />
      <path
         d="m 39.7337,50.8981 c 0.8065,0 1.4603,-0.6538 1.4603,-1.4603 0,-0.8065 -0.6538,-1.4603 -1.4603,-1.4603 -0.8065,0 -1.4603,0.6538 -1.4603,1.4603 0,0.8065 0.6538,1.4603 1.4603,1.4603 z"
         fill="#f8f8f8"
         fill-opacity="0.3"
         stroke="#f8f8f8"
         stroke-opacity="1"
         stroke-width="0.22816"
         id="path4441" />
      <path
         d="M 47.9364,49.5156 H 37.3945 v 0.9637 h 10.5419 z"
         fill="#f8f8f8"
         fill-opacity="1"
         id="path4443" />
      <path
         d="m 37.8438,50.3467 0.9747,5.488 h 7.6949 l 0.9748,-5.488 z m 2.9095,4.6456 h -0.949 v -3.704 h 0.949 z m 2.3246,0 h -0.949 v -3.704 h 0.949 z m 2.3504,0 h -0.949 v -3.704 h 0.949 z"
         fill="#f8f8f8"
         fill-opacity="1"
         id="path4445" />
      <path
         d="m 38.1602,49.8573 v -2.7035 c 0.0264,-1.1922 0.5168,-2.3271 1.367,-3.1634 0.8502,-0.8362 1.993,-1.3078 3.1855,-1.3145 1.1925,-0.0068 2.3406,0.452 3.2001,1.2786 0.8596,0.8266 1.3627,1.9559 1.4026,3.1478 v 2.755"
         stroke="#f8f8f8"
         stroke-opacity="1"
         stroke-width="0.387139"
         stroke-miterlimit="10"
         id="path4447" />
    </g>
    <path
       d="m 30.592974,24.58095 c -0.1393,-0.176 -0.33,-0.3043 -0.572,-0.385 -0.2347,-0.088 -0.4583,-0.132 -0.671,-0.132 -0.1247,0 -0.253,0.0147 -0.385,0.044 -0.132,0.0293 -0.2567,0.077 -0.374,0.143 -0.1173,0.0587 -0.2127,0.1393 -0.286,0.242 -0.0733,0.1027 -0.11,0.2273 -0.11,0.374 0,0.2347 0.088,0.4143 0.264,0.539 0.176,0.1247 0.396,0.231 0.66,0.319 0.2713,0.088 0.561,0.176 0.869,0.264 0.308,0.088 0.594,0.2127 0.858,0.374 0.2713,0.1613 0.495,0.3777 0.671,0.649 0.176,0.2713 0.264,0.6343 0.264,1.089 0,0.4327 -0.0807,0.8103 -0.242,1.133 -0.1613,0.3227 -0.3813,0.5903 -0.66,0.803 -0.2713,0.2127 -0.5903,0.3703 -0.957,0.473 -0.3593,0.1027 -0.7407,0.154 -1.144,0.154 -0.506,0 -0.9753,-0.077 -1.408,-0.231 -0.4327,-0.154 -0.836,-0.4033 -1.21,-0.748 l 1.221,-1.342 c 0.176,0.2347 0.396,0.418 0.66,0.55 0.2713,0.1247 0.55,0.187 0.836,0.187 0.1393,0 0.2787,-0.0147 0.418,-0.044 0.1467,-0.0367 0.275,-0.088 0.385,-0.154 0.1173,-0.066 0.209,-0.1503 0.275,-0.253 0.0733,-0.1027 0.11,-0.2237 0.11,-0.363 0,-0.2347 -0.0917,-0.418 -0.275,-0.55 -0.176,-0.1393 -0.3997,-0.2567 -0.671,-0.352 -0.2713,-0.0953 -0.5647,-0.1907 -0.88,-0.286 -0.3153,-0.0953 -0.6087,-0.2237 -0.88,-0.385 -0.2713,-0.1613 -0.4987,-0.374 -0.682,-0.638 -0.176,-0.264 -0.264,-0.6123 -0.264,-1.045 0,-0.418 0.0807,-0.7847 0.242,-1.1 0.1687,-0.3153 0.3887,-0.5793 0.66,-0.792 0.2787,-0.2127 0.5977,-0.3703 0.957,-0.473 0.3593,-0.11 0.7297,-0.165 1.111,-0.165 0.44,0 0.8653,0.0623 1.276,0.187 0.4107,0.1247 0.781,0.3337 1.111,0.627 z m 1.5864,-1.903 h 1.716 v 2.904 h 3.333 v -2.904 h 1.716 v 7.788 h -1.716 v -3.366 h -3.333 v 3.366 h -1.716 z m 7.0487,3.894 c 0,-0.6233 0.1027,-1.188 0.308,-1.694 0.2127,-0.506 0.506,-0.935 0.88,-1.287 0.374,-0.3593 0.8177,-0.6343 1.331,-0.825 0.5133,-0.1907 1.0743,-0.286 1.683,-0.286 0.6087,0 1.1697,0.0953 1.683,0.286 0.5133,0.1907 0.957,0.4657 1.331,0.825 0.374,0.352 0.6637,0.781 0.869,1.287 0.2127,0.506 0.319,1.0707 0.319,1.694 0,0.6233 -0.1063,1.188 -0.319,1.694 -0.2053,0.506 -0.495,0.9387 -0.869,1.298 -0.374,0.352 -0.8177,0.6233 -1.331,0.814 -0.5133,0.1907 -1.0743,0.286 -1.683,0.286 -0.6087,0 -1.1697,-0.0953 -1.683,-0.286 -0.5133,-0.1907 -0.957,-0.462 -1.331,-0.814 -0.374,-0.3593 -0.6673,-0.792 -0.88,-1.298 -0.2053,-0.506 -0.308,-1.0707 -0.308,-1.694 z m 1.782,0 c 0,0.3667 0.055,0.704 0.165,1.012 0.1173,0.3007 0.2823,0.5647 0.495,0.792 0.2127,0.22 0.4657,0.3923 0.759,0.517 0.3007,0.1247 0.6343,0.187 1.001,0.187 0.3667,0 0.6967,-0.0623 0.99,-0.187 0.3007,-0.1247 0.5573,-0.297 0.77,-0.517 0.2127,-0.2273 0.374,-0.4913 0.484,-0.792 0.1173,-0.308 0.176,-0.6453 0.176,-1.012 0,-0.3593 -0.0587,-0.693 -0.176,-1.001 -0.11,-0.308 -0.2713,-0.572 -0.484,-0.792 -0.2127,-0.2273 -0.4693,-0.4033 -0.77,-0.528 -0.2933,-0.1247 -0.6233,-0.187 -0.99,-0.187 -0.3667,0 -0.7003,0.0623 -1.001,0.187 -0.2933,0.1247 -0.5463,0.3007 -0.759,0.528 -0.2127,0.22 -0.3777,0.484 -0.495,0.792 -0.11,0.308 -0.165,0.6417 -0.165,1.001 z m 6.9083,-3.894 h 2.893 c 0.4034,0 0.7847,0.0367 1.144,0.11 0.3594,0.0733 0.671,0.2017 0.935,0.385 0.2714,0.176 0.484,0.418 0.638,0.726 0.1614,0.3007 0.242,0.682 0.242,1.144 0,0.4547 -0.0733,0.836 -0.22,1.144 -0.1466,0.308 -0.3483,0.5537 -0.605,0.737 -0.2566,0.1833 -0.561,0.3153 -0.913,0.396 -0.352,0.0733 -0.7333,0.11 -1.144,0.11 h -1.254 v 3.036 h -1.716 z m 1.716,3.3 h 1.144 c 0.154,0 0.3007,-0.0147 0.44,-0.044 0.1467,-0.0293 0.275,-0.077 0.385,-0.143 0.1174,-0.0733 0.209,-0.1687 0.275,-0.286 0.0734,-0.1247 0.11,-0.2787 0.11,-0.462 0,-0.198 -0.0476,-0.3557 -0.143,-0.473 -0.088,-0.1247 -0.2053,-0.22 -0.352,-0.286 -0.1393,-0.066 -0.297,-0.1063 -0.473,-0.121 -0.176,-0.022 -0.3446,-0.033 -0.506,-0.033 h -0.88 z"
       fill="#f8f8f8"
       fill-opacity="1"
       id="path4451" />
  </g>
</svg>
