<?xml version="1.0" encoding="UTF-8" standalone="no"?>
<svg
   width="100"
   height="100"
   viewBox="0 0 100 100"
   fill="none"
   version="1.1"
   id="svg4817"
   sodipodi:docname="education_youth-dot.svg"
   inkscape:version="1.2.2 (b0a8486541, 2022-12-01)"
   xmlns:inkscape="http://www.inkscape.org/namespaces/inkscape"
   xmlns:sodipodi="http://sodipodi.sourceforge.net/DTD/sodipodi-0.dtd"
   xmlns="http://www.w3.org/2000/svg"
   xmlns:svg="http://www.w3.org/2000/svg">
  <defs
     id="defs4821" />
  <sodipodi:namedview
     id="namedview4819"
     pagecolor="#ffffff"
     bordercolor="#666666"
     borderopacity="1.0"
     inkscape:showpageshadow="2"
     inkscape:pageopacity="0.0"
     inkscape:pagecheckerboard="0"
     inkscape:deskcolor="#d1d1d1"
     showgrid="false"
     inkscape:zoom="6.2"
     inkscape:cx="49.919355"
     inkscape:cy="50.16129"
     inkscape:window-width="1600"
     inkscape:window-height="831"
     inkscape:window-x="0"
     inkscape:window-y="0"
     inkscape:window-maximized="1"
     inkscape:current-layer="layer1" />
  <g
     inkscape:groupmode="layer"
     id="layer2"
     inkscape:label="background"
     transform="translate(67.121928,-36.173112)">
    <circle
       style="fill:#ffffff;fill-opacity:1;stroke:none;stroke-width:6;stroke-linecap:round;stroke-linejoin:round"
       id="path38153"
       cx="-17.202572"
       cy="86.334404"
       r="40"
       inkscape:label="white-underlay" />
  </g>
  <g
     opacity="1"
     id="g4815">
    <path
       d="m 88.719658,62.466839 -15.275352,2.151814 0.449641,0.98992 -5.740549,-0.02461 0.434233,-0.965311 -15.521697,-2.151814 V 40.926763 l 17.853009,2.459249 17.800715,-2.459249 z"
       fill="#c2d9ed"
       stroke="#091f2f"
       stroke-width="1.78073"
       stroke-miterlimit="10"
       stroke-linecap="round"
       id="path4777" />
    <path
       d="M 70.937433,63.336792 55.415644,61.120381 V 39.577267 l 15.521789,2.219487 z"
       fill="#c2d9ed"
       stroke="#091f2f"
       stroke-width="1.78073"
       stroke-miterlimit="10"
       stroke-linecap="round"
       id="path4779" />
    <path
       d="M 86.311305,61.120381 70.789514,63.336792 V 41.796754 l 15.521791,-2.219487 z"
       fill="#c2d9ed"
       stroke="#091f2f"
       stroke-width="1.78073"
       stroke-miterlimit="10"
       stroke-linecap="round"
       id="path4781" />
    <path
       d="M 72.951524,45.153511 84.140051,43.527322"
       stroke="#091f2f"
       stroke-width="1.78073"
       stroke-miterlimit="10"
       stroke-linecap="round"
       id="path4783" />
    <path
       d="M 72.951524,48.605924 84.140051,46.979735"
       stroke="#091f2f"
       stroke-width="1.78073"
       stroke-miterlimit="10"
       stroke-linecap="round"
       id="path4785" />
    <path
       d="M 72.951524,52.057869 84.140051,50.43168"
       stroke="#091f2f"
       stroke-width="1.78073"
       stroke-miterlimit="10"
       stroke-linecap="round"
       id="path4787" />
    <path
       d="M 72.951524,55.510188 84.140051,53.884"
       stroke="#091f2f"
       stroke-width="1.78073"
       stroke-miterlimit="10"
       stroke-linecap="round"
       id="path4789" />
    <path
       d="M 72.951524,58.9626 84.140051,57.336411"
       stroke="#091f2f"
       stroke-width="1.78073"
       stroke-miterlimit="10"
       stroke-linecap="round"
       id="path4791" />
    <path
       d="M 68.569048,45.153511 57.380521,43.527322"
       stroke="#091f2f"
       stroke-width="1.78073"
       stroke-miterlimit="10"
       stroke-linecap="round"
       id="path4793" />
    <path
       d="M 68.569048,48.605924 57.380521,46.979735"
       stroke="#091f2f"
       stroke-width="1.78073"
       stroke-miterlimit="10"
       stroke-linecap="round"
       id="path4795" />
    <path
       d="M 68.569048,52.057869 57.380521,50.43168"
       stroke="#091f2f"
       stroke-width="1.78073"
       stroke-miterlimit="10"
       stroke-linecap="round"
       id="path4797" />
    <path
       d="M 68.569048,55.510188 57.380521,53.884"
       stroke="#091f2f"
       stroke-width="1.78073"
       stroke-miterlimit="10"
       stroke-linecap="round"
       id="path4799" />
    <path
       d="M 68.569048,58.9626 57.380521,57.336411"
       stroke="#091f2f"
       stroke-width="1.78073"
       stroke-miterlimit="10"
       stroke-linecap="round"
       id="path4801" />
    <path
       d="m 24.935725,48.502737 -4.432249,3.999197 V 65.489633 H 11.018297 V 49.531805 L 15.43482,44.88944 h 6.216803 z"
       fill="#c2d9ed"
       stroke="#091f2f"
       stroke-width="1.25664"
       id="path4803" />
    <path
       d="m 18.394882,42.08287 c 2.201977,0 3.986997,-1.781779 3.986997,-3.979716 0,-2.197936 -1.78502,-3.979717 -3.986997,-3.979717 -2.201977,0 -3.986997,1.781781 -3.986997,3.979717 0,2.197937 1.78502,3.979716 3.986997,3.979716 z"
       fill="#c2d9ed"
       stroke="#091f2f"
       stroke-width="1.25664"
       id="path4805" />
    <path
       d="m 46.440393,49.711053 v 15.77858 H 37.462807 V 52.669531 l -4.752366,-4.490336 3.131793,-3.289755 h 6.212788 z"
       fill="#c2d9ed"
       stroke="#091f2f"
       stroke-width="1.25664"
       id="path4807" />
    <path
       d="m 38.798467,42.08287 c 2.201978,0 3.986999,-1.781779 3.986999,-3.979716 0,-2.197936 -1.785021,-3.979717 -3.986999,-3.979717 -2.201976,0 -3.986997,1.781781 -3.986997,3.979717 0,2.197937 1.785021,3.979716 3.986997,3.979716 z"
       fill="#c2d9ed"
       stroke="#091f2f"
       stroke-width="1.25664"
       id="path4809" />
    <path
       d="M 35.518101,53.503412 V 65.660865 H 22.444166 V 53.363127 l 3.59264,-3.243056 0.226455,-0.202644 h 5.455262 z"
       fill="#c2d9ed"
       stroke="#091f2f"
       stroke-width="1.25664"
       id="path4811" />
    <path
       d="m 28.848482,46.09757 c 2.201978,0 3.986999,-1.781761 3.986999,-3.979707 0,-2.197936 -1.785021,-3.979716 -3.986999,-3.979716 -2.201883,0 -3.986997,1.78178 -3.986997,3.979716 0,2.197946 1.785114,3.979707 3.986997,3.979707 z"
       fill="#c2d9ed"
       stroke="#091f2f"
       stroke-width="1.25664"
       id="path4813" />
  </g>
  <g
     inkscape:groupmode="layer"
     id="layer1"
     inkscape:label="foreground"
     transform="translate(67.121928,-36.173112)">
    <path
       id="path38153-1"
       style="fill:#faee41;fill-opacity:1;stroke:none;stroke-width:6;stroke-linecap:round;stroke-linejoin:round"
       d="m -17.202571,36.334405 a 50,50 0 0 0 -50.000003,50 50,50 0 0 0 50.000003,49.999995 50,50 0 0 0 49.999999,-49.999995 50,50 0 0 0 -49.999999,-50 z m 0,10 a 40,40 0 0 1 40,40 40,40 0 0 1 -40,39.999995 40,40 0 0 1 -40.000003,-39.999995 40,40 0 0 1 40.000003,-40 z"
       inkscape:label="color-overlay" />
  </g>
</svg>
