<?xml version="1.0" encoding="UTF-8" standalone="no"?>
<svg
   width="80"
   height="80"
   viewBox="0 0 80 80"
   fill="none"
   version="1.1"
   id="svg5124"
   xmlns="http://www.w3.org/2000/svg"
   xmlns:svg="http://www.w3.org/2000/svg">
  <defs
     id="defs5128">
    <clipPath
       clipPathUnits="userSpaceOnUse"
       id="clipPath3147">
      <path
         d="m 16.467313,66.858546 6.9218,-0.048 -1.5699,-12.9729 5.6633,-11.5895 -3.8858,0.03 -3.6263,11.1163 -5.4428,-11.0504 -2.5819,0.0179 5.5271,11.29 z"
         id="path3149" />
      <path
         id="lpe_path-effect3151"
         class="powerclip"
         d="M 4.2112129,37.248146 H 35.216913 v 36.4748 H 4.2112129 Z m 12.2561001,29.6104 6.9218,-0.048 -1.5699,-12.9729 5.6633,-11.5895 -3.8858,0.03 -3.6263,11.1163 -5.4428,-11.0504 -2.5819,0.0179 5.5271,11.29 z" />
    </clipPath>
  </defs>
  <g
     opacity="1"
     id="g5122">
    <path
       d="m 55.884713,56.800846 c 0,0 6.974,9.4113 22.4558,9.4113 v -4.0037 c -4.4173,0.2018 -8.8082,-0.7813 -12.7177,-2.8475 -3.9096,-2.0661 -7.1954,-5.1402 -9.5171,-8.9036"
       fill="#ffffff"
       fill-opacity="1"
       id="path5088" />
    <path
       d="m 25.351513,68.643346 -10.7883,0.0796 1.1093,-13.8142 -6.4613001,-12.5128 6.4418001,-0.0455 3.9702,7.6487 2.6468,-7.6998 7.9469,-0.0512 -6.604,12.8084 z"
       fill="#f8f8f8"
       fill-opacity="1"
       id="path5090"
       clip-path="url(#clipPath3147)" />
    <path
       d="m 16.467313,66.858546 6.9218,-0.048 -1.5699,-12.9729 5.6633,-11.5895 -3.8858,0.03 -3.6263,11.1163 -5.4428,-11.0504 -2.5819,0.0179 5.5271,11.29 z"
       fill="#f8f8f8"
       fill-opacity="0.5"
       id="path5092" />
    <path
       d="m 14.554513,41.650546 c 1.3347,0.7783 2.8472,1.1996 4.392,1.2236 1.5448,0.0239 3.0697,-0.3505 4.4278,-1.0871 0.612,0.5492 1.3559,0.9305 2.1591,1.1066 0.8032,0.176 1.6384,0.1409 2.424,-0.102 0.7856,-0.2429 1.4948,-0.6852 2.0585,-1.2839 0.5637,-0.5987 0.9626,-1.3332 1.1578,-2.132 0.045,-0.162 0.0776,-0.3271 0.0975,-0.494 2.0199,0.1405 4.0193,-0.4801 5.6046,-1.7398 1.5852,-1.2597 2.6416,-3.0671 2.9611,-5.0665 0.3195,-1.9995 -0.1209,-4.0461 -1.2347,-5.7371 -1.1137,-1.691 -2.8201,-2.9038 -4.7832,-3.3998 h -0.0585 c 0.09,-0.2102 0.1617,-0.4276 0.2145,-0.65 0.1889,-0.7516 0.1582,-1.5415 -0.0886,-2.27615 -0.2467,-0.73462 -0.699,-1.38301 -1.3033,-1.8682 -0.6042,-0.48518 -1.335,-0.78678 -2.1056,-0.86899 -0.7706,-0.08221 -1.5485,0.05843 -2.2416,0.40521 -0.7652,-1.55337 -1.9434,-2.86605 -3.4054,-3.79413 -1.4619,-0.92808 -3.1512,-1.43572 -4.8826,-1.46727 -1.7313,-0.03156 -3.4379,0.4142 -4.9327,1.28839 -1.4948,0.8742 -2.7201,2.14308 -3.5415,3.66754 -0.7653,-0.13659 -1.5537001,-0.05318 -2.2735001,0.24055 -0.7199,0.29373 -1.3416,0.7857 -1.7929,1.41876 -0.4513,0.63305 -0.7137,1.38118 -0.7566,2.15739 -0.043,0.7763 0.1352,1.5488 0.5139,2.2278 -1.2619,0.5477 -2.3445,1.439 -3.1242,2.5724 -0.7797,1.1333 -1.2251,2.463 -1.2854,3.8373 -0.0604,1.3743 0.2669,2.7379 0.9443,3.9352 0.6774,1.1973 1.6777,2.18 2.8868,2.8361 -0.6294,1.0584 -0.8209,2.3206 -0.5335,3.518 0.2873,1.1974 1.0307,2.2353 2.0719,2.8928 1.0413,0.6574 2.2980001,0.8824 3.5026001,0.627 1.2046,-0.2553 2.262,-0.9708 2.9469,-1.9942 z"
       fill="#f8f8f8"
       fill-opacity="0.3"
       stroke="#f8f8f8"
       stroke-background="1"
       stroke-width="2.28079"
       stroke-miterlimit="10"
       stroke-linecap="round"
       id="path5094" />
    <path
       d="m 43.490313,40.070946 6.2005,-8.4493 6.1941,8.4493 z"
       stroke-width="2.28079"
       stroke-miterlimit="10"
       id="path5096"
       style="stroke:#f8f8f8;stroke-opacity:1;fill:#f8f8f8;fill-opacity:0.30000001" />
    <path
       d="m 56.118713,45.940146 h -12.622 v 5.2061 h 12.622 z"
       stroke-width="2.28079"
       stroke-miterlimit="10"
       id="path5098"
       style="stroke:#f8f8f8;stroke-opacity:1;fill:#f8f8f8;fill-opacity:0.30000001" />
    <path
       d="m 43.496713,56.352646 v 11.8095"
       stroke-width="2.28079"
       stroke-miterlimit="10"
       id="path5100"
       style="stroke:#f8f8f8;stroke-opacity:1" />
    <path
       d="m 43.496713,45.940046 v -4.5107 l 3.2497,-1.3584 h 6.207 l 3.1328,1.8979 v 3.9712"
       stroke-width="2.28079"
       stroke-miterlimit="10"
       id="path5102"
       style="stroke:#f8f8f8;stroke-opacity:1" />
    <path
       d="m 56.118713,51.146246 h -12.622 v 5.2061 h 12.622 z"
       stroke-width="2.28079"
       stroke-miterlimit="10"
       id="path5104"
       style="stroke:#f8f8f8;stroke-opacity:1;fill:#f8f8f8;fill-opacity:0.30000001" />
    <path
       d="m 56.118613,56.352646 v 12.349"
       stroke-width="2.28079"
       stroke-miterlimit="10"
       id="path5106"
       style="stroke:#f8f8f8;stroke-opacity:1" />
    <path
       d="m 43.496713,45.940146 h -0.312"
       stroke-width="2.28079"
       stroke-miterlimit="10"
       id="path5112"
       style="stroke:#f8f8f8;stroke-opacity:1" />
    <path
       d="m 56.105613,50.457346 c 2.3217,3.7634 5.6076,6.8375 9.5171,8.9036 3.9095,2.0662 8.3004,3.0493 12.7177,2.8475"
       stroke-width="2.28079"
       stroke-miterlimit="10"
       id="path5114"
       style="stroke:#f8f8f8;stroke-opacity:1" />
    <path
       d="m 55.884713,56.800946 c 0,0 6.974,9.4113 22.4558,9.4113"
       stroke-width="2.28079"
       stroke-miterlimit="10"
       id="path5116"
       style="stroke:#f8f8f8;stroke-opacity:1" />
    <path
       d="m 65.634013,64.489946 v 4.1597"
       stroke-width="2.28079"
       stroke-miterlimit="10"
       id="path5118"
       style="stroke:#f8f8f8;stroke-opacity:1" />
  </g>
</svg>
