<?xml version="1.0" encoding="UTF-8" standalone="no"?>
<svg
   width="80"
   height="80"
   viewBox="0 0 80 80"
   fill="none"
   version="1.1"
   id="svg5776"
   sodipodi:docname="streets_sidewalks-button.svg"
   inkscape:version="1.2.2 (b0a8486541, 2022-12-01)"
   xmlns:inkscape="http://www.inkscape.org/namespaces/inkscape"
   xmlns:sodipodi="http://sodipodi.sourceforge.net/DTD/sodipodi-0.dtd"
   xmlns="http://www.w3.org/2000/svg"
   xmlns:svg="http://www.w3.org/2000/svg">
  <defs
     id="defs5780" />
  <sodipodi:namedview
     id="namedview5778"
     pagecolor="#ffffff"
     bordercolor="#666666"
     borderopacity="1.0"
     inkscape:showpageshadow="2"
     inkscape:pageopacity="0.0"
     inkscape:pagecheckerboard="0"
     inkscape:deskcolor="#d1d1d1"
     showgrid="false"
     inkscape:zoom="8.6388889"
     inkscape:cx="45.318328"
     inkscape:cy="36"
     inkscape:window-width="1600"
     inkscape:window-height="831"
     inkscape:window-x="0"
     inkscape:window-y="0"
     inkscape:window-maximized="1"
     inkscape:current-layer="g5774" />
  <g
     opacity="1"
     id="g5774">
    <path
       d="m 65.975247,46.11725 h 0.4142 l 0.2929,-0.2929 5.2283,-5.2283 0.7071,-0.7071 -0.7071,-0.7071 -5.2283,-5.2284 -0.2929,-0.2928 h -0.4142 -22.6582 -1 v 1 10.4566 1 h 1 z"
       fill="#c2d9ed"
       stroke="#091f2f"
       stroke-width="2"
       stroke-miterlimit="10"
       id="path5762" />
    <path
       d="m 46.761247,19.44622 v -1 h -1 -5.9603 -1 v 1 47.56453 1 h 1 5.9603 1 v -1 z"
       fill="#c2d9ed"
       stroke="#091f2f"
       stroke-width="2"
       stroke-miterlimit="10"
       id="path5764" />
    <path
       d="m 41.709247,36.42525 h 1 v -1 -10.7507 -1 h -1 -28.54 -0.4702 l -0.2999,0.362 -4.5748005,5.5224 -0.5431,0.6557 0.5607,0.6408 4.5747005,5.2283 0.2988,0.3415 h 0.4538 z"
       fill="#c2d9ed"
       stroke="#091f2f"
       stroke-width="2"
       stroke-miterlimit="10"
       id="path5766" />
    <path
       d="m 41.722347,54.63945 h 1 v -1 -7.7445 -1 h -1 -19.4559 -0.4608 l -0.2993,0.3503 -3.2677,3.8232 -0.5484,0.6416 0.5403,0.6483 3.2677,3.9212 0.2998,0.3599 h 0.4684 z"
       fill="#c2d9ed"
       stroke="#091f2f"
       stroke-width="2"
       stroke-miterlimit="10"
       id="path5768" />
    <path
       d="m 42.781147,21.85785 c 2.7251,0 4.9343,-2.20916 4.9343,-4.9343 0,-2.72514 -2.2092,-4.9343 -4.9343,-4.9343 -2.7252,0 -4.9343,2.20916 -4.9343,4.9343 0,2.72515 2.2091,4.9343 4.9343,4.9343 z"
       fill="#c2d9ed"
       stroke="#091f2f"
       stroke-width="2"
       stroke-miterlimit="10"
       id="path5770" />
  </g>
</svg>
