<?xml version="1.0" encoding="UTF-8"?><svg id="Layer_2" xmlns="http://www.w3.org/2000/svg" viewBox="0 0 300.39 39.07"><defs><style>.cls-1{fill:#fb4d42;}.cls-1,.cls-2{fill-rule:evenodd;stroke-width:0px;}.cls-2{fill:#0d202e;}</style></defs><g id="Logos"><path class="cls-2" d="M13.76,21.96c2.91,0,5.28-1.16,7.13-3.46l3.79,3.92c-3.01,3.4-6.55,5.1-10.64,5.1s-7.45-1.29-10.09-3.88c-2.64-2.59-3.96-5.85-3.96-9.8S1.34,6.6,4.04,3.96C6.72,1.32,10.02,0,13.91,0,18.26,0,21.9,1.66,24.83,4.99l-3.68,4.19c-1.87-2.33-4.2-3.5-6.98-3.5-2.22,0-4.13.73-5.7,2.19-1.58,1.46-2.37,3.42-2.37,5.9s.74,4.46,2.24,5.96c1.49,1.5,3.3,2.25,5.42,2.25M29.19.61h5.91v26.6h-5.91V.61ZM52.46,5.75v21.46h-5.91V5.75h-7.51V.61h20.93v5.14h-7.51M77.34,27.21h-5.91v-10.5L62.25.61h6.41l5.72,9.9,5.73-9.9h6.41l-9.18,16.1v10.5M113.85,12.93c0,1.77-.32,3.38-.95,4.83-.64,1.45-1.51,2.56-2.62,3.34-1.11.77-2.39,1.16-3.84,1.16-1.67,0-3-.5-3.99-1.5-.99-1-1.48-2.37-1.48-4.09s.31-3.34.93-4.79c.62-1.45,1.5-2.59,2.62-3.4,1.13-.81,2.43-1.21,3.9-1.21,1.7,0,3.03.51,3.99,1.52.96,1.02,1.44,2.4,1.44,4.15h0ZM110.74,12.8c0-.94-.21-1.67-.64-2.2-.43-.53-1.04-.79-1.83-.79s-1.54.31-2.18.94c-.64.63-1.14,1.48-1.49,2.55-.36,1.11-.54,2.27-.53,3.43,0,.98.22,1.72.65,2.24.43.51,1.07.77,1.92.77.79,0,1.49-.3,2.12-.89.63-.6,1.12-1.43,1.47-2.51.35-1.07.52-2.25.52-3.54h0ZM113.46,28.48c-.79,0-1.43-.1-1.95-.3v-2.49c.56.17,1.06.26,1.49.26,1.17,0,1.94-.9,2.32-2.69l2.84-13.42h-2.34l.28-1.39,2.54-1,.27-1.21c.39-1.73.97-2.96,1.76-3.7.79-.73,1.91-1.1,3.35-1.1,1,0,1.92.18,2.76.56l-.8,2.31c-.57-.23-1.17-.36-1.78-.37-.6,0-1.08.19-1.45.57-.36.38-.64.99-.83,1.85l-.24,1.13h3l-.48,2.34h-3l-2.92,13.83c-.35,1.65-.92,2.87-1.71,3.65-.79.78-1.83,1.17-3.11,1.17M151.59,27.21h-11.6V.61h10.31c1.79,0,3.34.22,4.65.65,1.3.43,2.28,1.02,2.94,1.75,1.19,1.37,1.78,2.92,1.78,4.64,0,2.08-.67,3.63-2.01,4.65-.45.35-.77.58-.95.67s-.49.24-.95.44c1.64.36,2.95,1.1,3.93,2.23.97,1.13,1.46,2.53,1.46,4.2,0,1.85-.63,3.49-1.9,4.91-1.47,1.65-4.02,2.47-7.66,2.47ZM145.9,11.38h2.81c1.64,0,2.86-.18,3.66-.53.8-.35,1.19-1.12,1.19-2.3s-.37-1.96-1.1-2.34c-.73-.38-1.97-.57-3.72-.57h-2.84v5.75h0ZM145.9,22.19h4.06c1.69,0,2.96-.21,3.81-.63.85-.42,1.27-1.24,1.27-2.48s-.45-2.04-1.34-2.43c-.9-.4-2.33-.59-4.3-.59h-3.49v6.13h0ZM188.25,23.54c-2.68,2.63-5.98,3.94-9.89,3.94s-7.22-1.31-9.9-3.94c-2.68-2.63-4.02-5.89-4.02-9.8s1.34-7.17,4.02-9.8C171.14,1.31,174.43,0,178.35,0s7.22,1.31,9.9,3.94c2.68,2.63,4.02,5.89,4.02,9.8s-1.34,7.17-4.02,9.8h0ZM186.24,13.76c0-2.37-.76-4.39-2.27-6.07-1.52-1.67-3.38-2.51-5.59-2.51s-4.08.84-5.59,2.51c-1.52,1.67-2.28,3.7-2.28,6.07s.76,4.39,2.28,6.05c1.52,1.66,3.38,2.49,5.59,2.49s4.08-.83,5.59-2.49c1.52-1.66,2.27-3.68,2.27-6.05ZM203.24,5.92c-.57.47-.85,1.09-.85,1.87s.35,1.39,1.04,1.84c.7.46,2.3,1,4.82,1.62,2.52.62,4.47,1.56,5.86,2.8,1.39,1.24,2.08,3.06,2.08,5.44s-.89,4.32-2.67,5.8c-1.78,1.48-4.13,2.23-7.03,2.23-4.2,0-7.98-1.56-11.34-4.68l3.53-4.34c2.86,2.51,5.5,3.77,7.93,3.77,1.09,0,1.94-.24,2.56-.7.62-.47.93-1.11.93-1.9s-.33-1.43-.99-1.9c-.66-.47-1.96-.94-3.91-1.43-3.09-.73-5.34-1.69-6.77-2.87-1.43-1.18-2.14-3.03-2.14-5.56s.9-4.47,2.71-5.84c1.81-1.37,4.06-2.06,6.77-2.06,1.77,0,3.54.3,5.31.91,1.77.61,3.31,1.47,4.62,2.59l-2.99,4.34c-2.3-1.75-4.68-2.62-7.13-2.62-.99,0-1.77.23-2.33.7M232.6,5.75v21.46h-5.92V5.75h-7.51V.61h20.93v5.14h-7.51M266.03,23.54c-2.68,2.63-5.98,3.94-9.9,3.94s-7.22-1.31-9.9-3.94c-2.68-2.63-4.02-5.89-4.02-9.8s1.34-7.17,4.02-9.8C248.92,1.31,252.21,0,256.13,0s7.22,1.31,9.9,3.94c2.68,2.63,4.02,5.89,4.02,9.8s-1.34,7.17-4.02,9.8h0ZM264.02,13.76c0-2.37-.76-4.39-2.28-6.07-1.52-1.67-3.38-2.51-5.59-2.51s-4.08.84-5.59,2.51c-1.52,1.67-2.28,3.7-2.28,6.07s.76,4.39,2.27,6.05c1.52,1.66,3.38,2.49,5.59,2.49s4.08-.83,5.59-2.49c1.52-1.66,2.27-3.68,2.27-6.05h0ZM293.67.61h5.91v26.6h-5.91l-12.63-16.67v16.67h-5.91V.61h5.53l13.01,17.13V.61"/><path class="cls-1" d="M138.99,33.18h161.4v5.88h-161.4v-5.88Z"/></g></svg>