<?xml version="1.0" encoding="UTF-8"?><svg id="Layer_2" xmlns="http://www.w3.org/2000/svg" viewBox="0 0 740.57 153.44"><defs><style>.cls-1{letter-spacing:-.02em;}.cls-2{letter-spacing:-.07em;}.cls-3{letter-spacing:-.03em;}.cls-4{letter-spacing:0em;}.cls-5{letter-spacing:0em;}.cls-6{letter-spacing:0em;}.cls-7{font-family:Montserrat-SemiBold, Montserrat;font-size:49.29px;font-weight:600;}.cls-7,.cls-8{fill:#fff;}.cls-9{letter-spacing:-.01em;}.cls-10{letter-spacing:0em;}.cls-11{letter-spacing:0em;}.cls-12{letter-spacing:0em;}.cls-13{fill:#e90055;stroke-width:0px;}.cls-14{letter-spacing:.04em;}.cls-15{letter-spacing:-.05em;}.cls-16{letter-spacing:0em;}.cls-17{letter-spacing:-.02em;}.cls-18{letter-spacing:-.02em;}.cls-19{letter-spacing:-.02em;}.cls-20{letter-spacing:.02em;}.cls-21{letter-spacing:0em;}.cls-22{letter-spacing:0em;}.cls-23{letter-spacing:.03em;}.cls-8{font-family:Montserrat-ExtraBold, Montserrat;font-size:77.27px;font-weight:700;}.cls-24{letter-spacing:-.02em;}.cls-25{letter-spacing:0em;}.cls-26{letter-spacing:0em;}.cls-27{letter-spacing:-.03em;}</style></defs><g id="Type_treatment"><text class="cls-8" transform="translate(0 65.68)"><tspan class="cls-3" x="0" y="0">C</tspan><tspan class="cls-9" x="54.38" y="0">O</tspan><tspan class="cls-4" x="118.89" y="0">M</tspan><tspan class="cls-6" x="192.05" y="0">M</tspan><tspan class="cls-11" x="265.08" y="0">U</tspan><tspan class="cls-22" x="325.29" y="0">N</tspan><tspan class="cls-19" x="387.02" y="0">I</tspan><tspan class="cls-23" x="411.58" y="0">T</tspan><tspan class="cls-10" x="462.94" y="0">Y</tspan></text><text class="cls-7" transform="translate(134.66 127.07)"><tspan class="cls-1" x="0" y="0">C</tspan><tspan class="cls-18" x="34.68" y="0">I</tspan><tspan class="cls-14" x="49.5" y="0">T</tspan><tspan class="cls-20" x="81.01" y="0">Y</tspan><tspan class="cls-27" x="114.8" y="0">W</tspan><tspan class="cls-17" x="169.73" y="0">I</tspan><tspan class="cls-24" x="184.38" y="0">D</tspan><tspan class="cls-16" x="224.23" y="0">E</tspan></text><text class="cls-7" transform="translate(584.42 61.76)"><tspan class="cls-17" x="0" y="0">I</tspan><tspan class="cls-24" x="14.65" y="0">D</tspan><tspan class="cls-25" x="54.5" y="0">E</tspan><tspan class="cls-12" x="88.01" y="0">A</tspan><tspan x="125.15" y="0">S</tspan></text><text class="cls-8" transform="translate(413.34 133.42)"><tspan class="cls-26" x="0" y="0">I</tspan><tspan class="cls-5" x="25.56" y="0">M</tspan><tspan class="cls-2" x="98.72" y="0">P</tspan><tspan class="cls-15" x="150.37" y="0">A</tspan><tspan class="cls-21" x="207.42" y="0">C</tspan><tspan x="265.07" y="0">T</tspan></text><path class="cls-13" d="M20.67,104.59c-2.73-.65-4.6-3.26-4.2-6.03.03-.2.06-.33.09-.38.23-.32.49-.55.78-.68.29-.13.62-.18.97-.15.36.03.63.1.83.19.19.1.45.39.78.88.32.49.71.91,1.17,1.27.45.36,1.38.86,2.78,1.51,1.4.65,2.91,1.27,4.53,1.85,1.62.58,3.64,1.2,6.04,1.85,2.4.65,4.93,1.22,7.6,1.7,2.66.49,5.31.88,7.94,1.17,2.63.29,5.23.52,7.79.68,2.56.16,6.31.32,11.25.49,4.94.16,9.87.23,14.8.19,4.94-.03,7.97,0,9.11.1,1.14.1,1.75.13,1.85.1.05-.02.1-.03.15-.05-.02-.03-.03-.06-.05-.1-.03-.07-.99-.47-2.87-1.22-1.88-.75-4.04-1.74-6.48-2.97-2.43-1.23-4.43-2.34-5.99-3.31-1.56-.97-2.95-1.93-4.19-2.87-1.23-.94-3.12-2.66-5.65-5.16-2.53-2.5-4.07-3.98-4.63-4.43-.55-.45-.86-.96-.92-1.51-.07-.55-.05-.93.05-1.12.1-.19.29-.41.58-.63.29-.23.67-.36,1.12-.39.45-.03.83.02,1.12.15.29.13.67.37,1.12.73.45.36,1.54,1.41,3.26,3.17,1.72,1.75,3.26,3.2,4.63,4.33,1.36,1.14,2.87,2.24,4.53,3.31,1.66,1.07,3.75,2.27,6.28,3.6,2.53,1.33,4.85,2.45,6.96,3.36,2.11.91,4.12,1.67,6.04,2.29,1.92.62,3.98,1.14,6.18,1.56,2.21.42,3.9.57,5.07.44,1.17-.13,2.05-.18,2.63-.15.59.03,1.05.11,1.41.24.36.13.65.29.88.49.23.19.41.44.54.73.13.29.18.63.15,1.02-.03.39-.11.7-.24.93-.13.23-.34.44-.63.63-.29.2-.7.34-1.22.44-.52.1-1.4.13-2.63.1-1.23-.03-2.09-.02-2.58.05s-1.98.36-4.48.88c-2.5.52-5.1,1.14-7.79,1.85-2.7.71-5.24,1.48-7.65,2.29-2.4.81-5.08,1.79-8.04,2.92-2.95,1.14-5.67,2.29-8.13,3.46-2.47,1.17-3.98,1.92-4.53,2.24-.55.32-.96.63-1.22.93-.26.29-.54.5-.83.63-.29.13-.57.19-.83.19s-.52-.05-.78-.15c-.26-.1-.49-.24-.68-.44-.19-.19-.34-.42-.44-.68-.1-.26-.15-.54-.15-.83s.08-.62.24-.97c.16-.36.49-.73.97-1.12.49-.39,1.25-.88,2.29-1.46,1.04-.59,2.42-1.28,4.14-2.1,1.72-.81,3.94-1.77,6.67-2.87,2.73-1.1,4.9-1.93,6.53-2.48,1.62-.55,2.5-.89,2.63-1.02.06-.06.13-.13.19-.19-1.61-.02-3.21-.03-4.82-.05-3.21-.03-6.46-.13-9.74-.29-3.28-.16-7-.39-11.15-.68-4.16-.29-7.82-.62-11.01-.97-3.18-.36-6.05-.76-8.62-1.22-2.56-.45-4.84-.92-6.82-1.41-1.98-.49-3.93-1.04-5.84-1.65-2.67-.86-4.99-1.75-6.96-2.67l-.58-.2-1.3-.31Z"/><path class="cls-13" d="M543.36,43.51c-.3-.34-.74-.29-1.12-.34-1.59-.2-3.19-.34-4.79-.53-1.14-.13-2.28-.3-3.41-.47-.28-.04-.57-.13-.82-.26-.41-.21-.69-.83-.62-1.3.05-.28.09-.57.18-.84.17-.47.47-.75,1.02-.77.87-.04,1.72.02,2.57.15.34.05.67.17,1.01.19,2.01.1,4.02.16,6.03.28,1.2.07,2.4.24,3.6.34.52.04.71-.21.64-.75-.3-2.62-.83-5.2-1.42-7.75-.59-2.56-1.41-5.08-2.73-7.39-.43-.76-.33-1.04.46-1.49.99-.57,1.34-.56,2.16.13.44.37.79.8,1.09,1.31.84,1.44,1.58,2.95,2.18,4.49.56,1.42,1.19,2.85,1.37,4.41.02.16.06.38.29.34.15-.02.34-.09.43-.21.37-.45.57-.99.78-1.53.68-1.7,1.37-3.4,2.25-5.02.33-.6.55-1.26.8-1.9.3-.75.63-1.48,1.15-2.11.36-.43.79-.61,1.37-.51.86.15,1.25.56,1.04,1.42-.41,1.67-.75,3.36-1.5,4.93-.32.67-.61,1.36-.83,2.07-.45,1.49-1.08,2.89-1.75,4.29-.32.66-.53,1.38-.79,2.06.21.23.43.17.63.05,1.76-1.08,3.6-2,5.49-2.84.68-.3,1.26-.8,1.93-1.12,1.19-.58,2.39-1.12,3.61-1.62.58-.24,1.22-.31,1.86-.22.74.1,1.12.69.81,1.36-.41.9-.99,1.67-1.83,2.23-2.2,1.45-4.48,2.77-6.78,4.05-.9.5-1.75,1.08-2.62,1.63-.16.1-.23.26-.11.43.06.09.15.19.25.22.16.06.33.07.5.09,2.22.3,4.44.58,6.66.89,1.2.17,2.38.39,3.57.6.98.17,1.87.56,2.7,1.1.33.21.44.52.33.89-.16.56-.5.88-.94.84-2.06-.17-4.11-.36-6.17-.51-1.26-.09-2.52-.12-3.79-.14-.92-.02-1.83-.09-2.74-.22-1.08-.15-2.17-.19-3.26-.27-.62-.04-.98.29-.96.92.01.4.03.82.17,1.19.41,1.16.44,2.37.52,3.57.07,1.09.25,2.16.47,3.23.22,1.06.33,2.15.46,3.22.05.36-.04.75-.46.79-.53.05-.89.46-1.32.65-.66-.77-1.27-1.45-1.83-2.17-.28-.36-.55-.77-.66-1.2-.43-1.72-1.29-3.33-1.34-5.14,0-.18-.11-.37-.3-.33-.13.03-.3.18-.34.32-.65,2.01-1.38,3.99-1.89,6.04-.45,1.82-1,3.64-.86,5.57.07.91-.02.92-1.01,1.21-.21.06-.41.15-.65.23-.2-.27-.34-.54-.55-.71-1.15-.9-1.24-2.14-1.08-3.43.19-1.54.41-3.07.88-4.56.43-1.36.79-2.75,1.17-4.13.07-.25-.15-.42-.41-.37-.47.1-.84.33-1.17.68-1.16,1.2-2.62,2.03-3.92,3.07-.09.07-.21.11-.3.18-1.27.99-2.55,1.95-3.78,2.98-.87.72-1.72,1.44-2.32,2.46-.62,1.06-2.1,1.02-2.94.1-.21-.24-.29-.47-.28-.77.05-1.38.5-2.6,1.48-3.58,1.79-1.78,3.52-3.62,5.64-5.04.62-.42,1.05-1.04,1.67-1.48,1.59-1.12,3.12-2.33,4.67-3.51.22-.17.45-.36.45-.69Z"/></g></svg>