<?xml version="1.0" encoding="UTF-8"?><svg id="Layer_2" xmlns="http://www.w3.org/2000/svg" viewBox="0 0 709.93 155.44"><defs><style>.cls-1{letter-spacing:-.02em;}.cls-2{letter-spacing:-.02em;}.cls-3{letter-spacing:-.02em;}.cls-4{font-family:Montserrat-SemiBold, Montserrat;font-size:49.29px;font-weight:600;}.cls-4,.cls-5{fill:#fff;}.cls-6{letter-spacing:-.01em;}.cls-7{letter-spacing:0em;}.cls-8{letter-spacing:-.05em;}.cls-9{fill:#b11fff;stroke-width:0px;}.cls-10{letter-spacing:.04em;}.cls-11{letter-spacing:-.04em;}.cls-12{letter-spacing:-.02em;}.cls-13{letter-spacing:-.02em;}.cls-14{letter-spacing:-.02em;}.cls-15{letter-spacing:-.02em;}.cls-16{letter-spacing:-.03em;}.cls-17{letter-spacing:.02em;}.cls-18{letter-spacing:.02em;}.cls-19{letter-spacing:0em;}.cls-20{letter-spacing:.03em;}.cls-21{letter-spacing:0em;}.cls-22{letter-spacing:-.02em;}.cls-23{letter-spacing:-.02em;}.cls-5{font-family:Montserrat-ExtraBold, Montserrat;font-size:77.27px;font-weight:700;}.cls-24{letter-spacing:-.07em;}.cls-25{letter-spacing:0em;}.cls-26{letter-spacing:0em;}.cls-27{letter-spacing:0em;}</style></defs><g id="Type_treatment"><path class="cls-9" d="M357.62,41.37c-.4-.46-1-.39-1.51-.46-2.15-.27-4.31-.46-6.47-.71-1.54-.18-3.07-.4-4.61-.64-.38-.06-.76-.18-1.11-.35-.56-.28-.93-1.13-.83-1.76.06-.38.12-.78.25-1.14.22-.63.64-1.01,1.37-1.05,1.17-.06,2.32.03,3.47.2.46.07.91.23,1.36.25,2.71.14,5.43.22,8.14.38,1.62.1,3.24.33,4.86.46.7.06.95-.29.87-1.02-.4-3.53-1.13-7.02-1.91-10.47-.79-3.46-1.91-6.86-3.69-9.99-.59-1.03-.45-1.4.62-2.01,1.34-.77,1.81-.75,2.92.18.59.5,1.07,1.08,1.48,1.77,1.14,1.95,2.13,3.98,2.95,6.06.75,1.92,1.6,3.86,1.86,5.95.03.21.08.51.39.46.21-.03.46-.13.58-.28.49-.61.76-1.34,1.05-2.06.92-2.3,1.85-4.6,3.04-6.78.44-.81.74-1.71,1.08-2.57.41-1.01.85-2,1.56-2.85.49-.59,1.07-.82,1.85-.69,1.16.2,1.69.75,1.4,1.91-.56,2.25-1.01,4.54-2.03,6.66-.43.9-.83,1.84-1.12,2.8-.61,2.01-1.46,3.9-2.37,5.79-.43.9-.72,1.86-1.07,2.78.28.32.59.24.85.07,2.38-1.46,4.87-2.7,7.42-3.83.91-.4,1.7-1.07,2.61-1.51,1.6-.78,3.23-1.51,4.88-2.19.79-.33,1.65-.42,2.52-.3.99.14,1.51.93,1.1,1.84-.55,1.21-1.34,2.26-2.48,3.01-2.97,1.96-6.05,3.74-9.16,5.47-1.21.67-2.36,1.46-3.53,2.2-.21.13-.3.35-.14.59.08.12.21.25.34.3.21.08.45.1.68.13,3,.4,6,.78,8.99,1.2,1.61.23,3.22.53,4.83.81,1.32.23,2.52.76,3.64,1.48.45.29.6.7.45,1.2-.22.76-.68,1.19-1.26,1.14-2.78-.23-5.56-.49-8.34-.69-1.7-.12-3.41-.16-5.11-.19-1.24-.02-2.47-.12-3.7-.29-1.45-.21-2.93-.26-4.4-.37-.83-.06-1.32.39-1.29,1.25.02.54.05,1.11.22,1.61.55,1.57.59,3.21.7,4.83.1,1.48.34,2.92.64,4.37.3,1.43.44,2.9.63,4.36.06.49-.05,1.02-.62,1.07-.72.07-1.2.63-1.79.88-.89-1.04-1.72-1.96-2.47-2.93-.37-.48-.74-1.04-.89-1.62-.58-2.32-1.74-4.49-1.8-6.95,0-.24-.14-.49-.4-.44-.18.04-.41.25-.46.43-.88,2.71-1.87,5.39-2.55,8.16-.61,2.46-1.35,4.92-1.16,7.53.09,1.23-.03,1.24-1.36,1.63-.28.08-.56.2-.88.31-.27-.36-.45-.73-.75-.96-1.55-1.22-1.67-2.89-1.45-4.63.26-2.07.55-4.15,1.19-6.16.58-1.84,1.06-3.72,1.58-5.58.09-.33-.21-.57-.56-.5-.63.13-1.13.45-1.58.92-1.57,1.63-3.54,2.74-5.29,4.14-.12.1-.28.14-.4.24-1.71,1.33-3.45,2.64-5.11,4.03-1.17.98-2.32,1.94-3.14,3.33-.84,1.43-2.84,1.38-3.97.14-.29-.32-.39-.64-.37-1.04.07-1.86.67-3.52,2-4.84,2.42-2.4,4.76-4.89,7.61-6.8.84-.56,1.42-1.4,2.26-1.99,2.15-1.51,4.22-3.14,6.3-4.74.29-.22.61-.48.6-.93Z"/><text class="cls-4" transform="translate(0 57.19)"><tspan class="cls-11" x="0" y="0">C</tspan><tspan class="cls-23" x="34" y="0">O</tspan><tspan class="cls-15" x="74.64" y="0">M</tspan><tspan class="cls-3" x="120.65" y="0">M</tspan><tspan class="cls-1" x="166.7" y="0">U</tspan><tspan class="cls-2" x="204.57" y="0">N</tspan><tspan class="cls-13" x="243.44" y="0">I</tspan><tspan class="cls-10" x="258.26" y="0">T</tspan><tspan x="289.77" y="0">Y</tspan></text><text class="cls-5" transform="translate(86.25 135.43)"><tspan class="cls-22" x="0" y="0">C</tspan><tspan class="cls-14" x="55.76" y="0">I</tspan><tspan class="cls-20" x="80.32" y="0">T</tspan><tspan class="cls-18" x="131.68" y="0">Y</tspan><tspan class="cls-16" x="187.01" y="0">W</tspan><tspan class="cls-26" x="276.44" y="0">I</tspan><tspan class="cls-6" x="302" y="0">D</tspan><tspan class="cls-21" x="364.96" y="0">E</tspan></text><text class="cls-5" transform="translate(409.98 65.68)"><tspan class="cls-25" x="0" y="0">I</tspan><tspan class="cls-6" x="25.56" y="0">D</tspan><tspan class="cls-19" x="88.52" y="0">E</tspan><tspan class="cls-27" x="140.91" y="0">A</tspan><tspan class="cls-7" x="202.02" y="0">S</tspan></text><text class="cls-4" transform="translate(515.96 125.16)"><tspan class="cls-12" x="0" y="0">I</tspan><tspan class="cls-15" x="14.65" y="0">M</tspan><tspan class="cls-24" x="60.66" y="0">P</tspan><tspan class="cls-8" x="92.99" y="0">A</tspan><tspan class="cls-17" x="127.67" y="0">C</tspan><tspan x="164.3" y="0">T</tspan></text><path class="cls-9" d="M5.79,112.09c-2.03.48-3.42,2.42-3.13,4.49.02.15.04.25.07.28.17.24.36.41.58.51.22.1.46.13.73.11.27-.02.47-.07.62-.14.15-.07.34-.29.58-.65.24-.36.53-.68.87-.94.34-.27,1.03-.64,2.07-1.12,1.04-.48,2.16-.94,3.37-1.38,1.21-.43,2.71-.89,4.5-1.38,1.79-.48,3.67-.91,5.66-1.27,1.98-.36,3.95-.65,5.91-.87,1.96-.22,3.89-.39,5.8-.51,1.91-.12,4.7-.24,8.38-.36,3.67-.12,7.35-.17,11.02-.14,3.67.02,5.93,0,6.78-.07.85-.07,1.31-.1,1.38-.07.04.01.07.02.11.04-.01.02-.02.05-.04.07-.02.05-.74.35-2.14.91-1.4.56-3.01,1.29-4.82,2.21-1.81.92-3.3,1.74-4.46,2.47-1.16.73-2.2,1.44-3.12,2.14-.92.7-2.32,1.98-4.21,3.84-1.89,1.86-3.03,2.96-3.44,3.3-.41.34-.64.71-.69,1.12-.05.41-.04.69.04.83.07.14.22.3.43.47.22.17.5.27.83.29.34.02.62-.01.83-.11.22-.1.5-.28.83-.54.34-.27,1.15-1.05,2.43-2.36,1.28-1.31,2.43-2.38,3.44-3.23,1.02-.85,2.14-1.67,3.37-2.47,1.23-.8,2.79-1.69,4.68-2.68,1.88-.99,3.61-1.83,5.18-2.5,1.57-.68,3.07-1.25,4.5-1.7,1.43-.46,2.96-.85,4.6-1.16,1.64-.31,2.9-.42,3.77-.33.87.1,1.52.13,1.96.11.44-.02.79-.08,1.05-.18.27-.1.48-.22.65-.36.17-.14.3-.33.4-.54.1-.22.13-.47.11-.76-.02-.29-.08-.52-.18-.69-.1-.17-.25-.33-.47-.47-.22-.15-.52-.25-.91-.33-.39-.07-1.04-.1-1.96-.07-.92.02-1.56.01-1.92-.04s-1.47-.27-3.34-.65c-1.86-.39-3.8-.85-5.8-1.38-2.01-.53-3.9-1.1-5.69-1.7-1.79-.6-3.78-1.33-5.98-2.18-2.2-.85-4.22-1.7-6.05-2.57s-2.96-1.43-3.37-1.67c-.41-.24-.71-.47-.91-.69-.19-.22-.4-.37-.62-.47-.22-.1-.42-.14-.62-.14s-.39.04-.58.11c-.19.07-.36.18-.51.33-.14.14-.25.31-.33.51-.07.19-.11.4-.11.62s.06.46.18.72c.12.27.36.54.73.83.36.29.93.65,1.7,1.09.77.44,1.8.96,3.08,1.56,1.28.6,2.94,1.32,4.97,2.14,2.03.82,3.65,1.44,4.86,1.85,1.21.41,1.86.66,1.96.76.05.05.1.1.14.14-1.2.01-2.39.02-3.59.04-2.39.02-4.81.1-7.25.22-2.44.12-5.21.29-8.3.51-3.09.22-5.83.46-8.19.72-2.37.27-4.51.57-6.42.91-1.91.34-3.6.69-5.08,1.05-1.47.36-2.92.77-4.35,1.23-1.99.64-3.71,1.3-5.19,1.99l-.43.15-.97.23Z"/></g></svg>