<?xml version="1.0" encoding="UTF-8"?><svg id="Layer_2" xmlns="http://www.w3.org/2000/svg" viewBox="0 0 134.13 36.06"><defs><style>.cls-1{fill:#e90055;stroke-width:0px;}</style></defs><g id="Scribbles"><path class="cls-1" d="M132,3.37c-6.5,2.17-13.28,4.51-19.32,7.96-3.22-3.15-7.51-5.15-11.97-5.77-6.95-.96-13.88,1.14-20.08,4.16-1.14.55-2.28,1.15-3.4,1.79-.97-1.58-2.18-3.02-3.62-4.23-4.43-3.7-10.28-5.37-16-5.08-6.69.35-12.92,3.38-17.95,7.85C36.86,4.36,32.14-.05,25.19,0c-6.38.04-12.08,4.11-16.3,8.56C4.62,13.08.91,18.77.13,25.05c-.37,2.99.09,5.87,1.35,8.61.94,2.04,3.94.27,3.01-1.76-2.18-4.73-.52-10.06,1.94-14.33,2.56-4.42,6.21-8.52,10.52-11.29,4.02-2.58,9.07-3.9,13.51-1.52,3.11,1.67,5.24,4.64,6.62,7.84-2.85,3.08-5.2,6.62-6.85,10.34-1.88,4.25-2.36,11.61,3.83,12.38,2.79.35,5.57-1.26,7.06-3.57,1.67-2.59,1.85-5.87,1.72-8.86-.13-3-.7-6.25-1.74-9.34,2.7-2.66,5.84-4.9,9.37-6.29,8.02-3.17,19.01-1.72,23.82,6.1-3.27,2.29-6.1,5.15-7.62,8.92-1.19,2.93-1.55,6.36-.47,9.39,1.11,3.12,3.68,5.03,6.92,3.35,4.73-2.45,6.95-8.58,6.93-13.6,0-2.32-.46-4.62-1.28-6.78,4.3-2.55,9.06-4.54,13.95-5.44,5.03-.92,10.27-.34,14.67,2.35.79.48,1.54,1.04,2.25,1.66-3.36,2.25-6.4,4.93-8.92,8.25-1.75,2.3-3.2,5.26-2.96,8.23.25,3.03,2.36,5.42,5.32,6.11,5.34,1.24,10.5-2.19,12.83-6.87,2.4-4.82,2.12-10.44-.93-14.9,3.48-1.93,7.15-3.49,10.88-4.86,2.33-.86,4.69-1.66,7.05-2.44,2.12-.71,1.21-4.08-.93-3.36ZM39.13,27.44c-.46,2.09-1.83,4.43-4.26,4.45-2.06.02-2.6-2.01-2.5-3.7.14-2.2,1.14-4.2,2.21-6.07,1.13-1.97,2.4-3.86,3.84-5.62.97,3.53,1.46,7.5.7,10.94ZM75.94,25.79c-.58,1.92-1.6,3.67-3.05,5.07-.69.67-2.02,1.95-2.83.9-.74-.95-.97-2.49-1.01-3.65-.15-4.88,3-8.77,6.74-11.53.97,2.97,1.05,6.24.14,9.22ZM108.69,31.72c-1.75.94-4.28,1.31-6.03.17-2.11-1.37-1.49-4.16-.56-6.07,2.03-4.17,6.05-7.5,9.9-10,1.27,1.81,2.07,3.91,2.1,6.17.04,3.85-1.95,7.89-5.41,9.73Z"/></g></svg>