<?xml version="1.0" encoding="UTF-8"?><svg id="Layer_2" xmlns="http://www.w3.org/2000/svg" viewBox="0 0 125.19 56.21"><defs><style>.cls-1{fill:#0e0e30;stroke-width:0px;}</style></defs><g id="Scribbles"><path class="cls-1" d="M125.19,30.51c-.8-5.14-7.24-.31-10.35-.51-6.62.66-13.03.02-19.1-2.24-1.36-.52-2.84-1.19-4.22-1.79-1.38-.57-3.07-1.52-4.39-.82-2.81,2.13,1.26,5.11,3.28,6.06,4.48,2.38,9.35,3.38,14.2,4.13,1.23.36-.4.74-1,.92-10.37,2.69-21.96,3.97-32.32.3-1.57-.49-15.7-6.25-10.88-7.99,5.77-1.93,11.93-5.17,14.19-11.21,6.31-23.33-33.58-23.52-28.98,1.61.27,1.49.8,2.94,1.24,4.32.27.85.18,1.35-.45,1.52-13.95.26-28.01-6.38-37.21-16.74-1.52-1.67-2.94-3.44-3.99-5.26C4.28.89,1.85-.87.31,1.5c-1.8,3.99,4.73,9.68,7.25,12.5,12.63,12.57,25.76,15.82,42.93,16.69,3.17,1.13,5.24,4.08,8.19,5.74,11.58,7.66,26.11,9.22,39.55,6.48,1.59-.18,3.69-1.02,5.15-.85.43.17-.4,1.12-.52,1.28-2.23,3.1-7.92,8.85-4.17,12.45,3.02,1.76,3.86-2.59,5-4.51,1.62-2.64,3.7-5.09,5.78-7.27,3.36-3.41,7.15-6.75,11.18-9.22,1.7-1.03,4.32-1.88,4.52-4.11v-.17ZM55.03,24.47c-1.81.22-2.3-1.33-2.96-2.8-4-8.68.58-17.18,10.57-16.17,4.6.32,8.25,4.22,7.39,8.86-1.46,6.17-9.36,8.98-14.82,10.09l-.18.02Z"/></g></svg>