<?xml version="1.0" encoding="UTF-8"?><svg id="Layer_2" xmlns="http://www.w3.org/2000/svg" viewBox="0 0 199.52 35.63"><defs><style>.cls-1{fill:#e90055;stroke-width:0px;}</style></defs><g id="Scribbles"><path class="cls-1" d="M120.27.85c-1.06.64-2.05,1.47-2.96,2.48-.91,1.01-1.91,2.3-3.01,3.86-1.1,1.56-2.31,3.54-3.64,5.93-1.33,2.39-2.82,4.83-4.49,7.31-1.67,2.48-3.18,4.55-4.55,6.21-1.36,1.66-2.37,2.76-3.01,3.31-.64.55-1.08.69-1.31.41s-.45-.78-.68-1.52c-.23-.74-.42-1.75-.57-3.04-.15-1.29-.09-3.86.17-7.73.27-3.86.38-6.44.34-7.73-.04-1.29-.17-2.35-.4-3.17-.23-.83-.44-1.38-.63-1.66-.19-.28-.8-.74-1.82-1.38-1.02-.64-2.08-.87-3.18-.69-1.1.18-2.03.46-2.78.83-.76.37-1.84,1.15-3.24,2.35-1.4,1.2-3.13,3.08-5.17,5.66-2.05,2.58-4.02,5.38-5.91,8.42-1.89,3.04-3.68,5.34-5.34,6.9-1.67,1.56-2.6,2.21-2.79,1.93-.19-.28-.36-.78-.51-1.52-.15-.74-.23-1.66-.23-2.76s.3-3.22.91-6.35c.61-3.13.99-5.24,1.14-6.35.15-1.1.23-2.02.23-2.76s-.15-1.66-.45-2.76c-.3-1.1-.76-1.93-1.36-2.48-.61-.55-1.44-.78-2.5-.69-1.06.09-2.56.87-4.49,2.35-1.93,1.47-3.88,3.36-5.85,5.66-1.97,2.3-4.13,5.06-6.48,8.28-2.35,3.22-4.22,5.57-5.63,7.04-1.4,1.47-2.18,2.16-2.33,2.07-.15-.09-.3-.64-.45-1.66-.15-1.01-.21-2.39-.17-4.14.04-1.75.13-3.36.28-4.83.15-1.47.21-3.4.17-5.8-.04-2.39-.27-4.19-.68-5.38-.42-1.2-.93-2.12-1.53-2.76-.61-.64-1.52-.97-2.73-.97s-2.5.51-3.86,1.52c-1.36,1.01-2.92,2.62-4.66,4.83-1.74,2.21-3.64,4.97-5.68,8.28-2.05,3.31-3.66,5.66-4.83,7.04-1.17,1.38-1.84,2.07-1.99,2.07s-.36-.46-.63-1.38c-.27-.92-.38-3.45-.34-7.59.04-4.14.02-6.53-.06-7.17-.08-.64-.28-1.43-.63-2.35-.34-.92-.85-1.66-1.53-2.21-.68-.55-1.4-.83-2.16-.83s-1.86.41-3.3,1.24c-1.44.83-2.29,1.47-2.56,1.93-.27.46-.4.92-.4,1.38s.08.87.23,1.24c.15.37.47.69.97.97.49.28,1.4.09,2.73-.55,1.33-.64,2.07-.64,2.22,0,.15.64.17,2.81.06,6.49-.11,3.68-.06,6.16.17,7.45.23,1.29.49,2.3.8,3.04.3.74.68,1.38,1.14,1.93.45.55.91.97,1.36,1.24.45.28,1.04.41,1.76.41s1.5-.28,2.33-.83c.83-.55,1.8-1.47,2.9-2.76,1.1-1.29,2.58-3.45,4.43-6.49,1.86-3.04,3.32-5.2,4.38-6.49,1.06-1.29,1.63-2.07,1.71-2.35.08-.28.66-1.06,1.76-2.35,1.1-1.29,1.95-2.12,2.56-2.48.61-.37.99-.46,1.14-.28.15.18.3.64.45,1.38.15.74.23,1.79.23,3.17s-.11,3.31-.34,5.8c-.23,2.48-.34,4.42-.34,5.8s.08,2.58.23,3.59c.15,1.01.36,1.89.63,2.62.27.74.64,1.38,1.14,1.93.49.55.99.97,1.48,1.24.49.28,1,.41,1.53.41s1.08-.14,1.65-.41c.57-.28,1.36-.87,2.39-1.79,1.02-.92,3.54-4,7.56-9.25,4.02-5.24,6.71-8.6,8.07-10.07,1.36-1.47,2.52-2.53,3.47-3.17.47-.32.95-.64,1.42-.97v1.66c0,1.1-.32,3.36-.97,6.76-.64,3.4-.99,5.7-1.02,6.9-.04,1.2-.02,2.25.06,3.17.08.92.3,2.02.68,3.31.38,1.29.74,2.16,1.08,2.62.34.46.74.83,1.19,1.1.45.28,1.04.41,1.76.41s1.5-.18,2.33-.55c.83-.37,2.07-1.33,3.69-2.9,1.63-1.56,3.51-4,5.63-7.31,2.12-3.31,4.09-6.12,5.91-8.42,1.82-2.3,3.16-3.86,4.04-4.69.87-.83,1.91-1.52,3.13-2.07,1.21-.55,1.91-.69,2.1-.41.19.28.32.64.4,1.1.08.46-.02,2.35-.28,5.66-.27,3.31-.4,5.75-.4,7.31s.08,2.99.23,4.28c.15,1.29.55,2.76,1.19,4.41.64,1.66,1.33,2.76,2.05,3.31.72.55,1.4.87,2.05.97.64.09,1.55-.18,2.73-.83,1.17-.64,2.58-1.89,4.21-3.73,1.63-1.84,2.48-2.9,2.56-3.17.08-.28.21-.46.4-.55.19-.09,1.12-1.38,2.79-3.86,1.67-2.48,2.8-4.32,3.41-5.52.61-1.2,1.82-3.17,3.64-5.93,1.82-2.76,3.11-4.55,3.87-5.38.76-.83,1.38-1.38,1.88-1.66.49-.28.87-.28,1.14,0,.27.28.4.83.4,1.66s-.21,2.39-.63,4.69c-.42,2.3-.68,4.05-.8,5.24-.11,1.2-.17,2.76-.17,4.69s.06,3.36.17,4.28c.11.92.25,1.7.4,2.35.15.64.42,1.33.8,2.07.38.74,1.23,1.66,2.56,2.76,1.33,1.1,2.5,1.61,3.52,1.52,1.02-.09,2.05-.51,3.07-1.24,1.02-.74,2.52-2.39,4.49-4.97,1.97-2.58,4.26-6.07,6.88-10.49,2.61-4.42,4.53-7.27,5.74-8.56,1.21-1.29,1.95-1.98,2.22-2.07.27-.09.44-.05.51.14.08.18.09.83.06,1.93-.04,1.1-.11,1.84-.23,2.21-.11.37-.3,1.79-.57,4.28-.27,2.48-.4,4.46-.4,5.93s.08,2.81.23,4c.15,1.2.44,2.3.85,3.31.42,1.01,1.19,1.84,2.33,2.48,1.14.64,2.18.97,3.13.97s1.74-.18,2.39-.55c.64-.37,1.67-1.33,3.07-2.9,1.4-1.56,2.8-3.4,4.21-5.52,1.4-2.12,3.11-4.42,5.12-6.9,2.01-2.48,3.51-4.19,4.49-5.11.99-.92,2.05-1.66,3.18-2.21,1.14-.55,1.74-.74,1.82-.55.08.18.09,1.06.06,2.62-.04,1.56-.25,3.36-.63,5.38-.38,2.02-.57,4.05-.57,6.07s.09,3.45.28,4.28c.19.83.53,1.75,1.02,2.76.49,1.01,1.1,1.84,1.82,2.48.72.64,1.74,1.06,3.07,1.24,1.33.18,2.41.05,3.24-.41.83-.46,1.95-1.29,3.35-2.48,1.4-1.2,2.63-2.02,3.69-2.48,1.06-.46,1.63-1.01,1.71-1.66.08-.64-.08-1.29-.45-1.93-.38-.64-.91-1.06-1.59-1.24-.68-.18-1.8.14-3.35.97-1.55.83-2.88,1.75-3.98,2.76-1.1,1.01-1.86,1.56-2.27,1.66-.42.09-.76.05-1.02-.14-.27-.18-.53-.69-.8-1.52-.27-.83-.4-1.98-.4-3.45s.17-3.08.51-4.83c.34-1.75.57-3.77.68-6.07.11-2.3.04-4-.23-5.11-.27-1.1-.68-1.98-1.25-2.62-.57-.64-1.53-1.06-2.9-1.24-1.36-.18-2.88.18-4.55,1.1-1.67.92-3.51,2.44-5.51,4.55-2.01,2.12-4.45,5.2-7.33,9.25-2.88,4.05-4.4,6.07-4.55,6.07s-.61.46-1.36,1.38c-.76.92-1.38,1.38-1.88,1.38s-.83-.64-1.02-1.93c-.19-1.29-.28-2.35-.28-3.17s.23-3.13.68-6.9c.45-3.77.64-6.26.57-7.45-.08-1.2-.4-2.25-.97-3.17-.57-.92-1.12-1.56-1.65-1.93-.53-.37-1.42-.55-2.67-.55s-2.6.6-4.04,1.79c-1.44,1.2-2.69,2.58-3.75,4.14-1.06,1.56-2.56,4.05-4.49,7.45-1.93,3.4-3.47,5.89-4.6,7.45-1.14,1.56-2.16,2.81-3.07,3.72-.91.92-1.63,1.47-2.16,1.66-.53.18-1.06.05-1.59-.41-.53-.46-.89-1.33-1.08-2.62-.19-1.29-.27-3.04-.23-5.24.04-2.21.32-4.87.85-8,.53-3.13.74-5.34.63-6.62-.11-1.29-.28-2.21-.51-2.76-.23-.55-.63-1.1-1.19-1.66-.57-.55-1.52-.87-2.84-.97-1.33-.09-2.52.18-3.58.83Z"/></g></svg>