<?xml version="1.0" encoding="UTF-8"?><svg id="Layer_2" xmlns="http://www.w3.org/2000/svg" viewBox="0 0 94.99 56.23"><defs><style>.cls-1{fill:#e90055;stroke-width:0px;}</style></defs><g id="Scribbles"><path class="cls-1" d="M1.4,4.81c3.71,2.52,10.16,3.49,14.92,4.32,23.65,3.57,47.58,15.19,58.69,37.37,1.74,2.71,6.01,10.4,8.49,7.84,2.18-5.48-2.12-13.7-5.34-18.69C64.26,14.13,38.9,3.73,14.33.43,10.36-.14,4.8-.35,1.49,1.15c-2.11.89-1.76,2.54-.3,3.51l.21.15Z"/><path class="cls-1" d="M81.57,52.39c-2.83-7.98-16.95-18.09-24.95-21.61-2.63-1-8.82-2.86-8.43,1.3.35,3.16,7.53,8.92,11.5,11.6,3.61,2.55,7.01,5.44,10.56,8.05,4.64,3.44,12.79,7.64,11.41.99l-.1-.32Z"/><path class="cls-1" d="M81.11,54.18c1.99-1.66,4.14-4.86,6.18-8.25,2.54-4.36,6.34-9.66,7.49-14.23,1.47-6.17-5.01-3.92-7.85-1.57-5.41,3.95-10.48,12.47-11.16,18.72-.61,3.74.84,9,5.06,5.56l.28-.23Z"/></g></svg>