<?xml version="1.0" encoding="UTF-8"?><svg id="Layer_2" xmlns="http://www.w3.org/2000/svg" viewBox="0 0 283.64 15.53"><defs><style>.cls-1{fill:#e90055;stroke-width:0px;}</style></defs><g id="Scribbles"><path class="cls-1" d="M157.59,5.23c-.06-.05-.12-.09-.17-.14-.06-.05-.12-.09-.17-.14-.06.05-.12.09-.17.14-.06.05-.12.09-.17.14h.69Z"/><path class="cls-1" d="M283.64,9.48c-.06,0-.11.01-.17.02-.15-2.06-.41-3.97-.41-3.97,0,0-.05,0-.14,0,.04-.8-.19-1.74-.44-2.68-.58-2.21-10.21-1.16-20.54-.23-8.25.74-39.24,1.26-57.41,1.5h-.64s0,0,0,0c-4.28.06-7.81.09-10.08.12-.33,0-.68,0-1.04.01h-2.76s0,.03,0,.05c-.51,0-1.03.02-1.57.03v-.08h-.35c-.19,0-.41.03-.64.1-3.54.08-7.54.19-11.51.31-.02,0-.05,0-.07,0h-1.13v.04c-.36.01-.73.02-1.09.03-.05-.06-.15-.11-.3-.14-.12-.02-.23-.05-.35-.07-.02.08-.05.15-.07.23-.32.01-.65.02-.97.03v-.26h-1.47c-.98,0-1.59.07-1.82.21-.1.06-.2.12-.29.17-.02,0-.04,0-.07,0-.02-.06-.05-.12-.07-.18-.03-.07-.06-.14-.09-.21-.06.07-.12.14-.17.21-.12.14-.46.14-1.04,0-.29-.07-.58-.14-.87-.21v.21c0,.09.1.17.3.24-1.91.06-3.69.13-5.25.18-.03-.03-.05-.05-.08-.08-.04.03-.07.06-.11.09-.73.03-1.41.05-2.04.07.02-.05.05-.11.07-.16h-.87v.19c-1.56.06-2.7.1-3.26.12-.08-.02-.18-.03-.3-.03h-.43v.41h-.69v-.27h-.52v.27c-.17-.05-.35-.09-.52-.14-.35-.09-.55-.09-.61,0-.03.05-.06.09-.09.14-.12-.07-.23-.14-.35-.21-.12-.07-.23-.14-.35-.21-.03.07-.06.14-.09.21-.06.14-1.1.23-3.12.27-2.02.05-3.06.12-3.12.21-.06.09-.2.14-.43.14h-.35v-.27c-.06.05-.12.09-.17.14-.12.09-1.36.14-3.73.14s-3.58-.05-3.64-.14c-.06-.09-.84-.14-2.34-.14s-2.28-.05-2.34-.14c-.06-.09-.23-.12-.52-.07-.14.02-.29.05-.43.07v-.27c-.26.07-.52.14-.78.21-.52.14-.92.14-1.21,0-.26-.12-.55-.15-.86-.09-1-.43-3.46-.82-6.93-1.2,0,0,0-.01-.01-.02-.03-.05-.06-.09-.09-.14-.03.05-.06.09-.09.14-12.78-1.35-38.86-2.37-56.46-3.4C41.56-.32,13.49-.18,8.27.54c0,0-5.5.23-7.12,1.04C-.48,2.39-.13,8.31.68,11.68c.4,1.64.88,2.39,1.69,2.7-.03.19,0,.35.12.46.17.18.4.27.69.27s.64-.12,1.04-.34c.4-.23,2.8-.44,7.2-.62,4.39-.18,6.62-.32,6.68-.41.03-.05.06-.09.09-.14.06.05.12.09.17.14.12.09.55.14,1.3.14s1.18-.05,1.3-.14c.12-.09,1.27-.16,3.47-.21,2.2-.05,3.44-.11,3.73-.21.29-.09.95-.12,1.99-.07,1.04.05,1.79.02,2.25-.07.23-.05.46-.09.69-.14v.27c.72-.02,1.44-.05,2.17-.07,1.44-.05,2.2-.02,2.25.07.06.09.35.14.87.14s.81-.05.87-.14c.03-.05.06-.09.09-.14.09.05.17.09.26.14.17.09.46.14.87.14s.64-.05.69-.14c.06-.09.35-.09.87,0,.52.09.95.09,1.3,0,.35-.09.61-.09.78,0,.17.09.4.09.69,0,.29-.09.66-.09,1.13,0,.46.09,1.18.09,2.17,0,.98-.09,1.5-.09,1.56,0,.06.09.26.14.61.14s.58-.05.69-.14c.06-.05.12-.09.17-.14.03.07.06.14.09.21.06.14,1.73.18,5.03.14,3.29-.05,5.03,0,5.2.14.17.14.69.16,1.56.07.87-.09,1.36-.07,1.47.07.12.14,1.53.21,4.25.21s4.1.05,4.16.14c.03.05.06.09.09.14.12-.05.23-.09.35-.14.23-.09.64-.14,1.21-.14s.92.05,1.04.14c.12.09.92.09,2.43,0,1.5-.09,2.28-.09,2.34,0,.06.09,1.21.16,3.47.21,2.25.05,3.7.05,4.33,0,.64-.05.98-.12,1.04-.21.06-.09.23-.14.52-.14s.46.05.52.14c.03.05.06.09.09.14.06-.05.12-.09.17-.14.12-.09.29-.09.52,0,.23.09.78.14,1.65.14s1.36-.05,1.47-.14c.06-.05.12-.09.17-.14v.27h2.69c1.79,0,2.86.05,3.21.14.35.09,1.85.12,4.51.07,2.66-.05,4.07-.02,4.25.07.17.09.43.09.78,0,.35-.09.61-.09.78,0,.17.09.43.09.78,0,.35-.09.61-.09.78,0,.09.05.17.09.26.14.03-.05.06-.09.09-.14.06-.09.49-.14,1.3-.14s1.24.05,1.3.14c.06.09,1.76.18,5.11.27,3.35.09,5.55.14,6.59.14h1.56v-.27h.35c.23,0,.66.02,1.3.07.64.05.98.11,1.04.21.06.09.38.14.95.14h.87v-.27c.14.05.29.09.43.14.29.09.55.09.78,0,.12-.05.23-.09.35-.14v.14c0,.09.12.16.35.21.23.05.55.05.95,0,.4-.05.64-.11.69-.21.03-.05.06-.09.09-.14.06.05.12.09.17.14.12.09.26.09.43,0,.17-.09.35-.09.52,0,.17.09.58.09,1.21,0,.64-.09.98-.07,1.04.07.03.07.06.14.09.21.06-.07.12-.14.17-.21.12-.14.43-.21.95-.21s.81.07.87.21c.03.07.06.14.09.21.06-.07.12-.14.17-.21.06-.07.12-.14.17-.21.12.07.23.14.35.21.23.14.84.21,1.82.21s1.5-.07,1.56-.21c.03-.07.06-.14.09-.21v.41c.17-.02.35-.05.52-.07.35-.05.72,0,1.13.14.4.14.75.21,1.04.21h.43v-.27c.14.05.29.09.43.14.29.09.52.09.69,0,.17-.09.66-.09,1.47,0,.81.09,1.24.09,1.3,0,.06-.09.29-.16.69-.21.4-.05.98-.02,1.73.07.38.05.75.09,1.13.14v-.27h.52c.35,0,.55-.05.61-.14.06-.09.38-.09.95,0,.58.09.98.07,1.21-.07.23-.14.78-.18,1.65-.14.87.05,1.59.05,2.17,0,.58-.05.9-.12.95-.21.06-.09.2-.14.43-.14s.4.07.52.21c.06.07.12.14.17.21.06-.07.12-.14.17-.21.12-.14.92-.21,2.43-.21s2.43-.07,2.77-.21c.35-.14,1.18-.16,2.51-.07,1.33.09,2.02.09,2.08,0,.06-.09.78-.16,2.17-.21.69-.02,1.39-.05,2.08-.07v.27c.64-.02,1.27-.05,1.91-.07,1.27-.05,1.99-.02,2.17.07.17.09.46.07.87-.07.4-.14.69-.14.87,0,.09.07.17.14.26.21.09-.07.17-.14.26-.21.09-.07.17-.14.26-.21.06.05.12.09.17.14.06.05.12.09.17.14.03-.05.06-.09.09-.14.06-.09.35-.16.87-.21.52-.05.98-.02,1.39.07.4.09.78.05,1.13-.14.35-.18.95-.27,1.82-.27s1.39.05,1.56.14c.09.05.17.09.26.14-.03-.09-.06-.18-.09-.27-.03-.09-.06-.18-.09-.27.38.07.75.14,1.13.21.75.14,1.18.12,1.3-.07.12-.18.46-.27,1.04-.27s.9.07.95.21c.03.07.06.14.09.21.09-.02.17-.05.26-.07.04-.01.08-.02.11-.02-.03.01-.06.03-.08.04,0,0,.11,0,.31,0,.03.01.06.03.09.05.12.09.26.14.43.14h.26v-.21c.59-.01,1.39-.03,2.37-.04.19.06.47.07.84.04.18-.02.34-.04.46-.06.83,0,1.75-.02,2.74-.02.06.05.12.1.18.15.03-.05.06-.1.09-.15,2.85,0,6.24.01,9.75.1,9.17.23,47.59,2.32,56.75,2.09,9.17-.23,8.82-.7,9.98-1.04.39-.12.52-1.17.52-2.51h.06c-.02-.05-.04-.11-.07-.16,0-.55-.03-1.15-.07-1.75.09-.16.13-.28.13-.36v-.21ZM25.04,5.57c.17-.05.32-.02.43.07.06.05.12.09.17.14-.09.07-.17.14-.26.21-.09.07-.17.14-.26.21-.06-.09-.12-.18-.17-.27-.06-.09-.12-.18-.17-.27.09-.02.17-.05.26-.07ZM24.26,5.5h.17s-.06.09-.09.14c-.03.05-.06.09-.09.14-.03-.05-.06-.09-.09-.14-.03-.05-.06-.09-.09-.14h.17ZM22.7,5.5h.35v.69c-.09-.02-.17-.05-.26-.07-.17-.05-.29-.16-.35-.34-.03-.09-.06-.18-.09-.27h.35ZM16.8,4.95v-.14h.87v.27h-.87v-.14ZM15.41,4.81c.23,0,.38.07.43.21.03.07.06.14.09.21-.09.02-.17.05-.26.07-.17.05-.32-.02-.43-.21-.06-.09-.12-.18-.17-.27h.35ZM13.42,4.95c.06-.09.17-.14.35-.14h.26v.41c-.12-.02-.23-.05-.35-.07-.12-.02-.23-.05-.35-.07.03-.05.06-.09.09-.14ZM12.64,6.12v-.21h.35v.41h-.35v-.21ZM12.47,6.87v-.14h.52v.27h-.52v-.14ZM10.9,5.36v-.14c.14.05.29.09.43.14.14.05.29.09.43.14h-.87v-.14ZM8.56,6.46c-.06.09-.17.12-.35.07-.09-.02-.17-.05-.26-.07.03-.07.06-.14.09-.21.03-.07.06-.14.09-.21.09.05.17.09.26.14.17.09.23.18.17.27ZM7.61,5.64s.06.09.09.14c.03.05.06.09.09.14h-.25l.03-.2s.03-.05.05-.07ZM7.37,7.1c.08.06.16.12.24.19-.09.03-.18.06-.27.09l.04-.28ZM7.52,12.64h-.26s.06-.09.09-.14c.03-.05.06-.09.09-.14.06.05.12.09.17.14.06.05.12.09.17.14h-.26ZM8.04,8.11s-.06.09-.09.14c-.03-.05-.06-.09-.09-.14-.03-.05-.06-.09-.09-.14h.35s-.06.09-.09.14ZM9.08,8.04c-.4.05-.72-.07-.95-.34-.12-.14-.23-.27-.35-.41h.52c.35,0,.66.11.95.34.14.12.29.23.43.34-.2.02-.4.05-.61.07ZM9.34,6.6v-.55c.12.05.23.09.35.14.12.05.23.09.35.14-.12.05-.23.09-.35.14-.12.05-.23.09-.35.14ZM10.12,7.56h-.26v-.27c.09.05.17.09.26.14.09.05.17.09.26.14h-.26ZM10.38,5.5h-.35s.06-.09.09-.14c.03-.05.06-.09.09-.14.09.05.17.09.26.14.09.05.17.09.26.14h-.35ZM11.6,11.95v.14c-.09-.05-.17-.09-.26-.14-.09-.05-.17-.09-.26-.14h.52v.14ZM12.12,6.53c.12.14.17.27.17.41v.21h-.35c.03.11.06.23.09.34.03.12.06.23.09.34h-.69v-1.51h-.52c.03-.07.06-.14.09-.21.06-.14.29-.18.69-.14.2.02.4.05.61.07-.06.05-.12.09-.17.14-.12.09-.12.21,0,.34ZM12.99,12.23h-.35c.06-.09.12-.18.17-.27.06-.09.12-.18.17-.27.06.09.12.18.17.27.06.09.12.18.17.27h-.35ZM13.25,7.83c-.2.05-.4.09-.61.14-.03-.12-.06-.23-.09-.34-.03-.11-.06-.23-.09-.34h.43c.29,0,.46-.07.52-.21.03-.07.06-.14.09-.21.06.02.12.05.17.07.12.05.17.18.17.41s-.2.39-.61.48ZM14.11,6.12c-.14.02-.29.05-.43.07.03-.09.06-.18.09-.27.03-.09.06-.18.09-.27.12.07.23.14.35.21.12.07.23.14.35.21-.14.02-.29.05-.43.07ZM14.89,7.29h.52v.55h-.17c-.12,0-.2-.09-.26-.27-.03-.09-.06-.18-.09-.27ZM15.33,12.23h-.26v-.27c.09.05.17.09.26.14.09.05.17.09.26.14h-.26ZM16.11,7.29v.27c-.09-.02-.17-.05-.26-.07-.09-.02-.17-.05-.26-.07.03-.07.06-.14.09-.21.06-.14.14-.21.26-.21h.17v.27ZM15.41,6.12c-.12-.14-.12-.25,0-.34.12-.09.38-.16.78-.21.4-.05.98-.05,1.73,0,.75.05,1.16.12,1.21.21.03.05.06.09.09.14h-.69c.03.07.06.14.09.21.03.07.06.14.09.21h-.26c-.17,0-.32-.07-.43-.21-.12-.14-.38-.21-.78-.21s-.78.07-1.13.21c-.35.14-.58.14-.69,0ZM16.8,7.42v-.14h.26c.17,0,.32.07.43.21.06.07.12.14.17.21-.14-.02-.29-.05-.43-.07-.29-.05-.43-.11-.43-.21ZM18.19,12.02v.21c-.09-.07-.17-.14-.26-.21-.09-.07-.17-.14-.26-.21h.52v.21ZM18.88,7.29c0,.18-.09.3-.26.34-.09.02-.17.05-.26.07-.03-.07-.06-.14-.09-.21-.06-.14-.03-.25.09-.34.12-.09.23-.14.35-.14h.17v.27ZM19.4,6.6v.14h-.87s.06-.09.09-.14c.06-.09.2-.14.43-.14h.35v.14ZM19.57,5.78v-.27c.09.02.17.05.26.07.09.02.17.05.26.07-.09.02-.17.05-.26.07-.09.02-.17.05-.26.07ZM20.18,11.82h-.26s.06-.09.09-.14c.03-.05.06-.09.09-.14.06.05.12.09.17.14.06.05.12.09.17.14h-.26ZM20.61,5.71v-.21c.09.02.17.05.26.07.09.02.17.05.26.07-.03.05-.06.09-.09.14-.06.09-.14.14-.26.14h-.17v-.21ZM22.26,11.95c-.09.05-.17.09-.26.14.03-.07.06-.14.09-.21.03-.07.06-.14.09-.21.06.02.12.05.17.07.06.02.12.05.17.07-.09.05-.17.09-.26.14ZM23.22,6.94v.21h-.52c.03.07.06.14.09.21.03.07.06.14.09.21h-.61c-.4,0-.75-.09-1.04-.27-.14-.09-.29-.18-.43-.27h.78c.52,0,.81-.05.87-.14.06-.09.2-.14.43-.14h.35v.21ZM26.6,7.01c-.06.18-.32.3-.78.34-.23.02-.46.05-.69.07.03-.09.06-.18.09-.27.03-.09.06-.18.09-.27h-.35c-.23,0-.49.12-.78.34-.14.12-.29.23-.43.34.03-.16.06-.32.09-.48.06-.32.32-.53.78-.62.46-.09.92-.07,1.39.07.46.14.66.3.61.48ZM28.16,7.22c-.06.14-.14.21-.26.21s-.2-.12-.26-.34c-.06-.23-.17-.34-.35-.34h-.26c.06-.11.12-.23.17-.34.12-.23.23-.34.35-.34h.17v.34c0,.23.09.39.26.48.17.09.23.21.17.34ZM28.68,7.01h-.26v-.55h.17c.12,0,.2.09.26.27.03.09.06.18.09.27h-.26ZM31.02,7.01c-.12-.05-.23-.09-.35-.14-.23-.09-.43-.09-.61,0-.09.05-.17.09-.26.14-.06-.07-.12-.14-.17-.21-.12-.14-.12-.27,0-.41.12-.14.38-.14.78,0,.4.14.61.27.61.41v.21ZM31.02,5.09h-.35s.06-.09.09-.14c.03-.05.06-.09.09-.14.09.05.17.09.26.14.09.05.17.09.26.14h-.35ZM32.58,7.01h-.52v-.69c.09.02.17.05.26.07.17.05.26.16.26.34v.27ZM33.62,11.54v.14h-.52v-.27h.52v.14ZM35.18,6.05c0,.09-.14.23-.43.41-.14.09-.29.18-.43.27.03-.14.06-.27.09-.41.06-.27.2-.41.43-.41h.35v.14ZM35.01,5.5h-.17s.06-.09.09-.14c.03-.05.06-.09.09-.14.03.05.06.09.09.14.03.05.06.09.09.14h-.17ZM35.35,6.74v-.82h.35v.82h-.35ZM36.39,11.47c-.12.14-.23.21-.35.21s-.2-.12-.26-.34c-.03-.11-.06-.23-.09-.34.06.07.12.14.17.21.12.14.26.18.43.14.09-.02.17-.05.26-.07-.06.07-.12.14-.17.21ZM36.65,6.87c-.2-.05-.4-.09-.61-.14.09-.11.17-.23.26-.34.17-.23.35-.32.52-.27s.29.21.35.48c.03.14.06.27.09.41-.2-.05-.4-.09-.61-.14ZM38.13,6.94c-.06-.02-.12-.05-.17-.07.03-.05.06-.09.09-.14.03-.05.06-.09.09-.14.03.07.06.14.09.21.03.07.06.14.09.21-.06-.02-.12-.05-.17-.07ZM40.12,5.36s.06-.09.09-.14c.09.05.17.09.26.14.09.05.17.09.26.14h-.69s.06-.09.09-.14ZM40.55,6.32h-.35s.06-.09.09-.14c.03-.05.06-.09.09-.14.03.05.06.09.09.14.03.05.06.09.09.14ZM38.47,5.5s.06-.09.09-.14c.06-.09.2-.14.43-.14h.35v.27h-.87ZM39.08,6.74c-.03-.09-.06-.18-.09-.27h.43c.29,0,.52.07.69.21.09.07.17.14.26.21-.2.02-.4.05-.61.07-.4.05-.64-.02-.69-.21ZM41.51,11.47c-.03.07-.06.14-.09.21-.09-.07-.17-.14-.26-.21-.09-.07-.17-.14-.26-.21v.41h-.52c.03-.12.06-.23.09-.34.03-.11.06-.23.09-.34.17.05.35.09.52.14.17.05.35.09.52.14-.03.07-.06.14-.09.21ZM41.51,5.5h-.26s.06-.09.09-.14c.03-.05.06-.09.09-.14.06.05.12.09.17.14.06.05.12.09.17.14h-.26ZM42.46,6.19v-.14c.09.05.17.09.26.14.09.05.17.09.26.14h-.52v-.14ZM43.15,11.2v.21h-.26c-.17,0-.29-.07-.35-.21-.03-.07-.06-.14-.09-.21h.69v.21ZM44.89,5.5h.17s-.06.09-.09.14c-.03.05-.06.09-.09.14-.03-.05-.06-.09-.09-.14-.03-.05-.06-.09-.09-.14h.17ZM43.85,5.5h.17s-.06.09-.09.14c-.03.05-.06.09-.09.14-.03-.05-.06-.09-.09-.14-.03-.05-.06-.09-.09-.14h.17ZM44.98,11.54c-.2-.05-.4-.09-.61-.14.03-.05.06-.09.09-.14.06-.09.23-.12.52-.07.29.05.46.14.52.27.03.07.06.14.09.21-.2-.05-.4-.09-.61-.14ZM45.84,6.87c-.03-.09-.06-.18-.09-.27v.55h-.61c-.4,0-.66-.05-.78-.14-.12-.09-.26-.09-.43,0-.09.05-.17.09-.26.14v-.82c.26.05.52.09.78.14.52.09.81.09.87,0,.06-.09.23-.11.52-.07.14.02.29.05.43.07v-.41h.52v.21c0,.14.09.23.26.27.17.05.26.16.26.34v.27h-.69c-.46,0-.72-.09-.78-.27ZM46.97,11.75c-.46-.05-.75-.14-.87-.27-.06-.07-.12-.14-.17-.21.09-.05.17-.09.26-.14.17-.09.32-.14.43-.14h.17v.55c.12-.05.23-.09.35-.14.12-.05.23-.09.35-.14.03.09.06.18.09.27.03.09.06.18.09.27-.23-.02-.46-.05-.69-.07ZM48.36,11.54v.14h-.52v-.27h.52v.14ZM49.31,11.61c-.14.02-.29.05-.43.07v-.41c.14.05.29.09.43.14.14.05.29.09.43.14-.14.02-.29.05-.43.07ZM50.7,11.75c-.17-.05-.23-.16-.17-.34.03-.09.06-.18.09-.27.06.11.12.23.17.34.06.12.12.23.17.34-.09-.02-.17-.05-.26-.07ZM50.52,6.94c-.2-.07-.4-.14-.61-.21v.41h-.26c-.17,0-.35-.07-.52-.21-.09-.07-.17-.14-.26-.21v.41h-.17c-.12,0-.26-.12-.43-.34-.17-.23-.23-.41-.17-.55.06-.14.2-.21.43-.21h.35v.55c.43-.05.87-.09,1.3-.14.43-.05.87-.09,1.3-.14v.41h.17c.12,0,.23-.05.35-.14.06-.05.12-.09.17-.14.03.09.06.18.09.27.03.09.06.18.09.27-.2.02-.4.05-.61.07-.4.05-.81,0-1.21-.14ZM52.43,11.82c-.09-.09-.17-.18-.26-.27h.17c.12,0,.2.09.26.27.03.09.06.18.09.27-.09-.09-.17-.18-.26-.27ZM52.69,7.15c.06-.12.12-.23.17-.34.06-.12.12-.23.17-.34.09.09.17.18.26.27.09.09.17.18.26.27-.14.02-.29.05-.43.07-.14.02-.29.05-.43.07ZM53.64,12.09h-.43v-.69c.14.11.29.23.43.34.14.12.29.23.43.34h-.43ZM54.34,6.94c-.17.05-.29.02-.35-.07-.03-.05-.06-.09-.09-.14.12.02.23.05.35.07.12.02.23.05.35.07-.09.02-.17.05-.26.07ZM56.07,7.35c-.29.05-.49-.05-.61-.27-.06-.11-.12-.23-.17-.34.17.02.35.05.52.07.35.05.55.14.61.27.03.07.06.14.09.21-.14.02-.29.05-.43.07ZM58.67,11.82h-.26s.06-.09.09-.14c.03-.05.06-.09.09-.14.06.05.12.09.17.14.06.05.12.09.17.14h-.26ZM59.28,11.82h-.17s.06-.09.09-.14c.03-.05.06-.09.09-.14.03.05.06.09.09.14.03.05.06.09.09.14h-.17ZM60.32,7.35v.21h-.35v-.27c0-.18.12-.32.35-.41.23-.09.4-.14.52-.14h.17v.41h-.69v.21ZM61.19,11.54v.14h-.52v-.27h.52v.14ZM62.75,12.09h-.35c-.23,0-.4-.07-.52-.21-.06-.07-.12-.14-.17-.21.17.02.35.05.52.07.35.05.52.12.52.21v.14ZM62.66,7.29c-.17,0-.29-.07-.35-.21-.03-.07-.06-.14-.09-.21h.26c.17,0,.29.07.35.21.03.07.06.14.09.21h-.26ZM170.91,5.78c-.37.02-.73.04-1.1.07-.72.04-1.14,0-1.28-.12.77.02,1.56.03,2.38.05ZM169.21,6.32h-.35s.06-.09.09-.14c.03-.05.06-.09.09-.14.03.05.06.09.09.14.03.05.06.09.09.14ZM167.3,5.98c.06.02.12.05.17.07-.06.05-.12.09-.17.14-.12.09-.35.14-.69.14h-.52v-.14c0-.09.17-.16.52-.21.35-.05.58-.05.69,0ZM166.66,5.68s.02.01.03.02c.09.07.17.14.26.21h-.35c-.23,0-.43-.07-.61-.21-.02-.01-.04-.03-.06-.04.24,0,.48.01.72.02ZM164.14,5.63c-.15.05-.28.13-.39.22-.14.12-.29.23-.43.34-.17-.14-.35-.27-.52-.41-.08-.06-.15-.12-.23-.18.51.01,1.03.02,1.58.03ZM161.23,5.84c.12-.07.23-.14.35-.21-.02-.02-.04-.05-.06-.07.25,0,.5.01.76.02v.12c0,.23-.12.37-.35.41-.23.05-.46.05-.69,0-.12-.02-.23-.05-.35-.07.12-.07.23-.14.35-.21ZM156.55,5.64v-.18c.45.01.97.02,1.56.03v.28c.17-.02.35-.05.52-.07.17-.02.35-.05.52-.07v.27h-2.6v-.27ZM155.41,5.43c-.08.03-.14.08-.16.13-.03.07-.06.14-.09.21-.03-.07-.06-.14-.09-.21-.03-.06-.08-.11-.16-.15.14,0,.3,0,.49.01ZM150.83,6.19v-.14h1.56v.27h-1.56v-.14ZM149.27,6.19v-.14h1.04v.27h-1.04v-.14ZM146.49,6.46v-.14c.35.02.69.05,1.04.07.35.02.69.05,1.04.07-.35.02-.69.05-1.04.07-.35.02-.69.05-1.04.07v-.14ZM144.93,6.46v-.14h.52v.27h-.52v-.14ZM135.83,6.32h.78v.27h-.69c-.46,0-.72-.05-.78-.14-.03-.05-.06-.09-.09-.14h.78ZM134.53,6.32h.17s-.06.09-.09.14c-.03.05-.06.09-.09.14-.03-.05-.06-.09-.09-.14-.03-.05-.06-.09-.09-.14h.17ZM130.71,6.19v-.14h.61c.4,0,.64.05.69.14.03.05.06.09.09.14h-1.39v-.14ZM129.93,6.19s.06-.09.09-.14c.09.05.17.09.26.14.09.05.17.09.26.14h-.69s.06-.09.09-.14ZM128.37,6.19s.06-.09.09-.14c.09.05.17.09.26.14.09.05.17.09.26.14h-.69s.06-.09.09-.14ZM103.32,7.42v-.14h.52v.27h-.52v-.14ZM102.11,7.42v-.14h.52v.27h-.52v-.14ZM69.16,6.8c.06-.12.12-.23.17-.34.03.12.06.23.09.34.03.11.06.23.09.34h-.52c.06-.12.12-.23.17-.34ZM68.38,7.56c.03-.09.06-.18.09-.27.06.05.12.09.17.14.12.09.38.14.78.14h.61v.41c-.29-.02-.58-.05-.87-.07-.29-.02-.58-.05-.87-.07.03-.09.06-.18.09-.27ZM67.78,6.6c-.06.07-.12.14-.17.21-.12.14-.23.18-.35.14-.12-.05-.14-.14-.09-.27.03-.07.06-.14.09-.21.09.02.17.05.26.07.09.02.17.05.26.07ZM66.74,5.64v-.14c.09.02.17.05.26.07.09.02.17.05.26.07-.09.02-.17.05-.26.07-.09.02-.17.05-.26.07v-.14ZM66.74,7.29h.43c.29,0,.49.09.61.27.06.09.12.18.17.27-.2-.05-.4-.09-.61-.14-.4-.09-.61-.18-.61-.27v-.14ZM64.65,7.42v-.14h.52v.27h-.52v-.14ZM63.18,6.26c-.03-.12-.06-.23-.09-.34h.52c-.06.11-.12.23-.17.34-.06.11-.12.23-.17.34-.03-.11-.06-.23-.09-.34ZM63.87,11.89c-.03.07-.06.14-.09.21-.06-.07-.12-.14-.17-.21-.06-.07-.12-.14-.17-.21h.52c-.03.07-.06.14-.09.21ZM63.61,7.42v-.27c.12.02.23.05.35.07.12.02.23.05.35.07-.12.02-.23.05-.35.07-.12.02-.23.05-.35.07ZM64.83,12.16c-.17-.02-.35-.05-.52-.07.06-.11.12-.23.17-.34.06-.11.12-.23.17-.34.12.14.23.27.35.41.12.14.23.27.35.41-.17-.02-.35-.05-.52-.07ZM65.61,6.32c.06-.18.17-.27.35-.27h.26v.14c0,.09-.12.18-.35.27-.12.05-.23.09-.35.14.03-.09.06-.18.09-.27ZM69.51,12.16v.34h-.35c-.23,0-.4-.07-.52-.21-.06-.07-.12-.14-.17-.21v.41h-.35c-.23,0-.46-.07-.69-.21-.12-.07-.23-.14-.35-.21-.06.07-.12.14-.17.21-.06.07-.12.14-.17.21-.03-.09-.06-.18-.09-.27-.06-.18-.23-.25-.52-.21-.14.02-.29.05-.43.07.06-.09.12-.18.17-.27.12-.18.46-.21,1.04-.07.58.14,1.16.18,1.73.14.29-.02.58-.05.87-.07v.34ZM72.11,12.57c-1.39-.05-2.14-.18-2.25-.41-.06-.12-.12-.23-.17-.34.72.02,1.44.05,2.17.07,1.44.05,2.2.18,2.25.41.03.11.06.23.09.34-.69-.02-1.39-.05-2.08-.07ZM75.32,12.64h-.95v-.55c.12.02.23.05.35.07.23.05.38.02.43-.07.06-.09.23-.14.52-.14s.46.11.52.34c.03.11.06.23.09.34h-.95ZM77.4,12.57c-.32-.02-.64-.05-.95-.07.03-.07.06-.14.09-.21.06-.14.2-.23.43-.27.23-.05.52.05.87.27.17.11.35.23.52.34-.32-.02-.64-.05-.95-.07ZM77.66,7.7c-.23.18-.87.25-1.91.21-1.04-.05-1.56-.14-1.56-.27v-.21c-.43.02-.87.05-1.3.07-.87.05-1.47.05-1.82,0-.35-.05-.52-.14-.52-.27v-.21h-.52v-.55h.52v.41h1.04v.41c.09-.09.17-.18.26-.27.17-.18.58-.27,1.21-.27h.95v.27c.14-.02.29-.05.43-.07.29-.05.46-.02.52.07.03.05.06.09.09.14.06-.05.12-.09.17-.14.12-.09.43-.09.95,0,.26.05.52.09.78.14v-.27h1.3c.87,0,1.36.07,1.47.21.12.14.43.18.95.14.26-.02.52-.05.78-.07-.03.07-.06.14-.09.21-.03.07-.06.14-.09.21.12-.07.23-.14.35-.21.12-.07.23-.14.35-.21.03.14.06.27.09.41.03.14.06.27.09.41-.26-.05-.52-.09-.78-.14-.52-.09-1.07-.09-1.65,0-.58.09-1.01.05-1.3-.14-.29-.18-.55-.18-.78,0ZM80.09,12.57c-1.04-.05-1.56-.12-1.56-.21v-.14h1.04c.69,0,1.07-.05,1.13-.14.03-.05.06-.09.09-.14.14.11.29.23.43.34.14.11.29.23.43.34-.52-.02-1.04-.05-1.56-.07ZM83.03,12.44v.21h-1.21c.03-.11.06-.23.09-.34.03-.12.06-.23.09-.34.09.02.17.05.26.07.09.02.17.05.26.07-.03.05-.06.09-.09.14-.03.05-.06.09-.09.14.12-.02.23-.05.35-.07.12-.02.23-.05.35-.07v.21ZM83.55,7.83c-.58-.09-.87-.21-.87-.34v-.21h.78c.52,0,.81.11.87.34.03.12.06.23.09.34-.29-.05-.58-.09-.87-.14ZM84.51,12.64h-.26v-.41c.09.07.17.14.26.21.09.07.17.14.26.21h-.26ZM87.89,12.37c0,.09-.49.16-1.47.21-.49.02-.98.05-1.47.07.06-.07.12-.14.17-.21.12-.14.61-.21,1.47-.21h1.3v.14ZM85.29,8.38v-.27h.52v.27h-.52ZM88.32,12.64h-.26s.06-.09.09-.14c.03-.05.06-.09.09-.14.06.05.12.09.17.14.06.05.12.09.17.14h-.26ZM89.36,12.64h-.26c.06-.07.12-.14.17-.21.06-.07.12-.14.17-.21.03.07.06.14.09.21.03.07.06.14.09.21h-.26ZM88.76,7.97h-3.99c.03-.07.06-.14.09-.21.06-.14,1.24-.21,3.55-.21s3.5-.05,3.55-.14c.06-.09.29-.14.69-.14s.69.05.87.14c.09.05.17.09.26.14.03-.05.06-.09.09-.14.03-.05.06-.09.09-.14.09.05.17.09.26.14.09.05.17.09.26.14.03-.05.06-.09.09-.14.06-.09.32-.16.78-.21.46-.05,1.44-.07,2.95-.07s2.46.02,2.86.07c.4.05.61.12.61.21v.14h-2.86c-1.91,0-3.01.05-3.29.14-.29.09-.52.09-.69,0-.09-.05-.17-.09-.26-.14-.03.05-.06.09-.09.14-.06.09-.23.14-.52.14s-.52-.05-.69-.14c-.09-.05-.17-.09-.26-.14-.06.07-.12.14-.17.21-.12.14-1.5.21-4.16.21ZM95.86,8.11v.27h-.87s.06-.09.09-.14c.06-.09.2-.14.43-.14h.35ZM90.49,12.44v.21c-.12-.02-.23-.05-.35-.07-.12-.02-.23-.05-.35-.07.03-.05.06-.09.09-.14.06-.09.17-.14.35-.14h.26v.21ZM90.49,8.52v-.14c.23.02.46.05.69.07.23.02.46.05.69.07-.23.02-.46.05-.69.07-.23.02-.46.05-.69.07v-.14ZM93.35,12.5c-.17.09-.64.14-1.39.14s-1.16-.07-1.21-.21c-.03-.07-.06-.14-.09-.21h.52c.35,0,.55-.05.61-.14.03-.05.06-.09.09-.14.12.07.23.14.35.21.23.14.52.21.87.21h.52c-.09.05-.17.09-.26.14ZM94.3,8.25v.14h-.52v-.27h.52v.14ZM94.48,8.38s.06-.09.09-.14c.03-.05.06-.09.09-.14.03.05.06.09.09.14.03.05.06.09.09.14h-.35ZM99.33,12.64c0,.09-.61.16-1.82.21-1.21.05-1.91.02-2.08-.07s-.32-.09-.43,0c-.06.05-.12.09-.17.14v-.69c.58.02,1.16.05,1.73.07,1.16.05,1.76.11,1.82.21.06.09.23.12.52.07.14-.02.29-.05.43-.07v.14ZM105.4,12.71v.21h-5.89v-.41c.38.02.75.05,1.13.07.75.05,1.18,0,1.3-.14.06-.07.12-.14.17-.21.06.07.12.14.17.21.12.14.29.16.52.07.23-.09.43-.09.61,0,.17.09.55.12,1.13.07.29-.02.58-.05.87-.07v.21ZM106.44,12.98c-.17-.02-.35-.05-.52-.07.09-.07.17-.14.26-.21.17-.14.32-.21.43-.21s.2.09.26.27c.03.09.06.18.09.27-.17-.02-.35-.05-.52-.07ZM108.61,13.05h-.43s.06-.09.09-.14c.03-.05.06-.09.09-.14.12.05.23.09.35.14.12.05.23.09.35.14h-.43ZM112.16,12.85v.21c-.23-.02-.46-.05-.69-.07-.46-.05-.69-.12-.69-.21v-.14h1.39v.21ZM112.68,12.85v.21h-.35v-.41h.35v.21ZM115.98,12.98c-.12-.02-.23-.05-.35-.07.03-.05.06-.09.09-.14.03-.05.06-.09.09-.14.09.07.17.14.26.21.09.07.17.14.26.21-.12-.02-.23-.05-.35-.07ZM117.8,13.12c-.2-.02-.4-.05-.61-.07.03-.05.06-.09.09-.14.06-.09.23-.14.52-.14s.46.07.52.21c.03.07.06.14.09.21-.2-.02-.4-.05-.61-.07ZM120.4,13.12c-.06.14-.35.18-.87.14-.26-.02-.52-.05-.78-.07.2-.07.4-.14.61-.21.4-.14.69-.18.87-.14.09.02.17.05.26.07-.03.07-.06.14-.09.21ZM121.18,13.46h-.35v-.41h.26c.17,0,.29.07.35.21.03.07.06.14.09.21h-.35ZM136.18,13.33s-.06.09-.09.14c-.03-.07-.06-.14-.09-.21-.03-.07-.06-.14-.09-.21.06.02.12.05.17.07.06.02.12.05.17.07-.03.05-.06.09-.09.14ZM142.59,13.46h-.26s.06-.09.09-.14c.03-.05.06-.09.09-.14.06.05.12.09.17.14.06.05.12.09.17.14h-.26ZM170.77,8.59c0,.14-.06.25-.17.34-.12.09-.38.09-.78,0-.4-.09-.72-.09-.95,0-.23.09-.49.09-.78,0-.14-.05-.29-.09-.43-.14v.41h-1.04c-.69,0-1.18-.09-1.47-.27-.14-.09-.29-.18-.43-.27-.06.07-.12.14-.17.21-.12.14-.29.18-.52.14-.23-.05-.38-.02-.43.07-.06.09-.14.14-.26.14h-.17v-.41c-.12.02-.23.05-.35.07-.23.05-.38.14-.43.27-.03.07-.06.14-.09.21-.17-.05-.35-.09-.52-.14-.35-.09-.66-.05-.95.14-.29.18-.61.23-.95.14-.35-.09-.64-.09-.87,0-.23.09-.4.07-.52-.07-.06-.07-.12-.14-.17-.21-.03.05-.06.09-.09.14-.06.09-.26.14-.61.14s-.58.07-.69.21c-.12.14-.69.16-1.73.07-1.04-.09-1.62-.09-1.73,0-.12.09-.58.16-1.39.21-.81.05-1.36,0-1.65-.14-.29-.14-.64-.16-1.04-.07-.4.09-.78.07-1.13-.07-.35-.14-.98-.18-1.91-.14-.92.05-1.44,0-1.56-.14-.06-.07-.12-.14-.17-.21-.06.07-.12.14-.17.21-.12.14-.32.21-.61.21s-.46-.05-.52-.14c-.06-.09-.98-.12-2.77-.07-1.79.05-2.75,0-2.86-.14-.06-.07-.12-.14-.17-.21-.12.07-.23.14-.35.21-.23.14-.72.21-1.47.21s-1.18-.05-1.3-.14c-.06-.05-.12-.09-.17-.14-.03.05-.06.09-.09.14-.06.09-.49.14-1.3.14s-1.27-.05-1.39-.14c-.06-.05-.12-.09-.17-.14-.06.05-.12.09-.17.14-.12.09-.38.07-.78-.07-.4-.14-.66-.14-.78,0-.12.14-.38.16-.78.07-.4-.09-.69-.09-.87,0-.17.09-.35.09-.52,0-.17-.09-.32-.09-.43,0-.12.09-.29.09-.52,0-.23-.09-.4-.09-.52,0-.06.05-.12.09-.17.14-.03-.05-.06-.09-.09-.14-.06-.09-1.44-.16-4.16-.21-2.72-.05-4.1-.11-4.16-.21-.03-.05-.06-.09-.09-.14-.06.05-.12.09-.17.14-.12.09-.29.09-.52,0-.23-.09-1.01-.14-2.34-.14s-2.14.05-2.43.14c-.29.09-.46.09-.52,0-.06-.09-.52-.16-1.39-.21-.87-.05-3.06-.07-6.59-.07h-5.29v-.27h-1.56v-.41h3.03c2.02,0,3.06-.05,3.12-.14.06-.09.23-.09.52,0,.29.09.55.09.78,0,.23-.09,1.27-.09,3.12,0,1.85.09,2.8.09,2.86,0,.06-.09.23-.14.52-.14s.46.05.52.14c.06.09.32.14.78.14h.69v-.27h.26c.17,0,.29.05.35.14.06.09.23.14.52.14h.43v-.27h.87v.14c0,.09.55.16,1.65.21,1.1.05,3.44.07,7.02.07s5.4.05,5.46.14c.06.09,1.76.18,5.11.27,3.35.09,5.75.09,7.2,0,1.44-.09,3.06-.11,4.85-.07,1.79.05,2.83,0,3.12-.14.29-.14.49-.16.61-.07.06.05.12.09.17.14.06-.05.12-.09.17-.14.12-.09.43-.14.95-.14s.87.07,1.04.21c.17.14.46.21.87.21s.75-.09,1.04-.27c.29-.18.61-.27.95-.27s.55.07.61.21c.06.14.43.16,1.13.07.69-.09,1.07-.05,1.13.14.06.18.14.27.26.27h.17s-.06-.09-.09-.14c-.03-.05-.06-.09-.09-.14h.69v-.14c0-.09.2-.16.61-.21.4-.05.64-.02.69.07.03.05.06.09.09.14.06-.05.12-.09.17-.14.06-.05.12-.09.17-.14v.27c.23-.02.46-.05.69-.07.46-.05.75-.02.87.07.12.09.29.09.52,0,.23-.09.4-.07.52.07.12.14,1.42.18,3.9.14,1.24-.02,2.49-.05,3.73-.07v.21ZM171.03,6.46c-.29.09-.49.05-.61-.14-.06-.09-.12-.18-.17-.27.12-.04.23-.09.35-.14.11-.05.23-.09.34-.14.14,0,.27,0,.41,0,0,.04.02.08.03.13.06.27-.06.46-.35.55ZM171.55,4.81c-.06,0-.11,0-.17,0,0,0,0,0,0,0-.03-.05-.06-.09-.09-.14h.35s-.06.09-.09.14c0,0,0,0,0,0ZM172.5,8.66c0,.09-.14.18-.43.27-.14.05-.29.09-.43.14.03-.09.06-.18.09-.27.06-.18.2-.27.43-.27h.35v.14ZM175.45,8.66v.14h-.87v-.27h.87v.14ZM175.36,5.98c-.29.14-.72.14-1.3,0-.58-.14-1.01-.16-1.3-.07-.28.09-.58.05-.91-.12,1.2.03,2.44.05,3.72.08-.07.03-.14.07-.21.1ZM177.7,8.66v.14h-1.21v-.27h1.21v.14ZM177.62,5.98c-.17-.05-.46,0-.87.14-.4.14-.66.11-.78-.07-.03-.05-.07-.11-.1-.16.68.01,1.38.03,2.09.05-.1.07-.21.08-.34.05ZM178.4,6.05h-.17v-.11c.14,0,.27,0,.41,0-.06.07-.13.1-.23.1ZM181.86,8.59c-.23.05-.38.02-.43-.07-.03-.05-.06-.09-.09-.14.14.02.29.05.43.07.14.02.29.05.43.07-.12.02-.23.05-.35.07ZM184.46,8.25c0,.09-.17.21-.52.34-.17.07-.35.14-.52.21v-.69h1.04v.14ZM185.16,8.52c-.12.18-.23.27-.35.27h-.17v-.69c.12.02.23.05.35.07.12.02.23.05.35.07-.06.09-.12.18-.17.27ZM186.02,8.32v.21c-.09-.07-.17-.14-.26-.21-.09-.07-.17-.14-.26-.21h.52v.21ZM187.06,6.19v-.06c.18,0,.36,0,.54.01-.18.02-.36.03-.54.05ZM187.76,8.25v.14h-.52v-.27h.52v.14ZM189.58,8.45c-.2-.02-.4-.05-.61-.07.03-.05.06-.09.09-.14.06-.09.23-.14.52-.14s.46.07.52.21c.03.07.06.14.09.21-.2-.02-.4-.05-.61-.07ZM190.71,8.38h-.17s.06-.09.09-.14.06-.09.09-.14c.03.05.06.09.09.14s.06.09.09.14h-.17ZM195.3,8.18c-.09.02-.17.05-.26.07v-.27c.09.02.17.05.26.07.09.02.17.05.26.07-.09.02-.17.05-.26.07ZM203.1,7.97h-.26v-.27c.09.05.17.09.26.14.09.05.17.09.26.14h-.26ZM204.4,7.97h-.17s.06-.09.09-.14c.03-.05.06-.09.09-.14.03.05.06.09.09.14.03.05.06.09.09.14h-.17ZM236.65,8.18v.21c-.09-.07-.17-.14-.26-.21-.09-.07-.17-.14-.26-.21h.52v.21ZM241.51,8.38c-.12,0-.24.02-.36.03-.03-.04-.05-.09-.07-.16-.03-.09-.06-.18-.09-.27.09.02.17.05.26.07.17.05.26.14.26.27v.06ZM243.18,8.25s-.02-.09-.03-.14c-.03-.14-.06-.27-.09-.41.17.05.35.09.52.14.34.09.54.2.6.33-.34.03-.67.05-1.01.08ZM245.18,8.09s-.02-.08-.03-.12h.69c.46,0,.72-.05.78-.14.03-.05.06-.09.09-.14.06.07.12.14.17.21.02.02.04.04.07.06-.59.04-1.18.09-1.77.13ZM250.35,7.71c-.17.01-.33.02-.5.04.06-.03.14-.05.24-.05h.26Z"/></g></svg>