<?xml version="1.0" encoding="UTF-8"?><svg id="Layer_2" xmlns="http://www.w3.org/2000/svg" viewBox="0 0 785.84 244.86"><defs><style>.cls-1{letter-spacing:0em;}.cls-2{letter-spacing:-.02em;}.cls-3{letter-spacing:-.02em;}.cls-4{letter-spacing:-.02em;}.cls-5{letter-spacing:-.03em;}.cls-6{letter-spacing:-.06em;}.cls-7{letter-spacing:-.01em;}.cls-8{fill:#b11fff;stroke-width:0px;}.cls-9{letter-spacing:0em;}.cls-10{letter-spacing:-.02em;}.cls-11{letter-spacing:-.02em;}.cls-12{letter-spacing:.04em;}.cls-13{font-family:Montserrat-SemiBold, Montserrat;font-size:58.24px;font-weight:600;}.cls-13,.cls-14{fill:#0e0e30;}.cls-15{letter-spacing:0em;}.cls-16{letter-spacing:-.02em;}.cls-14{font-family:Montserrat-ExtraBold, Montserrat;font-size:91.31px;font-weight:700;}.cls-17{letter-spacing:0em;}.cls-18{letter-spacing:0em;}.cls-19{letter-spacing:-.02em;}.cls-20{letter-spacing:.01em;}.cls-21{letter-spacing:0em;}.cls-22{letter-spacing:0em;}.cls-23{letter-spacing:-.02em;}.cls-24{letter-spacing:-.03em;}.cls-25{letter-spacing:0em;}.cls-26{letter-spacing:0em;}</style></defs><g id="Type_treatment"><path class="cls-8" d="M241.74,33.12c.21,2-.03,4.14-.26,6.2-.08,1.48-1.13,6.21.7,6.2,1.12-.53,1.6-2.41,1.91-3.64,1.11-5.38,2.58-13.88-3.09-17.08-5.5-3.18-11.64.43-16.8,2.7-1.62.81-3.44,1.8-4.4,1.53-2.71-.83,2-10.17,2.78-12.04,1.71-4.07,4.79-7.82,5.28-12.26-.8-14.44-23.3,8.39-27.08,12.13-1.4,1.36-2.86,2.64-4.33,3.92-4.06,3.42-7.37,7.58-10.65,11.76-1,1.31-2.04,2.66-2.71,4.16-.88,1.9-.6,3.84,1.52,2.49,3.35-2.75,6.09-6.4,9.19-9.44,2.11-2.17,4.18-4.27,6.26-6.4,5.31-5.15,10.89-10.1,16.81-14.56,2.26-1.77,7.29-5.58,4.47.38-3.16,6.8-7.97,13.51-7.62,21.3.4,4.86,4.34,4.65,7.75,2.66,3.53-1.88,7.1-3.81,10.93-4.87,4.21-1.3,8.9-.44,9.31,4.72v.12Z"/><path class="cls-8" d="M243.06,56.45c-.94.57-1.95.83-3.09.78-.8-.11-1.44-.91-1.95-2.51-.39-1.3-.77-2.67-1.13-3.98-.49-1.78-1-3.62-1.57-5.39-.23-.94-.7-1.84-1.16-2.72-.6-1.15-1.16-2.23-1.17-3.37.08-.46.28-.79.59-.98.37-.23.93-.26,1.54-.09.88.24,1.69.85,2.07,1.55.85,1.29,1.27,2.75,1.71,4.29.17.61.35,1.22.55,1.81.54,1.83,1.23,2.78,2.1,2.88h.07c.3.04.6-.04.89-.21.54-.33,1.07-1,1.7-2.18.94-1.73,1.81-3.26,3.02-4.49.4-.46.82-.82,1.27-1.09,1.04-.63,2.15-.74,2.89-.28.7.44,1.03,1.37.93,2.62-.24,1.01-.96,1.79-1.73,2.62-.63.68-1.28,1.39-1.72,2.27-.28.52-.57,1.09-.86,1.68-1.28,2.55-2.72,5.44-4.94,6.78Z"/><text class="cls-14" transform="translate(1.28 136.95)"><tspan class="cls-25" x="0" y="0">I</tspan><tspan class="cls-7" x="30.2" y="0">D</tspan><tspan class="cls-18" x="104.6" y="0">E</tspan><tspan class="cls-26" x="166.5" y="0">A</tspan><tspan x="238.71" y="0">S</tspan></text><text class="cls-13" transform="translate(.52 51.47)"><tspan class="cls-6" x="0" y="0">Y</tspan><tspan class="cls-11" x="35.01" y="0">O</tspan><tspan class="cls-2" x="82.79" y="0">U</tspan><tspan x="127.38" y="0">R</tspan></text><text class="cls-13" transform="translate(311.25 127.48)"><tspan class="cls-1" x="0" y="0">C</tspan><tspan class="cls-16" x="42.18" y="0">A</tspan><tspan x="84.89" y="0">N </tspan><tspan class="cls-19" x="148.14" y="0">S</tspan><tspan class="cls-16" x="183.89" y="0">HA</tspan><tspan class="cls-5" x="272.86" y="0">P</tspan><tspan x="313.14" y="0">E</tspan></text><text class="cls-13" transform="translate(0 201.08)"><tspan class="cls-10" x="0" y="0">O</tspan><tspan class="cls-3" x="47.78" y="0">U</tspan><tspan class="cls-17" x="92.37" y="0" xml:space="preserve">R    </tspan><tspan class="cls-24" x="199.24" y="0">C</tspan><tspan class="cls-4" x="240.05" y="0">I</tspan><tspan class="cls-12" x="257.4" y="0">T</tspan><tspan class="cls-20" x="294.53" y="0">Y</tspan><tspan class="cls-15" x="333.86" y="0">’</tspan><tspan x="348.14" y="0">S</tspan></text><path class="cls-8" d="M161.42,182.45c-.32-.36-.78-.31-1.18-.36-1.68-.21-3.37-.36-5.05-.56-1.2-.14-2.4-.32-3.6-.5-.3-.04-.6-.14-.86-.27-.44-.22-.73-.88-.65-1.37.05-.3.09-.61.19-.89.18-.49.5-.79,1.07-.82.91-.05,1.82.02,2.71.16.36.05.71.18,1.07.2,2.12.11,4.24.17,6.36.3,1.27.08,2.53.26,3.8.36.54.04.74-.22.68-.8-.31-2.76-.88-5.48-1.5-8.18-.62-2.7-1.49-5.36-2.88-7.8-.46-.8-.35-1.09.49-1.57,1.04-.6,1.42-.59,2.28.14.46.39.84.84,1.15,1.38.89,1.52,1.66,3.11,2.3,4.74.59,1.5,1.25,3.01,1.45,4.65.02.17.06.4.31.36.16-.02.36-.1.46-.22.39-.48.6-1.04.82-1.61.72-1.8,1.44-3.59,2.37-5.29.35-.63.58-1.33.85-2.01.32-.79.67-1.56,1.22-2.23.38-.46.83-.64,1.44-.54.91.15,1.32.59,1.09,1.49-.43,1.76-.79,3.55-1.59,5.21-.34.71-.65,1.44-.88,2.19-.47,1.57-1.14,3.05-1.85,4.52-.34.7-.56,1.45-.84,2.17.22.25.46.18.67.06,1.86-1.14,3.8-2.11,5.8-2.99.71-.32,1.33-.84,2.04-1.18,1.25-.61,2.52-1.18,3.81-1.71.62-.26,1.29-.33,1.97-.24.78.11,1.18.72.86,1.44-.43.95-1.05,1.76-1.94,2.35-2.32,1.53-4.73,2.92-7.16,4.27-.95.52-1.85,1.14-2.76,1.72-.16.1-.24.28-.11.46.07.09.16.2.26.23.17.06.35.07.53.1,2.34.31,4.69.61,7.02.94,1.26.18,2.51.41,3.77.63,1.03.18,1.97.59,2.85,1.16.35.23.47.54.35.94-.17.59-.53.93-.99.89-2.17-.18-4.34-.38-6.51-.54-1.33-.09-2.66-.12-4-.15-.97-.02-1.93-.09-2.89-.23-1.14-.16-2.29-.2-3.44-.29-.65-.05-1.03.3-1.01.97.01.42.04.86.17,1.26.43,1.23.46,2.5.54,3.77.08,1.15.26,2.28.5,3.41.23,1.12.34,2.27.49,3.4.05.38-.04.8-.49.84-.56.05-.94.49-1.4.69-.69-.81-1.34-1.53-1.93-2.29-.29-.38-.58-.81-.69-1.27-.46-1.81-1.36-3.51-1.41-5.43,0-.19-.11-.39-.31-.34-.14.03-.32.19-.36.34-.69,2.12-1.46,4.22-1.99,6.37-.47,1.92-1.05,3.84-.9,5.88.07.96-.02.97-1.06,1.28-.22.07-.44.16-.69.24-.21-.28-.35-.57-.58-.75-1.21-.95-1.31-2.26-1.14-3.62.2-1.62.43-3.24.93-4.81.46-1.44.83-2.9,1.23-4.36.07-.26-.16-.45-.43-.39-.49.11-.88.35-1.24.72-1.22,1.27-2.77,2.14-4.13,3.24-.09.07-.22.11-.31.19-1.34,1.04-2.69,2.06-3.99,3.15-.91.76-1.82,1.52-2.45,2.6-.66,1.12-2.22,1.08-3.1.11-.23-.25-.3-.5-.29-.82.05-1.45.52-2.75,1.56-3.78,1.89-1.88,3.72-3.82,5.95-5.32.66-.44,1.11-1.1,1.77-1.56,1.68-1.18,3.29-2.45,4.92-3.7.23-.18.47-.38.47-.73Z"/><text class="cls-14" transform="translate(402.11 213.52)"><tspan class="cls-21" x="0" y="0">F</tspan><tspan class="cls-23" x="57.73" y="0">UT</tspan><tspan class="cls-9" x="184.44" y="0">U</tspan><tspan class="cls-22" x="255.58" y="0">R</tspan><tspan x="322.36" y="0">E</tspan></text><path class="cls-8" d="M673.13,241.07c.69-.78.72-1.15.09-1.27-3.58-.67-7.08-1.68-10.69-2.21-3.07-.45-6.1-1.16-9.15-1.76-.41-.08-.83-.24-1.23-.2-2.44.22-4.75-.54-7.1-.91-3.07-.49-6.19-.68-9.25-1.15-4.11-.63-8.25-1.01-12.37-1.52-6.39-.8-12.81-1.46-19.22-2.05-4.54-.42-9.12-.48-13.65-.98-3.11-.34-6.22-.43-9.33-.54-2.8-.1-5.6-.3-8.4-.39-5.5-.17-11-.46-16.5-.54-4.57-.07-9.13.11-13.7.13-2.29,0-4.57-.19-6.86-.15-5.39.1-10.79.28-16.18.43-1.86.05-3.72.13-5.59.14-2.38.01-4.78.09-7.15-.07-4.39-.29-8.67.66-13.02.86-3.53.17-7.05.37-10.58.55-3.32.17-6.65.22-9.95.56-2.28.23-4.56.21-6.84.35-3.93.24-7.87.53-11.8.74-7.35.39-14.69.73-22.04,1.12-1.14.06-2.27.26-3.4.38-.51.05-1.06.2-1.54.09-2.28-.51-4.58-.15-6.85-.04-2.3.11-4.55-.3-6.85-.17-1.45.08-2.98-.64-4.4-1.18-1.22-.46-1.56-1.19-1.35-2.48.13-.81.42-1.61.71-2.38.23-.61.66-.98,1.38-1.08,1.95-.29,3.88-.68,5.83-.99,7.18-1.13,14.36-2.24,21.55-3.34,1.02-.16,2.06-.18,3.09-.31,4.42-.57,8.84-1.16,13.27-1.73,4.84-.63,9.66-1.34,14.53-1.78,6.52-.59,13.02-1.46,19.53-2.14,3.61-.38,7.23-.73,10.84-1.04,3.41-.29,6.82-.64,10.23-.92,4.45-.35,8.91-.66,13.37-.97,4.14-.29,8.28-.59,12.43-.81,5.5-.29,11.01-.54,16.52-.74,5.51-.2,11.02-.37,16.52-.48,6.14-.12,12.28-.08,18.41-.26,5.3-.16,10.6.21,15.91.03,2.77-.09,5.61-.16,8.41.27,1.33.2,2.7.07,4.06.09,8.64.13,17.26.67,25.88,1.08,3.42.16,6.84.43,10.26.61,5.29.28,10.56.86,15.83,1.42,4.86.52,9.68,1.47,14.6,1.49,1.76,0,3.52.39,5.27.65,7.63,1.14,15.29,2.08,22.86,3.51,5.2.98,10.44,1.83,15.6,3.07,4.14.99,8.34,1.8,12.5,2.73,2.54.56,5.07,1.14,7.6,1.77,5.35,1.33,10.69,2.74,16.05,4.02,2.12.51,4.29.84,6.5.83,1.04,0,2.07.14,3.11.22.5.04.82.39.79.79-.03.36-.29.91-.59,1.01-.77.28-1.61.51-2.42.51-2.18,0-4.39.02-6.55-.25-5.68-.72-11.35-1.52-16.95-2.83-5.17-1.2-10.41-2.15-15.58-3.31-4.57-1.03-9.23-1.57-13.76-2.8-2.7-.74-5.53-1.03-8.31-1.43-7.43-1.07-14.84-2.3-22.29-3.07-7.45-.76-14.87-1.87-22.35-2.3-4.98-.29-9.94-.82-14.92-1.19-2.49-.18-4.98-.25-7.47-.37-3.12-.15-6.23-.32-9.35-.45-2.8-.12-5.61-.22-8.41-.28-2.07-.04-4.15.06-6.22-.01-5.19-.17-10.38-.43-15.58-.58-2.59-.07-5.21-.18-7.78.08-2.3.23-4.57-.04-6.85.04-6.64.21-13.28.2-19.92.31-4.25.07-8.5.21-12.75.35-3.22.11-6.43.29-9.65.41-2.27.08-4.54.1-6.81.15-.52.01-1.05-.03-1.56.06-5.76.98-11.6.96-17.4,1.31-6.12.36-12.2,1.06-18.31,1.48-5.49.38-10.97.96-16.44,1.53-5.17.54-10.33,1.16-15.49,1.77-.49.06-1.05-.03-1.47.45.25.85,1.02.56,1.5.54,2.9-.11,5.8-.35,8.71-.51,4.15-.23,8.3-.43,12.45-.63,1.35-.07,2.74.07,4.05-.18,2.89-.56,5.8-.32,8.69-.43,3.73-.14,7.45-.42,11.17-.6.62-.03,1.26-.17,1.85-.06,2.08.38,4.17.1,6.23.01,1.56-.07,3.12-.19,4.67-.08,3.75.27,7.47-.37,11.21-.27,2.28.06,4.57.03,6.85.03,4.04,0,8.09-.06,12.13.02,2.8.05,5.6.4,8.39.41,1.97.01,3.94.07,5.91.17,5.39.27,10.78.39,16.16.99,4.54.5,9.12.62,13.67,1.01,3.62.31,7.22.96,10.84,1.14,3.97.2,7.87.79,11.8,1.29,9.92,1.25,19.81,2.73,29.66,4.43,4.19.72,8.32,1.83,12.48,2.77,3.04.69,6.09,1.38,9.12,2.1,4.77,1.12,9.39,2.71,14.02,4.28.39.13.77.32,1.16.47.6.23,1.19.5,1.24,1.23.06.79-.87,2-1.65,2.03-.93.04-1.87-.06-2.79-.2-2.89-.41-5.76-.92-8.7-.9-2.31.02-4.55.36-6.72,1.2-1.55.6-3.14,1.09-4.72,1.61-.16.05-.46-.02-.54-.14-.21-.3-.02-.53.25-.73,1.36-1,2.86-1.7,4.49-2.11.61-.15,1.2-.35,1.8-.52-.05.05-.09.09-.13.14.18-.38-.21.05.19-.05.41-.14.82-.28,1.22-.42-.01,0-.14.15-.14.15l.1-.09Z"/></g></svg>